<svg xmlns="http://www.w3.org/2000/svg" width="763.281" height="285.394" viewBox="0 0 763.281 285.394"><path d="M-1293.922-71.13l5.776-115.517,59.067-.428,4.116,115.446C-1223.651-47.5-1242-35.3-1260.108-35.3-1277.952-35.3-1295.571-47.154-1293.922-71.13ZM-1179.1-40.708V-319.694h127.409c62.06,0,103.822,39.634,103.822,101.694,0,61.483-44.274,101.117-109.427,101.117h-39.827v76.175ZM-1097.12-177.4h23.007c27.258,0,43.5-13.727,43.5-40.408,0-26.488-16.243-40.215-42.923-40.215h-23.584ZM-1476.061-40.708l-41.569-159.7h-1.547l-41.565,159.7h-77.337L-1710-319.694h84.682l32.093,176.323h1.547l41.569-176.323h63.414l41.566,176.323h1.546l32.094-176.323h84.682l-71.92,278.987Zm172.5-194.754a13.646,13.646,0,0,1,.085-12.216l36.092-71.418,2.826-.021-.4,56.077a13.512,13.512,0,0,0-2.844,1.9,13.664,13.664,0,0,0-.135,19.318,13.656,13.656,0,0,0,19.314-.139,13.661,13.661,0,0,0,.139-19.318,12.836,12.836,0,0,0-2.815-1.86l.407-56.073,2.829-.021,35.069,70.9a13.667,13.667,0,0,1-.089,12.22l-15.648,35.468-59.69.428Z" transform="translate(1710.646 320.194)" fill="#fff" stroke="rgba(0,0,0,0)" stroke-width="1"/></svg>