<svg xmlns="http://www.w3.org/2000/svg" xmlns:xlink="http://www.w3.org/1999/xlink" width="152" height="152" viewBox="0 0 152 152"><defs><clipPath id="b"><rect width="152" height="152"/></clipPath></defs><g id="a" clip-path="url(#b)"><path d="M-9132.527,235H-9208V83h152V235Zm-4.125-21.27c-.3,2.652-.2,3.061.814,4.183a3.934,3.934,0,0,0,1.833,1.275c.967,0,3.208-4.081,4.532-8.212,1.526-4.8,2.444-5.713,1.985-1.99-.257,2.4-.151,3.009.815,4.183,1.271,1.632,3.056,1.835,4.378.56,1.173-1.173,3.26-5.763,3.26-7.14a2.216,2.216,0,0,1,1.12-1.734c.967-.51,1.019-.459.711.357a27.814,27.814,0,0,0-.914,3.877c-.511,2.448-.46,3.06.3,4.182.457.715,1.171,1.327,1.527,1.327.408,0,1.578-1.122,2.647-2.55a22.3,22.3,0,0,1,2.138-2.551c.1,0,.052.612-.1,1.327-.408,1.479.814,3.774,1.984,3.774.357,0,1.224-.715,1.833-1.581,1.07-1.53,1.171-1.581,1.527-.562a3.587,3.587,0,0,0,3.668,2.04c1.426-.2,3.259-3.009,4.327-6.631.662-2.3,1.171-3.061,2.242-3.519a6.021,6.021,0,0,0,1.933-1.224c.459-.562.255-.562-1.322-.1-1.479.459-1.937.459-2.088,0-.459-1.326-2.343-3.213-3.207-3.213-1.223,0-3.82,3.009-4.635,5.457-.663,2.092-3,5.917-3.411,5.56-.255-.306,1.782-6.631,2.8-8.62.611-1.275.663-1.581.052-1.938-1.578-1.021-2.394-.459-3.411,2.345a23.662,23.662,0,0,0-1.071,3.214,19.6,19.6,0,0,1-2.8,3.162l-2.8,2.806.307-1.785a8.894,8.894,0,0,1,1.73-3.367c1.986-2.346,5.042-7.5,5.4-9.181.2-1.174-.052-1.786-1.222-2.959-.918-.868-1.782-1.275-2.19-1.071a30.389,30.389,0,0,0-2.8,5.152c-1.271,2.7-2.545,4.794-2.952,4.794s-1.171-.816-1.781-1.835c-1.53-2.6-3.362-2.3-5.4.918-1.576,2.448-2.951,3.11-3.513,1.632-.2-.562-.661-.715-1.577-.51l-1.273.306.915-2.4c.611-1.682,1.223-2.448,1.784-2.4.967.1,1.068-.2.407-1.275a2.354,2.354,0,0,1,.254-2.193c.662-1.275.611-1.428-.254-1.938-1.58-.817-1.884-.664-2.854,1.529-.61,1.327-1.271,2.04-1.883,2.04-.765,0-.916-.254-.661-1.07.253-.715.1-1.276-.307-1.531-1.223-.765-1.934-.51-2.749,1.071-.713,1.376-1.018,1.529-3.36,1.529-3.158,0-3.26,1.174-.1,1.428l2.087.153-1.222,3.724c-1.223,3.621-4.075,8.824-4.583,8.365a11.563,11.563,0,0,1,.815-3.213c1.321-3.877,1.273-4.437-.356-6.07-1.223-1.223-1.325-1.529-.713-2.448.61-.969.561-1.174-.255-1.786a3.575,3.575,0,0,0-1.478-.663c-.711,0-1.781,2.193-1.781,3.724,0,1.581-.561,2.244-2.139,2.652-1.07.254-1.375.153-1.63-.663-.509-1.633-2.188-2.806-3.461-2.5-2.291.611-5.041,6.274-5.2,10.711,0,1.531.255,2.244,1.171,2.959,2.751,2.244,5.449,0,7.028-5.764.661-2.449,1.833-3.978,2.494-3.315a21.861,21.861,0,0,1-1.323,4.03c-1.527,3.876-1.58,5.2-.255,5.712.458.153,1.017-.868,1.781-3.418,1.376-4.59,3.055-8.518,3.614-8.518,1.02,0,.918,1.275-.254,4.794-1.577,4.489-1.629,5.509-.406,6.58,1.324,1.224,1.883,1.071,3.36-.816.865-1.071,1.323-1.326,1.323-.816,0,1.071,1.833,2.7,2.546,2.244a8.459,8.459,0,0,0,1.579-1.988l.967-1.582Zm-32.486-16.322a16.422,16.422,0,0,1-1.323,3.927c-.813,2.04-2.088,5.56-2.8,7.8-1.07,3.367-1.172,4.234-.66,4.743,1.476,1.428,2.037,1.021,2.9-2.04l.813-2.959,2.4-.1c4.277-.153,9.062-4.59,9.062-8.314a6.731,6.731,0,0,0-4.276-5.815c-2.6-1.174-4.43-1.174-7.841,0-3.615,1.224-4.38,2.04-3.921,4.081l.355,1.581,1.479-1.224a7.1,7.1,0,0,1,3.447-1.808A.48.48,0,0,1-9169.139,197.408Zm64.412-6.069c-.968,1.122-1.274,3.825-.51,4.693.561.713.814.51,1.782-1.429a21.515,21.515,0,0,0,1.223-2.55c0-.2-.459-.612-.968-.867a1.672,1.672,0,0,0-.8-.272A.92.92,0,0,0-9104.727,191.339Zm-98.692-57.331v46.415h142.836V87.591h-142.836Zm68.8,82.478c-.308-.255,1.273-6.427,2.342-9.232.406-1.122.713-1.326,1.121-.918s.4,1.122-.053,2.755c-.931,3-2.9,7.415-3.365,7.415A.067.067,0,0,1-9134.615,216.485Zm10.184-6.274a19.806,19.806,0,0,1,1.17-4.846c.663-1.684.918-1.99,1.07-1.224a2.719,2.719,0,0,0,.763,1.377c.663.409-.814,4.489-2.241,6.121l-1.018,1.173Zm-32.792,1.275a29.679,29.679,0,0,1,1.988-7.243c.3-.765.659-1.377.863-1.377.152,0,.152.357,0,.765a2.4,2.4,0,0,0,.307,1.734c.712,1.174-.561,5-2.14,6.427-.442.42-.693.637-.835.637C-9157.21,212.429-9157.224,212.123-9157.224,211.486Zm53.872.663c-.562-.56.152-4.488,1.477-7.65.713-1.735,1.425-2.3.916-.664a1.25,1.25,0,0,0,.256,1.327c.814.51.61,1.835-.766,4.794-.779,1.6-1.263,2.313-1.634,2.313A.348.348,0,0,1-9103.352,212.149Zm-35.338-1.734c1.579-4.9,3.564-10.967,3.718-11.273.3-.51,2.188-.459,2.188.052,0,1.275-2.393,7.293-3.665,9.13-1.058,1.6-1.931,2.582-2.212,2.582C-9138.771,210.906-9138.79,210.75-9138.689,210.415Zm-29.685-6.121a37.219,37.219,0,0,1,2.036-4.437c.766-1.327.864-1.837.408-2.4-1.021-1.224,3.258-.918,4.378.306.762.867.815,1.223.306,2.448a14.493,14.493,0,0,1-6.264,5.968l-1.934.765Zm54.686-.51c-.152-.153.459-1.99,1.376-4.131s1.73-3.571,1.831-3.214c.2.846-2.7,7.359-3.174,7.359A.044.044,0,0,1-9113.688,203.784Zm-48.625-43.764V140.127h32.585A12.758,12.758,0,0,0-9117,127.376a12.756,12.756,0,0,0-12.732-12.751h-32.585V103.4h33.1a23.749,23.749,0,0,1,9.314,1.884,23.83,23.83,0,0,1,7.606,5.137,23.881,23.881,0,0,1,5.128,7.621,23.824,23.824,0,0,1,1.882,9.331,23.829,23.829,0,0,1-1.882,9.331,23.876,23.876,0,0,1-5.128,7.62,23.814,23.814,0,0,1-7.606,5.138,23.75,23.75,0,0,1-9.314,1.885h-21.9v8.671Z" transform="translate(9208 -83.001)"/></g></svg>