<svg xmlns="http://www.w3.org/2000/svg" width="20.4" height="20.981" viewBox="0 0 20.4 20.981"><g transform="translate(0 0)" opacity="0.5"><path d="M13.627-354.937l-.314-.314a1.285,1.285,0,0,1,0-1.818l1.912-1.912H1.285A1.285,1.285,0,0,1,0-360.266v-.444A1.285,1.285,0,0,1,1.285-362H15.1l-1.783-1.783a1.285,1.285,0,0,1,0-1.818l.314-.314a1.285,1.285,0,0,1,1.818,0l4.264,4.264.314.314a1.285,1.285,0,0,1,0,1.818l-4.578,4.578a1.281,1.281,0,0,1-.909.376A1.282,1.282,0,0,1,13.627-354.937Z" transform="translate(0 375.542)" fill="#fff"/><path d="M6.772-354.937l.314-.314a1.285,1.285,0,0,0,0-1.818l-1.912-1.912H19.114a1.285,1.285,0,0,0,1.285-1.285v-.444A1.285,1.285,0,0,0,19.114-362H5.3l1.783-1.783a1.285,1.285,0,0,0,0-1.818l-.314-.314a1.285,1.285,0,0,0-1.818,0L.691-361.647l-.314.314a1.285,1.285,0,0,0,0,1.818l4.578,4.578a1.281,1.281,0,0,0,.909.376A1.282,1.282,0,0,0,6.772-354.937Z" transform="translate(0 366.287)" fill="#fff" opacity="0.5"/></g></svg>