<svg xmlns="http://www.w3.org/2000/svg" width="116.123" height="35.687" viewBox="0 0 116.123 35.687"><g transform="translate(-4 -32)" opacity="0.83"><path d="M6.7,31.668A2.231,2.231,0,0,0,7.069,32.9L8.26,34.692a2.23,2.23,0,0,0,1.857,1h4.3a2.23,2.23,0,0,0,1.857-1L17.466,32.9a2.23,2.23,0,0,0,.374-1.233l0-2.673H6.692ZM0,12.267a12.2,12.2,0,0,0,3.036,8.07,20.03,20.03,0,0,1,3.639,6.374c0,.018,0,.036.008.054H17.852c0-.018,0-.036.008-.054A20.03,20.03,0,0,1,21.5,20.337,12.265,12.265,0,1,0,0,12.267ZM12.267,6.691a5.583,5.583,0,0,0-5.576,5.576,1.115,1.115,0,1,1-2.23,0,7.815,7.815,0,0,1,7.806-7.806,1.115,1.115,0,0,1,0,2.23Z" transform="translate(4 32)" fill="#f1c40f"/><g transform="translate(43.854 38.939)" opacity="0.5"><path d="M13.627-354.937l-.314-.314a1.285,1.285,0,0,1,0-1.818l1.912-1.912H1.285A1.285,1.285,0,0,1,0-360.266v-.444A1.285,1.285,0,0,1,1.285-362H15.1l-1.783-1.783a1.285,1.285,0,0,1,0-1.818l.314-.314a1.285,1.285,0,0,1,1.818,0l4.264,4.264.314.314a1.285,1.285,0,0,1,0,1.818l-4.578,4.578a1.281,1.281,0,0,1-.909.376A1.282,1.282,0,0,1,13.627-354.937Z" transform="translate(0 375.542)" fill="#fff"/><path d="M6.772-354.937l.314-.314a1.285,1.285,0,0,0,0-1.818l-1.912-1.912H19.114a1.285,1.285,0,0,0,1.285-1.285v-.444A1.285,1.285,0,0,0,19.114-362H5.3l1.783-1.783a1.285,1.285,0,0,0,0-1.818l-.314-.314a1.285,1.285,0,0,0-1.818,0L.691-361.647l-.314.314a1.285,1.285,0,0,0,0,1.818l4.578,4.578a1.281,1.281,0,0,0,.909.376A1.282,1.282,0,0,0,6.772-354.937Z" transform="translate(0 366.287)" fill="#fff" opacity="0.5"/></g><path d="M36.814,34.407A10.893,10.893,0,0,0,21.95,35.49l-1.569,1.617L18.811,35.49A10.892,10.892,0,0,0,3.948,34.407a11.438,11.438,0,0,0-.789,16.561L18.573,66.883a2.5,2.5,0,0,0,3.608,0L37.594,50.967a11.431,11.431,0,0,0-.781-16.561Z" transform="translate(79.351 0.033)" fill="#ff4757"/></g></svg>