<svg xmlns="http://www.w3.org/2000/svg" xmlns:xlink="http://www.w3.org/1999/xlink" width="300" height="600" viewBox="0 0 300 600"><defs><filter id="a" x="-221.438" y="91.005" width="731.148" height="731.148" filterUnits="userSpaceOnUse"><feOffset dx="-39" dy="-16" input="SourceAlpha"/><feGaussianBlur stdDeviation="20" result="b"/><feFlood flood-opacity="0.161"/><feComposite operator="in" in2="b"/><feComposite in="SourceGraphic"/></filter><clipPath id="d"><rect width="300" height="600"/></clipPath></defs><g id="c" clip-path="url(#d)"><rect width="300" height="600" fill="#2b519a"/><g transform="matrix(1, 0, 0, 1, 0, 0)" filter="url(#a)"><path d="M179,0H499a0,0,0,0,1,0,0V499a0,0,0,0,1,0,0H0a0,0,0,0,1,0,0V179A179,179,0,0,1,179,0Z" transform="matrix(0.97, 0.26, -0.26, 0.97, 6.71, 167)" fill="#fff"/></g><path d="M27.958,33.82a8.273,8.273,0,0,0-11.289.823l-1.192,1.228-1.192-1.228A8.273,8.273,0,0,0,3,33.82,8.687,8.687,0,0,0,2.4,46.4L14.1,58.486a1.9,1.9,0,0,0,2.741,0L28.551,46.4a8.682,8.682,0,0,0-.593-12.578Z" transform="translate(226.012 116.033)" fill="#fff" opacity="0.36"/><path d="M7.773,38.22a3.5,3.5,0,0,1-3.5-3.5V14.07A7.776,7.776,0,0,1,4.664,0V7.126L7.774,8.681l3.11-1.555V0a7.776,7.776,0,0,1,.388,14.07V34.722A3.5,3.5,0,0,1,7.773,38.22Z" transform="translate(188 41.994) rotate(-45)" fill="#fff" opacity="0.36"/><path d="M19.039,4.972a.676.676,0,0,1,1.287,0L23.5,14.806a.676.676,0,0,0,.645.468l10.343-.02a.676.676,0,0,1,.4,1.224l-8.378,6.056a.676.676,0,0,0-.247.758l3.215,9.82a.676.676,0,0,1-1.041.757L20.08,27.78a.676.676,0,0,0-.8,0l-8.358,6.09a.676.676,0,0,1-1.041-.757l3.215-9.82a.676.676,0,0,0-.247-.758L4.475,16.479a.676.676,0,0,1,.4-1.224l10.343.02a.676.676,0,0,0,.645-.468Z" transform="translate(38.806 157.496)" fill="#fff" opacity="0.36"/><path d="M-1012.114-518.329h0l-.006,0,0,0,0,0-.007,0h0a.394.394,0,0,1-.079-.058l0,0,0,0,0,0,0,0a.382.382,0,0,1-.064-.088h0l0-.008v0l0-.006,0-.005v0l0-.009a.408.408,0,0,1-.031-.181,0,0,0,0,0,0,0s0,0,0-.005a.05.05,0,0,1,0-.007h0a.432.432,0,0,1,.019-.094l1.828-6.215a.457.457,0,0,1,.134-.211l.017-.018.879-.879,18.323-18.323a.485.485,0,0,1,.684-.02l4.315,4.315a.485.485,0,0,1-.021.684l-16.455,16.455-.013.013-2.706,2.706-.033.03c-.009.011-.02.022-.03.033a.458.458,0,0,1-.194.115l-6.224,1.831a.43.43,0,0,1-.123.018A.411.411,0,0,1-1012.114-518.329Zm1.5-3.308,1.624,1.625,3.195-.94-.455-1.592-1.614-.219-.219-1.614-1.592-.455Zm19.352-20.517-12.711,12.711a.709.709,0,0,0-.03,1,.71.71,0,0,0,1-.03l12.711-12.711a.71.71,0,0,0,.03-1,.663.663,0,0,0-.473-.192A.749.749,0,0,0-991.264-542.154Zm3.909,23.542-8.833-8.833,2.771-2.771.29.29a.307.307,0,0,0,.219.09.308.308,0,0,0,.219-.09l2.048-2.048,2.409,2.409-2.048,2.048a.31.31,0,0,0,0,.438l.657.657a.308.308,0,0,0,.219.09.309.309,0,0,0,.219-.09l2.048-2.048,2.409,2.409-2.048,2.048a.307.307,0,0,0-.091.219.308.308,0,0,0,.091.219l.657.657a.307.307,0,0,0,.219.09.309.309,0,0,0,.219-.09l2.048-2.048,1.315,1.315a.923.923,0,0,1,.272.657.924.924,0,0,1-.272.657l-3.724,3.724a.924.924,0,0,1-.658.272A.923.923,0,0,1-987.354-518.612Zm-15.428-15.428-9.1-9.1a.922.922,0,0,1-.272-.657.922.922,0,0,1,.272-.657l3.724-3.724a.922.922,0,0,1,.657-.272.922.922,0,0,1,.657.272l1.095,1.095-2.048,2.048a.31.31,0,0,0,0,.438l.657.657a.307.307,0,0,0,.219.09.308.308,0,0,0,.219-.09l2.048-2.048,2.409,2.409-2.048,2.048a.308.308,0,0,0-.091.219.308.308,0,0,0,.091.219l.657.657a.307.307,0,0,0,.219.09.309.309,0,0,0,.219-.09l2.048-2.048,2.409,2.409-2.048,2.048a.31.31,0,0,0,0,.438l.657.657a.309.309,0,0,0,.164.086l-2.81,2.81h0Zm17.715-7.206-4.315-4.315a.484.484,0,0,1,.02-.684l1.762-1.762a2.423,2.423,0,0,1,3.422-.1l1.66,1.66a2.423,2.423,0,0,1-.1,3.422l-1.762,1.762a.512.512,0,0,1-.361.152A.454.454,0,0,1-985.067-541.246Z" transform="translate(1225.339 807.768)" opacity="0.36"/></g></svg>