<svg xmlns="http://www.w3.org/2000/svg" xmlns:xlink="http://www.w3.org/1999/xlink" width="290" height="379" viewBox="0 0 290 379"><defs><clipPath id="b"><rect width="290" height="379"/></clipPath></defs><g id="a" clip-path="url(#b)"><g fill="#fff" stroke="#000" stroke-width="2"><rect width="290" height="379" rx="5" stroke="none"/><rect x="1" y="1" width="288" height="377" rx="4" fill="none"/></g><path d="M5,0H285a5,5,0,0,1,5,5V89a0,0,0,0,1,0,0H0a0,0,0,0,1,0,0V5A5,5,0,0,1,5,0Z" fill="none"/><g transform="translate(20 20)" fill="none" stroke="#000" stroke-width="2"><path d="M5,0H245a5,5,0,0,1,5,5V30a0,0,0,0,1,0,0H0a0,0,0,0,1,0,0V5A5,5,0,0,1,5,0Z" stroke="none"/><path d="M5,1H245a4,4,0,0,1,4,4V28a1,1,0,0,1-1,1H2a1,1,0,0,1-1-1V5A4,4,0,0,1,5,1Z" fill="none"/></g><g transform="translate(20 48)" fill="none" stroke="#000" stroke-width="2"><path d="M0,0H250a0,0,0,0,1,0,0V15a5,5,0,0,1-5,5H5a5,5,0,0,1-5-5V0A0,0,0,0,1,0,0Z" stroke="none"/><path d="M2,1H248a1,1,0,0,1,1,1V15a4,4,0,0,1-4,4H5a4,4,0,0,1-4-4V2A1,1,0,0,1,2,1Z" fill="none"/></g><g transform="translate(0 89)" fill="#f0f0f0" stroke="#000" stroke-width="2"><rect width="290" height="150" stroke="none"/><rect x="1" y="1" width="288" height="148" fill="none"/></g><g transform="translate(20 259)" fill="none" stroke="#000" stroke-width="2"><rect width="250" height="100" rx="5" stroke="none"/><rect x="1" y="1" width="248" height="98" rx="4" fill="none"/></g><text transform="translate(113 316)" font-size="20" font-family="SFProDisplay-Bold, SF Pro Display" font-weight="700"><tspan x="0" y="0">default</tspan></text><text transform="translate(117 171)" font-size="20" font-family="SFProDisplay-Bold, SF Pro Display" font-weight="700"><tspan x="0" y="0">media</tspan></text><text transform="translate(128 42)" font-size="20" font-family="SFProDisplay-Bold, SF Pro Display" font-weight="700"><tspan x="0" y="0">title</tspan></text></g></svg>