<svg xmlns="http://www.w3.org/2000/svg" xmlns:xlink="http://www.w3.org/1999/xlink" width="930" height="1105" viewBox="0 0 930 1105"><defs><clipPath id="b"><rect width="930" height="1105"/></clipPath></defs><g id="a" clip-path="url(#b)"><path d="M-8732,1188h-465V83h930V1188ZM-8762,1033.37c-2.232,19.283-1.486,22.253,5.926,30.409,4.816,5.187,10.741,9.269,13.333,9.269,7.038,0,23.346-29.665,32.979-59.7,11.116-34.86,17.787-41.536,14.454-14.464-1.858,17.426-1.112,21.876,5.925,30.409,9.263,11.862,22.232,13.343,31.862,4.074,8.528-8.525,23.716-41.9,23.716-51.909,0-4.819,3.7-10.014,8.15-12.607,7.041-3.706,7.416-3.338,5.183,2.593a200.87,200.87,0,0,0-6.662,28.184c-3.712,17.794-3.334,22.244,2.225,30.4,3.325,5.2,8.521,9.646,11.116,9.646,2.963,0,11.479-8.157,19.263-18.538,7.783-10.014,14.82-18.547,15.563-18.547s.366,4.451-.742,9.646c-2.962,10.75,5.934,27.439,14.45,27.439,2.592,0,8.9-5.2,13.333-11.495,7.783-11.126,8.524-11.494,11.12-4.083,3.7,9.646,15.934,16.313,26.683,14.832,10.375-1.481,23.713-21.876,31.487-48.2,4.817-16.689,8.529-22.253,16.312-25.582,5.559-2.225,11.854-6.308,14.075-8.9,3.338-4.083,1.854-4.083-9.629-.745-10.75,3.338-14.087,3.338-15.2,0-3.337-9.637-17.05-23.357-23.342-23.357-8.891,0-27.795,21.876-33.72,39.67-4.816,15.209-21.862,43.016-24.82,40.423-1.854-2.225,12.967-48.2,20.371-62.667,4.449-9.269,4.824-11.494.378-14.088-11.487-7.42-17.42-3.338-24.828,17.049-4.445,11.5-7.783,21.885-7.783,23.365s-9.262,11.862-20.379,22.989l-20.379,20.4,2.226-12.975c1.486-7.052,7.037-18.17,12.6-24.478,14.453-17.057,36.69-54.51,39.278-66.741,1.479-8.533-.375-12.984-8.892-21.508-6.675-6.308-12.967-9.269-15.934-7.788-2.225,1.481-11.487,18.538-20.383,37.453-9.258,19.651-18.521,34.851-21.487,34.851s-8.521-5.931-12.966-13.343c-11.121-18.915-24.458-16.689-39.282,6.676-11.476,17.794-21.479,22.612-25.562,11.862-1.479-4.083-4.812-5.2-11.483-3.706l-9.263,2.225,6.671-17.434c4.446-12.23,8.9-17.794,12.967-17.426,7.037.745,7.783-1.481,2.959-9.269-2.218-3.706-1.479-9.269,1.854-15.945,4.824-9.269,4.45-10.382-1.854-14.088-11.479-5.94-13.7-4.827-20.75,11.118-4.446,9.646-9.263,14.832-13.708,14.832-5.559,0-6.663-1.849-4.812-7.78,1.854-5.2.741-9.278-2.226-11.126-8.9-5.563-14.075-3.706-20,7.788-5.191,10.005-7.412,11.118-24.457,11.118-22.971,0-23.717,8.533-.738,10.382l15.188,1.113-8.892,27.071c-8.9,26.327-29.645,64.148-33.345,60.81-.746-1.113,1.857-11.494,5.929-23.357,9.625-28.184,9.259-32.258-2.592-44.129-8.9-8.893-9.641-11.118-5.191-17.794,4.445-7.044,4.075-8.533-1.851-12.984-3.7-2.593-8.524-4.819-10.749-4.819-5.184,0-12.967,15.945-12.967,27.071,0,11.494-4.079,16.313-15.562,19.283-7.783,1.849-10.009,1.113-11.854-4.819-3.712-11.871-15.929-20.4-25.2-18.17-16.675,4.442-36.679,45.609-37.8,77.867,0,11.126,1.854,16.313,8.524,21.508,20.012,16.313,39.649,0,51.137-41.9,4.813-17.8,13.337-28.92,18.153-24.1.734.736-3.712,13.72-9.637,29.3-11.108,28.175-11.487,37.821-1.847,41.527,3.334,1.113,7.4-6.308,12.963-24.846,10.008-33.37,22.236-61.922,26.308-61.922,7.412,0,6.671,9.269-1.857,34.851-11.483,32.634-11.854,40.046-2.959,47.835,9.641,8.9,13.708,7.788,24.462-5.931,6.3-7.788,9.625-9.637,9.625-5.931,0,7.788,13.333,19.651,18.528,16.313,2.222-1.481,7.413-7.788,11.483-14.456l7.038-11.5Zm-236.4-118.658c.745.745-3.338,13.72-9.63,28.552-5.925,14.832-15.187,40.423-20.383,56.736-7.779,24.478-8.524,30.777-4.809,34.483,10.738,10.382,14.82,7.42,21.112-14.832l5.926-21.508,17.424-.736c31.12-1.113,65.945-33.37,65.945-60.442,0-17.058-12.222-33.747-31.125-42.271s-32.232-8.533-57.057,0c-26.309,8.9-31.866,14.832-28.529,29.665l2.588,11.494,10.754-8.9c8.755-7.556,19.727-13.144,25.09-13.143A3.479,3.479,0,0,1-8998.4,914.712Zm468.708-44.12c-7.038,8.156-9.263,27.807-3.7,34.115,4.07,5.187,5.929,3.706,12.966-10.39,4.824-8.893,8.525-17.049,8.9-18.538,0-1.481-3.337-4.45-7.037-6.3a12.173,12.173,0,0,0-5.8-1.981C-8526.405,867.5-8528.045,868.529-8529.7,870.592Zm-633.964-416.784V791.235h863.317V116.371h-863.317Zm416.476,599.59c-2.232-1.857,9.262-46.722,17.033-67.118,2.967-8.157,5.191-9.637,8.162-6.676s2.958,8.156-.379,20.027c-6.78,21.794-21.136,53.907-24.485,53.907A.454.454,0,0,1-8747.184,1053.4Zm74.1-45.609c.734-10.014,4.816-25.959,8.517-35.228,4.817-12.239,6.675-14.464,7.783-8.9,1.1,4.082,3.338,8.533,5.551,10.014,4.824,2.97-5.925,32.635-16.3,44.5l-7.408,8.525Zm-238.62,9.269c0-8.9,6.671-32.258,14.454-52.653,2.225-5.563,4.816-10.014,6.3-10.014,1.108,0,1.108,2.593,0,5.563-1.117,3.338,0,8.9,2.221,12.607,5.191,8.533-4.071,36.34-15.555,46.722-3.22,3.051-5.051,4.629-6.081,4.629C-8911.592,1023.912-8911.7,1021.685-8911.7,1017.057Zm392.014,4.819c-4.083-4.074,1.112-32.626,10.737-55.615,5.2-12.616,10.375-16.689,6.675-4.827-1.116,4.083-.371,8.156,1.854,9.646,5.93,3.706,4.45,13.343-5.562,34.851-5.672,11.665-9.185,16.817-11.886,16.817A2.549,2.549,0,0,1-8519.687,1021.876Zm-257.138-12.607c11.476-35.6,25.93-79.725,27.042-81.95,2.221-3.706,15.933-3.338,15.933.377,0,9.269-17.412,53.021-26.675,66.373-7.682,11.656-14.036,18.772-16.089,18.772C-8777.434,1012.84-8777.566,1011.7-8776.825,1009.269Zm-216.021-44.5c4.083-10.75,10.742-25.214,14.82-32.258,5.563-9.646,6.3-13.352,2.971-17.426-7.416-8.9,23.7-6.676,31.862,2.225,5.55,6.3,5.929,8.893,2.217,17.794-6.292,14.832-28.9,36.34-45.574,43.384l-14.075,5.563Zm397.938-3.706c-1.108-1.113,3.338-14.464,10.008-30.033s12.6-25.958,13.33-23.365c1.452,6.148-19.634,53.5-23.1,53.5A.321.321,0,0,1-8594.907,961.066Zm-353.84-318.153V498.3h81.516v.009h155.614a92.783,92.783,0,0,0,92.639-92.708,92.77,92.77,0,0,0-92.639-92.7h-237.13V231.324h240.842a172.888,172.888,0,0,1,67.775,13.694,173.45,173.45,0,0,1,55.359,37.342,173.646,173.646,0,0,1,37.323,55.4,173.289,173.289,0,0,1,13.681,67.836,173.321,173.321,0,0,1-13.681,67.836,173.609,173.609,0,0,1-37.323,55.392,173.337,173.337,0,0,1-55.359,37.35,172.9,172.9,0,0,1-67.775,13.7h-159.326v63.035Z" transform="translate(9197 -83.001)"/></g></svg>