<svg xmlns="http://www.w3.org/2000/svg" xmlns:xlink="http://www.w3.org/1999/xlink" width="100" height="100" viewBox="0 0 100 100"><defs><clipPath id="b"><rect width="100" height="100"/></clipPath></defs><g id="a" clip-path="url(#b)"><path d="M-5698.249-478.816c-2.092,0-4.179,0-5.726,0h0a4.514,4.514,0,0,1-3.34-1.212,4.857,4.857,0,0,1-1.251-3.121h-42.856a4.862,4.862,0,0,1-1.253,3.121,4.509,4.509,0,0,1-3.339,1.212h-.006c-1.546,0-3.632,0-5.726,0l-8.405,0c-.037,0-3.807-.285-4.89-2.341-1.066-2.024-.815-5.368-.8-5.51a11.346,11.346,0,0,1-3.139-4.49c-1.1-2.864-1.008-8.833-1.007-8.893v-15.663c.008-.06.892-6.02,3.762-8.356,2.891-2.355,3.134-3.028,3.136-3.034l-3.136-1.55c-.073-.057-1.752-1.412-1.752-2.339,0-.956,3.794-5.257,5.585-5.656a14.063,14.063,0,0,1,3.269-.487c.318,0,.658.016,1.04.048,1.655.14,2.362,2.457,2.371,2.481l8.023-15.015a5.642,5.642,0,0,1,1.048-1.6,6.59,6.59,0,0,1,3.864-2.064,103.594,103.594,0,0,1,11.26-.719h23.055a103.647,103.647,0,0,1,11.261.719,6.6,6.6,0,0,1,3.864,2.064,5.723,5.723,0,0,1,1.048,1.6l8.024,15.015c.006-.024.713-2.341,2.369-2.481.383-.032.724-.048,1.042-.048a14.055,14.055,0,0,1,3.268.487c1.792.4,5.586,4.7,5.586,5.656,0,.927-1.681,2.282-1.752,2.339l-3.137,1.55c0,.006.247.679,3.137,3.034,2.869,2.336,3.752,8.3,3.762,8.356v15.663c0,.06.094,6.03-1.008,8.893a11.366,11.366,0,0,1-3.137,4.49c.011.142.261,3.486-.8,5.51-1.083,2.056-4.853,2.338-4.892,2.341Zm-16.217-12.4s.191.019.472.019c.8,0,2.66-.169,2.66-1.732,0-2.053-2.2-5.542-2.6-5.887a5.173,5.173,0,0,0-3.184-.948h-25.757a5.168,5.168,0,0,0-3.182.948c-.406.345-2.606,3.834-2.606,5.887,0,1.563,1.86,1.732,2.662,1.732.28,0,.471-.019.472-.019h31.067Zm24.206-10.55c-.547.064-1.113.129-1.729.153a41.873,41.873,0,0,0-4.578.59c-1.922.31-4.1.661-6.528.884-3.693.337-4.113.782-4.45,1.138a1.288,1.288,0,0,1-.349.286c-.69.367-1.059.814-.378,3.935.644,2.945,3.563,3.563,5.9,3.563.092,0,.185,0,.275,0a18.946,18.946,0,0,0,3.47-.407c.9-.164,2.031-.369,3.742-.59,3.652-.472,5.575-2.49,7.12-4.112l0-.006c.164-.17.316-.331.471-.488,1.67-1.711,1.508-2.387.569-4.028a2.054,2.054,0,0,0-2.031-1.038A13.529,13.529,0,0,0-5690.26-501.768Zm-83.019.916c-.938,1.641-1.1,2.317.571,4.028.153.157.307.318.469.488l0,.006c1.545,1.622,3.468,3.64,7.122,4.112,1.709.221,2.837.426,3.742.59a18.916,18.916,0,0,0,3.469.407c.09,0,.181,0,.275,0,2.334,0,5.254-.619,5.9-3.563.682-3.121.312-3.568-.378-3.935a1.269,1.269,0,0,1-.347-.286c-.339-.356-.759-.8-4.452-1.138-2.425-.223-4.605-.574-6.528-.884a41.876,41.876,0,0,0-4.576-.59c-.618-.024-1.183-.089-1.73-.153a13.547,13.547,0,0,0-1.507-.122A2.054,2.054,0,0,0-5773.279-500.852Zm52.449-4.222c3.271,0,5.171-.037,5.651-.107.326-.049.787-.107,1.323-.175a40.262,40.262,0,0,0,7.555-1.434c2.274-.876,5.469-2.315,5.6-2.421l1.86-1.529c1.571,2.016,3.934,2.076,6.484,2.076a8.23,8.23,0,0,0,8.221-8.221,8.23,8.23,0,0,0-8.221-8.221,8.231,8.231,0,0,0-8.222,8.221c0,.342.021,1.78.062,2.111.585,2.92-3.767,4.169-5.218,5.335-2.387,1.916-11.066,2.415-11.153,2.42h-26.23c-.087,0-8.768-.5-11.153-2.42-1.453-1.166-5.408-1.525-5.219-5.335.04-.331.061-1.769.061-2.111a8.23,8.23,0,0,0-8.222-8.221,8.23,8.23,0,0,0-8.22,8.221,8.23,8.23,0,0,0,8.22,8.221c2.55,0,4.915-.06,6.484-2.076l1.86,1.529c.135.107,3.331,1.545,5.6,2.421a40.248,40.248,0,0,0,7.553,1.434c.536.068,1,.126,1.325.175.479.07,2.381.107,5.65.107,2.719,0,5.931-.025,8.5-.05v-.014l.672.007.672-.007v.014C-5726.76-505.1-5723.549-505.074-5720.83-505.074Zm14.706-27.647a30.128,30.128,0,0,1,4.927.619,7.758,7.758,0,0,0,1.567.219h.043a.8.8,0,0,0,.722-.32c.372-.563-.1-1.679-.1-1.7-.256-.561-6.276-13.78-7.375-14.524-.964-.652-3.8-1.28-7.595-1.682-2.137-.226-4.54-.259-5.781-.259-.6,0-.97.008-.972.008h-18.617s-.37-.008-.971-.008c-1.244,0-3.646.033-5.782.259-3.792.4-6.631,1.03-7.594,1.682-1.1.744-7.121,13.963-7.375,14.524-.007.016-.477,1.132-.1,1.7a.8.8,0,0,0,.722.32h.042a7.763,7.763,0,0,0,1.566-.219,30.12,30.12,0,0,1,4.928-.619c1.4-.089,2.9-.132,4.586-.132,1.6,0,3.167.04,4.549.073,1.206.03,2.346.059,3.36.059h22.761c1.014,0,2.153-.029,3.358-.059,1.383-.033,2.951-.073,4.551-.073C-5709.021-532.853-5707.521-532.81-5706.125-532.721Z" transform="translate(5780 566)"/></g></svg>