<svg xmlns="http://www.w3.org/2000/svg" xmlns:xlink="http://www.w3.org/1999/xlink" width="100" height="100" viewBox="0 0 100 100"><defs><clipPath id="b"><rect width="100" height="100"/></clipPath></defs><g id="a" clip-path="url(#b)"><path d="M-4203-1519.236a2.671,2.671,0,0,1-2.668-2.667v-2.667a2.671,2.671,0,0,1,2.668-2.667h14.065a4.375,4.375,0,0,0,4.371,4.285,4.374,4.374,0,0,0,4.371-4.285h6.525a2.671,2.671,0,0,1,2.667,2.667v2.667a2.67,2.67,0,0,1-2.667,2.667Zm-66.5-.666a1.5,1.5,0,0,1-1.5-1.5v-9a1.5,1.5,0,0,1,1.5-1.5h5.193l4.358-3.534a11.03,11.03,0,0,1,5.685-2.393,4.386,4.386,0,0,0,4.366,4.212,4.376,4.376,0,0,0,4.371-4.285H-4238a3.011,3.011,0,0,1,2.3,1.062,3.017,3.017,0,0,1,.667,2.444,3.119,3.119,0,0,1-3.122,2.494h-7.34a1.5,1.5,0,0,0-1.5,1.5,1.5,1.5,0,0,0,1.5,1.5h11.091a6,6,0,0,0,3.75-1.312l8.662-6.929a3.286,3.286,0,0,1,2.056-.727,2.872,2.872,0,0,1,1.938.727,3.02,3.02,0,0,1,1,2.333,2.994,2.994,0,0,1-1.126,2.252l-14.175,11.343a6.03,6.03,0,0,1-3.751,1.313Zm41.72-21.157a4.671,4.671,0,0,1-4.242-5.056,4.672,4.672,0,0,1,5.055-4.242l41.841,3.66-.1,1.162-41.718-3.649a3.505,3.505,0,0,0-3.792,3.182,3.5,3.5,0,0,0,3.182,3.793l41.717,3.648h0l-.1,1.16Zm-19.937-10.833,41.718-3.652a3.5,3.5,0,0,0,3.183-3.792,3.505,3.505,0,0,0-3.791-3.181l-41.718,3.65-.1-1.163,41.841-3.66a4.673,4.673,0,0,1,5.057,4.243,4.673,4.673,0,0,1-4.244,5.055l-41.84,3.66Z" transform="translate(4271 1591.708)"/><path d="M-4205.668-1528.765c0-2.261,3.948-4.388,2.986-6.341.183-.613,2.047.773,3.1,2.418.959,2.164,1.073,1.651,1.073,3.923a3.6,3.6,0,0,1-3.579,3.621A3.6,3.6,0,0,1-4205.668-1528.765Zm1.3.043a2.281,2.281,0,0,0,2.277,2.278.325.325,0,0,0,.326-.326.326.326,0,0,0-.326-.326,1.629,1.629,0,0,1-1.627-1.626.326.326,0,0,0-.324-.326A.326.326,0,0,0-4204.365-1528.722Zm-66.635-10.71c0-2.261,3.947-4.388,2.985-6.341.183-.613,2.047.773,3.1,2.418.959,2.164,1.073,1.651,1.073,3.923a3.6,3.6,0,0,1-3.578,3.623A3.6,3.6,0,0,1-4271-1539.433Zm1.3.043a2.28,2.28,0,0,0,2.278,2.278.325.325,0,0,0,.324-.326.324.324,0,0,0-.324-.324,1.63,1.63,0,0,1-1.628-1.628.325.325,0,0,0-.324-.324A.325.325,0,0,0-4269.7-1539.39Zm25.82-3.514-3.181-.6-1.389-1.515v-2l.3-1.959,1.443-1.291,1.918-.4,2.621.256,3.32,1.138s6.445,2.431,12.288,4.169,4.087,1.864,12.026,2.8,10.916,2.811,10.916,2.811Zm-10.2-12.737c7.938-.933,6.184-1.058,12.027-2.8s12.288-4.17,12.288-4.17l3.32-1.138,2.621-.254,1.916.4,1.445,1.292.3,1.958v2l-1.387,1.515-3.181.594-40.27,3.41S-4262.015-1554.706-4254.077-1555.641Z" transform="translate(4288.525 1592.781)" opacity="0.5"/></g></svg>