<svg xmlns="http://www.w3.org/2000/svg" xmlns:xlink="http://www.w3.org/1999/xlink" width="100" height="100" viewBox="0 0 100 100"><defs><clipPath id="b"><rect width="100" height="100"/></clipPath></defs><g id="a" clip-path="url(#b)"><path d="M-4441.238-1464.381a3.254,3.254,0,0,1-2-.679,3.394,3.394,0,0,1-1.281-2.4l-.319-5.078c-.1-1.927-.259-4.148-.375-5.769l-.036-.51-.031-.437h-4.122c-.179,0-.378.01-.57.019-.208.01-.424.021-.631.021-.53.016-1.009.03-1.5.03-2.157,0-4.625-.241-6.581-2.029a8.46,8.46,0,0,1-2.441-5.476c0-.016-.279-1.842-.664-4.37l-.09-.589c-.7-4.6-1.493-9.79-2.01-13.23a1.888,1.888,0,0,1-.254-.108l-.026-.012c-.459-.216-.961-.434-1.446-.646-.24-.1-.48-.209-.716-.314a14.752,14.752,0,0,1-2.4-1.239l-.078-.052a3.862,3.862,0,0,1-1.964-4.666,8.485,8.485,0,0,1,1.44-2.519c.272-.325.952-.984,1.982-1.983l.017-.016.037-.036c.482-.467,1.028-1,1.648-1.6.73-.689,1.4-1.358,1.761-1.718a8.255,8.255,0,0,0,2.522-3.638v-3.078a37.4,37.4,0,0,1,3.362-15.472,37.383,37.383,0,0,1,13.87-16.05,37.568,37.568,0,0,1,20.355-5.977h.641a37.348,37.348,0,0,1,25.933,10.9,36.951,36.951,0,0,1,10.894,25.8,36.914,36.914,0,0,1-3.042,15.551,67.458,67.458,0,0,0-5.724,26.743v7.556a4.815,4.815,0,0,1-3.883,4.716l-41.63,8.276A3.623,3.623,0,0,1-4441.238-1464.381Zm19.267-66.821a1.719,1.719,0,0,0-.845.223,1.72,1.72,0,0,0-.875,1.081l-5.065,19.51a2.016,2.016,0,0,0-.088.619,1.75,1.75,0,0,0,.327,1.015,1.6,1.6,0,0,0,.982.662,3.6,3.6,0,0,0,.655.067,1.573,1.573,0,0,0,1.661-1.391l5.066-19.4a1.914,1.914,0,0,0-.154-1.435,1.712,1.712,0,0,0-1.091-.86A1.973,1.973,0,0,0-4421.971-1531.2Zm-3.489-21.163a12.773,12.773,0,0,0-8.21,2.891,12.934,12.934,0,0,0-4.608,7.417,10.577,10.577,0,0,0-5.984,3.841,10.905,10.905,0,0,0-2.27,6.774,10.808,10.808,0,0,0,2.161,6.578,10.782,10.782,0,0,0,5.634,3.948l-1.442,3.729a.428.428,0,0,0,.041.359.353.353,0,0,0,.289.106h4.629l-2.118,7.747h.632l8.539-10.9a.271.271,0,0,0,.022-.332.35.35,0,0,0-.33-.155h-4.76l5.418-10.216a.389.389,0,0,0,.041-.367.362.362,0,0,0-.327-.121h-6.463a.628.628,0,0,0-.5.311l-2.336,6.355a6.968,6.968,0,0,1-3.887-2.581,7.08,7.08,0,0,1-1.531-4.437,6.829,6.829,0,0,1,1.856-4.788,7.218,7.218,0,0,1,4.587-2.362l1.135-.176c.286,0,.437-.13.437-.375l.153-1.148a9.136,9.136,0,0,1,2.993-6,8.98,8.98,0,0,1,6.224-2.426,9.063,9.063,0,0,1,6.224,2.426,9.194,9.194,0,0,1,3.079,5.982l.153,1.3a.343.343,0,0,0,.392.376h3.54a6.97,6.97,0,0,1,5.088,2.1,6.844,6.844,0,0,1,2.117,5.054,6.851,6.851,0,0,1-1.964,4.878,7.3,7.3,0,0,1-4.806,2.3c-.269,0-.417.133-.417.375v3.045c0,.268.137.4.417.4a10.525,10.525,0,0,0,5.263-1.589,10.8,10.8,0,0,0,3.777-3.973,11.026,11.026,0,0,0,1.376-5.407,10.718,10.718,0,0,0-1.442-5.406.109.109,0,0,1,.015-.016,17.067,17.067,0,0,0-2.341-2.931l-.009.009a10.446,10.446,0,0,0-7.034-2.6h-.7a12.376,12.376,0,0,0-3.936-6.659c-.166-.125-.3-.236-.412-.33a11.856,11.856,0,0,0-3.252-1.952l-.009-.059A14.984,14.984,0,0,0-4425.46-1552.365Zm7.063,37.628a1.971,1.971,0,0,1,.318.023,2.389,2.389,0,0,0,.35.022,1.544,1.544,0,0,0,1.573-1.391l3.276-12.735a1.855,1.855,0,0,0-.175-1.457,1.75,1.75,0,0,0-1.113-.838,2,2,0,0,0-.575-.09,1.728,1.728,0,0,0-.846.223,1.685,1.685,0,0,0-.851,1.1l-3.275,12.844c0,.079,0,.153-.007.219,0,.027,0,.054,0,.08v.047c-.005.093-.011.173-.011.251a1.746,1.746,0,0,0,.33,1.015,1.784,1.784,0,0,0,1.006.683Z" transform="translate(4478.999 1564)"/></g></svg>