<svg xmlns="http://www.w3.org/2000/svg" xmlns:xlink="http://www.w3.org/1999/xlink" width="100" height="100" viewBox="0 0 100 100"><defs><clipPath id="b"><rect width="100" height="100"/></clipPath></defs><g id="a" clip-path="url(#b)"><path d="M-3780.861-1845.644l-1.375-2.277a1.719,1.719,0,0,0-1.482-.838,1.72,1.72,0,0,0-1.483.838l-1.374,2.277a1.685,1.685,0,0,1-1.469.839,1.724,1.724,0,0,1-1.731-1.517l-.339-2.66a1.737,1.737,0,0,0-1.722-1.517,1.717,1.717,0,0,0-.985.313l-2.181,1.522a1.726,1.726,0,0,1-.986.318,1.762,1.762,0,0,1-1.4-.716,1.679,1.679,0,0,1-.259-1.521l.776-2.593a1.717,1.717,0,0,0-.27-1.529,1.735,1.735,0,0,0-1.384-.7,1.783,1.783,0,0,0-.332.031l-2.627.5a1.791,1.791,0,0,1-.344.034,1.71,1.71,0,0,1-1.557-1.015,1.693,1.693,0,0,1,.261-1.849l1.768-2.065a1.724,1.724,0,0,0,.332-1.665,1.723,1.723,0,0,0-1.248-1.149l-2.629-.623a1.694,1.694,0,0,1-1.32-1.5,1.693,1.693,0,0,1,.979-1.749l2.448-1.163a1.72,1.72,0,0,0,.98-1.385,1.722,1.722,0,0,0-.671-1.558l-2.157-1.652a1.7,1.7,0,0,1-.592-1.915,1.692,1.692,0,0,1,1.607-1.2l2.686-.06a1.72,1.72,0,0,0,1.461-.864,1.721,1.721,0,0,0,.021-1.7l-1.3-2.383a1.687,1.687,0,0,1,.025-1.705,1.744,1.744,0,0,1,1.483-.864,1.745,1.745,0,0,1,.687.143l2.455,1.035a1.733,1.733,0,0,0,.674.138,1.746,1.746,0,0,0,1.276-.565,1.713,1.713,0,0,0,.446-1.314l-.218-2.683a1.7,1.7,0,0,1,.437-1.308,1.777,1.777,0,0,1,1.3-.572,1.7,1.7,0,0,1,1.249.552l1.814,1.941a1.707,1.707,0,0,0,1.259.55,1.718,1.718,0,0,0,1.642-1.164l.875-2.523a1.712,1.712,0,0,1,1.636-1.163,1.712,1.712,0,0,1,1.636,1.163l.877,2.523a1.715,1.715,0,0,0,1.641,1.164,1.706,1.706,0,0,0,1.259-.55l1.814-1.941a1.7,1.7,0,0,1,1.248-.552,1.776,1.776,0,0,1,1.3.572,1.693,1.693,0,0,1,.438,1.308l-.22,2.683a1.71,1.71,0,0,0,.45,1.315,1.745,1.745,0,0,0,1.276.564,1.742,1.742,0,0,0,.674-.138l2.455-1.035a1.73,1.73,0,0,1,.684-.143,1.746,1.746,0,0,1,1.484.864,1.686,1.686,0,0,1,.023,1.705l-1.3,2.383a1.724,1.724,0,0,0,.023,1.7,1.717,1.717,0,0,0,1.458.863l2.687.06a1.692,1.692,0,0,1,1.607,1.2,1.7,1.7,0,0,1-.595,1.915l-2.157,1.652a1.721,1.721,0,0,0-.669,1.558,1.721,1.721,0,0,0,.98,1.385l2.447,1.163a1.713,1.713,0,0,1,.979,1.749,1.694,1.694,0,0,1-1.323,1.5l-2.625.623a1.719,1.719,0,0,0-1.248,1.148,1.726,1.726,0,0,0,.332,1.666l1.765,2.065a1.692,1.692,0,0,1,.262,1.848,1.709,1.709,0,0,1-1.557,1.017,1.8,1.8,0,0,1-.344-.034l-2.627-.5a1.772,1.772,0,0,0-.332-.031,1.738,1.738,0,0,0-1.384.7,1.714,1.714,0,0,0-.268,1.53l.773,2.593a1.684,1.684,0,0,1-.258,1.521,1.766,1.766,0,0,1-1.4.716,1.722,1.722,0,0,1-.984-.318l-2.182-1.522a1.712,1.712,0,0,0-.984-.313,1.742,1.742,0,0,0-1.725,1.517l-.335,2.66a1.728,1.728,0,0,1-1.732,1.517A1.682,1.682,0,0,1-3780.861-1845.644Zm-11.519-21.678a8.67,8.67,0,0,0,8.66,8.661,8.67,8.67,0,0,0,8.661-8.661,8.67,8.67,0,0,0-8.661-8.66A8.67,8.67,0,0,0-3792.38-1867.322Zm-29.048-2.593-1.061-1.758a1.323,1.323,0,0,0-1.143-.646,1.323,1.323,0,0,0-1.143.646l-1.06,1.758a1.3,1.3,0,0,1-1.133.646,1.332,1.332,0,0,1-1.337-1.17l-.261-2.052a1.341,1.341,0,0,0-1.328-1.169,1.318,1.318,0,0,0-.759.242l-1.683,1.173a1.328,1.328,0,0,1-.758.246,1.366,1.366,0,0,1-1.085-.552,1.3,1.3,0,0,1-.2-1.174l.6-2a1.327,1.327,0,0,0-.208-1.18,1.34,1.34,0,0,0-1.067-.541,1.372,1.372,0,0,0-.256.025l-2.027.386a1.384,1.384,0,0,1-.266.026,1.318,1.318,0,0,1-1.2-.783,1.306,1.306,0,0,1,.2-1.426l1.363-1.594a1.321,1.321,0,0,0,.255-1.283,1.329,1.329,0,0,0-.962-.886l-2.027-.48a1.306,1.306,0,0,1-1.019-1.16,1.307,1.307,0,0,1,.756-1.349l1.888-.9a1.33,1.33,0,0,0,.756-1.069,1.329,1.329,0,0,0-.518-1.2l-1.665-1.273a1.311,1.311,0,0,1-.457-1.477,1.306,1.306,0,0,1,1.24-.922l2.071-.046a1.321,1.321,0,0,0,1.126-.667,1.324,1.324,0,0,0,.018-1.311l-1-1.838a1.3,1.3,0,0,1,.02-1.314,1.344,1.344,0,0,1,1.145-.666,1.367,1.367,0,0,1,.527.109l1.894.8a1.329,1.329,0,0,0,.52.107,1.344,1.344,0,0,0,.984-.436,1.315,1.315,0,0,0,.345-1.013l-.168-2.07a1.306,1.306,0,0,1,.337-1.009,1.369,1.369,0,0,1,1.005-.441,1.316,1.316,0,0,1,.963.426l1.4,1.5a1.311,1.311,0,0,0,.969.424,1.324,1.324,0,0,0,1.267-.9l.675-1.945a1.32,1.32,0,0,1,1.262-.9,1.318,1.318,0,0,1,1.261.9l.676,1.945a1.323,1.323,0,0,0,1.266.9,1.316,1.316,0,0,0,.971-.424l1.4-1.5a1.316,1.316,0,0,1,.962-.426,1.369,1.369,0,0,1,1.005.441,1.309,1.309,0,0,1,.339,1.009l-.17,2.07a1.323,1.323,0,0,0,.346,1.014,1.344,1.344,0,0,0,.984.434,1.329,1.329,0,0,0,.52-.107l1.893-.8a1.375,1.375,0,0,1,.528-.109,1.346,1.346,0,0,1,1.145.666,1.3,1.3,0,0,1,.019,1.314l-1,1.838a1.333,1.333,0,0,0,.018,1.312,1.326,1.326,0,0,0,1.125.665l2.073.046a1.305,1.305,0,0,1,1.24.922,1.31,1.31,0,0,1-.459,1.477l-1.663,1.273a1.328,1.328,0,0,0-.517,1.2,1.328,1.328,0,0,0,.756,1.069l1.887.9a1.323,1.323,0,0,1,.756,1.35,1.308,1.308,0,0,1-1.021,1.159l-2.025.48a1.327,1.327,0,0,0-.962.886,1.328,1.328,0,0,0,.256,1.283l1.361,1.594a1.3,1.3,0,0,1,.2,1.425,1.315,1.315,0,0,1-1.2.784,1.38,1.38,0,0,1-.264-.026l-2.027-.386a1.372,1.372,0,0,0-.256-.025,1.338,1.338,0,0,0-1.067.541,1.327,1.327,0,0,0-.208,1.18l.6,2a1.3,1.3,0,0,1-.2,1.174,1.364,1.364,0,0,1-1.084.552,1.334,1.334,0,0,1-.76-.246l-1.682-1.173a1.315,1.315,0,0,0-.759-.242,1.344,1.344,0,0,0-1.331,1.169l-.258,2.052a1.333,1.333,0,0,1-1.337,1.17A1.3,1.3,0,0,1-3821.428-1869.915Zm-8.885-16.72a6.688,6.688,0,0,0,6.68,6.679,6.688,6.688,0,0,0,6.68-6.679,6.688,6.688,0,0,0-6.68-6.68A6.688,6.688,0,0,0-3830.313-1886.634Z" transform="translate(3861.201 1926.491)" opacity="0.5"/><path d="M-3772.149-1833.4h0l-19.036-10.946c-.395-.023-9.552-.566-11.043-1.313a9,9,0,0,0-3.6-.583,22.919,22.919,0,0,0-8.7,1.9c-5.757,2.445-10.893,8.49-10.944,8.551l-4.312-.046-10.219-.273c.021-.039.668-1.2,1.565-2.8,2.245-4.013,6-10.73,6.7-11.963.143-.251.26-.469.354-.643.621-1.149.732-1.356,3.353-3.293a27.8,27.8,0,0,1,4.241-2.693c.929-.507,2.2-1.2,4.234-2.375a17.541,17.541,0,0,1,8.662-2.125,21.271,21.271,0,0,1,2.934.2l.16,1.259a1.527,1.527,0,0,0,1.534,1.343,1.492,1.492,0,0,0,1.3-.742l1.217-2.018a1.52,1.52,0,0,1,1.314-.741,1.521,1.521,0,0,1,1.312.741l1.218,2.018a1.491,1.491,0,0,0,1.3.742,1.529,1.529,0,0,0,1.534-1.343l.3-2.355a1.542,1.542,0,0,1,1.527-1.344,1.524,1.524,0,0,1,.873.277l1.931,1.349a1.527,1.527,0,0,0,.872.281,1.566,1.566,0,0,0,1.245-.634,1.49,1.49,0,0,0,.229-1.347l-.684-2.3a1.524,1.524,0,0,1,.237-1.355,1.537,1.537,0,0,1,1.225-.62,1.478,1.478,0,0,1,.294.029l2.327.443a1.592,1.592,0,0,0,.305.03,1.511,1.511,0,0,0,1.377-.9,1.5,1.5,0,0,0-.231-1.638l-1.564-1.829a1.531,1.531,0,0,1-.293-1.474,1.52,1.52,0,0,1,1.105-1.017l2.325-.552a1.5,1.5,0,0,0,1.172-1.33,1.521,1.521,0,0,0-.867-1.551l-2.168-1.03a1.526,1.526,0,0,1-.869-1.226,1.529,1.529,0,0,1,.593-1.38l1.909-1.461a1.506,1.506,0,0,0,.528-1.7,1.5,1.5,0,0,0-1.425-1.058l-2.38-.052a1.527,1.527,0,0,1-.76-.22l.135-1.124v-2.186l.462-.85a1.492,1.492,0,0,0-.021-1.51,1.574,1.574,0,0,0-.441-.482v-10.793c2.795.086,4.746.794,5.8,2.1a3.722,3.722,0,0,1,.791,2.759l.2,21.094,1.585,1.263a1.864,1.864,0,0,0-1.084.844,1.786,1.786,0,0,0-.027,1.8l1.374,2.519a1.863,1.863,0,0,1,.182.484l-.632,1.815a1.809,1.809,0,0,1-1.117.409l-2.839.063a1.791,1.791,0,0,0-1.7,1.263,1.8,1.8,0,0,0,.627,2.026l2.28,1.746a1.839,1.839,0,0,1,.574.736l-.811,2.328c-.03.016-.06.032-.091.046l-2.587,1.228a1.791,1.791,0,0,0-1.035,1.849,1.786,1.786,0,0,0,1.4,1.591l.624.148-1.2,3.44s.9,1.026,2.292,2.443a1.783,1.783,0,0,0-.115,1.74,1.806,1.806,0,0,0,1.647,1.075,1.909,1.909,0,0,0,.363-.036l.825-.157a47.142,47.142,0,0,0,3.713,3.075l-.484,1.618a1.78,1.78,0,0,0,.275,1.609,1.867,1.867,0,0,0,1.485.756,1.819,1.819,0,0,0,1.041-.336l1.483-1.033a5.627,5.627,0,0,1,1.666,5.056,8.622,8.622,0,0,1-.851,2.685Zm-5.043-42.322h0l.445-1.271-.44,1.271Zm.737-2.116h0l-2.916-.719v-12.485l1.684-1.764-1.223-4.517,2.143-2.413-.271-4.252c.012,0,.738.051,1.4.051a5.19,5.19,0,0,0,.861-.051.8.8,0,0,1,.144-.013,3.2,3.2,0,0,1,1.4.608l.006,0c.354.209.754.446,1.251.7a1.32,1.32,0,0,1,.669.866,5.669,5.669,0,0,1-.669,3.5,20.51,20.51,0,0,0-1.04,2.507l.31,6.308-2.525,1.582v9.369l-1.224.719Zm1.229-.733h0c.058-.261,1.213-3.5,1.444-4.146l.006-.018Zm1.448-4.166v0c0-.04-.233-4.155-.24-4.215l.069-.043c1.069-.655,2.877-1.753,2.974-1.753l.572-2.827,9.248-4.24a4.262,4.262,0,0,1,.843,3.293,4.674,4.674,0,0,1-1.863,2.69l-4.839,2.2v2.132l-6.761,2.764Z" transform="translate(3840 1919)"/></g></svg>