<svg xmlns="http://www.w3.org/2000/svg" xmlns:xlink="http://www.w3.org/1999/xlink" width="100" height="100" viewBox="0 0 100 100"><defs><clipPath id="b"><rect width="100" height="100"/></clipPath></defs><g id="a" clip-path="url(#b)"><path d="M-4444.548-1328.211a1.135,1.135,0,0,1-1.047-.968l-2.1-9.517a1.471,1.471,0,0,1,.325-1.3l3.891-3.374v-8.019l-2.887-3a1.684,1.684,0,0,1-.271-1.306l-.012-5.917h-.019a2.127,2.127,0,0,1-2.125-2.127v-7.053a1.043,1.043,0,0,0,.53.142h13.821a1.048,1.048,0,0,0,.532-.142v7.053a2.127,2.127,0,0,1-2.125,2.127h-.019l-.012,5.917a1.681,1.681,0,0,1-.273,1.306l-2.887,3v8.019l3.891,3.374a1.461,1.461,0,0,1,.325,1.3l-2.1,9.517a1.138,1.138,0,0,1-1.049.968Zm17.6-32.655a26.229,26.229,0,0,0-1-6.614,12.8,12.8,0,0,1,1.825,6.614,12.808,12.808,0,0,1-1.825,6.615A26.231,26.231,0,0,0-4426.952-1360.865Zm-29.176,0a12.807,12.807,0,0,1,1.824-6.614,26.264,26.264,0,0,0-1,6.614,26.266,26.266,0,0,0,1,6.615A12.813,12.813,0,0,1-4456.127-1360.865Zm26.175,0a14.5,14.5,0,0,0-1-4.824,7.723,7.723,0,0,1,1.825,4.824,7.723,7.723,0,0,1-1.825,4.825A14.5,14.5,0,0,0-4429.952-1360.865Zm-23.176,0a7.72,7.72,0,0,1,1.826-4.824,14.485,14.485,0,0,0-1,4.824,14.486,14.486,0,0,0,1,4.825A7.72,7.72,0,0,1-4453.128-1360.865Zm4.33-10.995a2.129,2.129,0,0,1-2.126-2.128l-2.126-10.631a2.128,2.128,0,0,1,2.126-2.126h19.136a2.13,2.13,0,0,1,2.127,2.126l-2.127,10.631a2.128,2.128,0,0,1-2.126,2.128Zm4.25-3.191a1.066,1.066,0,0,0,1.064,1.063h4.252a1.064,1.064,0,0,0,1.064-1.063,1.063,1.063,0,0,0-1.064-1.062h-4.252A1.065,1.065,0,0,0-4444.548-1375.051Zm-1.062-4.252a1.064,1.064,0,0,0,1.062,1.063h6.381a1.064,1.064,0,0,0,1.062-1.063,1.063,1.063,0,0,0-1.062-1.063h-6.381A1.063,1.063,0,0,0-4445.61-1379.3Zm-1.063-4.253a1.063,1.063,0,0,0,1.063,1.063h8.5a1.065,1.065,0,0,0,1.064-1.063,1.065,1.065,0,0,0-1.064-1.063h-8.5A1.063,1.063,0,0,0-4446.673-1383.556Zm21.264-1.6a5.848,5.848,0,0,1,5.847-5.848,5.848,5.848,0,0,1,5.848,5.848,5.849,5.849,0,0,1-5.848,5.849A5.849,5.849,0,0,1-4425.41-1385.152Zm-43.591,0a5.848,5.848,0,0,1,5.847-5.848,5.848,5.848,0,0,1,5.848,5.848,5.848,5.848,0,0,1-5.848,5.849A5.849,5.849,0,0,1-4469-1385.152Z" transform="translate(4491.128 1428.211)"/><path d="M-4421.028-1341.372a1.064,1.064,0,0,1-1.063-1.063v-.531h-7.013l1.1-5.316h5.913v-.532a1.064,1.064,0,0,1,1.063-1.063h7.44a3.193,3.193,0,0,1,3.19,3.189v2.127a3.193,3.193,0,0,1-3.19,3.189Zm-46.782,0a3.192,3.192,0,0,1-3.189-3.189v-2.127a3.192,3.192,0,0,1,3.189-3.189h7.443a1.064,1.064,0,0,1,1.063,1.063v.532h4.849l1.1,5.316h-5.947v.531a1.065,1.065,0,0,1-1.063,1.063Zm12.794-10.5a41.052,41.052,0,0,1-6.308-1.476,4.594,4.594,0,0,1-3.062-2.443,2.855,2.855,0,0,1-.208-1.491c.012-.066,1.294-6.707,3.271-9.18,1.906-2.38,5.585-2.88,8.335-2.88a22.907,22.907,0,0,1,3.47.258c.046.026,4.633,2.622,7.868,2.622,3.261,0,7.821-2.6,7.868-2.622a22.785,22.785,0,0,1,3.47-.258c2.749,0,6.427.5,8.333,2.88,2.006,2.51,3.314,9.115,3.326,9.18a2.941,2.941,0,0,1-.261,1.5,4.708,4.708,0,0,1-3.065,2.435,39.232,39.232,0,0,1-5.435,1.329l.007-.035a2.55,2.55,0,0,0-2.514-2.578h-22.616a2.549,2.549,0,0,0-2.513,2.578l.035.18v0Zm2.873-31.639a10.5,10.5,0,0,1,10.492-10.49,10.5,10.5,0,0,1,10.49,10.49,10.5,10.5,0,0,1-10.49,10.493A10.5,10.5,0,0,1-4452.144-1383.51Z" transform="translate(4491 1394)" opacity="0.5"/></g></svg>