<svg xmlns="http://www.w3.org/2000/svg" xmlns:xlink="http://www.w3.org/1999/xlink" width="100" height="100" viewBox="0 0 100 100"><defs><clipPath id="b"><rect width="100" height="100"/></clipPath></defs><g id="a" clip-path="url(#b)"><path d="M-4360.237-453.8a24.539,24.539,0,0,1-17.378-7.217,24.644,24.644,0,0,1-7.217-17.448,24.557,24.557,0,0,1,7.23-17.448c.126-.126.3-.253.442-.38,7.8-7.584,21.778-15.245,27.147-18.042a2.032,2.032,0,0,1,2.9,1.2c.2.646.444,1.469.71,2.355,9.609-3.419,18.865-6.293,23.766-7.762A2.049,2.049,0,0,1-4320.08-516c-1.47,4.9-4.344,14.143-7.762,23.766.885.266,1.7.507,2.355.71a2.034,2.034,0,0,1,1.2,2.9c-2.8,5.356-10.472,19.347-18.043,27.146-.126.14-.253.316-.379.444a24.608,24.608,0,0,1-17.461,7.229Zm-16.492-24.31a16.206,16.206,0,0,0,16.208,16.206,16.206,16.206,0,0,0,16.207-16.206,16.207,16.207,0,0,0-16.207-16.208A16.207,16.207,0,0,0-4376.729-478.114Zm16.208,6.077a2.031,2.031,0,0,1,2.025-2.026,2.032,2.032,0,0,1,2.025,2.026,2.032,2.032,0,0,1-2.025,2.027A2.031,2.031,0,0,1-4360.521-472.037Zm-8.1-10.129a4.049,4.049,0,0,1,4.052-4.052,4.049,4.049,0,0,1,4.052,4.052,4.049,4.049,0,0,1-4.052,4.052A4.049,4.049,0,0,1-4368.626-482.166Z" transform="translate(4420.001 554.188)"/><path d="M-4420-453.615V-554h100.374l-43.8,43.8c1.167-7.991-1.993-15.495-4.851-20.382a41.209,41.209,0,0,0-8.8-10.821,13.625,13.625,0,0,1,1.1,6.141,8.142,8.142,0,0,1-2.382,5.691c-2.719-10.311-7.544-16.3-11.113-19.51a22.235,22.235,0,0,0-7.165-4.54c.7,4.651-.338,9.928-3.07,15.685a72.072,72.072,0,0,1-9.374,14.273c-.246-4.185-.5-6.949-2.655-10.865-.266,4.094-2.144,7.854-3.961,11.491a39.612,39.612,0,0,0-3.765,9.514c-2.187,10.587,2.289,17.931,15.451,25.349-2-4.168-2.734-7.817-2.236-11.154a19.107,19.107,0,0,1,3.55-8.023,30.546,30.546,0,0,0,4.617-10.677s0,0,.008.008a10.3,10.3,0,0,1,1.291,2.6,13.47,13.47,0,0,1,.432,7.01,22.561,22.561,0,0,0,4.846-9.921,20.739,20.739,0,0,0,.445-8.261,27.989,27.989,0,0,1,6.334,6.176,32.086,32.086,0,0,1,4.318,7.883,32.953,32.953,0,0,1,2.028,8.822,30.05,30.05,0,0,1-.538,8.991l-41.091,41.1Z" transform="translate(4420.001 554)" opacity="0.33"/></g></svg>