<svg xmlns="http://www.w3.org/2000/svg" xmlns:xlink="http://www.w3.org/1999/xlink" width="100" height="100" viewBox="0 0 100 100"><defs><clipPath id="b"><rect width="100" height="100"/></clipPath></defs><g id="a" clip-path="url(#b)"><path d="M-4132.906-1482.626h-5.608l-4.936-1.873-4.263-3.736-2.244-4.342-1.043-4.488a31.176,31.176,0,0,1,6.761-1.323,2.474,2.474,0,0,1,1.767.555,4.2,4.2,0,0,0,2.982.768,12.992,12.992,0,0,0,5.34-.941,8.624,8.624,0,0,1,3.488-.708,5.1,5.1,0,0,1,3.363.838,4.734,4.734,0,0,0,2.089.812,15.305,15.305,0,0,0,2.41.183,15.536,15.536,0,0,0,2.461-.183l-1.045,6.361-2.848,3.658-4.263,3.074-4.41,1.346Zm-2.53-5.908a1.145,1.145,0,0,0,1.144,1.145,1.146,1.146,0,0,0,1.145-1.145,1.145,1.145,0,0,0-1.145-1.144A1.144,1.144,0,0,0-4135.436-1488.533Zm-8.009-4.576a1.145,1.145,0,0,0,1.144,1.144,1.145,1.145,0,0,0,1.144-1.144,1.144,1.144,0,0,0-1.144-1.144A1.145,1.145,0,0,0-4143.445-1493.11Zm13.73-1.144a1.145,1.145,0,0,0,1.144,1.144,1.145,1.145,0,0,0,1.144-1.144,1.145,1.145,0,0,0-1.144-1.145A1.145,1.145,0,0,0-4129.715-1494.254Zm-2.289-10.871a1.715,1.715,0,0,1,1.716-1.716,1.716,1.716,0,0,1,1.717,1.716,1.717,1.717,0,0,1-1.717,1.717A1.716,1.716,0,0,1-4132-1505.125Zm-6.865-4a1.143,1.143,0,0,1,1.144-1.144,1.144,1.144,0,0,1,1.145,1.144,1.144,1.144,0,0,1-1.145,1.144A1.143,1.143,0,0,1-4138.869-1509.129Zm8.009-4.576a1.145,1.145,0,0,1,1.144-1.145,1.145,1.145,0,0,1,1.145,1.145,1.145,1.145,0,0,1-1.145,1.144A1.144,1.144,0,0,1-4130.86-1513.706Zm-13.73-15.729c0-1.7,2.961-3.291,2.239-4.757.138-.459,1.535.58,2.325,1.814.719,1.623.805,1.239.805,2.943a2.7,2.7,0,0,1-2.685,2.716A2.7,2.7,0,0,1-4144.59-1529.434Zm.976.031a1.71,1.71,0,0,0,1.708,1.708.244.244,0,0,0,.244-.244.244.244,0,0,0-.244-.244,1.222,1.222,0,0,1-1.22-1.221.244.244,0,0,0-.245-.244A.244.244,0,0,0-4143.614-1529.4Zm32.92,1.752-.031-.021a.722.722,0,0,0-.8,0l-.032.021a.726.726,0,0,1-1.121-.544v-.016a.727.727,0,0,0-.5-.628l-.012,0a.726.726,0,0,1-.277-1.221.727.727,0,0,0,.181-.789h0a.726.726,0,0,1,.776-.979l.029,0a.724.724,0,0,0,.72-.345l.017-.028a.726.726,0,0,1,1.244,0l.017.028a.723.723,0,0,0,.72.345l.029,0a.725.725,0,0,1,.775.979h0a.727.727,0,0,0,.181.789.726.726,0,0,1-.276,1.221l-.013,0a.726.726,0,0,0-.5.628l0,.016a.727.727,0,0,1-.725.664A.718.718,0,0,1-4110.694-1527.651Zm-8.01-.005-.031-.021a.725.725,0,0,0-.795,0l-.031.021a.725.725,0,0,1-1.119-.542v-.017a.726.726,0,0,0-.5-.626l-.011,0a.723.723,0,0,1-.276-1.218.725.725,0,0,0,.18-.787v0a.724.724,0,0,1,.775-.976l.028,0a.725.725,0,0,0,.719-.345l.017-.027a.723.723,0,0,1,1.241,0l.017.027a.724.724,0,0,0,.719.345l.029,0a.724.724,0,0,1,.774.976v0a.723.723,0,0,0,.18.787.724.724,0,0,1-.276,1.218l-.012,0a.724.724,0,0,0-.5.626v.017a.725.725,0,0,1-.724.661A.719.719,0,0,1-4118.7-1527.656Zm7-8.4-.042-.028a.956.956,0,0,0-1.045,0l-.042.028a.953.953,0,0,1-1.472-.713l0-.022a.952.952,0,0,0-.661-.824l-.014,0a.954.954,0,0,1-.364-1.6.952.952,0,0,0,.237-1.036v0a.953.953,0,0,1,1.019-1.285l.038.005a.952.952,0,0,0,.946-.453l.022-.036a.952.952,0,0,1,1.632,0l.022.036a.95.95,0,0,0,.946.453l.038-.005a.951.951,0,0,1,1.018,1.285v0a.951.951,0,0,0,.238,1.036.954.954,0,0,1-.364,1.6l-.016,0a.954.954,0,0,0-.661.824l0,.022a.953.953,0,0,1-.951.87A.941.941,0,0,1-4111.7-1536.057Zm-37.463-7.108c0-1.7,2.959-3.291,2.239-4.757.136-.459,1.534.58,2.325,1.814.719,1.623.805,1.239.805,2.943a2.7,2.7,0,0,1-2.685,2.716A2.7,2.7,0,0,1-4149.167-1543.165Zm.976.031a1.71,1.71,0,0,0,1.708,1.708.244.244,0,0,0,.244-.244.244.244,0,0,0-.244-.244,1.223,1.223,0,0,1-1.221-1.221.244.244,0,0,0-.244-.244A.244.244,0,0,0-4148.19-1543.133Zm60-4.487c-.818-.129-43.088-5.339-43.088-5.339-.256-.127-9.606-1.192-9.606-1.192l-.137-.968,17.5-.181s10.229-.852,17.57-1.361,6.281-.043,11.79-.67,6.168-1.486,10.243-1.837a14.609,14.609,0,0,1,6.055.43l1.238,3.256-.238,3.863-1.04,1.722-2.62,1.885-1.41.7a14.906,14.906,0,0,0-2.985.209Z" transform="translate(4162.6 1580.524)" opacity="0.33"/><path d="M-4145.973-1477.926a17.052,17.052,0,0,1-5.027-12.137,17.052,17.052,0,0,1,5.027-12.137,17.109,17.109,0,0,1,5.13-3.541l16.512-11.9,8.458,6.038-7.1,8.253c.444.365.872.753,1.271,1.152a17.051,17.051,0,0,1,5.029,12.137,17.045,17.045,0,0,1-5.029,12.137,17.044,17.044,0,0,1-12.135,5.026A17.042,17.042,0,0,1-4145.973-1477.926Zm3.5-22.917-.525.566a13.754,13.754,0,0,0-4.564,10.214,13.746,13.746,0,0,0,13.729,13.73,13.747,13.747,0,0,0,13.73-13.73,13.826,13.826,0,0,0-7.774-12.37l8.223-8.866-4.592-3.119Zm8.641,6.2a1.144,1.144,0,0,1,1.144-1.144,1.145,1.145,0,0,1,1.145,1.144,1.145,1.145,0,0,1-1.145,1.145A1.144,1.144,0,0,1-4133.837-1494.639Zm-8.009-1.716a1.717,1.717,0,0,1,1.717-1.717,1.717,1.717,0,0,1,1.716,1.717,1.716,1.716,0,0,1-1.716,1.716A1.716,1.716,0,0,1-4141.846-1496.355Zm-8.01-28.887c0-1.7,2.961-3.291,2.239-4.756.138-.459,1.536.58,2.325,1.813.72,1.623.805,1.239.805,2.943a2.7,2.7,0,0,1-2.685,2.717A2.7,2.7,0,0,1-4149.856-1525.242Zm.976.032a1.711,1.711,0,0,0,1.708,1.708.245.245,0,0,0,.245-.245.244.244,0,0,0-.245-.244,1.221,1.221,0,0,1-1.22-1.22.244.244,0,0,0-.244-.245A.245.245,0,0,0-4148.88-1525.21Zm65.58-13.335-55.518-6.817-.242,1.971-1.971-.242.242-1.971.24-1.97h0l1.533-12.484.242-1.971.242-1.971,1.972.242-.243,1.972,55.518,6.816a8.283,8.283,0,0,1,7.2,9.221,8.289,8.289,0,0,1-8.208,7.267A8.31,8.31,0,0,1-4083.3-1538.544Zm-55.276-8.786,55.518,6.815a6.3,6.3,0,0,0,7.008-5.475,6.294,6.294,0,0,0-5.474-7.008l-55.518-6.817Z" transform="translate(4161 1572.899)"/></g></svg>