<svg xmlns="http://www.w3.org/2000/svg" xmlns:xlink="http://www.w3.org/1999/xlink" width="100" height="100" viewBox="0 0 100 100"><defs><clipPath id="b"><rect width="100" height="100"/></clipPath></defs><g id="a" clip-path="url(#b)"><path d="M-3836.575-1341.887a8.146,8.146,0,0,1-2.843-1.543,4.757,4.757,0,0,1-1.269-1.733,3.785,3.785,0,0,1-.28-2c0-.021.437-2.28,1.183-4.893.7-2.425,1.816-5.683,3.208-7.424,2.555-3.195,7.49-3.865,11.18-3.865a30.511,30.511,0,0,1,4.655.346c.063.035,6.207,3.519,10.559,3.519s10.5-3.484,10.557-3.519a30.332,30.332,0,0,1,4.658-.346c3.688,0,8.624.67,11.178,3.865,1.409,1.762,2.549,5.016,3.255,7.437.76,2.6,1.191,4.788,1.209,4.88a4.007,4.007,0,0,1-.35,2.014,5,5,0,0,1-1.3,1.735,8.088,8.088,0,0,1-2.813,1.53c-6.29,2.1-15.911,3.3-26.393,3.3S-3830.285-1339.789-3836.575-1341.887Zm16.1-27.36a14.4,14.4,0,0,1-4.248-10.253,14.4,14.4,0,0,1,4.248-10.253,14.407,14.407,0,0,1,10.252-4.246,14.412,14.412,0,0,1,10.254,4.246,14.406,14.406,0,0,1,4.246,10.253,14.4,14.4,0,0,1-4.246,10.253,14.409,14.409,0,0,1-10.254,4.247A14.4,14.4,0,0,1-3820.479-1369.247Zm6.738-1.941a2.823,2.823,0,0,0,2.9,2.735,2.831,2.831,0,0,0,2.913-2.735,2.825,2.825,0,0,0-2.913-2.72A2.817,2.817,0,0,0-3813.74-1371.188Zm4.909-11.976c0,1.112-.425,1.6-2.393,2.734-1.949,1.122-2.521,2.385-2.187,4.827l.042.328h4.853v-.574c0-1.212.477-1.78,2.433-2.9,2.09-1.2,2.981-2.559,2.981-4.539,0-3.422-2.823-5.633-7.191-5.633-4.52,0-7.327,2.342-7.327,6.112h5.085a1.814,1.814,0,0,1,1.859-1.9A1.64,1.64,0,0,1-3808.832-1383.164Z" transform="translate(3859.726 1404)"/><path d="M-3802.158-1320.381a3.322,3.322,0,0,1-1.155-.627,1.929,1.929,0,0,1-.515-.7,1.534,1.534,0,0,1-.114-.814c0-.009.177-.926.48-1.988a9.772,9.772,0,0,1,1.3-3.015c1.038-1.3,3.042-1.57,4.541-1.57a12.448,12.448,0,0,1,1.89.141,11.3,11.3,0,0,0,4.29,1.43,11.284,11.284,0,0,0,4.288-1.43,12.353,12.353,0,0,1,1.892-.141c1.5,0,3.5.273,4.541,1.57a9.893,9.893,0,0,1,1.323,3.021c.308,1.055.483,1.945.491,1.982a1.634,1.634,0,0,1-.142.817,2.042,2.042,0,0,1-.529.706,3.285,3.285,0,0,1-1.142.621,36.578,36.578,0,0,1-10.72,1.34A36.575,36.575,0,0,1-3802.158-1320.381Zm9.48-10.451a1.293,1.293,0,0,1,1.335-1.254,1.3,1.3,0,0,1,1.342,1.254,1.3,1.3,0,0,1-1.342,1.26A1.294,1.294,0,0,1-3792.678-1330.833Zm.171-1.883-.019-.151a1.867,1.867,0,0,1,1.007-2.223c.895-.517,1.1-.743,1.1-1.259a.76.76,0,0,0-.851-.712.836.836,0,0,0-.856.876h-2.342c0-1.738,1.284-2.815,3.374-2.815,2.016,0,3.312,1.013,3.312,2.594a2.261,2.261,0,0,1-1.372,2.091c-.883.5-1.121.767-1.121,1.334v.265Zm27.3-2.665a3.307,3.307,0,0,1-1.153-.627,1.939,1.939,0,0,1-.517-.7,1.536,1.536,0,0,1-.113-.813c0-.01.177-.926.48-1.989a9.788,9.788,0,0,1,1.3-3.014c1.039-1.3,3.043-1.57,4.541-1.57a12.308,12.308,0,0,1,1.891.141,11.314,11.314,0,0,0,4.29,1.43,11.312,11.312,0,0,0,4.288-1.43,12.211,12.211,0,0,1,1.891-.141c1.5,0,3.5.272,4.541,1.57a9.888,9.888,0,0,1,1.323,3.02c.308,1.056.483,1.945.49,1.983a1.615,1.615,0,0,1-.141.817,2.06,2.06,0,0,1-.529.7,3.309,3.309,0,0,1-1.143.622,36.571,36.571,0,0,1-10.719,1.34A36.59,36.59,0,0,1-3765.2-1335.381Zm-74,0a3.312,3.312,0,0,1-1.154-.627,1.933,1.933,0,0,1-.516-.7,1.513,1.513,0,0,1-.113-.813c0-.01.177-.926.479-1.989a9.807,9.807,0,0,1,1.3-3.014c1.039-1.3,3.042-1.57,4.541-1.57a12.308,12.308,0,0,1,1.891.141,11.307,11.307,0,0,0,4.289,1.43,11.3,11.3,0,0,0,4.288-1.43,12.24,12.24,0,0,1,1.892-.141c1.5,0,3.5.272,4.54,1.57a9.882,9.882,0,0,1,1.323,3.02c.308,1.056.484,1.945.49,1.983a1.621,1.621,0,0,1-.142.817,2.045,2.045,0,0,1-.528.7,3.3,3.3,0,0,1-1.143.622,36.57,36.57,0,0,1-10.72,1.34A36.583,36.583,0,0,1-3839.2-1335.381Zm83.48-10.453a1.293,1.293,0,0,1,1.335-1.253,1.3,1.3,0,0,1,1.342,1.253,1.3,1.3,0,0,1-1.342,1.26A1.294,1.294,0,0,1-3755.722-1345.833Zm-74,0a1.292,1.292,0,0,1,1.334-1.253,1.3,1.3,0,0,1,1.342,1.253,1.3,1.3,0,0,1-1.342,1.26A1.293,1.293,0,0,1-3829.722-1345.833Zm74.17-1.883-.019-.151a1.866,1.866,0,0,1,1.007-2.222c.895-.518,1.1-.744,1.1-1.26a.758.758,0,0,0-.85-.711.836.836,0,0,0-.857.875h-2.342c0-1.738,1.284-2.814,3.375-2.814,2.016,0,3.312,1.013,3.312,2.593a2.259,2.259,0,0,1-1.373,2.091c-.882.5-1.121.767-1.121,1.335v.264Zm-74,0-.019-.151a1.865,1.865,0,0,1,1.007-2.222c.895-.518,1.1-.744,1.1-1.26a.759.759,0,0,0-.85-.711.837.837,0,0,0-.857.875h-2.341c0-1.738,1.285-2.814,3.374-2.814,2.016,0,3.313,1.013,3.313,2.593a2.26,2.26,0,0,1-1.373,2.091c-.882.5-1.121.767-1.121,1.335v.264Zm59.349-27.665a3.31,3.31,0,0,1-1.154-.627,1.935,1.935,0,0,1-.516-.7,1.531,1.531,0,0,1-.114-.813c0-.009.177-.926.48-1.988a9.776,9.776,0,0,1,1.3-3.015c1.038-1.3,3.042-1.569,4.542-1.569a12.394,12.394,0,0,1,1.89.14,11.313,11.313,0,0,0,4.29,1.43,11.3,11.3,0,0,0,4.288-1.43,12.445,12.445,0,0,1,1.891-.14c1.5,0,3.5.272,4.54,1.569a9.893,9.893,0,0,1,1.323,3.02c.309,1.056.483,1.946.491,1.983a1.626,1.626,0,0,1-.142.818,2.056,2.056,0,0,1-.529.7,3.3,3.3,0,0,1-1.143.621,36.565,36.565,0,0,1-10.719,1.34A36.576,36.576,0,0,1-3770.2-1375.381Zm-64,0a3.325,3.325,0,0,1-1.155-.627,1.955,1.955,0,0,1-.515-.7,1.524,1.524,0,0,1-.113-.813c0-.009.176-.926.48-1.988a9.77,9.77,0,0,1,1.3-3.015c1.039-1.3,3.043-1.569,4.541-1.569a12.425,12.425,0,0,1,1.891.14,11.309,11.309,0,0,0,4.288,1.43,11.3,11.3,0,0,0,4.289-1.43,12.466,12.466,0,0,1,1.892-.14c1.5,0,3.5.272,4.54,1.569a9.868,9.868,0,0,1,1.323,3.02c.309,1.056.484,1.946.491,1.983a1.64,1.64,0,0,1-.142.818,2.07,2.07,0,0,1-.528.7,3.307,3.307,0,0,1-1.143.621,36.578,36.578,0,0,1-10.721,1.34A36.575,36.575,0,0,1-3834.2-1375.381Zm73.48-10.451a1.293,1.293,0,0,1,1.335-1.254,1.3,1.3,0,0,1,1.342,1.254,1.3,1.3,0,0,1-1.342,1.26A1.294,1.294,0,0,1-3760.723-1385.833Zm-64,0a1.292,1.292,0,0,1,1.334-1.254,1.3,1.3,0,0,1,1.342,1.254,1.3,1.3,0,0,1-1.342,1.26A1.293,1.293,0,0,1-3824.722-1385.833Zm64.17-1.884-.019-.15a1.867,1.867,0,0,1,1.008-2.223c.895-.517,1.1-.744,1.1-1.26a.76.76,0,0,0-.851-.711.835.835,0,0,0-.856.875h-2.343c0-1.738,1.285-2.814,3.375-2.814,2.016,0,3.312,1.013,3.312,2.594a2.259,2.259,0,0,1-1.373,2.09c-.882.5-1.121.768-1.121,1.335v.264Zm-64,0-.019-.15a1.867,1.867,0,0,1,1.008-2.223c.895-.517,1.1-.744,1.1-1.26a.76.76,0,0,0-.85-.711.836.836,0,0,0-.857.875h-2.342c0-1.738,1.284-2.814,3.375-2.814,2.015,0,3.312,1.013,3.312,2.594a2.26,2.26,0,0,1-1.373,2.09c-.882.5-1.121.768-1.121,1.335v.264Z" transform="translate(3841 1409)" opacity="0.5"/></g></svg>