<svg xmlns="http://www.w3.org/2000/svg" xmlns:xlink="http://www.w3.org/1999/xlink" width="100" height="100" viewBox="0 0 100 100"><defs><clipPath id="b"><rect width="100" height="100"/></clipPath></defs><g id="a" clip-path="url(#b)"><path d="M8.353,69.589c-2.951-2.612.48-5.83.48-5.83l2.732-2.576c1.881-1.659,14.654-16.388,14.654-16.388s-9.775-.632-12.837-.947-2.1,0-2.1,0A33.432,33.432,0,0,0,7.269,52.8c-1.593,5.479-2.937,4.215-5.78,3.363S.747,52.058.747,52.058s4.5-11.22,5.37-13.9,2.489-2.436,2.489-2.436l19.257,1.064S32.8,25.214,33.973,24a1.709,1.709,0,0,0,0-2.416L19.04,5.79s-1.724-1.664.24-3.854,4.364,0,4.364,0L37.761,16.686l14.626-.343L73.228,7.972s3.248-1.55,4.581,1.524-2.071,4.169-2.071,4.169S56.551,21.4,55.179,21.713s-3,2.285-3,2.285S43.969,34.1,39.231,40.737a69.679,69.679,0,0,1-7.06,8.842L19.856,62.529l-6.113,5.927s-1.339,2.057-3.235,2.057A3.23,3.23,0,0,1,8.353,69.589ZM36.674,7.328A7.329,7.329,0,1,1,44,14.656,7.329,7.329,0,0,1,36.674,7.328Z" transform="translate(15.168 13)"/><path d="M52.842,35.6a1,1,0,0,1-1-1V21.938a1,1,0,0,1,1-1H66.5V11.47a1,1,0,0,1,1-1H81.155V1a1,1,0,0,1,1-1H99a1,1,0,0,1,1,1V3.188a1,1,0,0,1-1,1H85.342v9.47a1,1,0,0,1-1,1H70.686v9.469a1,1,0,0,1-1,1H56.029V34.6a1,1,0,0,1-1,1ZM.632,30.015c-1.306-.252-.385-4.983.921-4.729s9.729,2.989,9.474,4.295c-.119.617-2.146.806-4.391.806A46.264,46.264,0,0,1,.632,30.015ZM7.852,18.983c-.521-1.226,3.915-3.109,4.436-1.883s2.961,9.736,1.736,10.257a.331.331,0,0,1-.13.025C12.514,27.383,8.357,20.167,7.852,18.983Zm-3.282,4.4c-.591-.59,1.548-2.731,2.139-2.139s4.015,4.972,3.424,5.563a.282.282,0,0,1-.207.068C8.873,26.87,5.113,23.922,4.57,23.378Z" transform="translate(0 50.687)" opacity="0.5"/></g></svg>