<svg xmlns="http://www.w3.org/2000/svg" xmlns:xlink="http://www.w3.org/1999/xlink" width="100" height="100" viewBox="0 0 100 100"><defs><clipPath id="b"><rect width="100" height="100"/></clipPath></defs><g id="a" clip-path="url(#b)"><path d="M-3831-1660.269a2.5,2.5,0,0,1-2.5-2.5,2.5,2.5,0,0,1,2.5-2.5h7.5v-16.274a18.761,18.761,0,0,1-17.5-18.71V-1734h7.5v33.746A11.237,11.237,0,0,0-3822.249-1689h22.5v7.5H-3816v16.233h7.5a2.5,2.5,0,0,1,2.5,2.5,2.5,2.5,0,0,1-2.5,2.5Zm62.5-45a2.5,2.5,0,0,1,2.5-2.5h10a2.5,2.5,0,0,1,2.5,2.5Zm7.5-2.5v-20a2.5,2.5,0,0,1,2.5,2.5v17.5Z" transform="translate(3841 1756.771)" opacity="0.5"/><path d="M-3774.75-1641.5a2.5,2.5,0,0,1-2.5-2.5,2.5,2.5,0,0,1,2.5-2.5v-30.427a7.522,7.522,0,0,1-4.572-4.574h-15.427a2.5,2.5,0,0,1-2.5-2.5,2.5,2.5,0,0,1,2.5-2.5h40a2.5,2.5,0,0,1,2.5,2.5,2.5,2.5,0,0,1-2.5,2.5h-7.927a7.513,7.513,0,0,1-4.574,4.574v30.427a2.5,2.5,0,0,1,2.5,2.5,2.5,2.5,0,0,1-2.5,2.5Zm-35.987-32.48h-19.011a11.237,11.237,0,0,1-11.253-11.25v-21.561a8.451,8.451,0,0,1,8.44-8.437h.111a8.342,8.342,0,0,1,3.6.863,8.024,8.024,0,0,1,2.589,1.875l5.249,5.813a25.337,25.337,0,0,0,17.511,7.647v8.1c-7.124,0-15.374-3.788-20.623-8.1v13.8h12.86l19.014,19.013-5.363,5.363Zm35.987-26.267v-20a1.249,1.249,0,0,1,1.25-1.249,1.251,1.251,0,0,1,1.252,1.249v20A1.251,1.251,0,0,1-3773.5-1699,1.249,1.249,0,0,1-3774.75-1700.248Zm-64.035-20.946a7.512,7.512,0,0,1,0-10.612,7.511,7.511,0,0,1,10.611,0,7.512,7.512,0,0,1,0,10.612,7.5,7.5,0,0,1-5.319,2.222A7.4,7.4,0,0,1-3838.785-1721.194Z" transform="translate(3852.25 1738)"/></g></svg>