<svg xmlns="http://www.w3.org/2000/svg" xmlns:xlink="http://www.w3.org/1999/xlink" width="100" height="100" viewBox="0 0 100 100"><defs><clipPath id="b"><rect width="100" height="100"/></clipPath></defs><g id="a" clip-path="url(#b)"><path d="M-164.249-671.095c-6.639-2.213-5.706-6.861-5.706-6.861s2.2-11.63,5.706-16.011c5.719-7.147,20.586-4.574,20.586-4.574s8.006,4.574,13.724,4.574,13.723-4.574,13.723-4.574,14.867-2.573,20.586,4.574c3.545,4.432,5.8,16.011,5.8,16.011s.715,4.688-5.8,6.861c-8.578,2.859-21.443,4.289-34.309,4.289S-155.671-668.235-164.249-671.095Zm16.011-52.607a18.3,18.3,0,0,1,18.3-18.3,18.3,18.3,0,0,1,18.3,18.3,18.3,18.3,0,0,1-18.3,18.3A18.3,18.3,0,0,1-148.237-723.7Z" transform="translate(179.708 754.061)"/><path d="M-4388.659-1714.758l-8.012-8.01a1.886,1.886,0,0,1,0-2.665l8.012-8.012a1.884,1.884,0,0,1,3.216,1.333v3.615h10.675a3.767,3.767,0,0,1,3.768,3.768v1.256a3.768,3.768,0,0,1-3.768,3.768h-10.675v3.615a1.882,1.882,0,0,1-1.9,1.888A1.845,1.845,0,0,1-4388.659-1714.758Zm-67.9-1.332v-3.615h-10.676a3.768,3.768,0,0,1-3.768-3.768v-1.256a3.767,3.767,0,0,1,3.768-3.768h10.676v-3.615a1.884,1.884,0,0,1,3.216-1.333l8.011,8.012a1.885,1.885,0,0,1,0,2.665l-8.011,8.01a1.846,1.846,0,0,1-1.319.556A1.882,1.882,0,0,1-4456.557-1716.09Z" transform="translate(4471 1762.548)" opacity="0.5"/></g></svg>