<svg xmlns="http://www.w3.org/2000/svg" xmlns:xlink="http://www.w3.org/1999/xlink" width="100" height="100" viewBox="0 0 100 100"><defs><clipPath id="b"><rect width="100" height="100"/></clipPath></defs><g id="a" clip-path="url(#b)"><path d="M42.875,3.149a2.191,2.191,0,0,1,3.808,0L87.829,75.406a2.191,2.191,0,0,1-1.9,3.275H3.632a2.191,2.191,0,0,1-1.9-3.275Z" transform="translate(5.221 10.532)" opacity="0.33"/><path d="M-4144.417-1305.308a6.506,6.506,0,0,1-5.687-3.281,6.5,6.5,0,0,1-.01-6.568l43.417-75.545a6.5,6.5,0,0,1,5.7-3.3,6.508,6.508,0,0,1,5.7,3.3l43.417,75.545a6.509,6.509,0,0,1-.01,6.568,6.507,6.507,0,0,1-5.688,3.281Zm41.513-81.011-41.146,72.259a2.174,2.174,0,0,0,.008,2.185,2.172,2.172,0,0,0,1.9,1.091h82.293a2.166,2.166,0,0,0,1.893-1.091,2.163,2.163,0,0,0,.01-2.185l-41.146-72.259a2.168,2.168,0,0,0-1.9-1.106A2.167,2.167,0,0,0-4102.9-1386.319Zm-8.1,67.8,8.928-23.731h-7.844c-.427,0-.6-.257-.542-.771l7.929-21.107a1.036,1.036,0,0,1,.827-.514h10.868c.627,0,.827.257.571.77l-8.528,15.545h8.1q.813,0,.428.77l-19.624,29.037Z" transform="translate(4151 1400)"/></g></svg>