<svg id="Capa_1" enable-background="new 0 0 512 512" height="512" viewBox="0 0 512 512" width="512" xmlns="http://www.w3.org/2000/svg"><path d="m324.457 383.109h-136.914l-5.545 60.202h148.004z" fill="#4e5660"/><path d="m354.192 483.969h-196.384c-8.553 0-14.703-8.222-12.288-16.426l1.786-6.067c3.17-10.77 13.056-18.165 24.283-18.165h168.823c11.227 0 21.113 7.395 24.283 18.165l1.786 6.067c2.414 8.205-3.736 16.426-12.289 16.426z" fill="#c6c6c6"/><path d="m236.382 443.311h-64.794c-11.227 0-21.113 7.395-24.283 18.165l-1.786 6.066c-2.415 8.205 3.735 16.426 12.288 16.426h87.462c-8.378-11.257-10.92-21.422-8.887-40.657z" fill="#9aa3b1"/><path d="m450.933 383.109h-389.866c-33.726 0-61.067-27.341-61.067-61.067v-232.944c0-33.726 27.341-61.067 61.067-61.067h389.866c33.726 0 61.067 27.341 61.067 61.067v232.944c0 33.726-27.341 61.067-61.067 61.067z" fill="#4e5660"/><path d="m61.067 28.031c-33.726 0-61.067 27.34-61.067 61.067v232.944c0 33.726 27.341 61.067 61.067 61.067h153.39c-64.068-47.461-78.938-203.403-57.822-355.078z" fill="#383c43"/><path d="m41.768 314.341v-217.542c0-14.912 12.088-27 27-27h374.464c14.912 0 27 12.088 27 27v217.542c0 14.912-12.088 27-27 27h-374.464c-14.912 0-27-12.088-27-27z" fill="#f7ef87"/><path d="m151.745 69.799h-82.977c-14.912 0-27 12.088-27 27v217.542c0 14.912 12.088 27 27 27h112.445c-31.315-61.307-39.603-164.917-29.468-271.542z" fill="#efd176"/><path d="m0 304.954v17.088c0 33.726 27.341 61.067 61.067 61.067h389.866c33.726 0 61.067-27.341 61.067-61.067v-17.088z" fill="#c6c6c6"/><g fill="#4e5660"><ellipse cx="256" cy="344.032" rx="14.822" ry="14.822" transform="matrix(.058 -.998 .998 .058 -102.396 579.502)"/><path d="m227.06 222.141h-132.224c-4.142 0-7.5-3.358-7.5-7.5s3.358-7.5 7.5-7.5h132.224c4.142 0 7.5 3.358 7.5 7.5s-3.358 7.5-7.5 7.5z"/><path d="m175.183 264.134h-80.347c-4.142 0-7.5-3.358-7.5-7.5s3.358-7.5 7.5-7.5h80.347c4.142 0 7.5 3.358 7.5 7.5s-3.358 7.5-7.5 7.5z"/></g><ellipse cx="92.162" cy="158.817" fill="#eda1ab" rx="25.381" ry="20.212"/><ellipse cx="229.734" cy="158.817" fill="#eda1ab" rx="25.381" ry="20.212"/><path d="m106.954 146.154c-4.142 0-7.5-3.358-7.5-7.5v-8.963c0-4.142 3.358-7.5 7.5-7.5s7.5 3.358 7.5 7.5v8.963c0 4.142-3.358 7.5-7.5 7.5z" fill="#4e5660"/><path d="m214.942 146.154c-4.142 0-7.5-3.358-7.5-7.5v-8.963c0-4.142 3.358-7.5 7.5-7.5s7.5 3.358 7.5 7.5v8.963c0 4.142-3.358 7.5-7.5 7.5z" fill="#4e5660"/><path d="m160.948 153.037c-7.624 0-14.873-3.301-19.889-9.057-2.722-3.123-2.396-7.86.726-10.582s7.859-2.397 10.581.726c2.167 2.486 5.295 3.913 8.582 3.913s6.414-1.426 8.582-3.913c2.721-3.122 7.458-3.448 10.581-.726 3.123 2.721 3.448 7.459.726 10.582-5.016 5.755-12.266 9.057-19.889 9.057z" fill="#4e5660"/><path d="m0 322.042c0 33.726 27.341 61.067 61.067 61.067h153.39c-21.098-15.629-36.858-43.025-47.757-78.155h-166.7z" fill="#9aa3b1"/><path d="m283.579 225.573 60.804-35.105c7.139-4.122 15.934-4.122 23.073 0l60.804 35.105c4.142 2.391 4.142 8.369 0 10.761l-60.804 35.105c-7.139 4.122-15.935 4.122-23.073 0l-60.804-35.105c-4.142-2.391-4.142-8.369 0-10.761z" fill="#8eafe2"/><path d="m283.579 181.996 60.804-35.105c7.139-4.122 15.934-4.122 23.073 0l60.804 35.105c4.142 2.391 4.142 8.37 0 10.761l-60.804 35.105c-7.139 4.122-15.935 4.122-23.073 0l-60.804-35.105c-4.142-2.391-4.142-8.37 0-10.761z" fill="#a3defe"/><path d="m283.579 138.419 60.804-35.105c7.139-4.122 15.934-4.122 23.073 0l60.804 35.105c4.142 2.391 4.142 8.37 0 10.761l-60.804 35.105c-7.139 4.122-15.935 4.122-23.073 0l-60.804-35.105c-4.142-2.391-4.142-8.37 0-10.761z" fill="#e8899e"/></svg>