<svg id="Capa_1" enable-background="new 0 0 512 512" height="512" viewBox="0 0 512 512" width="512" xmlns="http://www.w3.org/2000/svg"><path d="m324.457 383.109h-136.914l-5.545 60.202h148.004z" fill="#4e5660"/><path d="m354.192 483.969h-196.384c-8.553 0-14.703-8.222-12.288-16.426l1.786-6.067c3.17-10.77 13.056-18.165 24.283-18.165h168.823c11.227 0 21.113 7.395 24.283 18.165l1.786 6.067c2.414 8.205-3.736 16.426-12.289 16.426z" fill="#c6c6c6"/><path d="m236.383 443.311h-64.794c-11.227 0-21.113 7.395-24.283 18.165l-1.786 6.066c-2.415 8.205 3.735 16.426 12.288 16.426h87.462c-8.379-11.257-10.92-21.422-8.887-40.657z" fill="#9aa3b1"/><path d="m450.933 383.109h-389.866c-33.726 0-61.067-27.341-61.067-61.067v-232.944c0-33.726 27.341-61.067 61.067-61.067h389.866c33.726 0 61.067 27.341 61.067 61.067v232.944c0 33.726-27.341 61.067-61.067 61.067z" fill="#4e5660"/><path d="m61.067 28.031c-33.726 0-61.067 27.34-61.067 61.067v232.944c0 33.726 27.341 61.067 61.067 61.067h153.39c-64.068-47.461-78.938-203.403-57.822-355.078z" fill="#383c43"/><path d="m41.768 314.341v-217.542c0-14.912 12.088-27 27-27h374.464c14.912 0 27 12.088 27 27v217.542c0 14.912-12.088 27-27 27h-374.464c-14.912 0-27-12.088-27-27z" fill="#a3defe"/><path d="m151.745 69.799h-82.977c-14.912 0-27 12.088-27 27v217.542c0 14.912 12.088 27 27 27h112.445c-31.315-61.307-39.603-164.918-29.468-271.542z" fill="#7acefa"/><path d="m443.232 69.799h-167.029v271.542h167.029c14.912 0 27-12.088 27-27v-217.542c0-14.912-12.089-27-27-27z" fill="#f7ef87"/><path d="m0 304.954v17.088c0 33.726 27.341 61.067 61.067 61.067h389.866c33.726 0 61.067-27.341 61.067-61.067v-17.088z" fill="#c6c6c6"/><circle cx="256" cy="344.032" fill="#4e5660" r="14.822"/><path d="m438.451 220.781c0 1.809-.895 3.618-2.686 4.652l-52.573 30.353c-6.173 3.564-13.777 3.564-19.95 0l-52.573-30.353c-1.79-1.034-2.686-2.843-2.686-4.652v-72.239h130.468z" fill="#8eafe2"/><path d="m373.218 258.459c3.444 0 6.889-.891 9.975-2.673l52.573-30.353c1.791-1.034 2.686-2.843 2.686-4.652v-72.238h-65.234z" fill="#7acefa"/><path d="m310.67 143.891 52.573-30.353c6.173-3.564 13.777-3.564 19.95 0l52.573 30.353c3.581 2.068 3.581 7.236 0 9.304l-52.573 30.353c-6.173 3.564-13.777 3.564-19.95 0l-52.573-30.353c-3.582-2.068-3.582-7.237 0-9.304z" fill="#a3defe"/><g fill="#4e5660"><path d="m227.06 184.258h-132.224c-4.142 0-7.5-3.358-7.5-7.5s3.358-7.5 7.5-7.5h132.224c4.142 0 7.5 3.358 7.5 7.5s-3.358 7.5-7.5 7.5z"/><path d="m227.06 226.251h-132.224c-4.142 0-7.5-3.358-7.5-7.5s3.358-7.5 7.5-7.5h132.224c4.142 0 7.5 3.358 7.5 7.5 0 4.143-3.358 7.5-7.5 7.5z"/><path d="m227.06 268.245h-132.224c-4.142 0-7.5-3.358-7.5-7.5s3.358-7.5 7.5-7.5h132.224c4.142 0 7.5 3.358 7.5 7.5s-3.358 7.5-7.5 7.5z"/></g><circle cx="190.674" cy="260.745" fill="#fff" r="16.096"/><ellipse cx="92.162" cy="141.122" fill="#fff" rx="25.381" ry="20.212"/><ellipse cx="229.734" cy="141.122" fill="#fff" rx="25.381" ry="20.212"/><path d="m106.954 128.459c-4.142 0-7.5-3.358-7.5-7.5v-8.962c0-4.142 3.358-7.5 7.5-7.5s7.5 3.358 7.5 7.5v8.962c0 4.142-3.358 7.5-7.5 7.5z" fill="#4e5660"/><path d="m214.942 128.459c-4.142 0-7.5-3.358-7.5-7.5v-8.962c0-4.142 3.358-7.5 7.5-7.5s7.5 3.358 7.5 7.5v8.962c0 4.142-3.358 7.5-7.5 7.5z" fill="#4e5660"/><path d="m160.948 135.342c-7.623 0-14.873-3.301-19.889-9.058-2.722-3.123-2.396-7.86.726-10.582s7.86-2.397 10.581.726c2.168 2.487 5.295 3.913 8.582 3.913 3.286 0 6.414-1.426 8.581-3.913 2.721-3.123 7.458-3.448 10.581-.726 3.123 2.721 3.448 7.459.726 10.582-5.016 5.756-12.265 9.058-19.888 9.058z" fill="#4e5660"/><path d="m0 322.042c0 33.726 27.341 61.067 61.067 61.067h153.39c-21.098-15.629-36.858-43.025-47.757-78.155h-166.7z" fill="#9aa3b1"/></svg>