<svg xmlns="http://www.w3.org/2000/svg" xmlns:xlink="http://www.w3.org/1999/xlink" width="250" height="80" viewBox="0 0 250 80"><defs><clipPath id="b"><rect width="250" height="80"/></clipPath></defs><g id="a" clip-path="url(#b)"><g transform="translate(-10 2.001)" fill="#fff" stroke-linecap="round" stroke-linejoin="round"><path d="M 270.1103210449219 82.50080108642578 L 269.6103210449219 82.50080108642578 L -6.144205599412089e-06 82.50080108642578 L -0.5000061392784119 82.50080108642578 L -0.5000061392784119 82.00080108642578 L -0.5000061392784119 7.334100723266602 L -0.5000061392784119 6.533233642578125 L 0.2195271849632263 6.884867191314697 C 9.411494255065918 11.37683391571045 26.54519462585449 14.1673002243042 44.93429565429688 14.1673002243042 C 63.32479476928711 14.1673002243042 80.45849609375 11.37683391571045 89.64902496337891 6.884900569915771 C 94.17366027832031 4.673933982849121 100.6639251708984 2.82193398475647 108.4181594848633 1.52910053730011 C 116.3846969604492 0.2016672044992447 125.5089950561523 -0.499999463558197 134.8046875 -0.499999463558197 C 144.1003875732422 -0.499999463558197 153.2247009277344 0.2016672044992447 161.191162109375 1.52910053730011 C 168.9460906982422 2.822200536727905 175.4354248046875 4.674200534820557 179.9576873779297 6.884900569915771 C 189.1498260498047 11.37683391571045 206.2842254638672 14.1673002243042 224.6742248535156 14.1673002243042 C 243.0648651123047 14.1673002243042 260.1985473632813 11.37683391571045 269.3889465332031 6.884900569915771 L 270.1084899902344 6.533200740814209 L 270.1085205078125 7.334100723266602 L 270.1103210449219 82.00080108642578 L 270.1103210449219 82.50080108642578 Z" stroke="none"/><path d="M 269.6103515625 82.00079345703125 L 269.6085205078125 7.334115028381348 C 260.3540649414063 11.85736465454102 243.1362609863281 14.66729354858398 224.6742248535156 14.66729354858398 C 206.2128753662109 14.66729354858398 188.9943389892578 11.85736465454102 179.7380828857422 7.334115028381348 C 175.2585906982422 5.144293308258057 168.8167724609375 3.307543516159058 161.1089782714844 2.022293329238892 C 153.169189453125 0.6992933750152588 144.0733337402344 7.68606969359098e-06 134.8047027587891 7.68606969359098e-06 C 125.5360565185547 7.68606969359098e-06 116.4401931762695 0.6992933750152588 108.5004119873047 2.022293329238892 C 100.7923049926758 3.307436227798462 94.34998321533203 5.144257545471191 89.86859130859375 7.334115028381348 C 80.61398315429688 11.85736465454102 63.39619445800781 14.66729354858398 44.93430328369141 14.66729354858398 C 26.47255325317383 14.66729354858398 9.255338668823242 11.85704326629639 1.766531750035938e-05 7.334115028381348 L 1.766531750035938e-05 82.00079345703125 L 269.6103515625 82.00079345703125 M 269.6103515625 83.00079345703125 L 1.766531750035938e-05 83.00079345703125 C -0.5522680282592773 83.00079345703125 -0.9999823570251465 82.55307769775391 -0.9999823570251465 82.00079345703125 L -0.9999823570251465 7.334115028381348 C -0.9999823570251465 6.989150524139404 -0.8221966028213501 6.668543338775635 -0.5295894742012024 6.485864639282227 C -0.3681393563747406 6.385081768035889 -0.184295117855072 6.334111213684082 0.0001059744681697339 6.334111213684082 C 0.1499484479427338 6.334111213684082 0.3001471161842346 6.367748737335205 0.4390890896320343 6.43565034866333 C 9.566946029663086 10.89629364013672 26.61651802062988 13.66729354858398 44.93430328369141 13.66729354858398 C 63.25344467163086 13.66729354858398 80.30301666259766 10.89629364013672 89.42948150634766 6.435686111450195 C 93.99687194824219 4.203793525695801 100.5346221923828 2.336614847183228 108.3359451293945 1.035900592803955 C 116.3291625976563 -0.2959923148155212 125.4818725585938 -0.999992311000824 134.8047027587891 -0.999992311000824 C 144.1275177001953 -0.999992311000824 153.2802276611328 -0.2959923148155212 161.2733459472656 1.035900592803955 C 169.0754089355469 2.336864709854126 175.6122741699219 4.204079151153564 180.1772613525391 6.435721874237061 C 189.3052673339844 10.89629364013672 206.3555603027344 13.66729354858398 224.6742248535156 13.66729354858398 C 242.9935150146484 13.66729354858398 260.0430908203125 10.89629364013672 269.1694030761719 6.435686111450195 C 269.3083801269531 6.367774963378906 269.4586486816406 6.334116458892822 269.6084899902344 6.334116458892822 C 269.7928771972656 6.334116458892822 269.9766540527344 6.385056972503662 270.1380920410156 6.485828876495361 C 270.4306945800781 6.66850757598877 270.6085205078125 6.989114761352539 270.6085205078125 7.334079265594482 L 270.6103515625 82.00075531005859 C 270.6103515625 82.26596832275391 270.5049743652344 82.52036285400391 270.3174438476563 82.70790100097656 C 270.1299133300781 82.89543914794922 269.8755493164063 83.00079345703125 269.6103515625 83.00079345703125 Z" stroke="none" fill="#08f"/></g><path d="M-2919.882-3047.645l-143.032-82.751Zm-4,0-142.639-82.523Zm-4,0-142.129-82.228Zm-4,0-141.507-81.868Zm-4,0-140.775-81.445Zm-4,0-139.933-80.958Zm-4,0-138.98-80.406Zm-4,0-137.913-79.789Zm-4,0-136.731-79.1Zm-4,0-135.426-78.35Zm-4,0-133.989-77.519Zm-4,0-132.407-76.6Zm-4,0-130.662-75.594Zm-4,0-128.926-74.59Zm-4,0-127.357-73.682Zm-4,0-125.936-72.859Zm-4,0-124.647-72.114Zm-4,0-123.483-71.441Zm-4,0-122.436-70.835Zm-4,0-121.5-70.294Zm-4,0-120.677-69.817Zm-4,0-119.961-69.4Zm-4,0-119.355-69.052Zm-4,0-118.862-68.767Zm-4,0-118.487-68.55Zm-4,0-118.236-68.405Zm-4,0L-3142-3115.982Zm-4,0L-3146.032-3116Zm-4,0-118.348-68.47Zm-4,0-118.739-68.7Zm-4,0-119.365-69.058Zm-4,0-120.291-69.594Zm-4,0-121.638-70.373Zm-4,0-123.676-71.552Zm-4,0-127.436-73.727Zm-4,0-128.765-74.5Zm-4,0-124.764-72.182Zm-4,0-120.765-69.868Zm-4,0-116.765-67.554Zm-4,0-112.765-65.24Zm-4,0-108.765-62.926Zm-4,0-104.764-60.611Zm-4,0-100.765-58.3Zm-4,0-96.764-55.983Zm-4,0-92.765-53.669Zm-4,0L-3188.646-3099Zm-4,0-84.765-49.04Zm-4,0-80.765-46.726Zm-4,0-76.765-44.412Zm-4,0-72.765-42.1Zm-4,0-68.764-39.783Zm-4,0-64.765-37.469Zm-4,0-60.764-35.155Zm-4,0-56.765-32.841Zm-4,0-52.764-30.527Zm-4,0-48.765-28.213Zm-4,0-44.765-25.9Zm-4,0-40.764-23.584Zm-4,0-36.765-21.27Zm-4,0-32.764-18.956Zm-4,0-28.765-16.642Zm-4,0-24.764-14.327Zm-4,0-20.765-12.014Zm-4,0-16.764-9.7Zm-4,0-12.765-7.385Zm-4,0-8.765-5.071Zm-4,0-4.764-2.757Zm-4,0-.765-.443Zm128.7-82.908,141.15,81.662Zm3.858-.082,137.292,79.429Zm4,0,133.291,77.115Zm4.159.093,129.131,74.708Zm4.344.2,124.787,72.195Zm4.565.327,120.222,69.554Zm4.846.489,115.376,66.75Zm5.23.712,110.145,63.724Zm5.839,1.064,104.307,60.346Zm7.113,1.8,97.194,56.231Zm12.287,4.795,84.907,49.122Zm7.552,2.054,77.355,44.753Zm5.977,1.144,71.378,41.3Zm5.314.76,66.064,38.221Zm4.9.523,61.16,35.384Zm4.609.352,56.551,32.717Zm4.377.218,52.174,30.185Zm4.185.107,47.989,27.764Zm4.021.012,43.967,25.437Zm3.874-.073,40.093,23.2Zm3.741-.15,36.352,21.031Zm3.616-.222,32.735,18.939Zm3.5-.289,29.235,16.914Zm3.387-.354,25.848,14.954Zm3.278-.418,22.571,13.058Zm3.168-.481,19.4,11.225Zm3.058-.545,16.345,9.456Zm2.946-.61,13.4,7.752Zm2.828-.678,10.571,6.116Zm2.7-.75,7.867,4.552Zm2.569-.828,5.3,3.065Zm2.421-.914,2.877,1.665Zm2.252-1.011.625.362Z" transform="translate(3178.146 3132.146)" fill="none" stroke="#000" stroke-linecap="round" stroke-linejoin="round" stroke-width="0.1" opacity="0.2"/></g></svg>