<svg xmlns="http://www.w3.org/2000/svg" xmlns:xlink="http://www.w3.org/1999/xlink" width="100" height="100" viewBox="0 0 100 100"><defs><clipPath id="b"><rect width="100" height="100"/></clipPath></defs><g id="a" clip-path="url(#b)"><path d="M74.364,79.365H5a5.006,5.006,0,0,1-5-5V5A5.006,5.006,0,0,1,5,0H74.364a5.006,5.006,0,0,1,5,5V74.365A5.006,5.006,0,0,1,74.364,79.365ZM19.048,34.921a4.762,4.762,0,0,0,0,9.524H34.921V60.317a4.762,4.762,0,1,0,9.524,0V44.445H60.317a4.762,4.762,0,1,0,0-9.524H44.445V19.048a4.762,4.762,0,0,0-9.524,0V34.921Z" transform="translate(0 20.635)" opacity="0.5"/><path d="M63.492,71.429V15.873H7.937A7.936,7.936,0,1,1,7.937,0H71.429a7.938,7.938,0,0,1,7.937,7.936V71.429a7.937,7.937,0,1,1-15.873,0Zm0-48.739a7.025,7.025,0,0,0-6.982-6.817h6.984V22.69Z" transform="translate(20.635 0)"/></g></svg>