<svg xmlns="http://www.w3.org/2000/svg" xmlns:xlink="http://www.w3.org/1999/xlink" width="100" height="100" viewBox="0 0 100 100"><defs><clipPath id="b"><rect width="100" height="100"/></clipPath></defs><g id="a" clip-path="url(#b)"><path d="M-3181.759,47.7l-8.68-15.035a3.309,3.309,0,0,1,.8-4.239l4.358-24.711a2.481,2.481,0,0,1,2.873-2.012,2.481,2.481,0,0,1,2.012,2.874l-4.358,24.714c.013.023.028.046.041.069l8.681,15.034a3.307,3.307,0,0,1-1.21,4.517,3.294,3.294,0,0,1-1.651.443A3.308,3.308,0,0,1-3181.759,47.7ZM-3150,8.176a44.314,44.314,0,0,0-14.188-14.424,11.919,11.919,0,0,1,3.192-5.75l16.941,16.939A11.931,11.931,0,0,1-3150,8.176Zm-81-3.234L-3214.06-12a11.941,11.941,0,0,1,3.181,5.708A44.342,44.342,0,0,0-3225.125,8.16h0A11.913,11.913,0,0,1-3231,4.941Z" transform="translate(3237.508 15.507)" opacity="0.5"/><path d="M-3157.658,86.337l-5.325-9.221a3.329,3.329,0,0,1,1.218-4.546,3.328,3.328,0,0,1,4.546,1.218l5.324,9.221a3.327,3.327,0,0,1-1.219,4.545,3.311,3.311,0,0,1-1.66.446A3.326,3.326,0,0,1-3157.658,86.337Zm-56.012,1.217a3.327,3.327,0,0,1-1.218-4.545l5.324-9.221a3.327,3.327,0,0,1,4.545-1.218,3.328,3.328,0,0,1,1.218,4.546l-5.324,9.221A3.326,3.326,0,0,1-3212.009,88,3.315,3.315,0,0,1-3213.67,87.554Zm13.554-15.093a41.119,41.119,0,0,1-13.115-8.842,41.12,41.12,0,0,1-8.842-13.114,41.007,41.007,0,0,1-3.242-16.061,41,41,0,0,1,3.242-16.059,41.125,41.125,0,0,1,8.842-13.115,41.158,41.158,0,0,1,13.115-8.842,41.018,41.018,0,0,1,16.06-3.241A41.032,41.032,0,0,1-3168-3.573a41.152,41.152,0,0,1,13.114,8.842,41.127,41.127,0,0,1,8.843,13.115,41.007,41.007,0,0,1,3.242,16.059A41.017,41.017,0,0,1-3146.04,50.5a41.135,41.135,0,0,1-8.843,13.114A41.113,41.113,0,0,1-3168,72.461a41.012,41.012,0,0,1-16.061,3.243A41,41,0,0,1-3200.116,72.461Zm-19.423-38.017a35.523,35.523,0,0,0,35.483,35.484,35.524,35.524,0,0,0,35.482-35.484,35.523,35.523,0,0,0-35.482-35.482A35.522,35.522,0,0,0-3219.54,34.444Zm30.532,0a4.951,4.951,0,0,1,4.951-4.951,4.95,4.95,0,0,1,4.951,4.951,4.951,4.951,0,0,1-4.951,4.952A4.952,4.952,0,0,1-3189.007,34.444Zm-40.158-28.089a12.016,12.016,0,0,1-1.768-7.647,12,12,0,0,1,3.44-7.2,12.01,12.01,0,0,1,7.2-3.441,11.566,11.566,0,0,1,1.256-.066,11.962,11.962,0,0,1,6.391,1.835l-16.518,16.519h0Zm73.773-16.518A11.947,11.947,0,0,1-3149-12a11.593,11.593,0,0,1,1.258.066,12.014,12.014,0,0,1,7.2,3.441,12.008,12.008,0,0,1,3.44,7.2,12.032,12.032,0,0,1-1.768,7.646h0Z" transform="translate(3234 12)"/></g></svg>