<svg xmlns="http://www.w3.org/2000/svg" xmlns:xlink="http://www.w3.org/1999/xlink" width="100" height="100" viewBox="0 0 100 100"><defs><clipPath id="b"><rect width="100" height="100"/></clipPath></defs><g id="a" clip-path="url(#b)"><path d="M-1901.667-44.432H-1935l16.666-28.866,16.65-28.835h-66.631l16.648,28.836L-1935-44.431h-33.332L-1985-73.3l16.667-28.867.009.015,16.658-28.85L-1935-102.133-1951.667-131h33.332L-1935-102.133-1918.335-131l16.659,28.852.009-.017L-1885-73.3l-16.666,28.867ZM-1935-102.133Z" transform="translate(1985 138)" opacity="0.5"/><path d="M-1951.665-73.2h0l-5.992-10.379-10.665-18.471-.009.017L-1985-130.9h.024l-.026-.044h33.3l.035-.06.04.071h33.291L-1935-102.062h0l-14.271,24.717-2.394,4.148Zm-16.649-28.867H-1935l-.039-.071h-.032l-16.593-28.741-16.594,28.741h-.013Z" transform="translate(2001.667 166.764)"/></g></svg>