<svg xmlns="http://www.w3.org/2000/svg" xmlns:xlink="http://www.w3.org/1999/xlink" width="100" height="100" viewBox="0 0 100 100"><defs><clipPath id="b"><rect width="100" height="100"/></clipPath></defs><g id="a" clip-path="url(#b)"><path d="M-5740.405-812.305c-3.531-.339-2.522.037-5.814-1.088a39.451,39.451,0,0,1-12.1-6.586,31.224,31.224,0,0,1-8.155-9.769,25.567,25.567,0,0,1-2.988-11.8,8.114,8.114,0,0,0-1.853,1.389l-.384.384a2.176,2.176,0,0,1-3.076,0,2.174,2.174,0,0,1,0-3.075l7.687-7.687a2.174,2.174,0,0,1,3.076,0l7.688,7.687a2.174,2.174,0,0,1,0,3.075,2.176,2.176,0,0,1-3.076,0l-.384-.384a8.154,8.154,0,0,0-1.679-1.292c2.11,10.645,8.03,17.689,21.041,19.253v-44.231h-7.611a4.566,4.566,0,0,1-4.565-4.565,4.566,4.566,0,0,1,4.565-4.566h7.611v-3.827a13.723,13.723,0,0,1-9.132-12.916,13.713,13.713,0,0,1,13.7-13.7,13.717,13.717,0,0,1,13.7,13.7,13.725,13.725,0,0,1-9.133,12.916v3.827h7.61a4.566,4.566,0,0,1,4.566,4.566,4.566,4.566,0,0,1-4.566,4.565h-7.61V-822.2c12.948-1.557,18.833-8.531,21.01-19.1a8.167,8.167,0,0,0-1.433,1.143l-.384.384a2.175,2.175,0,0,1-3.075,0,2.178,2.178,0,0,1,0-3.075l7.689-7.687a2.174,2.174,0,0,1,3.076,0l7.687,7.687a2.174,2.174,0,0,1,0,3.075,2.175,2.175,0,0,1-3.075,0l-.382-.384a8.116,8.116,0,0,0-2.072-1.5,25.549,25.549,0,0,1-2.989,11.914,31.194,31.194,0,0,1-8.154,9.769,39.435,39.435,0,0,1-12.094,6.586c-3.292,1.125-2.284.749-5.817,1.088-.191,2.9-2.156,6.3-4.55,6.3S-5740.212-809.4-5740.405-812.305Zm9.081-73.884a7.605,7.605,0,0,0,3.082-6.112,7.619,7.619,0,0,0-7.612-7.61,7.617,7.617,0,0,0-7.607,7.61,7.6,7.6,0,0,0,3.081,6.112c.29-2.656,2.208-4.707,4.529-4.707S-5731.615-888.846-5731.324-886.19Z" transform="translate(5785.409 906)"/></g></svg>