<svg xmlns="http://www.w3.org/2000/svg" xmlns:xlink="http://www.w3.org/1999/xlink" width="100" height="100" viewBox="0 0 100 100"><defs><clipPath id="b"><rect width="100" height="100"/></clipPath></defs><g id="a" clip-path="url(#b)"><path d="M70.54,55.094C70.495,46.9,74.2,40.717,81.7,36.162c-4.2-6.006-10.538-9.31-18.91-9.957-7.926-.625-16.588,4.621-19.758,4.621-3.349,0-11.029-4.4-17.057-4.4-12.458.2-25.7,9.935-25.7,29.738A55.644,55.644,0,0,0,3.5,74.294c2.858,8.193,13.172,28.286,23.933,27.952,5.626-.134,9.6-4,16.923-4,7.1,0,10.783,4,17.057,4,10.85-.156,20.182-18.419,22.906-26.634C69.758,68.758,70.54,55.519,70.54,55.094ZM57.9,18.436C64,11.2,63.44,4.617,63.261,2.25c-5.38.313-11.609,3.661-15.159,7.792a21.357,21.357,0,0,0-5.715,16.052C48.214,26.54,53.528,23.549,57.9,18.436Z" transform="translate(7.719 -2.25)"/></g></svg>