<svg xmlns="http://www.w3.org/2000/svg" xmlns:xlink="http://www.w3.org/1999/xlink" width="100" height="100" viewBox="0 0 100 100"><defs><clipPath id="b"><rect width="100" height="100"/></clipPath></defs><g id="a" clip-path="url(#b)"><path d="M-1456.855-1911.3l26.083,26.083a9.221,9.221,0,0,1,0,13.042l-26.083,26.084a9.223,9.223,0,0,1-13.042,0,9.223,9.223,0,0,1,0-13.042l10.341-10.34h-49.929v27.667a9.223,9.223,0,0,1-9.223,9.222,9.222,9.222,0,0,1-9.221-9.222v-36.888a9.222,9.222,0,0,1,9.221-9.223h59.154l-10.343-10.343a9.22,9.22,0,0,1,0-13.039,9.2,9.2,0,0,1,6.523-2.7A9.186,9.186,0,0,1-1456.855-1911.3Z" transform="translate(1528.07 1923.363)"/></g></svg>