<svg xmlns="http://www.w3.org/2000/svg" xmlns:xlink="http://www.w3.org/1999/xlink" width="100" height="100" viewBox="0 0 100 100"><defs><clipPath id="b"><rect width="100" height="100"/></clipPath></defs><g id="a" clip-path="url(#b)"><path d="M-4710-831.364h-2.27a5.729,5.729,0,0,1-5.73-5.729,5.729,5.729,0,0,1,5.73-5.73h24.666a16.164,16.164,0,0,0,16.146-16.145,16.164,16.164,0,0,0-16.146-16.146h-52.049l14.443,14.444a5.848,5.848,0,0,1,0,8.269,5.848,5.848,0,0,1-8.27,0l-24.808-24.808a5.848,5.848,0,0,1,0-8.27l24.808-24.808a5.832,5.832,0,0,1,4.136-1.712,5.83,5.83,0,0,1,4.134,1.712,5.848,5.848,0,0,1,0,8.27l-15.446,15.446h53.051a27.451,27.451,0,0,1,10.746,2.169,27.508,27.508,0,0,1,8.773,5.916,27.5,27.5,0,0,1,5.916,8.774A27.423,27.423,0,0,1-4660-858.967a27.417,27.417,0,0,1-2.169,10.744,27.493,27.493,0,0,1-5.916,8.775,27.505,27.505,0,0,1-8.773,5.915,27.429,27.429,0,0,1-10.746,2.169Z" transform="translate(4760 922)"/></g></svg>