<svg xmlns="http://www.w3.org/2000/svg" xmlns:xlink="http://www.w3.org/1999/xlink" width="100" height="100" viewBox="0 0 100 100"><defs><clipPath id="b"><rect width="100" height="100"/></clipPath></defs><g id="a" clip-path="url(#b)"><path d="M-4548.173-480.09a9.222,9.222,0,0,0,0-13.042l-10.341-10.34q.094-.27.19-.528h58.852a9,9,0,0,0,9-9,9,9,0,0,0-9-9h-58.959l10.259-10.259a9.219,9.219,0,0,0,0-13.039,9.2,9.2,0,0,0-6.523-2.7,9.187,9.187,0,0,0-6.519,2.7l-26.083,26.083a9.221,9.221,0,0,0,0,13.042l26.083,26.084a9.194,9.194,0,0,0,6.521,2.7A9.191,9.191,0,0,0-4548.173-480.09Z" transform="translate(4590 563)"/></g></svg>