<svg xmlns="http://www.w3.org/2000/svg" xmlns:xlink="http://www.w3.org/1999/xlink" width="100" height="100" viewBox="0 0 100 100"><defs><clipPath id="b"><rect width="100" height="100"/></clipPath></defs><g id="a" clip-path="url(#b)"><path d="M-4532.3-480.09a9.222,9.222,0,0,1,0-13.042l10.341-10.34q-.094-.27-.19-.528H-4581a9,9,0,0,1-9-9,9,9,0,0,1,9-9h58.959l-10.259-10.259a9.219,9.219,0,0,1,0-13.039,9.2,9.2,0,0,1,6.523-2.7,9.187,9.187,0,0,1,6.519,2.7l26.083,26.083a9.221,9.221,0,0,1,0,13.042l-26.083,26.084a9.194,9.194,0,0,1-6.521,2.7A9.192,9.192,0,0,1-4532.3-480.09Z" transform="translate(563 -4490.472) rotate(-90)"/></g></svg>