<svg xmlns="http://www.w3.org/2000/svg" xmlns:xlink="http://www.w3.org/1999/xlink" width="100" height="100" viewBox="0 0 100 100"><defs><clipPath id="b"><rect width="100" height="100"/></clipPath></defs><g id="a" clip-path="url(#b)"><path d="M56.444,62.161c6.415,0,10.432,5.336,10.432,13.969S62.859,90.1,56.384,90.1c-6.295,0-10.072-5.276-10.072-13.969C46.312,67.377,50.089,62.161,56.444,62.161ZM58.422,25.71C28.506,25.71,7.7,45.974,7.7,75.71c0,31,21.343,50,51.679,50a63.258,63.258,0,0,0,17.266-2.218V113.9C73.23,115.159,66.7,116,60.281,116c-24.7,0-41.547-14.748-41.547-39.988,0-24.1,16.187-40.767,39.269-40.767,22.722,0,37.77,14.089,37.77,35.911,0,12.77-4.077,20.264-9.952,20.264-3.777,0-5.7-2.638-5.7-6.775V52.569H67.954v7.194h-.839c-2.338-5.276-7.734-8.513-14.209-8.513-11.99,0-20.2,9.952-20.2,24.52,0,15.228,8.333,25.36,20.8,25.36,6.954,0,11.99-3.237,14.448-9.233h.839c1.319,5.815,7.014,9.412,14.448,9.412,14.628,0,23.561-12.17,23.561-31.055C106.8,43.576,86.839,25.71,58.422,25.71Z" transform="translate(-7.203 -25.71)"/></g></svg>