<svg xmlns="http://www.w3.org/2000/svg" xmlns:xlink="http://www.w3.org/1999/xlink" width="100" height="100" viewBox="0 0 100 100"><defs><clipPath id="b"><rect width="100" height="100"/></clipPath></defs><g id="a" clip-path="url(#b)"><path d="M12.334,18.5V91.251A12.334,12.334,0,1,0,37,91.25V24.664l-7.4,0v66.59a4.933,4.933,0,1,1-9.866,0V81.388h0V18.5a11.1,11.1,0,0,1,22.2,0V91.354a17.264,17.264,0,1,1-34.528,0V44.4H0V91.354a24.664,24.664,0,0,0,49.328,0V44.4h0V18.5a18.495,18.495,0,1,0-36.99,0Z" transform="translate(27.442 108.672) rotate(-135)"/></g></svg>