<svg xmlns="http://www.w3.org/2000/svg" xmlns:xlink="http://www.w3.org/1999/xlink" width="100" height="100" viewBox="0 0 100 100"><defs><clipPath id="b"><rect width="100" height="100"/></clipPath></defs><g id="a" clip-path="url(#b)"><path d="M-4692.238-441.063h-22.587a5.652,5.652,0,0,1-5.646-5.646v-33.882h-33.881a5.653,5.653,0,0,1-5.647-5.646v-22.589a5.653,5.653,0,0,1,5.647-5.646h33.881v-33.88a5.654,5.654,0,0,1,5.646-5.649h22.587a5.654,5.654,0,0,1,5.646,5.649v33.88h33.882a5.653,5.653,0,0,1,5.646,5.646v22.589a5.653,5.653,0,0,1-5.646,5.646h-33.882v33.882A5.653,5.653,0,0,1-4692.238-441.063Zm-22.587-39.528h0V-450.1a3.392,3.392,0,0,0,3.387,3.389h15.811a3.393,3.393,0,0,0,3.39-3.389v-30.493Zm18.634-14.681a5.088,5.088,0,0,0-5.082,5.082,5.088,5.088,0,0,0,5.082,5.082,5.088,5.088,0,0,0,5.082-5.082A5.088,5.088,0,0,0-4696.191-495.272Zm-14.682,0a5.088,5.088,0,0,0-5.082,5.082,5.088,5.088,0,0,0,5.082,5.082,5.088,5.088,0,0,0,5.082-5.082A5.088,5.088,0,0,0-4710.873-495.272Zm14.682-14.683a5.088,5.088,0,0,0-5.082,5.082,5.088,5.088,0,0,0,5.082,5.082,5.088,5.088,0,0,0,5.082-5.082A5.088,5.088,0,0,0-4696.191-509.955Zm-14.682,0a5.088,5.088,0,0,0-5.082,5.082,5.088,5.088,0,0,0,5.082,5.082,5.088,5.088,0,0,0,5.082-5.082A5.088,5.088,0,0,0-4710.873-509.955Zm-.565-38.4a3.391,3.391,0,0,0-3.387,3.388v30.492h22.587v-30.492a3.392,3.392,0,0,0-3.39-3.388Z" transform="translate(3727.418 -2924.38) rotate(-45)"/></g></svg>