<svg xmlns="http://www.w3.org/2000/svg" xmlns:xlink="http://www.w3.org/1999/xlink" width="100" height="100" viewBox="0 0 100 100"><defs><clipPath id="b"><rect width="100" height="100"/></clipPath></defs><g id="a" clip-path="url(#b)"><path d="M-4395.569-109.144a39.857,39.857,0,0,1-12.715-8.572,39.873,39.873,0,0,1-8.572-12.714A39.753,39.753,0,0,1-4420-146a39.753,39.753,0,0,1,3.144-15.57,39.873,39.873,0,0,1,8.572-12.714,39.893,39.893,0,0,1,12.715-8.572A39.754,39.754,0,0,1-4380-186a39.751,39.751,0,0,1,15.57,3.143,39.888,39.888,0,0,1,12.715,8.572,39.841,39.841,0,0,1,8.572,12.714A39.736,39.736,0,0,1-4340-146a39.736,39.736,0,0,1-3.144,15.57,39.841,39.841,0,0,1-8.572,12.714,39.851,39.851,0,0,1-12.715,8.572A39.752,39.752,0,0,1-4380-106,39.755,39.755,0,0,1-4395.569-109.144ZM-4411-146a31.036,31.036,0,0,0,31,31,31.035,31.035,0,0,0,31-31,31.034,31.034,0,0,0-31-31A31.035,31.035,0,0,0-4411-146Zm23,15a8,8,0,0,1,6.665-7.889l15.361-23.96a1.9,1.9,0,0,1,2.455-.975l2.839,1.64a1.894,1.894,0,0,1,.384,2.612l-12.735,24.638A7.961,7.961,0,0,1-4372-131a8,8,0,0,1-8,8A8,8,0,0,1-4388-131Z" transform="translate(4430 186)"/><path d="M-4385-97h-12a6.007,6.007,0,0,1-6-6v-15.83a39.939,39.939,0,0,0,12,1.83,39.9,39.9,0,0,0,12-1.83V-103A6.007,6.007,0,0,1-4385-97Zm20-57h-9a3,3,0,0,1-3-3,3,3,0,0,1,3-3h9a3,3,0,0,1,3,3A3,3,0,0,1-4365-154Zm-43,0h-9a3,3,0,0,1-3-3,3,3,0,0,1,3-3h9a3,3,0,0,1,3,3A3,3,0,0,1-4408-154Zm4.979-12.02a2.986,2.986,0,0,1-2.122-.879l-6.363-6.364a2.981,2.981,0,0,1-.88-2.123,2.976,2.976,0,0,1,.88-2.12,2.978,2.978,0,0,1,2.12-.879,2.979,2.979,0,0,1,2.121.879l6.364,6.364a2.982,2.982,0,0,1,.878,2.122,2.982,2.982,0,0,1-.878,2.121A2.978,2.978,0,0,1-4403.02-166.021Zm21.726-1.092h0a2.988,2.988,0,0,1,.2-4.028l6.363-6.364a2.98,2.98,0,0,1,2.121-.879,2.982,2.982,0,0,1,2.122.879,3.005,3.005,0,0,1,0,4.243l-.651.651a1.354,1.354,0,0,0-.535-.575l-2.839-1.639a1.345,1.345,0,0,0-.681-.178,2.165,2.165,0,0,0-1.773,1.153l-4.319,6.737ZM-4391-171a3,3,0,0,1-3-3v-9a3,3,0,0,1,3-3,3,3,0,0,1,3,3v9A3,3,0,0,1-4391-171Z" transform="translate(4441 197)" opacity="0.33"/></g></svg>