<svg xmlns="http://www.w3.org/2000/svg" xmlns:xlink="http://www.w3.org/1999/xlink" width="100" height="100" viewBox="0 0 100 100"><defs><clipPath id="b"><rect width="100" height="100"/></clipPath></defs><g id="a" clip-path="url(#b)"><path d="M50,19.453a27.68,27.68,0,0,1,9.168,1.667,15.589,15.589,0,0,0,5.122-7.067,36.037,36.037,0,0,0-28.528-.017A15.589,15.589,0,0,0,40.88,21.1,27.808,27.808,0,0,1,50,19.453ZM28.413,76.178a15.813,15.813,0,0,0,4.254-7.362A27.574,27.574,0,0,1,22.44,49.786a14.532,14.532,0,0,0-4.584-.8,14.144,14.144,0,0,0-3.907.538A36.161,36.161,0,0,0,28.413,76.178Zm38.928-7.4A15.867,15.867,0,0,0,71.6,76.161,36.052,36.052,0,0,0,86.007,49.508a14.429,14.429,0,0,0-3.855-.521,14.85,14.85,0,0,0-4.619.816A27.59,27.59,0,0,1,67.341,68.781ZM87.048,33.187a28.169,28.169,0,0,0-9.6-3.455,30.253,30.253,0,0,0,1.736-9.758A30.22,30.22,0,0,0,72.064.492,1.362,1.362,0,0,0,70.328.179,1.436,1.436,0,0,0,69.7,1.864a21.156,21.156,0,0,1-19.69,28.024A21.109,21.109,0,0,1,29.177,8.549a21.893,21.893,0,0,1,1.146-6.685A1.436,1.436,0,0,0,29.7.179a1.362,1.362,0,0,0-1.736.313,30.315,30.315,0,0,0-7.119,19.481,29.792,29.792,0,0,0,1.736,9.758,28.3,28.3,0,0,0-9.6,3.455A29.715,29.715,0,0,0,.076,49.23a1.445,1.445,0,0,0,.608,1.7,1.357,1.357,0,0,0,1.736-.278A20.707,20.707,0,0,1,7.49,46.3a20.586,20.586,0,0,1,28.458,7.813,21.648,21.648,0,0,1-7.622,29.153,20.4,20.4,0,0,1-6.216,2.327A1.435,1.435,0,0,0,21,87a1.4,1.4,0,0,0,1.129,1.389A28.209,28.209,0,0,0,50,78,28.209,28.209,0,0,0,77.863,88.384,1.4,1.4,0,0,0,78.992,87a1.417,1.417,0,0,0-1.111-1.406,19.794,19.794,0,0,1-6.216-2.327,21.648,21.648,0,0,1-7.622-29.153A20.586,20.586,0,0,1,92.5,46.3a21.088,21.088,0,0,1,5.07,4.358,1.357,1.357,0,0,0,1.736.278,1.438,1.438,0,0,0,.608-1.7A29.443,29.443,0,0,0,87.048,33.187ZM50,55.585a8.334,8.334,0,1,1,8.334-8.334A8.336,8.336,0,0,1,50,55.585Z" transform="translate(0.005 6.004)"/></g></svg>