<svg xmlns="http://www.w3.org/2000/svg" xmlns:xlink="http://www.w3.org/1999/xlink" width="100" height="100" viewBox="0 0 100 100"><defs><clipPath id="b"><rect width="100" height="100"/></clipPath></defs><g id="a" clip-path="url(#b)"><path d="M0,0H58.055A23.4,23.4,0,0,0,56.64,6.961,14.36,14.36,0,0,0,58.055,12.9H0Z" transform="translate(26.126 74.194)" opacity="0.33"/><path d="M77.633,100H10A10.011,10.011,0,0,1,0,90V16.129A16.128,16.128,0,0,1,16.127,0H75.8a4.844,4.844,0,0,1,4.838,4.839V69.355A4.843,4.843,0,0,1,75.8,74.193H20a4.034,4.034,0,0,0-3.871,4v4.9a4,4,0,0,0,4,4H80.633V97A3,3,0,0,1,77.633,100ZM39.1,52.983a13.271,13.271,0,0,1,3.974.594,18.827,18.827,0,0,1,2.341.925c.824.385,2.049,1.069,3.642,2.032a28.521,28.521,0,0,0,4.339,2.2,7.905,7.905,0,0,0,2.9.48A4.952,4.952,0,0,0,59.465,58.1a4.415,4.415,0,0,0,1.028-1.279,2.881,2.881,0,0,0,.388-1.314,2.2,2.2,0,0,0-.137-.879A1.4,1.4,0,0,0,59.465,53.6a3.256,3.256,0,0,1-1.188,1.485,5.651,5.651,0,0,0,.092-1.188,2.2,2.2,0,0,0-.731-1.393,2.135,2.135,0,0,0-1.119-.571,2.606,2.606,0,0,1-.7,1.233,2.555,2.555,0,0,1-1.382.708,2.771,2.771,0,0,0,.068-.662,1.1,1.1,0,0,0-.411-.777,2.36,2.36,0,0,0-.936-.548,3.2,3.2,0,0,1-2.831,1.3c-.611-.194-1.287-.432-2.01-.708l-1.462-.526c-.489-.168-.958-.314-1.393-.434a12.277,12.277,0,0,0,6.509-5.116,17.172,17.172,0,0,0,1.918-4.1,26.53,26.53,0,0,0,1.05-5.093,4.452,4.452,0,0,1,2.307-3.8,4.2,4.2,0,0,1-2.329-3.677c-.47-4.365-2.068-7.807-4.75-10.232a14.1,14.1,0,0,0-9.8-3.517,14.016,14.016,0,0,0-9.841,3.792,14.934,14.934,0,0,0-3.2,4.339,16.8,16.8,0,0,0-1.609,5.447c-.235,1.933-1.022,3.228-2.341,3.848a3.687,3.687,0,0,1,1.587,1.451,7.863,7.863,0,0,1,.788,2.981,20.367,20.367,0,0,0,.958,4.2c1.455,4.425,4.09,7.491,7.833,9.113-2.212.682-3.334,2.033-3.334,4.019a2.74,2.74,0,0,0,.89,2.011,3.172,3.172,0,0,0,2.238.936,6.884,6.884,0,0,1,1.518-3.854A4.2,4.2,0,0,1,39.1,52.983Zm1.256-3.746a6,6,0,0,1-1.987-.319c-2.045-.7-3.083-2.3-3.083-4.774V37.362a4.111,4.111,0,0,1,2.512-3.952,3.782,3.782,0,0,1-2.512-3.677V24.275a6.371,6.371,0,0,1,.388-2.33,4.549,4.549,0,0,1,4.658-2.923,4.878,4.878,0,0,1,3.449,1.3,5.225,5.225,0,0,1,1.484,3.951v5.458A3.834,3.834,0,0,1,42.8,33.41a4.117,4.117,0,0,1,2.466,3.952v6.782a5.083,5.083,0,0,1-1.37,3.814,4.3,4.3,0,0,1-1.564.959A5.906,5.906,0,0,1,40.352,49.237ZM30.9,45.561h0a9.114,9.114,0,0,1-.981-1.529c-.849-1.576-1.556-4.757-2.1-9.455-.045-.394-.5-.787-1.347-1.165.849-.348,1.3-.724,1.347-1.119a32.654,32.654,0,0,1,1.347-6.555,9.149,9.149,0,0,1,1.53-2.672.376.376,0,0,1,.3.388,3.526,3.526,0,0,1-.16.868,28.451,28.451,0,0,0-1.278,9.089c0,4.865.407,8.262,1.21,10.1a4.481,4.481,0,0,1,.48,1.576.488.488,0,0,1-.341.479Zm16.556,0v0a13.425,13.425,0,0,0,.456-2.625c.061-.564.107-1.183.137-1.838s.046-1.543.046-2.627-.077-2.391-.229-3.871c-.045-.379-.529-.778-1.438-1.188a3.732,3.732,0,0,0,.891-.434,2.742,2.742,0,0,0,.456-.411,8.6,8.6,0,0,0,.229-2.9,23.575,23.575,0,0,0-.64-6.6,1.441,1.441,0,0,1,.777.388A6.035,6.035,0,0,1,49.28,26.81c.09.7.16,1.6.205,2.683s.068,2.721.068,4.888-.038,4.153-.114,5.9c-.136,3.135-.8,4.91-1.984,5.275Z" transform="translate(9.999 0)"/></g></svg>