<svg xmlns="http://www.w3.org/2000/svg" xmlns:xlink="http://www.w3.org/1999/xlink" width="100" height="100" viewBox="0 0 100 100"><defs><clipPath id="b"><rect width="100" height="100"/></clipPath></defs><g id="a" clip-path="url(#b)"><path d="M0,0H58.055A23.4,23.4,0,0,0,56.64,6.961,14.36,14.36,0,0,0,58.055,12.9H0Z" transform="translate(26.126 74.194)" opacity="0.33"/><path d="M-772.367-636H-840a10.011,10.011,0,0,1-10-10v-73.87a16.023,16.023,0,0,1,4.723-11.4,16.015,16.015,0,0,1,11.4-4.725h59.668a4.844,4.844,0,0,1,4.837,4.839v64.516a4.843,4.843,0,0,1-4.837,4.838H-830a4.034,4.034,0,0,0-3.871,4v4.9a4,4,0,0,0,4,4h60.506v9.9A3,3,0,0,1-772.367-636Zm-56.458-53.968c-1.75,0-3.174,1.114-3.174,2.484s1.424,2.484,3.174,2.484h44.1c1.75,0,3.174-1.114,3.174-2.484s-1.424-2.484-3.174-2.484Zm0-11.293c-1.75,0-3.174,1.114-3.174,2.484s1.424,2.485,3.174,2.485h34.1c1.75,0,3.174-1.115,3.174-2.485s-1.424-2.484-3.174-2.484Zm0-11.293c-1.75,0-3.174,1.115-3.174,2.485s1.424,2.484,3.174,2.484h38.1c1.751,0,3.175-1.114,3.175-2.484s-1.424-2.485-3.175-2.485Z" transform="translate(860 735.999)"/></g></svg>