<svg xmlns="http://www.w3.org/2000/svg" xmlns:xlink="http://www.w3.org/1999/xlink" width="100" height="100" viewBox="0 0 100 100"><defs><clipPath id="b"><rect width="100" height="100"/></clipPath></defs><g id="a" clip-path="url(#b)"><path d="M26.432,26.816l-7.44,22.772H11.254L.882,10.407h8.5l6.163,24.374h.217l7.331-24.374h6.924l7.331,24.374h.217l6.191-24.374h8.5l-10.4,39.18H34.116l-7.44-22.772Zm38.42,22.772h-8.2V10.407h8.2Zm6.516-39.18H87.306A13.41,13.41,0,0,1,97.121,14.1a13.013,13.013,0,0,1,3.761,9.72A12.806,12.806,0,0,1,97,33.527a14.024,14.024,0,0,1-10.1,3.706H79.568V49.587h-8.2Zm13.6,6.327V30.663h5.539a7.746,7.746,0,0,0,5.485-1.819,6.7,6.7,0,0,0,1.955-5.159,6.681,6.681,0,0,0-1.941-5.145,7.731,7.731,0,0,0-5.471-1.806Z" transform="translate(-0.882 16.593)"/><path d="M1.5,0h97a1.5,1.5,0,0,1,0,3H1.5a1.5,1.5,0,0,1,0-3Z" transform="translate(0 70)" opacity="0.5"/></g></svg>