<svg xmlns="http://www.w3.org/2000/svg" xmlns:xlink="http://www.w3.org/1999/xlink" width="100" height="100" viewBox="0 0 100 100"><defs><clipPath id="b"><rect width="100" height="100"/></clipPath></defs><g id="a" clip-path="url(#b)"><path d="M10,0H90a10,10,0,0,1,10,10V30A10,10,0,0,1,90,40H10A10,10,0,0,1,0,30V10A10,10,0,0,1,10,0Z" transform="translate(0 30)" opacity="0.33"/><path d="M-2030-696a10.011,10.011,0,0,1-10-10v-20a10.012,10.012,0,0,1,10-10h80a10.012,10.012,0,0,1,10,10v20a10.011,10.011,0,0,1-10,10Zm-5-29v18a6.007,6.007,0,0,0,6,6h78a6.006,6.006,0,0,0,6-6v-18a6.007,6.007,0,0,0-6-6h-78A6.007,6.007,0,0,0-2035-725Z" transform="translate(2040 766)"/></g></svg>