<svg xmlns="http://www.w3.org/2000/svg" xmlns:xlink="http://www.w3.org/1999/xlink" width="100" height="100" viewBox="0 0 100 100"><defs><clipPath id="b"><rect width="100" height="100"/></clipPath></defs><g id="a" clip-path="url(#b)"><path d="M-5218.543-812h-45.283c-3.4,0-6.174-3.45-6.174-7.691v-84.617c0-4.241,2.771-7.692,6.174-7.692h45.283c3.406,0,6.177,3.45,6.177,7.692v84.617C-5212.366-815.45-5215.137-812-5218.543-812Zm-6.174-25.638c-3.406,0-6.176,2.3-6.176,5.128s2.77,5.128,6.176,5.128,6.174-2.3,6.174-5.128S-5221.313-837.638-5224.717-837.638Zm-16.466,0c-3.4,0-6.175,2.3-6.175,5.128s2.771,5.128,6.175,5.128,6.176-2.3,6.176-5.128S-5237.778-837.638-5241.184-837.638Zm-16.469,0c-3.4,0-6.174,2.3-6.174,5.128s2.771,5.128,6.174,5.128,6.177-2.3,6.177-5.128S-5254.246-837.638-5257.652-837.638Zm32.935-12.823c-3.406,0-6.176,2.3-6.176,5.128s2.77,5.131,6.176,5.131,6.174-2.3,6.174-5.131S-5221.313-850.461-5224.717-850.461Zm-16.466,0c-3.4,0-6.175,2.3-6.175,5.128s2.771,5.131,6.175,5.131,6.176-2.3,6.176-5.131S-5237.778-850.461-5241.184-850.461Zm-16.469,0c-3.4,0-6.174,2.3-6.174,5.128s2.771,5.131,6.174,5.131,6.177-2.3,6.177-5.131S-5254.246-850.461-5257.652-850.461Zm32.935-12.819c-3.406,0-6.176,2.3-6.176,5.128s2.77,5.128,6.176,5.128,6.174-2.3,6.174-5.128S-5221.313-863.28-5224.717-863.28Zm-16.466,0c-3.4,0-6.175,2.3-6.175,5.128s2.771,5.128,6.175,5.128,6.176-2.3,6.176-5.128S-5237.778-863.28-5241.184-863.28Zm-16.469,0c-3.4,0-6.174,2.3-6.174,5.128s2.771,5.128,6.174,5.128,6.177-2.3,6.177-5.128S-5254.246-863.28-5257.652-863.28Zm-4.115-25.642a2.357,2.357,0,0,0-2.059,2.564v7.691a2.357,2.357,0,0,0,2.059,2.564h41.166a2.355,2.355,0,0,0,2.058-2.564v-7.691a2.355,2.355,0,0,0-2.058-2.564Z" transform="translate(5291 912)"/></g></svg>