<svg xmlns="http://www.w3.org/2000/svg" xmlns:xlink="http://www.w3.org/1999/xlink" width="100" height="100" viewBox="0 0 100 100"><defs><clipPath id="b"><rect width="100" height="100"/></clipPath></defs><g id="a" clip-path="url(#b)"><path d="M-5890.626-859.127a3.122,3.122,0,0,1-3.124-3.124v-12.5a3.125,3.125,0,0,1,3.124-3.126h12.5A3.126,3.126,0,0,1-5875-874.75v12.5a3.124,3.124,0,0,1-3.124,3.124Zm-28.124,0a3.122,3.122,0,0,1-3.124-3.124v-12.5a3.125,3.125,0,0,1,3.124-3.126h12.5a3.126,3.126,0,0,1,3.126,3.126v12.5a3.124,3.124,0,0,1-3.126,3.124Zm-28.124,0a3.125,3.125,0,0,1-3.127-3.124v-12.5a3.127,3.127,0,0,1,3.127-3.126h12.5a3.125,3.125,0,0,1,3.124,3.126v12.5a3.122,3.122,0,0,1-3.124,3.124Zm56.248-28.124a3.123,3.123,0,0,1-3.124-3.124v-12.5a3.124,3.124,0,0,1,3.124-3.124h12.5a3.125,3.125,0,0,1,3.124,3.124v12.5a3.124,3.124,0,0,1-3.124,3.124Zm-28.124,0a3.123,3.123,0,0,1-3.124-3.124v-12.5A3.124,3.124,0,0,1-5918.75-906h12.5a3.126,3.126,0,0,1,3.126,3.124v12.5a3.124,3.124,0,0,1-3.126,3.124Zm-28.124,0a3.125,3.125,0,0,1-3.127-3.124v-12.5a3.127,3.127,0,0,1,3.127-3.124h12.5a3.124,3.124,0,0,1,3.124,3.124v12.5a3.123,3.123,0,0,1-3.124,3.124Z" transform="translate(5962.501 940.437)" opacity="0.5"/><path d="M-5856.251-820.189h-87.5a6.258,6.258,0,0,1-6.251-6.25v-75.31a6.258,6.258,0,0,1,6.251-6.25h87.5a6.257,6.257,0,0,1,6.25,6.25v75.31A6.257,6.257,0,0,1-5856.251-820.189Zm-82.812-64.062a3.129,3.129,0,0,0-3.124,3.126v50a3.129,3.129,0,0,0,3.124,3.126h78.124a3.129,3.129,0,0,0,3.124-3.126v-50a3.129,3.129,0,0,0-3.124-3.126Z" transform="translate(5950.001 914)"/></g></svg>