<svg xmlns="http://www.w3.org/2000/svg" xmlns:xlink="http://www.w3.org/1999/xlink" width="100" height="100" viewBox="0 0 100 100"><defs><clipPath id="b"><rect width="100" height="100"/></clipPath></defs><g id="a" clip-path="url(#b)"><path d="M-6366.25-989.189h-87.5a6.258,6.258,0,0,1-6.251-6.25v-75.31a6.258,6.258,0,0,1,6.251-6.252H-6443v-4a7.008,7.008,0,0,1,7-7h3a7.007,7.007,0,0,1,7,7v4h32v-4a7.009,7.009,0,0,1,7-7h3a7.009,7.009,0,0,1,7,7v4h10.75a6.258,6.258,0,0,1,6.25,6.252v75.31A6.257,6.257,0,0,1-6366.25-989.189Zm-82.812-64.062a3.128,3.128,0,0,0-3.124,3.126v50a3.129,3.129,0,0,0,3.124,3.127h78.125a3.129,3.129,0,0,0,3.123-3.127v-50a3.128,3.128,0,0,0-3.123-3.126ZM-6387-1084a3,3,0,0,0-3,3v10a3,3,0,0,0,3,3h3a3,3,0,0,0,3-3v-10a3,3,0,0,0-3-3Zm-49,0a3,3,0,0,0-3,3v10a3,3,0,0,0,3,3h3a3,3,0,0,0,3-3v-10a3,3,0,0,0-3-3Z" transform="translate(6460 1089)"/><path d="M-19.269,17.048H-14.6c3.223,0,5.129,1.5,5.129,4.028,0,2.5-2.014,4.163-5.022,4.163-3.33,0-5.371-1.584-5.452-4.163H-30.79c.376,7.9,6.66,13,16.06,13,10.286,0,16.838-4.592,16.838-11.843,0-5.291-3.733-8.647-9.426-9.265v-.215C-2.645,11.918.765,8.535.765,3.862c0-6.553-5.8-10.688-14.958-10.688-9.534,0-15.845,5.129-15.872,12.891h10.259c0-2.712,2.068-4.592,5.129-4.592,3.115,0,4.968,1.5,4.968,3.948,0,2.471-1.853,4-4.834,4h-4.727ZM15.966,33H27.352V-5.752H15.966L6.244.747V10.28L15.751,4h.215Z" transform="translate(50 50.001)" opacity="0.5"/></g></svg>