<svg xmlns="http://www.w3.org/2000/svg" xmlns:xlink="http://www.w3.org/1999/xlink" width="100" height="100" viewBox="0 0 100 100"><defs><clipPath id="b"><rect width="100" height="100"/></clipPath></defs><g id="a" clip-path="url(#b)"><path d="M-2878.889-520.666a16.667,16.667,0,0,1,16.667-16.667,16.666,16.666,0,0,1,16.666,16.667A16.666,16.666,0,0,1-2862.222-504,16.666,16.666,0,0,1-2878.889-520.666Zm-6.667-24.445a4.444,4.444,0,0,1-4.444-4.444,4.445,4.445,0,0,1,4.444-4.445h11.112a4.445,4.445,0,0,1,4.444,4.445,4.444,4.444,0,0,1-4.444,4.444Z" transform="translate(2912.222 574.445)" opacity="0.5"/><path d="M-2883.333-486.223a6.674,6.674,0,0,1-6.667-6.666v-46.667a6.675,6.675,0,0,1,6.667-6.667H-2860a4.445,4.445,0,0,0,4.3-3.333h.14a4.445,4.445,0,0,1,4.445-4.444h22.223a4.444,4.444,0,0,1,4.444,4.444h.141a4.443,4.443,0,0,0,4.3,3.333h23.332a6.675,6.675,0,0,1,6.667,6.667v46.667a6.674,6.674,0,0,1-6.667,6.666Zm29.19-44.141A19.868,19.868,0,0,0-2860-516.223a19.874,19.874,0,0,0,5.857,14.143A19.874,19.874,0,0,0-2840-496.223a19.867,19.867,0,0,0,14.142-5.857A19.869,19.869,0,0,0-2820-516.223a19.868,19.868,0,0,0-5.858-14.141A19.871,19.871,0,0,0-2840-536.223,19.872,19.872,0,0,0-2854.143-530.364Zm34.143-6.969a2.225,2.225,0,0,0,2.222,2.222,2.225,2.225,0,0,0,2.222-2.222,2.225,2.225,0,0,0-2.222-2.222A2.225,2.225,0,0,0-2820-537.333Zm-31.733,21.11A11.746,11.746,0,0,1-2840-527.956a11.746,11.746,0,0,1,11.733,11.733A11.747,11.747,0,0,1-2840-504.489,11.747,11.747,0,0,1-2851.733-516.223Z" transform="translate(2890 570)"/></g></svg>