<svg xmlns="http://www.w3.org/2000/svg" xmlns:xlink="http://www.w3.org/1999/xlink" width="100" height="100" viewBox="0 0 100 100"><defs><clipPath id="b"><rect width="100" height="100"/></clipPath></defs><g id="a" clip-path="url(#b)"><path d="M-2153-452a7,7,0,0,1-7-7v-33a7,7,0,0,1,7-7h36a7,7,0,0,1,7,7v33a7,7,0,0,1-7,7Zm-50-53a7,7,0,0,1-7-7v-33a7,7,0,0,1,7-7h56a7,7,0,0,1,7,7v33a7,7,0,0,1-7,7Z" transform="translate(2210 552)"/><path d="M-2203-452a7,7,0,0,1-7-7v-33a7,7,0,0,1,7-7h30a7,7,0,0,1,7,7v33a7,7,0,0,1-7,7Zm76-53a7,7,0,0,1-7-7v-33a7,7,0,0,1,7-7h10a7,7,0,0,1,7,7v33a7,7,0,0,1-7,7Z" transform="translate(2210 552)" opacity="0.5"/></g></svg>