<svg xmlns="http://www.w3.org/2000/svg" xmlns:xlink="http://www.w3.org/1999/xlink" width="100" height="100" viewBox="0 0 100 100"><defs><clipPath id="b"><rect width="100" height="100"/></clipPath></defs><g id="a" clip-path="url(#b)"><path d="M-2698.545,79.015h0a50.5,50.5,0,0,1-6.965-5.814,49.826,49.826,0,0,1-10.715-15.893A49.61,49.61,0,0,1-2720,41.844h42.916l-21.46,37.17Zm73.562-19.71-41.173-23.771V-12a49.582,49.582,0,0,1,15.462,3.772A49.823,49.823,0,0,1-2634.8,2.488a49.83,49.83,0,0,1,10.715,15.893,49.687,49.687,0,0,1,3.929,19.462,49.693,49.693,0,0,1-3.929,19.463c-.276.653-.577,1.325-.9,2Z" transform="translate(2720.156 12.157)"/><path d="M-2677.243,90.149c-.67-.283-1.343-.585-2-.9l22.927-39.71,39.705,22.925a50.366,50.366,0,0,1-5.815,6.967,49.814,49.814,0,0,1-15.893,10.715,49.685,49.685,0,0,1-19.462,3.929A49.686,49.686,0,0,1-2677.243,90.149Zm15.462-50.071h-45.843a49.6,49.6,0,0,1,3.773-15.463,49.825,49.825,0,0,1,10.715-15.893,49.828,49.828,0,0,1,15.893-10.715,49.6,49.6,0,0,1,15.462-3.772V40.079h0Z" transform="translate(2707.781 5.922)" opacity="0.5"/></g></svg>