<svg xmlns="http://www.w3.org/2000/svg" xmlns:xlink="http://www.w3.org/1999/xlink" width="100" height="100" viewBox="0 0 100 100"><defs><clipPath id="b"><rect width="100" height="100"/></clipPath></defs><g id="a" clip-path="url(#b)"><path d="M-2160,88h-.5v0a49.666,49.666,0,0,1-18.961-3.927,49.817,49.817,0,0,1-15.893-10.715,49.87,49.87,0,0,1-10.716-15.893A49.7,49.7,0,0,1-2210,38a49.7,49.7,0,0,1,3.927-19.463,49.87,49.87,0,0,1,10.716-15.893,49.832,49.832,0,0,1,15.893-10.715A49.666,49.666,0,0,1-2160.5-12v0h1v0a49.67,49.67,0,0,1,18.961,3.927,49.836,49.836,0,0,1,15.894,10.715,49.87,49.87,0,0,1,10.716,15.893A49.719,49.719,0,0,1-2110,38a49.722,49.722,0,0,1-3.928,19.463,49.87,49.87,0,0,1-10.716,15.893,49.821,49.821,0,0,1-15.894,10.715A49.67,49.67,0,0,1-2159.5,88v0Zm28.283-21.716a39.893,39.893,0,0,1-12.713,8.573A39.736,39.736,0,0,1-2159.5,78v9a49.028,49.028,0,0,0,41.674-24.071l-7.779-4.491A40.029,40.029,0,0,1-2131.717,66.284Zm-70.458-3.358A49.024,49.024,0,0,0-2160.5,87V78a39.712,39.712,0,0,1-15.07-3.14,39.853,39.853,0,0,1-12.713-8.573,39.986,39.986,0,0,1-6.113-7.848Zm63.387-3.713a29.918,29.918,0,0,1-9.535,6.43A29.793,29.793,0,0,1-2159.5,68v9a39.02,39.02,0,0,0,33.015-19.07l-7.782-4.493A30.029,30.029,0,0,1-2138.788,59.213Zm-54.729-1.286A39.019,39.019,0,0,0-2160.5,77V68a29.807,29.807,0,0,1-11.178-2.354,29.9,29.9,0,0,1-9.534-6.43,30,30,0,0,1-4.521-5.779Zm34.016.067v9a29.015,29.015,0,0,0,24.354-14.069l-.031-.018-15.7,2.9A19.885,19.885,0,0,1-2159.5,57.993Zm-25.356-5.067A29.019,29.019,0,0,0-2160.5,67v-9a19.86,19.86,0,0,1-13.64-5.852,20.158,20.158,0,0,1-2.93-3.708Zm59.752-34.5a40.318,40.318,0,0,1,1.96,4A39.744,39.744,0,0,1-2120,38a39.747,39.747,0,0,1-3.145,15.57,40.423,40.423,0,0,1-1.961,4l7.78,4.491A48.7,48.7,0,0,0-2111,38a48.706,48.706,0,0,0-6.325-24.062ZM-2209,38a48.7,48.7,0,0,0,6.324,24.062l7.778-4.491a39.875,39.875,0,0,1-1.959-4A39.749,39.749,0,0,1-2200,38a39.742,39.742,0,0,1,3.143-15.57,39.781,39.781,0,0,1,1.959-4l-7.779-4.491A48.707,48.707,0,0,0-2209,38Zm79,0a29.836,29.836,0,0,1-2.359,11.677,30.233,30.233,0,0,1-1.409,2.891l7.784,4.494A38.764,38.764,0,0,0-2121,38a38.765,38.765,0,0,0-4.934-18.972l-4.166,16.5Q-2130,36.757-2130,38Zm-69,0a38.766,38.766,0,0,0,4.983,19.062l7.783-4.494a29.761,29.761,0,0,1-1.407-2.891A29.818,29.818,0,0,1-2190,38a29.818,29.818,0,0,1,2.359-11.678,29.66,29.66,0,0,1,1.407-2.891l-7.783-4.494A38.766,38.766,0,0,0-2199,38Zm22.8,9.927a19.008,19.008,0,0,0,15.694,9.066v-.458l-6.3-11.21a10.08,10.08,0,0,1-1.6-1.9ZM-2189,38a28.833,28.833,0,0,0,3.642,14.062l7.783-4.494A19.9,19.9,0,0,1-2180,38a20.007,20.007,0,0,1,1.287-7.093c-2.313-2.615-4.445-5.021-5.693-6.42l-.952-.549A28.826,28.826,0,0,0-2189,38Zm55.075,12.681a28.807,28.807,0,0,0,2.9-11.48ZM-2179,38a18.872,18.872,0,0,0,2.3,9.062l7.8-4.5a9.927,9.927,0,0,1-.481-1.09c-1.753-1.986-5.267-5.966-8.572-9.7A18.927,18.927,0,0,0-2179,38Zm-14.516-19.928,7.782,4.493a29.99,29.99,0,0,1,4.521-5.778q.617-.618,1.265-1.2l11.5-15.67A39.133,39.133,0,0,0-2193.517,18.072Zm49.087-16.929a39.893,39.893,0,0,1,12.713,8.572,40.038,40.038,0,0,1,6.112,7.848l7.778-4.491A49.028,49.028,0,0,0-2159.365-11l13.15,11.435Q-2145.316.768-2144.43,1.143Zm-57.745,11.93,7.777,4.49a39.96,39.96,0,0,1,6.113-7.848,39.852,39.852,0,0,1,12.713-8.572,39.631,39.631,0,0,1,8.009-2.432l7.061-9.623V-11A49.021,49.021,0,0,0-2202.175,13.073Zm75.049,3.963a39.264,39.264,0,0,0-16.7-14.524Z" transform="translate(2210.001 12)" opacity="0.5"/><path d="M2234.455,76.734l25.532,14.771,16.888-19.823,8.719-24.453-25.583-14.741-34.245,9.75Z" transform="translate(-2210 -12)" opacity="0.5"/></g></svg>