<svg xmlns="http://www.w3.org/2000/svg" xmlns:xlink="http://www.w3.org/1999/xlink" width="100" height="100" viewBox="0 0 100 100"><defs><clipPath id="b"><rect width="100" height="100"/></clipPath></defs><g id="a" clip-path="url(#b)"><path d="M-1866,88a4,4,0,0,1-4-4V-8a4,4,0,0,1,4-4,4,4,0,0,1,4,4V80h88a4,4,0,0,1,4,4,4,4,0,0,1-4,4Z" transform="translate(1870 12)"/><path d="M-5771.115-653.271l-7.7-28.726a3.423,3.423,0,0,1,.58-2.961,3.452,3.452,0,0,1,.5-.64l19.8-19.8V-728h-2.951a2.288,2.288,0,0,1-1.995-3.409l6.382-11.347a2.288,2.288,0,0,1,3.988,0l6.382,11.347A2.287,2.287,0,0,1-5748.11-728h-2.951v24.02a3.425,3.425,0,0,1-1.317,2.7,3.491,3.491,0,0,1-.277.312l-19.034,19.035,7.2,26.882a3.431,3.431,0,0,1-2.426,4.2,3.436,3.436,0,0,1-.891.118A3.43,3.43,0,0,1-5771.115-653.271Z" transform="translate(4691.48 3530.293) rotate(30)" opacity="0.5"/></g></svg>