<svg xmlns="http://www.w3.org/2000/svg" xmlns:xlink="http://www.w3.org/1999/xlink" width="100" height="100" viewBox="0 0 100 100"><defs><clipPath id="b"><rect width="100" height="100"/></clipPath></defs><g id="a" clip-path="url(#b)"><path d="M-1982,83a6,6,0,0,1-6-6V37a6,6,0,0,1,6-6h6a6,6,0,0,1,6,6V77a6,6,0,0,1-6,6Zm-26,0a6,6,0,0,1-6-6V-6a6,6,0,0,1,6-6h6a6,6,0,0,1,6,6V77a6,6,0,0,1-6,6Zm-26,0a6,6,0,0,1-6-6V20a6,6,0,0,1,6-6h6a6,6,0,0,1,6,6V77a6,6,0,0,1-6,6Z" transform="translate(2056 16)" opacity="0.33"/><path d="M-2036,88a4,4,0,0,1-4-4V-8a4,4,0,0,1,4-4,4,4,0,0,1,4,4V80h88a4,4,0,0,1,4,4,4,4,0,0,1-4,4Z" transform="translate(2040 12)"/></g></svg>