<svg xmlns="http://www.w3.org/2000/svg" xmlns:xlink="http://www.w3.org/1999/xlink" width="100" height="100" viewBox="0 0 100 100"><defs><clipPath id="b"><rect width="100" height="100"/></clipPath></defs><g id="a" clip-path="url(#b)"><path d="M-1813,96a49.685,49.685,0,0,1-19.463-3.929c-.671-.284-1.343-.586-2-.9l10.06-17.424A29.754,29.754,0,0,0-1813,76a29.825,29.825,0,0,0,23.738-11.676l17.431,10.064a50.448,50.448,0,0,1-5.815,6.967,49.828,49.828,0,0,1-15.893,10.715A49.683,49.683,0,0,1-1813,96Zm-28.389-8.83h0a50.415,50.415,0,0,1-6.966-5.815,49.834,49.834,0,0,1-10.715-15.893A49.626,49.626,0,0,1-1862.844,50h20.109a29.832,29.832,0,0,0,11.411,19.738l-10.064,17.431Zm73.561-19.709h0L-1785.251,57.4A29.756,29.756,0,0,0-1783,46a30.086,30.086,0,0,0-26-29.734V-3.843a49.6,49.6,0,0,1,15.462,3.772,49.828,49.828,0,0,1,15.893,10.715,49.835,49.835,0,0,1,10.715,15.893A49.684,49.684,0,0,1-1763,46a49.691,49.691,0,0,1-3.929,19.463c-.284.67-.585,1.343-.9,2ZM-1842.735,42h-20.109a49.61,49.61,0,0,1,3.773-15.463c.283-.669.585-1.342.9-2l17.424,10.06a29.785,29.785,0,0,0-1.985,7.4Zm6-14.324h0l-17.431-10.064a50.415,50.415,0,0,1,5.815-6.967A49.835,49.835,0,0,1-1832.462-.071,49.6,49.6,0,0,1-1817-3.843V16.266a29.832,29.832,0,0,0-19.738,11.409Z" transform="translate(1863 4)" opacity="0.5"/><path d="M-2868.544,79.014h0a50.36,50.36,0,0,1-6.966-5.814,49.829,49.829,0,0,1-10.715-15.893A49.639,49.639,0,0,1-2890,41.844h20.109a29.829,29.829,0,0,0,11.411,19.738l-10.064,17.431Zm73.561-19.709h0l-17.423-10.059a29.757,29.757,0,0,0,2.251-11.4,30.086,30.086,0,0,0-26-29.734V-12a49.584,49.584,0,0,1,15.462,3.772A49.835,49.835,0,0,1-2804.8,2.488a49.826,49.826,0,0,1,10.715,15.893,49.682,49.682,0,0,1,3.929,19.462,49.689,49.689,0,0,1-3.929,19.463c-.285.675-.587,1.347-.9,2Zm-68.911-39.786h0l-17.431-10.064a50.454,50.454,0,0,1,5.815-6.967,49.827,49.827,0,0,1,15.893-10.715A49.6,49.6,0,0,1-2844.156-12V8.109a29.833,29.833,0,0,0-19.738,11.409Z" transform="translate(2890.155 12.157)"/></g></svg>