<svg xmlns="http://www.w3.org/2000/svg" xmlns:xlink="http://www.w3.org/1999/xlink" width="100" height="100" viewBox="0 0 100 100"><defs><clipPath id="b"><rect width="100" height="100"/></clipPath></defs><g id="a" clip-path="url(#b)"><path d="M-1808.746,44.932a3,3,0,0,1,1.1-4.1l9.526-5.5a3,3,0,0,1,4.1,1.1,3,3,0,0,1-1.1,4.1l-9.527,5.5a2.987,2.987,0,0,1-1.5.4A3,3,0,0,1-1808.746,44.932Zm-15.7-.868-11.153-12.83a3,3,0,0,1,.3-4.232,3,3,0,0,1,4.233.3l11.153,12.829a3,3,0,0,1-.3,4.233,2.987,2.987,0,0,1-1.966.736A3,3,0,0,1-1824.444,44.063ZM-1868.5,38.1a3,3,0,0,1,1.1-4.1l17.321-10a3,3,0,0,1,4.1,1.1,3,3,0,0,1-1.1,4.1l-17.32,10a2.986,2.986,0,0,1-1.5.4A3,3,0,0,1-1868.5,38.1Zm83.144-10.682a3,3,0,0,1-2.121-3.674l8.8-32.842A3,3,0,0,1-1775-11.224a3,3,0,0,1,2.121,3.675l-8.8,32.841a3,3,0,0,1-2.9,2.224A3.007,3.007,0,0,1-1785.356,27.413Z" transform="translate(1871.179 18.905)" opacity="0.5"/><path d="M-1866,88a4,4,0,0,1-4-4V-8a4,4,0,0,1,4-4,4,4,0,0,1,4,4V80h88a4,4,0,0,1,4,4,4,4,0,0,1-4,4Zm48-32a4,4,0,0,1,4-4,4,4,0,0,1,4,4,4,4,0,0,1-4,4A4,4,0,0,1-1818,56Zm27-16a4,4,0,0,1,4-4,4,4,0,0,1,4,4,4,4,0,0,1-4,4A4,4,0,0,1-1791,40Zm-52-11a4,4,0,0,1,4-4,4,4,0,0,1,4,4,4,4,0,0,1-4,4A4,4,0,0,1-1843,29Z" transform="translate(1870 12)"/></g></svg>