<svg xmlns="http://www.w3.org/2000/svg" xmlns:xlink="http://www.w3.org/1999/xlink" width="100" height="100" viewBox="0 0 100 100"><defs><clipPath id="b"><rect width="100" height="100"/></clipPath></defs><g id="a" clip-path="url(#b)"><path d="M-1813,96a49.687,49.687,0,0,1-19.462-3.929,49.834,49.834,0,0,1-15.893-10.715,49.836,49.836,0,0,1-10.715-15.893A49.69,49.69,0,0,1-1863,46a49.688,49.688,0,0,1,3.929-19.462,49.836,49.836,0,0,1,10.715-15.893A49.834,49.834,0,0,1-1832.462-.071,49.688,49.688,0,0,1-1813-4a49.686,49.686,0,0,1,19.462,3.929,49.833,49.833,0,0,1,15.893,10.715,49.833,49.833,0,0,1,10.715,15.893A49.688,49.688,0,0,1-1763,46a49.69,49.69,0,0,1-3.929,19.463,49.834,49.834,0,0,1-10.715,15.893,49.834,49.834,0,0,1-15.893,10.715A49.686,49.686,0,0,1-1813,96Zm0-80a30.034,30.034,0,0,0-30,30,30.035,30.035,0,0,0,30,30,30.034,30.034,0,0,0,30-30A30.034,30.034,0,0,0-1813,16Z" transform="translate(1863 4)" opacity="0.33"/><path d="M-2519.2,83.915A49.846,49.846,0,0,1-2535.093,73.2a49.845,49.845,0,0,1-10.715-15.893c-.173-.408-.343-.814-.482-1.233-.043-.1-.085-.206-.125-.31a10,10,0,0,1,5.752-12.92,10,10,0,0,1,12.919,5.752q.157.408.276.821l.048-.013a29.96,29.96,0,0,0,27.684,18.441,30.034,30.034,0,0,0,30-30,30.085,30.085,0,0,0-26-29.734V-12a49.59,49.59,0,0,1,15.463,3.773,49.828,49.828,0,0,1,15.893,10.715,49.837,49.837,0,0,1,10.715,15.893,49.686,49.686,0,0,1,3.928,19.462,49.69,49.69,0,0,1-3.928,19.463A49.837,49.837,0,0,1-2464.382,73.2a49.853,49.853,0,0,1-15.893,10.716,49.706,49.706,0,0,1-19.463,3.929A49.7,49.7,0,0,1-2519.2,83.915Z" transform="translate(2549.737 12.156)"/></g></svg>