<svg xmlns="http://www.w3.org/2000/svg" xmlns:xlink="http://www.w3.org/1999/xlink" width="100" height="100" viewBox="0 0 100 100"><defs><clipPath id="b"><rect width="100" height="100"/></clipPath></defs><g id="a" clip-path="url(#b)"><path d="M-6106.734-487.785c-1.914-1.1-1.915-6.249-.293-12.624C-6114.99-505.4-6120-512.654-6120-520.727c0-15.064,17.443-27.273,38.962-27.273s38.96,12.209,38.96,27.273-17.444,27.271-38.96,27.271a54.113,54.113,0,0,1-13.158-1.594c-4.5,4.828-8.769,7.56-11.3,7.56A2.439,2.439,0,0,1-6106.734-487.785Z" transform="translate(6120 563)"/><path d="M-6206.494-480.028h-.015c-1.862,0-4.93-2.053-8.007-5.357a38.312,38.312,0,0,1-9.326,1.13c-9.392,0-18.055-3.3-23.175-8.818,19.089-3.072,33.193-14.3,35.1-27.946a26.9,26.9,0,0,1,11.324,7,15.392,15.392,0,0,1,4.363,10.433,14.5,14.5,0,0,1-2.48,8.019,21.5,21.5,0,0,1-6.714,6.381c1.19,4.675,1.108,8.186-.207,8.945A1.7,1.7,0,0,1-6206.494-480.028Z" transform="translate(6296.229 565.927)" opacity="0.5"/></g></svg>