<svg xmlns="http://www.w3.org/2000/svg" xmlns:xlink="http://www.w3.org/1999/xlink" width="100" height="100" viewBox="0 0 100 100"><defs><clipPath id="b"><rect width="100" height="100"/></clipPath></defs><g id="a" clip-path="url(#b)"><path d="M-2120-636h-80a10.011,10.011,0,0,1-10-10v-80a10.011,10.011,0,0,1,10-10h80a10.011,10.011,0,0,1,10,10v80A10.011,10.011,0,0,1-2120-636Zm-75-89a4,4,0,0,0-4,4v70a4,4,0,0,0,4,4h70a4,4,0,0,0,4-4v-70a4.005,4.005,0,0,0-4-4Z" transform="translate(2210 736)" opacity="0.5"/><path d="M-2174.293-675.293h-25a5,5,0,0,1-5-5,5,5,0,0,1,5-5h20v-45a5,5,0,0,1,5-5,5,5,0,0,1,5,5v50a5,5,0,0,1-5,5Z" transform="translate(1098.078 2087.013) rotate(45)"/></g></svg>