<svg xmlns="http://www.w3.org/2000/svg" xmlns:xlink="http://www.w3.org/1999/xlink" width="100" height="100" viewBox="0 0 100 100"><defs><clipPath id="b"><rect width="100" height="100"/></clipPath></defs><g id="a" clip-path="url(#b)"><path d="M30.538,96.071A50.162,50.162,0,1,1,50,100,49.827,49.827,0,0,1,30.538,96.071ZM6,50A44,44,0,1,0,50,6,44.05,44.05,0,0,0,6,50ZM42.043,68.7l-2.121-2.121a5.035,5.035,0,0,1-.522-.613L23.19,49.756a5,5,0,0,1,0-7.071l2.121-2.121a5,5,0,0,1,7.071,0L45.623,53.8,68.206,31.221a5,5,0,0,1,7.07,0L77.4,33.342a5,5,0,0,1,0,7.071L49.113,68.7a5,5,0,0,1-7.07,0Z" transform="translate(0 0)"/></g></svg>