<svg xmlns="http://www.w3.org/2000/svg" xmlns:xlink="http://www.w3.org/1999/xlink" width="100" height="100" viewBox="0 0 100 100"><defs><clipPath id="b"><rect width="100" height="100"/></clipPath></defs><g id="a" clip-path="url(#b)"><path d="M42.08-122.259H5.487a5,5,0,0,1-5-5v-3.865a5,5,0,0,1,5-5H42.08v-67.789a5,5,0,0,1,5-5h3.865a5,5,0,0,1,5,5v76.653a5,5,0,0,1-5,5Z" transform="translate(-87.281 140.878) rotate(45)"/><path d="M18.04-140.3H-6.31a4.87,4.87,0,0,1-4.87-4.87,4.87,4.87,0,0,1,4.87-4.87H18.04V-196.3a4.87,4.87,0,0,1,4.87-4.87,4.87,4.87,0,0,1,4.87,4.87v51.134a4.87,4.87,0,0,1-4.87,4.87Z" transform="translate(-80.122 144.666) rotate(45)" opacity="0.5"/></g></svg>