<svg xmlns="http://www.w3.org/2000/svg" xmlns:xlink="http://www.w3.org/1999/xlink" width="100" height="100" viewBox="0 0 100 100"><defs><clipPath id="b"><rect width="100" height="100"/></clipPath></defs><g id="a" clip-path="url(#b)"><path d="M-6070-454a49.687,49.687,0,0,1-19.462-3.929,49.83,49.83,0,0,1-15.893-10.716,49.834,49.834,0,0,1-10.716-15.893A49.681,49.681,0,0,1-6120-504a49.679,49.679,0,0,1,3.929-19.462,49.84,49.84,0,0,1,10.716-15.893,49.83,49.83,0,0,1,15.893-10.715A49.691,49.691,0,0,1-6070-554a49.691,49.691,0,0,1,19.462,3.929,49.837,49.837,0,0,1,15.893,10.715,49.827,49.827,0,0,1,10.716,15.893A49.679,49.679,0,0,1-6020-504a49.681,49.681,0,0,1-3.929,19.462,49.828,49.828,0,0,1-10.716,15.893,49.827,49.827,0,0,1-15.893,10.716A49.687,49.687,0,0,1-6070-454Zm0-90a40.045,40.045,0,0,0-40,40,40.045,40.045,0,0,0,40,40,40.045,40.045,0,0,0,40-40A40.045,40.045,0,0,0-6070-544Z" transform="translate(6120 554)"/><path d="M-6103.736-500.736l-13.435-13.435a3.99,3.99,0,0,1-1.171-2.9V-548a4,4,0,0,1,4-4,4,4,0,0,1,4,4v29.344l12.263,12.263a4,4,0,0,1,0,5.657,3.986,3.986,0,0,1-2.828,1.171A3.987,3.987,0,0,1-6103.736-500.736Z" transform="translate(6164.343 567)" opacity="0.5"/></g></svg>