<svg xmlns="http://www.w3.org/2000/svg" xmlns:xlink="http://www.w3.org/1999/xlink" width="100" height="100" viewBox="0 0 100 100"><defs><clipPath id="b"><rect width="100" height="100"/></clipPath></defs><g id="a" clip-path="url(#b)"><path d="M-6921.167-647.666v-3.724l-2.633,2.633a.666.666,0,0,1-.943,0,.667.667,0,0,1,0-.941l2.635-2.634h-3.726a.665.665,0,0,1-.665-.667.665.665,0,0,1,.665-.666h3.726l-2.635-2.634a.667.667,0,0,1,0-.941.666.666,0,0,1,.943,0l2.633,2.633v-3.724a.668.668,0,0,1,.668-.666.667.667,0,0,1,.667.666v3.724l2.633-2.633a.668.668,0,0,1,.944,0,.667.667,0,0,1,0,.941l-2.634,2.634h3.723a.666.666,0,0,1,.668.666.666.666,0,0,1-.668.667h-3.723l2.634,2.634a.667.667,0,0,1,0,.941.668.668,0,0,1-.944,0l-2.633-2.633v3.724a.666.666,0,0,1-.667.665A.666.666,0,0,1-6921.167-647.666ZM-6907.5-655v-5.585l-3.952,3.95a1,1,0,0,1-1.413,0,1,1,0,0,1,0-1.413l3.952-3.95h-5.587a1,1,0,0,1-1-1,1,1,0,0,1,1-1h5.583l-3.948-3.948a1,1,0,0,1,0-1.415,1,1,0,0,1,1.413,0l3.952,3.95V-671a1,1,0,0,1,1-1,1,1,0,0,1,1,1v5.585l3.95-3.95a1,1,0,0,1,1.414,0,1,1,0,0,1,0,1.415l-3.95,3.948h5.587a1,1,0,0,1,1,1,1,1,0,0,1-1,1h-5.587l3.95,3.95a1,1,0,0,1,0,1.413,1,1,0,0,1-1.414,0l-3.95-3.95V-655a1,1,0,0,1-1,1A1,1,0,0,1-6907.5-655Zm-29.669-4.665v-3.724l-2.631,2.633a.668.668,0,0,1-.944,0,.67.67,0,0,1,0-.943l2.634-2.633h-3.726a.666.666,0,0,1-.666-.668.666.666,0,0,1,.666-.665h3.726l-2.634-2.634a.667.667,0,0,1,0-.941.665.665,0,0,1,.944,0l2.631,2.631v-3.722a.668.668,0,0,1,.668-.666.666.666,0,0,1,.667.666v3.722l2.632-2.631a.663.663,0,0,1,.943,0,.664.664,0,0,1,0,.941l-2.632,2.634h3.724a.666.666,0,0,1,.667.665.667.667,0,0,1-.667.668h-3.724l2.632,2.633a.666.666,0,0,1,0,.943.666.666,0,0,1-.943,0l-2.632-2.633v3.724a.666.666,0,0,1-.667.665A.668.668,0,0,1-6937.167-659.666Zm-11.4-13.189v-.03A22.621,22.621,0,0,1-6970-695.475a22.619,22.619,0,0,1,22.621-22.618,22.68,22.68,0,0,1,5.867.768A22.62,22.62,0,0,1-6921.188-730a22.617,22.617,0,0,1,22.616,22.621,23.232,23.232,0,0,1-.133,2.48,17.783,17.783,0,0,1,10.847-3.672A17.858,17.858,0,0,1-6870-690.712a17.858,17.858,0,0,1-16.663,17.818v.039Z" transform="translate(6970.001 738)"/><path d="M-6955.8-524.755a2.556,2.556,0,0,1-.938-3.5l10.261-17.736a2.569,2.569,0,0,1,3.505-.938,2.56,2.56,0,0,1,.94,3.5l-10.263,17.736a2.568,2.568,0,0,1-2.225,1.28A2.555,2.555,0,0,1-6955.8-524.755Zm38.486-4.433a2.559,2.559,0,0,1-.94-3.5l7.7-13.3a2.567,2.567,0,0,1,3.5-.938,2.558,2.558,0,0,1,.94,3.5l-7.7,13.3a2.566,2.566,0,0,1-2.225,1.281A2.56,2.56,0,0,1-6917.312-529.188Zm-54.673-5.543a2.558,2.558,0,0,1-.938-3.5l4.489-7.758a2.569,2.569,0,0,1,3.506-.938,2.559,2.559,0,0,1,.938,3.5l-4.489,7.758a2.568,2.568,0,0,1-2.226,1.281A2.556,2.556,0,0,1-6971.985-534.731Z" transform="translate(6989.269 617.071)" opacity="0.5"/></g></svg>