<svg xmlns="http://www.w3.org/2000/svg" xmlns:xlink="http://www.w3.org/1999/xlink" width="100" height="100" viewBox="0 0 100 100"><defs><clipPath id="b"><rect width="100" height="100"/></clipPath></defs><g id="a" clip-path="url(#b)"><path d="M-6763.23-305.026l-6.139-1.645,7.181-14.526,9.21,2.468-5.538,8.386,6.14,1.645-17.059,18.462Zm31.155-7.086-3.579-.959,4.186-8.47,5.371,1.439-3.229,4.889,3.579.959-9.944,10.763Zm-20.3,3.413h0Zm-26.194-14.156v-.031A22.62,22.62,0,0,1-6800-345.476a22.619,22.619,0,0,1,22.623-22.617,22.715,22.715,0,0,1,5.867.768A22.617,22.617,0,0,1-6751.189-380a22.618,22.618,0,0,1,22.617,22.621,23.259,23.259,0,0,1-.133,2.481,17.766,17.766,0,0,1,10.847-3.671A17.856,17.856,0,0,1-6700-340.713a17.859,17.859,0,0,1-16.663,17.818v.039Z" transform="translate(6800 385)"/><path d="M-6930.889-523.42a3.007,3.007,0,0,1-1.1-4.109l3.762-6.512a3.012,3.012,0,0,1,4.112-1.1,3.007,3.007,0,0,1,1.1,4.109l-3.762,6.512a3.01,3.01,0,0,1-2.61,1.505A3,3,0,0,1-6930.889-523.42Zm22.576-2.6a3.007,3.007,0,0,1-1.1-4.11l9.029-15.629a3.011,3.011,0,0,1,4.112-1.1,3.007,3.007,0,0,1,1.1,4.109l-9.031,15.631a3.008,3.008,0,0,1-2.609,1.5A3,3,0,0,1-6908.313-526.024Zm-59.45-6.514a3,3,0,0,1-1.1-4.109l5.267-9.117a3.011,3.011,0,0,1,4.112-1.1,3.007,3.007,0,0,1,1.1,4.109l-5.268,9.118a3.01,3.01,0,0,1-2.61,1.5A3,3,0,0,1-6967.763-532.538Z" transform="translate(6983.768 613.071)" opacity="0.5"/></g></svg>