<svg xmlns="http://www.w3.org/2000/svg" xmlns:xlink="http://www.w3.org/1999/xlink" width="100" height="100" viewBox="0 0 100 100"><defs><clipPath id="b"><rect width="100" height="100"/></clipPath></defs><g id="a" clip-path="url(#b)"><path d="M-5588.569-321.855v-.031A22.619,22.619,0,0,1-5610-344.476a22.619,22.619,0,0,1,22.621-22.617,22.65,22.65,0,0,1,5.867.769A22.618,22.618,0,0,1-5561.189-379a22.619,22.619,0,0,1,22.618,22.621,23.143,23.143,0,0,1-.134,2.482,17.774,17.774,0,0,1,10.848-3.672A17.858,17.858,0,0,1-5510-339.713a17.858,17.858,0,0,1-16.664,17.818v.039Z" transform="translate(5610 383.001)"/><path d="M-6600.9-697.727v-5.911l-4.178,4.178a1.057,1.057,0,0,1-1.5,0,1.06,1.06,0,0,1,0-1.495l4.182-4.181h-5.913a1.057,1.057,0,0,1-1.057-1.059,1.056,1.056,0,0,1,1.057-1.057h5.913l-4.182-4.181a1.06,1.06,0,0,1,0-1.495,1.057,1.057,0,0,1,1.5,0l4.178,4.178v-5.911a1.059,1.059,0,0,1,1.06-1.056,1.058,1.058,0,0,1,1.059,1.056v5.911l4.179-4.178a1.056,1.056,0,0,1,1.5,0,1.058,1.058,0,0,1,0,1.495l-4.181,4.181h5.911a1.059,1.059,0,0,1,1.06,1.057,1.059,1.059,0,0,1-1.06,1.059h-5.911l4.181,4.181a1.058,1.058,0,0,1,0,1.495,1.056,1.056,0,0,1-1.5,0l-4.179-4.178v5.911a1.058,1.058,0,0,1-1.059,1.057A1.059,1.059,0,0,1-6600.9-697.727Zm26.457-5.293v-8.866l-6.271,6.27a1.58,1.58,0,0,1-2.244,0,1.585,1.585,0,0,1,0-2.245l6.27-6.27h-8.866a1.587,1.587,0,0,1-1.588-1.587,1.589,1.589,0,0,1,1.588-1.587h8.863l-6.267-6.267a1.585,1.585,0,0,1,0-2.245,1.585,1.585,0,0,1,2.244,0l6.271,6.27v-8.866a1.584,1.584,0,0,1,1.587-1.585,1.584,1.584,0,0,1,1.587,1.585v8.866l6.271-6.27a1.583,1.583,0,0,1,2.242,0,1.585,1.585,0,0,1,0,2.245l-6.267,6.267h8.865a1.589,1.589,0,0,1,1.588,1.587,1.587,1.587,0,0,1-1.588,1.587h-8.869l6.273,6.27a1.591,1.591,0,0,1,0,2.245,1.582,1.582,0,0,1-2.245,0l-6.271-6.267v8.864a1.587,1.587,0,0,1-1.587,1.587A1.587,1.587,0,0,1-6574.443-703.02Zm-47.092-7.406v-5.911l-4.178,4.178a1.057,1.057,0,0,1-1.5,0,1.058,1.058,0,0,1,0-1.495l4.181-4.181h-5.913a1.057,1.057,0,0,1-1.057-1.059,1.056,1.056,0,0,1,1.057-1.056h5.913l-4.181-4.181a1.058,1.058,0,0,1,0-1.495,1.057,1.057,0,0,1,1.5,0l4.178,4.178v-5.911a1.059,1.059,0,0,1,1.06-1.056,1.058,1.058,0,0,1,1.059,1.056v5.911l4.179-4.178a1.056,1.056,0,0,1,1.5,0,1.058,1.058,0,0,1,0,1.495l-4.181,4.181h5.911a1.058,1.058,0,0,1,1.059,1.056,1.059,1.059,0,0,1-1.059,1.059h-5.911l4.181,4.181a1.058,1.058,0,0,1,0,1.495,1.056,1.056,0,0,1-1.5,0l-4.179-4.178v5.911a1.058,1.058,0,0,1-1.059,1.056A1.059,1.059,0,0,1-6621.535-710.426Z" transform="translate(6644.285 792.504)" opacity="0.5"/></g></svg>