<svg xmlns="http://www.w3.org/2000/svg" xmlns:xlink="http://www.w3.org/1999/xlink" width="100" height="100" viewBox="0 0 100 100"><defs><clipPath id="b"><rect width="100" height="100"/></clipPath></defs><g id="a" clip-path="url(#b)"><path d="M-6563.091-489.992h-49.7v-.024A18.109,18.109,0,0,1-6630-508.089a17.945,17.945,0,0,1,5.319-12.795,18.081,18.081,0,0,1,12.844-5.3,18.336,18.336,0,0,1,4.71.614,18.15,18.15,0,0,1,6.578-7.323,18.157,18.157,0,0,1,9.74-2.818A18.049,18.049,0,0,1-6583.1-534a19.224,19.224,0,0,0-.157,2.444,18.97,18.97,0,0,0,18.981,18.914,19.032,19.032,0,0,0,9.5-2.534,14.251,14.251,0,0,1,5.067,10.9,14.207,14.207,0,0,1-3.888,9.783,14.3,14.3,0,0,1-9.493,4.474v.029Z" transform="translate(6630 567.373)"/><path d="M-6959.5-452.608a2,2,0,0,1-.733-2.732l8-13.856a2,2,0,0,1,2.732-.731,2,2,0,0,1,.731,2.732l-8,13.855a2,2,0,0,1-1.735,1A1.987,1.987,0,0,1-6959.5-452.608Zm15-1.732a2,2,0,0,1-.731-2.732l2.5-4.33a2,2,0,0,1,2.732-.731,2,2,0,0,1,.733,2.732l-2.5,4.328a2,2,0,0,1-1.735,1A1.991,1.991,0,0,1-6944.5-454.34Zm15-1.734a2,2,0,0,1-.731-2.729l6-10.394a2,2,0,0,1,2.732-.731,2,2,0,0,1,.729,2.732l-6,10.391a2,2,0,0,1-1.734,1A1.992,1.992,0,0,1-6929.5-456.073ZM-6969-460.4a2,2,0,0,1-.731-2.732l3.5-6.063a2,2,0,0,1,2.732-.731,2,2,0,0,1,.731,2.732l-3.5,6.061a2,2,0,0,1-1.733,1A1.992,1.992,0,0,1-6969-460.4Zm30.5-4.331a2,2,0,0,1-.733-2.732l1-1.732a2,2,0,0,1,2.732-.731,2,2,0,0,1,.731,2.732l-1,1.732a2,2,0,0,1-1.731,1A2.006,2.006,0,0,1-6938.5-464.732Zm40.7-25.543-7.2-7.177a21.869,21.869,0,0,0,3.324-3.385l7.239,7.214a2.348,2.348,0,0,1,.7,1.674,2.355,2.355,0,0,1-.7,1.674,2.367,2.367,0,0,1-1.681.691A2.37,2.37,0,0,1-6897.8-490.276Zm-37.94-23.911a16.936,16.936,0,0,1,16.966-16.907,16.936,16.936,0,0,1,16.967,16.907,16.936,16.936,0,0,1-16.967,16.907A16.936,16.936,0,0,1-6935.739-514.187Zm38.555,2.369a21.8,21.8,0,0,0,.129-2.369,21.764,21.764,0,0,0-.129-2.365h10.309a2.374,2.374,0,0,1,2.377,2.365,2.375,2.375,0,0,1-2.377,2.369Zm-4.494-15.718a21.847,21.847,0,0,0-3.322-3.385l7.2-7.176a2.364,2.364,0,0,1,1.68-.693,2.362,2.362,0,0,1,1.681.693,2.354,2.354,0,0,1,.7,1.674,2.355,2.355,0,0,1-.7,1.674l-7.239,7.212Zm-33.888-.374-6.861-6.838a2.364,2.364,0,0,1,0-3.348,2.357,2.357,0,0,1,1.678-.693,2.354,2.354,0,0,1,1.679.693l6.9,6.877a21.713,21.713,0,0,0-3.4,3.31Zm19.507-7.749a21.9,21.9,0,0,0-2.713-.168c-.679,0-1.363.033-2.034.094v-9.9a2.373,2.373,0,0,1,2.374-2.365,2.373,2.373,0,0,1,2.375,2.365v9.975Z" transform="translate(6984.499 550)" opacity="0.5"/></g></svg>