<svg xmlns="http://www.w3.org/2000/svg" xmlns:xlink="http://www.w3.org/1999/xlink" width="100" height="100" viewBox="0 0 100 100"><defs><clipPath id="b"><rect width="100" height="100"/></clipPath></defs><g id="a" clip-path="url(#b)"><path d="M-6206.661-672.854h-61.909v-.032a22.509,22.509,0,0,1-15.192-6.99,22.524,22.524,0,0,1-6.239-15.6,22.469,22.469,0,0,1,6.625-15.993,22.48,22.48,0,0,1,16-6.625,22.722,22.722,0,0,1,5.866.769,22.688,22.688,0,0,1,8.194-9.153,22.547,22.547,0,0,1,12.13-3.522,22.46,22.46,0,0,1,15.991,6.624,22.478,22.478,0,0,1,6.625,16,23.2,23.2,0,0,1-.134,2.483,17.687,17.687,0,0,1,10.848-3.672,17.739,17.739,0,0,1,12.627,5.23A17.736,17.736,0,0,1-6190-690.712a17.791,17.791,0,0,1-4.843,12.226,17.794,17.794,0,0,1-11.822,5.591v.038Zm-37.613-12.778v23.968a3.663,3.663,0,0,0,3.659,3.659,3.662,3.662,0,0,0,3.658-3.659v-23.923c.071-.027.142-.052.215-.077l4.2,4.2a3.723,3.723,0,0,0,2.651,1.1,3.728,3.728,0,0,0,2.652-1.1,3.732,3.732,0,0,0,1.1-2.652,3.73,3.73,0,0,0-1.1-2.65l-10.6-10.6a3.721,3.721,0,0,0-2.65-1.1,3.721,3.721,0,0,0-2.651,1.1l-10.6,10.6a3.728,3.728,0,0,0-1.1,2.65,3.725,3.725,0,0,0,1.1,2.652,3.723,3.723,0,0,0,2.65,1.1,3.723,3.723,0,0,0,2.65-1.1l4.169-4.169Z" transform="translate(6290 743.999)"/></g></svg>