<svg xmlns="http://www.w3.org/2000/svg" xmlns:xlink="http://www.w3.org/1999/xlink" width="100" height="100" viewBox="0 0 100 100"><defs><clipPath id="b"><rect width="100" height="100"/></clipPath></defs><g id="a" clip-path="url(#b)"><path d="M-6586.256-322.854h0l-22.312,0v-.03a22.506,22.506,0,0,1-15.193-6.992,22.517,22.517,0,0,1-6.238-15.6,22.468,22.468,0,0,1,6.626-15.992,22.466,22.466,0,0,1,16-6.626,22.728,22.728,0,0,1,5.867.769,22.71,22.71,0,0,1,8.195-9.153A22.548,22.548,0,0,1-6581.189-380a22.477,22.477,0,0,1,15.994,6.626,22.48,22.48,0,0,1,6.624,16,23.214,23.214,0,0,1-.133,2.483,17.682,17.682,0,0,1,10.847-3.672,17.734,17.734,0,0,1,12.625,5.231A17.734,17.734,0,0,1-6530-340.712a17.794,17.794,0,0,1-4.842,12.228,17.787,17.787,0,0,1-11.822,5.591v.038h-26.781l9.593-18.318h-12.083l6.042-18.123h-20.125l-6.04,32.207h10.4l-.6,4.235Z" transform="translate(6630 391.001)"/><path d="M704.249,182,699,208.244h10.5l-3.574,26.244,19.32-36.741h-10.5L719.995,182Z" transform="translate(-662.9 -146.333)" opacity="0.5"/></g></svg>