<svg xmlns="http://www.w3.org/2000/svg" xmlns:xlink="http://www.w3.org/1999/xlink" width="100" height="100" viewBox="0 0 100 100"><defs><clipPath id="b"><rect width="100" height="100"/></clipPath></defs><g id="a" clip-path="url(#b)"><path d="M-5588.569-321.855v-.031A22.619,22.619,0,0,1-5610-344.476a22.619,22.619,0,0,1,22.621-22.617,22.647,22.647,0,0,1,5.867.769A22.619,22.619,0,0,1-5561.188-379a22.619,22.619,0,0,1,22.617,22.621,23.143,23.143,0,0,1-.134,2.482,17.774,17.774,0,0,1,10.848-3.672A17.857,17.857,0,0,1-5510-339.713a17.858,17.858,0,0,1-16.664,17.818v.039Z" transform="translate(5610 387.001)"/><path d="M-6955.8-524.755a2.555,2.555,0,0,1-.937-3.5l10.262-17.736a2.568,2.568,0,0,1,3.5-.938,2.556,2.556,0,0,1,.939,3.5l-10.262,17.736a2.567,2.567,0,0,1-2.225,1.281A2.56,2.56,0,0,1-6955.8-524.755Zm19.244-2.216a2.558,2.558,0,0,1-.939-3.5l3.206-5.541a2.57,2.57,0,0,1,3.505-.938,2.557,2.557,0,0,1,.939,3.5l-3.208,5.543a2.566,2.566,0,0,1-2.224,1.281A2.554,2.554,0,0,1-6936.555-526.971Zm19.242-2.218a2.556,2.556,0,0,1-.939-3.5l7.7-13.3a2.57,2.57,0,0,1,3.505-.938,2.557,2.557,0,0,1,.939,3.5l-7.7,13.3a2.565,2.565,0,0,1-2.224,1.281A2.555,2.555,0,0,1-6917.312-529.189Zm-50.673-5.543a2.557,2.557,0,0,1-.939-3.5l4.49-7.759a2.57,2.57,0,0,1,3.505-.938,2.557,2.557,0,0,1,.939,3.5l-4.49,7.761a2.564,2.564,0,0,1-2.223,1.279A2.564,2.564,0,0,1-6967.985-534.732Zm39.127-5.541a2.558,2.558,0,0,1-.939-3.5l1.282-2.216a2.57,2.57,0,0,1,3.505-.938,2.556,2.556,0,0,1,.939,3.5l-1.282,2.218a2.568,2.568,0,0,1-2.226,1.281A2.553,2.553,0,0,1-6928.858-540.273Z" transform="translate(6985.768 617.072)" opacity="0.5"/></g></svg>