<svg xmlns="http://www.w3.org/2000/svg" xmlns:xlink="http://www.w3.org/1999/xlink" width="100" height="100" viewBox="0 0 100 100"><defs><clipPath id="b"><rect width="100" height="100"/></clipPath></defs><g id="a" clip-path="url(#b)"><path d="M-6720.981-469.3h-58.7v-.029a21.343,21.343,0,0,1-14.405-6.628A21.351,21.351,0,0,1-6800-490.752a21.3,21.3,0,0,1,6.282-15.164,21.314,21.314,0,0,1,15.169-6.281,21.49,21.49,0,0,1,5.563.73,21.5,21.5,0,0,1,7.77-8.68,21.376,21.376,0,0,1,11.5-3.34,21.443,21.443,0,0,1,10.652,2.829,25.231,25.231,0,0,0,.8,8.463,25.172,25.172,0,0,0,4.547,9.1,25.491,25.491,0,0,0,7.47,6.422,25.845,25.845,0,0,0,9.377,3.168,25.943,25.943,0,0,0,3.439.233h.033a26.253,26.253,0,0,0,6.791-.9,26.581,26.581,0,0,0,2.9-.961,16.884,16.884,0,0,1,2.526,8.9,16.872,16.872,0,0,1-4.592,11.593,16.855,16.855,0,0,1-11.208,5.3v.036Z" transform="translate(6800.001 543.401)"/><path d="M-6787.545-631.345a2.373,2.373,0,0,1-.87-3.241l9.49-16.435a2.37,2.37,0,0,1,3.24-.868,2.371,2.371,0,0,1,.867,3.241l-9.486,16.433a2.378,2.378,0,0,1-2.059,1.188A2.371,2.371,0,0,1-6787.545-631.345Zm17.789-2.055a2.373,2.373,0,0,1-.866-3.241l2.964-5.135a2.371,2.371,0,0,1,3.24-.868,2.372,2.372,0,0,1,.871,3.241l-2.968,5.135a2.372,2.372,0,0,1-2.057,1.186A2.376,2.376,0,0,1-6769.756-633.4Zm17.793-2.057a2.367,2.367,0,0,1-.868-3.237l7.117-12.328a2.371,2.371,0,0,1,3.241-.868,2.371,2.371,0,0,1,.866,3.241l-7.117,12.326a2.368,2.368,0,0,1-2.055,1.186A2.358,2.358,0,0,1-6751.963-635.456Zm-46.851-5.133a2.37,2.37,0,0,1-.868-3.241l4.152-7.19a2.37,2.37,0,0,1,3.24-.868,2.371,2.371,0,0,1,.866,3.241l-4.151,7.188a2.368,2.368,0,0,1-2.058,1.188A2.365,2.365,0,0,1-6798.813-640.59Zm36.178-5.137a2.371,2.371,0,0,1-.871-3.241l1.187-2.052a2.371,2.371,0,0,1,3.241-.868,2.371,2.371,0,0,1,.867,3.241l-1.184,2.055a2.373,2.373,0,0,1-2.057,1.186A2.35,2.35,0,0,1-6762.636-645.727Zm15.659-39.347a22.509,22.509,0,0,1-10.655-13.8,22.5,22.5,0,0,1,2.327-17.283,22.9,22.9,0,0,1,13.949-10.637,23,23,0,0,1,7.657-.733,22.93,22.93,0,0,1,7.211,1.723c-.479.085-.966.194-1.449.324a17.788,17.788,0,0,0-12.259,21.935,17.79,17.79,0,0,0,21.584,12.868c.476-.127.953-.277,1.415-.445a22.932,22.932,0,0,1-5.381,5.1,23.088,23.088,0,0,1-7,3.194,23.252,23.252,0,0,1-6.022.8A22.865,22.865,0,0,1-6746.977-685.074Z" transform="translate(6817.196 729.592)" opacity="0.5"/></g></svg>