<svg xmlns="http://www.w3.org/2000/svg" xmlns:xlink="http://www.w3.org/1999/xlink" width="100" height="100" viewBox="0 0 100 100"><defs><clipPath id="b"><rect width="100" height="100"/></clipPath></defs><g id="a" clip-path="url(#b)"><path d="M-5588.569-321.855v-.031A22.619,22.619,0,0,1-5610-344.476a22.619,22.619,0,0,1,22.621-22.617,22.647,22.647,0,0,1,5.867.769A22.619,22.619,0,0,1-5561.188-379a22.619,22.619,0,0,1,22.617,22.621,23.143,23.143,0,0,1-.134,2.482,17.774,17.774,0,0,1,10.848-3.672A17.857,17.857,0,0,1-5510-339.713a17.858,17.858,0,0,1-16.664,17.818v.039Z" transform="translate(5610 400.001)"/></g></svg>