<svg xmlns="http://www.w3.org/2000/svg" xmlns:xlink="http://www.w3.org/1999/xlink" width="100" height="100" viewBox="0 0 100 100"><defs><clipPath id="b"><rect width="100" height="100"/></clipPath></defs><g id="a" clip-path="url(#b)"><path d="M-6563.091-489.992h-49.7v-.024A18.109,18.109,0,0,1-6630-508.089a17.945,17.945,0,0,1,5.319-12.795,18.081,18.081,0,0,1,12.844-5.3,18.336,18.336,0,0,1,4.71.614,18.15,18.15,0,0,1,6.578-7.323,18.157,18.157,0,0,1,9.74-2.818A18.049,18.049,0,0,1-6583.1-534a19.224,19.224,0,0,0-.157,2.444,18.97,18.97,0,0,0,18.981,18.914,19.032,19.032,0,0,0,9.5-2.534,14.251,14.251,0,0,1,5.067,10.9,14.207,14.207,0,0,1-3.888,9.783,14.3,14.3,0,0,1-9.493,4.474v.029Z" transform="translate(6630 577.373)"/><path d="M-6627.53-490.131l-7.2-7.177a21.839,21.839,0,0,0,3.323-3.384l7.238,7.213a2.352,2.352,0,0,1,.7,1.674,2.352,2.352,0,0,1-.7,1.674,2.362,2.362,0,0,1-1.68.692A2.367,2.367,0,0,1-6627.53-490.131Zm-37.941-23.91a16.936,16.936,0,0,1,16.967-16.907,16.936,16.936,0,0,1,16.966,16.907,16.936,16.936,0,0,1-16.966,16.907A16.936,16.936,0,0,1-6665.471-514.041Zm38.555,2.368a21.429,21.429,0,0,0,.129-2.368,21.422,21.422,0,0,0-.129-2.366h10.31a2.373,2.373,0,0,1,2.376,2.366,2.375,2.375,0,0,1-2.376,2.368Zm-4.494-15.717a21.831,21.831,0,0,0-3.321-3.384l7.2-7.177a2.366,2.366,0,0,1,1.679-.692,2.362,2.362,0,0,1,1.68.692,2.356,2.356,0,0,1,.7,1.674,2.352,2.352,0,0,1-.7,1.674l-7.238,7.213Zm-33.887-.374-6.861-6.839a2.363,2.363,0,0,1,0-3.348,2.362,2.362,0,0,1,1.678-.692,2.361,2.361,0,0,1,1.68.692l6.9,6.877a21.738,21.738,0,0,0-3.4,3.31Zm19.506-7.75a22.143,22.143,0,0,0-2.713-.167c-.679,0-1.363.032-2.035.095v-9.9a2.374,2.374,0,0,1,2.374-2.366,2.374,2.374,0,0,1,2.376,2.366v9.973Z" transform="translate(6714.23 559.854)" opacity="0.5"/></g></svg>