<svg xmlns="http://www.w3.org/2000/svg" xmlns:xlink="http://www.w3.org/1999/xlink" width="100" height="100" viewBox="0 0 100 100"><defs><clipPath id="b"><rect width="100" height="100"/></clipPath></defs><g id="a" clip-path="url(#b)"><path d="M-5696.664-321.855h-61.906v-.03a22.508,22.508,0,0,1-15.193-6.991,22.523,22.523,0,0,1-6.238-15.6,22.467,22.467,0,0,1,6.625-15.992,22.474,22.474,0,0,1,16-6.625,22.709,22.709,0,0,1,5.866.769,22.68,22.68,0,0,1,8.195-9.153A22.553,22.553,0,0,1-5731.188-379a22.467,22.467,0,0,1,15.992,6.625,22.476,22.476,0,0,1,6.624,16,23.16,23.16,0,0,1-.133,2.482,17.683,17.683,0,0,1,10.848-3.671,17.74,17.74,0,0,1,12.627,5.23A17.737,17.737,0,0,1-5680-339.712a17.788,17.788,0,0,1-4.843,12.227,17.782,17.782,0,0,1-11.821,5.591v.038Zm-43.54,1.729a3.692,3.692,0,0,0-2.628,1.089,3.686,3.686,0,0,0-1.089,2.627,3.7,3.7,0,0,0,1.089,2.627l10.509,10.511a3.691,3.691,0,0,0,2.627,1.088,3.691,3.691,0,0,0,2.628-1.088l10.51-10.511a3.683,3.683,0,0,0,1.088-2.626,3.692,3.692,0,0,0-1.088-2.628,3.689,3.689,0,0,0-2.627-1.089,3.688,3.688,0,0,0-2.627,1.089l-4.134,4.133v-23.756a3.631,3.631,0,0,0-3.626-3.626,3.631,3.631,0,0,0-3.626,3.626v23.713l-.158.058-.054.019-4.166-4.166A3.688,3.688,0,0,0-5740.2-320.126Z" transform="translate(5780 391)"/></g></svg>