<svg xmlns="http://www.w3.org/2000/svg" xmlns:xlink="http://www.w3.org/1999/xlink" width="100" height="100" viewBox="0 0 100 100"><defs><clipPath id="b"><rect width="100" height="100"/></clipPath></defs><g id="a" clip-path="url(#b)"><path d="M-6721.953-469.969h-57.977V-470a21.08,21.08,0,0,1-14.229-6.547A21.092,21.092,0,0,1-6800-491.154a21.043,21.043,0,0,1,6.205-14.977,21.052,21.052,0,0,1,14.982-6.2,21.224,21.224,0,0,1,5.494.721,21.237,21.237,0,0,1,7.674-8.573,21.114,21.114,0,0,1,11.358-3.3,21.179,21.179,0,0,1,10.521,2.794,24.919,24.919,0,0,0,.787,8.359,24.872,24.872,0,0,0,4.491,8.987,25.179,25.179,0,0,0,7.378,6.343,25.523,25.523,0,0,0,9.262,3.129,25.626,25.626,0,0,0,3.4.23h.033a25.937,25.937,0,0,0,6.708-.89,26.278,26.278,0,0,0,2.867-.949,16.678,16.678,0,0,1,2.5,8.792,16.663,16.663,0,0,1-4.535,11.45,16.649,16.649,0,0,1-11.07,5.235v.036Z" transform="translate(6800.001 557.002)"/><path d="M22.667,44.953A22.616,22.616,0,0,1,6.639,38.37a22.343,22.343,0,0,1,0-31.787A22.781,22.781,0,0,1,36.6,4.746c-.478-.041-.971-.063-1.465-.063a17.574,17.574,0,0,0-17.3,17.794,17.574,17.574,0,0,0,17.3,17.794c.487,0,.98-.021,1.464-.063a22.694,22.694,0,0,1-13.931,4.745Z" transform="matrix(0.966, -0.259, 0.259, 0.966, 53.014, 22.473)" opacity="0.5"/></g></svg>