<svg xmlns="http://www.w3.org/2000/svg" xmlns:xlink="http://www.w3.org/1999/xlink" width="100" height="100" viewBox="0 0 100 100"><defs><clipPath id="b"><rect width="100" height="100"/></clipPath></defs><g id="a" clip-path="url(#b)"><path d="M-5588.569-321.855v-.031A22.619,22.619,0,0,1-5610-344.476a22.619,22.619,0,0,1,22.621-22.617,22.65,22.65,0,0,1,5.867.769A22.618,22.618,0,0,1-5561.189-379a22.619,22.619,0,0,1,22.618,22.621,23.143,23.143,0,0,1-.134,2.482,17.774,17.774,0,0,1,10.848-3.672A17.858,17.858,0,0,1-5510-339.713a17.858,17.858,0,0,1-16.664,17.818v.039Z" transform="translate(5610 389.001)"/><path d="M-6901.747-362.541a3.175,3.175,0,0,1-3.174-3.174,3.175,3.175,0,0,1,3.174-3.176h20.635a3.177,3.177,0,0,1,3.178,3.176,3.176,3.176,0,0,1-3.178,3.174Zm-65.077,0a3.175,3.175,0,0,1-3.177-3.174,3.176,3.176,0,0,1,3.177-3.176h49.206a3.175,3.175,0,0,1,3.174,3.176,3.175,3.175,0,0,1-3.174,3.174Zm41.268-11.112a3.174,3.174,0,0,1-3.174-3.174,3.175,3.175,0,0,1,3.174-3.174h44.444a3.176,3.176,0,0,1,3.178,3.174,3.174,3.174,0,0,1-3.178,3.174Zm-41.268,0a3.174,3.174,0,0,1-3.177-3.174,3.175,3.175,0,0,1,3.177-3.174h22.221a3.173,3.173,0,0,1,3.174,3.174,3.171,3.171,0,0,1-3.174,3.174Z" transform="translate(6973.175 453.264)" opacity="0.5"/></g></svg>