<svg xmlns="http://www.w3.org/2000/svg" xmlns:xlink="http://www.w3.org/1999/xlink" width="100" height="100" viewBox="0 0 100 100"><defs><clipPath id="b"><rect width="100" height="100"/></clipPath></defs><g id="a" clip-path="url(#b)"><path d="M-5028.039-812h-52.027a1.014,1.014,0,0,1-1.014-1.014,7.1,7.1,0,0,1,7.1-7.1h11.825v-34.259l-36.405-49.512c-1.47-2.5-1.849-5.111-.966-6.656a3.171,3.171,0,0,1,2.963-1.463h85.029a3.176,3.176,0,0,1,2.967,1.465c.883,1.544.5,4.156-.966,6.655l-36.405,49.512v34.259h11.825a7.1,7.1,0,0,1,7.092,7.1A1.014,1.014,0,0,1-5028.039-812Zm-16.555-67.571a4.059,4.059,0,0,0-4.054,4.055,4.059,4.059,0,0,0,4.054,4.054,4.06,4.06,0,0,0,4.056-4.054A4.06,4.06,0,0,0-5044.594-879.57Z" transform="translate(5104.001 912)"/></g></svg>