<svg xmlns="http://www.w3.org/2000/svg" xmlns:xlink="http://www.w3.org/1999/xlink" width="100" height="100" viewBox="0 0 100 100"><defs><clipPath id="b"><rect width="100" height="100"/></clipPath></defs><g id="a" clip-path="url(#b)"><path d="M13.974,68.267q6.67.8,10.162,4.421t3.491,9.783V94.166q0,6.047,2.058,8.585t7.009,2.539h2.293v12.094H35.131q-11.569,0-16.78-5.134T13.14,95.82v-8.9q0-6.275-2.814-8.928T.842,75.284V59.426q6.67-.057,9.484-2.71t2.814-8.928V38.661q0-11.181,5.211-16.229t16.78-5.048h3.856V29.477H36.694q-4.95,0-7.009,2.539T27.627,40.6V52.238q0,6.161-3.491,9.783T13.974,66.442Zm73.736,0V66.442q-6.67-.8-10.162-4.421t-3.491-9.783V40.6q0-6.047-2.058-8.585T64.99,29.477H62.7V17.383h3.856q11.621,0,16.832,5.048T88.6,38.661v9.127q0,6.275,2.788,8.928t9.458,2.71V75.284q-6.722.057-9.484,2.681t-2.762,8.9v8.728q0,11.409-5.237,16.6t-16.806,5.191H62.7V105.29H64.99q4.9,0,6.983-2.539t2.084-8.528V82.529q0-6.218,3.517-9.84T87.71,68.267Z" transform="translate(-0.842 -17.383)"/></g></svg>