<svg xmlns="http://www.w3.org/2000/svg" xmlns:xlink="http://www.w3.org/1999/xlink" width="100" height="100" viewBox="0 0 100 100"><defs><clipPath id="b"><rect width="100" height="100"/></clipPath></defs><g id="a" clip-path="url(#b)"><path d="M-4416.121-834.436a3.883,3.883,0,0,1-3.88-3.878v-7.757a3.884,3.884,0,0,1,3.88-3.878h69.807a3.882,3.882,0,0,1,3.878,3.878v7.757a3.882,3.882,0,0,1-3.878,3.878Zm-.777-7.757a4.66,4.66,0,0,0,4.655,4.654,4.659,4.659,0,0,0,4.654-4.654,4.66,4.66,0,0,0-4.654-4.654A4.66,4.66,0,0,0-4416.9-842.193Zm-3-7.928c-.088-6.944-.1-24.235-.1-58a3.881,3.881,0,0,1,3.878-3.878h7.756a3.882,3.882,0,0,1,3.878,3.878v31.315l-15.407,26.686,0,0Zm9.3-2.931,54.411-31.414a3.871,3.871,0,0,1,1.935-.52,3.89,3.89,0,0,1,3.361,1.939l3.879,6.717a3.856,3.856,0,0,1,.388,2.943,3.855,3.855,0,0,1-1.808,2.356l-31.14,17.978Zm-2.357-1.655,29.8-51.607a3.89,3.89,0,0,1,3.362-1.939,3.882,3.882,0,0,1,1.936.52l6.717,3.878a3.851,3.851,0,0,1,1.806,2.356,3.854,3.854,0,0,1-.386,2.943l-16.362,28.34-26.867,15.511,0,0Z" transform="translate(4465.364 -635.201) rotate(-20)"/></g></svg>