<svg xmlns="http://www.w3.org/2000/svg" xmlns:xlink="http://www.w3.org/1999/xlink" width="100" height="100" viewBox="0 0 100 100"><defs><clipPath id="b"><rect width="100" height="100"/></clipPath></defs><g id="a" clip-path="url(#b)"><path d="M-2349.582-287.645l-28.454-28.453a6.707,6.707,0,0,1,0-9.484l28.455-28.453A6.682,6.682,0,0,1-2344.84-356a6.685,6.685,0,0,1,4.742,1.964,6.708,6.708,0,0,1,0,9.485l-23.711,23.711,23.711,23.711a6.707,6.707,0,0,1,0,9.483,6.684,6.684,0,0,1-4.742,1.965A6.683,6.683,0,0,1-2349.582-287.645Zm29.68,0a6.707,6.707,0,0,1,0-9.484l23.711-23.711-23.711-23.711a6.708,6.708,0,0,1,0-9.484,6.707,6.707,0,0,1,9.485,0l28.453,28.453a6.708,6.708,0,0,1,0,9.485l-28.453,28.453a6.686,6.686,0,0,1-4.742,1.965A6.687,6.687,0,0,1-2319.9-287.645Z" transform="translate(2380 371)"/></g></svg>