<svg xmlns="http://www.w3.org/2000/svg" xmlns:xlink="http://www.w3.org/1999/xlink" width="100" height="100" viewBox="0 0 100 100"><defs><clipPath id="b"><rect width="100" height="100"/></clipPath></defs><g id="a" clip-path="url(#b)"><path d="M-6198.334-492.222h-83.333a8.343,8.343,0,0,1-8.333-8.333v-27.556h100v27.556A8.343,8.343,0,0,1-6198.334-492.222ZM-6210.5-518a7.476,7.476,0,0,0-4,1.156,7.468,7.468,0,0,1,3.5,6.344,7.469,7.469,0,0,1-3.5,6.346,7.479,7.479,0,0,0,4,1.154,7.508,7.508,0,0,0,7.5-7.5A7.508,7.508,0,0,0-6210.5-518Zm-8,0a7.508,7.508,0,0,0-7.5,7.5,7.508,7.508,0,0,0,7.5,7.5,7.476,7.476,0,0,0,4-1.154,7.471,7.471,0,0,1-3.5-6.346,7.469,7.469,0,0,1,3.5-6.344A7.479,7.479,0,0,0-6218.5-518Zm-61,12a1.5,1.5,0,0,0-1.5,1.5,1.5,1.5,0,0,0,1.5,1.5h33a1.5,1.5,0,0,0,1.5-1.5,1.5,1.5,0,0,0-1.5-1.5Zm0-6a1.5,1.5,0,0,0-1.5,1.5,1.5,1.5,0,0,0,1.5,1.5h33a1.5,1.5,0,0,0,1.5-1.5,1.5,1.5,0,0,0-1.5-1.5Zm0-6a1.5,1.5,0,0,0-1.5,1.5,1.5,1.5,0,0,0,1.5,1.5h33a1.5,1.5,0,0,0,1.5-1.5,1.5,1.5,0,0,0-1.5-1.5Zm89.5-24.332h-100v-3.334a8.343,8.343,0,0,1,8.333-8.333h83.333a8.343,8.343,0,0,1,8.333,8.333v3.333Z" transform="translate(6290.001 573)"/><path d="M-6226-517.5a7.5,7.5,0,0,1,7.5-7.5,7.5,7.5,0,0,1,7.5,7.5,7.5,7.5,0,0,1-7.5,7.5A7.5,7.5,0,0,1-6226-517.5Zm-59-10.5a5.007,5.007,0,0,1-5-5v-16a5.007,5.007,0,0,1,5-5h90a5.005,5.005,0,0,1,5,5v16a5.005,5.005,0,0,1-5,5Zm24-11.5a2.5,2.5,0,0,0,2.5,2.5,2.5,2.5,0,0,0,2.5-2.5,2.5,2.5,0,0,0-2.5-2.5A2.5,2.5,0,0,0-6261-539.5Zm-10,0a2.5,2.5,0,0,0,2.5,2.5,2.5,2.5,0,0,0,2.5-2.5,2.5,2.5,0,0,0-2.5-2.5A2.5,2.5,0,0,0-6271-539.5Zm-10,0a2.5,2.5,0,0,0,2.5,2.5,2.5,2.5,0,0,0,2.5-2.5,2.5,2.5,0,0,0-2.5-2.5A2.5,2.5,0,0,0-6281-539.5Z" transform="translate(6290 580)" opacity="0.5"/></g></svg>