<svg xmlns="http://www.w3.org/2000/svg" xmlns:xlink="http://www.w3.org/1999/xlink" width="100" height="100" viewBox="0 0 100 100"><defs><clipPath id="b"><rect width="100" height="100"/></clipPath></defs><g id="a" clip-path="url(#b)"><path d="M-3011,88a5.006,5.006,0,0,1-5-5V62.5a25.185,25.185,0,0,0,5,.5,25.186,25.186,0,0,0,5-.5V83A5.006,5.006,0,0,1-3011,88Zm45-45h-20.5a25.191,25.191,0,0,0,.5-5,25.189,25.189,0,0,0-.5-5h20.5a5.005,5.005,0,0,1,5,5A5.006,5.006,0,0,1-2966,43Zm-69.5,0H-3056a5.006,5.006,0,0,1-5-5,5.006,5.006,0,0,1,5-5h20.5a25.18,25.18,0,0,0-.5,5,25.176,25.176,0,0,0,.5,5Zm29.5-29.5h0a25.091,25.091,0,0,0-5-.5,25.189,25.189,0,0,0-5,.5V-7a5.006,5.006,0,0,1,5-5,5.005,5.005,0,0,1,5,5V13.5Z" transform="translate(3061 12)" opacity="0.33"/><path d="M-3030.462,84.071a49.838,49.838,0,0,1-15.893-10.715,49.825,49.825,0,0,1-10.715-15.893A49.688,49.688,0,0,1-3061,38a49.685,49.685,0,0,1,3.929-19.463,49.825,49.825,0,0,1,10.715-15.893,49.853,49.853,0,0,1,15.893-10.715A49.7,49.7,0,0,1-3011-12a49.7,49.7,0,0,1,19.462,3.929,49.847,49.847,0,0,1,15.892,10.715,49.839,49.839,0,0,1,10.715,15.893A49.689,49.689,0,0,1-2961,38a49.692,49.692,0,0,1-3.929,19.463,49.839,49.839,0,0,1-10.715,15.893,49.833,49.833,0,0,1-15.892,10.715A49.69,49.69,0,0,1-3011,88,49.687,49.687,0,0,1-3030.462,84.071ZM-3053,38a42.048,42.048,0,0,0,42,42,42.047,42.047,0,0,0,42-42,42.047,42.047,0,0,0-42-42A42.047,42.047,0,0,0-3053,38Zm37,0a5,5,0,0,1,5-5,5,5,0,0,1,5,5,5,5,0,0,1-5,5A5,5,0,0,1-3016,38Z" transform="translate(3061 12)"/></g></svg>