<svg xmlns="http://www.w3.org/2000/svg" xmlns:xlink="http://www.w3.org/1999/xlink" width="100" height="100" viewBox="0 0 100 100"><defs><clipPath id="b"><rect width="100" height="100"/></clipPath></defs><g id="a" clip-path="url(#b)"><path d="M50,0A50,50,0,1,1,0,50,50,50,0,0,1,50,0Z" opacity="0.33"/><path d="M-139.462,96.071a49.837,49.837,0,0,1-15.893-10.715,49.827,49.827,0,0,1-10.715-15.893A49.682,49.682,0,0,1-170,50a49.687,49.687,0,0,1,3.929-19.462,49.827,49.827,0,0,1,10.715-15.893A49.827,49.827,0,0,1-139.462,3.929,49.687,49.687,0,0,1-120,0a49.69,49.69,0,0,1,19.463,3.929A49.833,49.833,0,0,1-84.645,14.645,49.827,49.827,0,0,1-73.93,30.538,49.687,49.687,0,0,1-70,50,49.682,49.682,0,0,1-73.93,69.462,49.827,49.827,0,0,1-84.645,85.355a49.833,49.833,0,0,1-15.892,10.715A49.69,49.69,0,0,1-120,100,49.687,49.687,0,0,1-139.462,96.071ZM-164,50a44.05,44.05,0,0,0,44,44A44.049,44.049,0,0,0-76,50,44.05,44.05,0,0,0-120,6,44.05,44.05,0,0,0-164,50Zm53.313,18.97-9.778-9.778-9.314,9.314a5,5,0,0,1-7.071,0l-2.121-2.121a5,5,0,0,1,0-7.071L-129.657,50l-9.314-9.314a5,5,0,0,1,0-7.071l2.121-2.121a5,5,0,0,1,7.071,0l9.314,9.314,9.778-9.778a5,5,0,0,1,7.071,0l2.121,2.121a5,5,0,0,1,0,7.071L-111.272,50l9.778,9.778a5,5,0,0,1,0,7.071l-2.121,2.121a4.984,4.984,0,0,1-3.536,1.465A4.984,4.984,0,0,1-110.687,68.971Z" transform="translate(170 0)"/></g></svg>