<svg xmlns="http://www.w3.org/2000/svg" xmlns:xlink="http://www.w3.org/1999/xlink" width="100" height="100" viewBox="0 0 100 100"><defs><clipPath id="b"><rect width="100" height="100"/></clipPath></defs><g id="a" clip-path="url(#b)"><path d="M-7140-287.248v-26.086c0,1.74,4.3,3.376,12.112,4.61a197.037,197.037,0,0,0,29.194,1.914c22.772,0,41.3-2.927,41.3-6.524v26.086c0,4-18.493,7.248-41.3,7.248S-7140-283.246-7140-287.248Zm0-33.332v-26.086c0,1.737,4.3,3.376,12.112,4.61a197.073,197.073,0,0,0,29.194,1.911c22.772,0,41.3-2.924,41.3-6.521v26.086c0,4-18.493,7.245-41.3,7.245S-7140-316.578-7140-320.58Zm0-33.334v-18.841c0-4,18.492-7.245,41.3-7.245s41.3,3.244,41.3,7.245v18.841c0,4-18.493,7.248-41.3,7.248S-7140-349.912-7140-353.914Z" transform="translate(7149 380)"/></g></svg>