<svg xmlns="http://www.w3.org/2000/svg" xmlns:xlink="http://www.w3.org/1999/xlink" width="100" height="100" viewBox="0 0 100 100"><defs><clipPath id="b"><rect width="100" height="100"/></clipPath></defs><g id="a" clip-path="url(#b)"><path d="M-3310-267h-80a10.011,10.011,0,0,1-10-10v-80a10.011,10.011,0,0,1,10-10h80a10.011,10.011,0,0,1,10,10v80A10.011,10.011,0,0,1-3310-267Zm-75-90a5.006,5.006,0,0,0-5,5v70a5.006,5.006,0,0,0,5,5h70a5.005,5.005,0,0,0,5-5v-70a5.006,5.006,0,0,0-5-5Z" transform="translate(3400 367)"/><path d="M-3350-309.5a7.5,7.5,0,0,1,7.5-7.5,7.5,7.5,0,0,1,7.5,7.5,7.5,7.5,0,0,1-7.5,7.5A7.5,7.5,0,0,1-3350-309.5Zm-25-25a7.5,7.5,0,0,1,7.5-7.5,7.5,7.5,0,0,1,7.5,7.5,7.5,7.5,0,0,1-7.5,7.5A7.5,7.5,0,0,1-3375-334.5Zm-25-25a7.5,7.5,0,0,1,7.5-7.5,7.5,7.5,0,0,1,7.5,7.5,7.5,7.5,0,0,1-7.5,7.5A7.5,7.5,0,0,1-3400-359.5Z" transform="translate(3418 385)" opacity="0.5"/></g></svg>