<svg xmlns="http://www.w3.org/2000/svg" xmlns:xlink="http://www.w3.org/1999/xlink" width="100" height="100" viewBox="0 0 100 100"><defs><clipPath id="b"><rect width="100" height="100"/></clipPath></defs><g id="a" clip-path="url(#b)"><path d="M-1944-528h-31.735l-4.588-8H-1944a4,4,0,0,1,4,4A4,4,0,0,1-1944-528Zm-59.265,0H-2036a4,4,0,0,1-4-4,4,4,0,0,1,4-4h37.323l-4.588,8Z" transform="translate(2040 582)" opacity="0.5"/><path d="M9.766,3.015a2,2,0,0,1,3.468,0L21.277,17a2,2,0,0,1-1.734,3H3.457a2,2,0,0,1-1.734-3Z" transform="translate(39 38)"/></g></svg>