<svg xmlns="http://www.w3.org/2000/svg" xmlns:xlink="http://www.w3.org/1999/xlink" width="100" height="100" viewBox="0 0 100 100"><defs><clipPath id="b"><rect width="100" height="100"/></clipPath></defs><g id="a" clip-path="url(#b)"><path d="M58.875,112.531v-7.657c16.868-1.382,26.6-10.19,26.6-24.18,0-11.975-6.966-19.171-21.244-22.74l-5.354-1.209V31.011c7.657.979,12.9,6.1,13.126,12.608H84.033C83.688,30.9,73.9,21.8,58.875,20.534v-8H50.988v8c-15.6,1.439-25.1,10.19-25.1,23.316,0,11.169,7.081,18.883,19.977,22.107l5.124,1.324V94.512c-8.693-.979-14.22-5.872-14.8-12.953h-12.2c.058,13.3,10.593,22.28,27,23.374v7.6ZM73.268,81.846c0,7.6-5.239,12.32-14.393,12.838V68.778C68.777,70.85,73.268,75,73.268,81.846Zm-35.06-38.86c0-6.621,5.412-11.572,12.781-11.975V55.076C42.7,53.349,38.207,49.2,38.207,42.986Z" transform="translate(-4.987 -12.531)"/></g></svg>