<svg xmlns="http://www.w3.org/2000/svg" xmlns:xlink="http://www.w3.org/1999/xlink" width="100" height="100" viewBox="0 0 100 100"><defs><clipPath id="b"><rect width="100" height="100"/></clipPath></defs><g id="a" clip-path="url(#b)"><path d="M-1284-1902a12,12,0,0,1,12-12,12,12,0,0,1,12,12,12,12,0,0,1-12,12A12,12,0,0,1-1284-1902Zm-38,0a12,12,0,0,1,12-12,12,12,0,0,1,12,12,12,12,0,0,1-12,12A12,12,0,0,1-1322-1902Zm-38,0a12,12,0,0,1,12-12,12,12,0,0,1,12,12,12,12,0,0,1-12,12A12,12,0,0,1-1360-1902Z" transform="translate(1360 1952)"/></g></svg>