<svg xmlns="http://www.w3.org/2000/svg" xmlns:xlink="http://www.w3.org/1999/xlink" width="100" height="100" viewBox="0 0 100 100"><defs><clipPath id="b"><rect width="100" height="100"/></clipPath></defs><g id="a" clip-path="url(#b)"><path d="M-1145.28-1819.339a9.289,9.289,0,0,1,0-13.135l32.837-32.836-32.837-32.836a9.288,9.288,0,0,1,0-13.134,9.288,9.288,0,0,1,13.135,0l39.4,39.4a9.288,9.288,0,0,1,0,13.135l-39.4,39.4a9.258,9.258,0,0,1-6.567,2.72A9.258,9.258,0,0,1-1145.28-1819.339Zm-42,0a9.289,9.289,0,0,1,0-13.135l32.837-32.836-32.837-32.836a9.288,9.288,0,0,1,0-13.134,9.288,9.288,0,0,1,13.135,0l39.4,39.4a9.288,9.288,0,0,1,0,13.135l-39.4,39.4a9.258,9.258,0,0,1-6.567,2.72A9.258,9.258,0,0,1-1187.28-1819.339Z" transform="translate(1190 1915)"/></g></svg>