<svg xmlns="http://www.w3.org/2000/svg" xmlns:xlink="http://www.w3.org/1999/xlink" width="100" height="100" viewBox="0 0 100 100"><defs><clipPath id="b"><rect width="100" height="100"/></clipPath></defs><g id="a" clip-path="url(#b)"><path d="M58.579-505.334H70.7A12.125,12.125,0,0,1,58.579-493.21ZM.125-493.21A12.125,12.125,0,0,1-12-505.334H58.579v12.125Zm58.454-12.125v-58.454H42.566a2.174,2.174,0,0,1-2.174-2.175v-7.776a2.174,2.174,0,0,1,2.174-2.174H58.579v0A12.125,12.125,0,0,1,70.7-563.788v58.454Zm-70.579,0v-58.454A12.125,12.125,0,0,1,.125-575.913H16.137a2.174,2.174,0,0,1,2.175,2.174v7.776a2.174,2.174,0,0,1-2.175,2.175H.125v58.454Z" transform="translate(21 593.21)" opacity="0.5"/><path d="M34.9,28.765a3.907,3.907,0,0,1,0-5.524l4.547-4.546H3.906a3.906,3.906,0,1,1,0-7.812H39.117L34.9,6.668a3.906,3.906,0,1,1,5.524-5.524L51.475,12.192a3.907,3.907,0,0,1,0,5.524L40.427,28.765a3.907,3.907,0,0,1-5.524,0Z" transform="translate(64.996) rotate(90)"/></g></svg>