<svg xmlns="http://www.w3.org/2000/svg" xmlns:xlink="http://www.w3.org/1999/xlink" width="100" height="100" viewBox="0 0 100 100"><defs><clipPath id="b"><rect width="100" height="100"/></clipPath></defs><g id="a" clip-path="url(#b)"><path d="M13.889,0A13.889,13.889,0,1,1,0,13.889,13.889,13.889,0,0,1,13.889,0Z" transform="translate(36 72.222)" opacity="0.5"/><path d="M-4731.462-118.356h0a20.857,20.857,0,0,0-9.647-2.366,20.886,20.886,0,0,0-9.65,2.365,5.539,5.539,0,0,1-1.461-3.754L-4755-180.445a5.561,5.561,0,0,1,5.555-5.555h16.667a5.562,5.562,0,0,1,5.556,5.555L-4730-122.111a5.54,5.54,0,0,1-1.46,3.754Z" transform="translate(4790.999 186)"/></g></svg>