<svg xmlns="http://www.w3.org/2000/svg" xmlns:xlink="http://www.w3.org/1999/xlink" width="100" height="100" viewBox="0 0 100 100"><defs><clipPath id="b"><rect width="100" height="100"/></clipPath></defs><g id="a" clip-path="url(#b)"><path d="M42.875,3.149a2.191,2.191,0,0,1,3.808,0L87.829,75.406a2.191,2.191,0,0,1-1.9,3.275H3.632a2.191,2.191,0,0,1-1.9-3.275Z" transform="translate(5.221 10.532)" opacity="0.33"/><path d="M-5093.417-97.309a6.506,6.506,0,0,1-5.688-3.281,6.505,6.505,0,0,1-.01-6.568L-5055.7-182.7a6.5,6.5,0,0,1,5.7-3.3,6.506,6.506,0,0,1,5.7,3.3l43.417,75.545a6.507,6.507,0,0,1-.01,6.568,6.505,6.505,0,0,1-5.688,3.281Zm41.513-81.012-41.147,72.259a2.173,2.173,0,0,0,.009,2.185,2.171,2.171,0,0,0,1.895,1.091h82.294a2.167,2.167,0,0,0,1.893-1.091,2.164,2.164,0,0,0,.01-2.185L-5048.1-178.32a2.167,2.167,0,0,0-1.9-1.106A2.166,2.166,0,0,0-5051.9-178.32Zm-4.189,58.787a5.9,5.9,0,0,1,5.9-5.9,5.9,5.9,0,0,1,5.9,5.9,5.9,5.9,0,0,1-5.9,5.9A5.9,5.9,0,0,1-5056.094-119.533Zm10-7.85a8.864,8.864,0,0,0-4.1-1.006,8.882,8.882,0,0,0-4.1,1.006,2.363,2.363,0,0,1-.621-1.6l-1.18-24.8a2.363,2.363,0,0,1,2.36-2.362h7.085a2.364,2.364,0,0,1,2.363,2.362l-1.183,24.8a2.359,2.359,0,0,1-.62,1.6Z" transform="translate(5100 192)"/></g></svg>