<svg xmlns="http://www.w3.org/2000/svg" xmlns:xlink="http://www.w3.org/1999/xlink" width="100" height="100" viewBox="0 0 100 100"><defs><clipPath id="b"><rect width="100" height="100"/></clipPath></defs><g id="a" clip-path="url(#b)"><path d="M50,0A50,50,0,1,1,0,50,50,50,0,0,1,50,0Z" opacity="0.33"/><path d="M-4899.462-89.93a49.831,49.831,0,0,1-15.894-10.716,49.82,49.82,0,0,1-10.715-15.893A49.671,49.671,0,0,1-4930-136a49.678,49.678,0,0,1,3.929-19.463,49.834,49.834,0,0,1,10.715-15.893,49.832,49.832,0,0,1,15.894-10.715A49.672,49.672,0,0,1-4880-186a49.667,49.667,0,0,1,19.462,3.93,49.825,49.825,0,0,1,15.893,10.715,49.818,49.818,0,0,1,10.715,15.893A49.67,49.67,0,0,1-4830-136a49.662,49.662,0,0,1-3.93,19.461,49.8,49.8,0,0,1-10.715,15.893,49.809,49.809,0,0,1-15.893,10.716A49.69,49.69,0,0,1-4880-86,49.694,49.694,0,0,1-4899.462-89.93ZM-4924-136a44.049,44.049,0,0,0,44,44,44.049,44.049,0,0,0,44-44,44.051,44.051,0,0,0-44-44A44.051,44.051,0,0,0-4924-136Zm36.078,20.3a7.812,7.812,0,0,1,7.811-7.811,7.81,7.81,0,0,1,7.81,7.811,7.81,7.81,0,0,1-7.81,7.811A7.812,7.812,0,0,1-4887.922-115.694Zm13.236-10.384a11.726,11.726,0,0,0-5.427-1.33,11.736,11.736,0,0,0-5.425,1.33,3.119,3.119,0,0,1-.822-2.111l-1.562-32.8a3.127,3.127,0,0,1,3.124-3.124h9.372a3.127,3.127,0,0,1,3.125,3.124l-1.563,32.8a3.12,3.12,0,0,1-.82,2.111Z" transform="translate(4930 186)"/></g></svg>