<svg xmlns="http://www.w3.org/2000/svg" xmlns:xlink="http://www.w3.org/1999/xlink" width="100" height="100" viewBox="0 0 100 100"><defs><clipPath id="b"><rect width="100" height="100"/></clipPath></defs><g id="a" clip-path="url(#b)"><path d="M-1477.057-92.235h-23.53v-47.059c0-1.6,4.131-9.43,5.882-11.764,1.8-2.4,8.959-10.081,11.765-11.765,2.932-1.759,12.472-5.882,17.646-5.882,2.914,0,6.835,1.215,9.611,2.234a53.376,53.376,0,0,1,8.036,3.649c3.246,1.948,10.089,8.972,11.765,11.765A41.527,41.527,0,0,1-1430-133.411c.831,8.309.088,37.8,0,41.135v.039l-23.53,0v-17.647h-23.529Zm3.058-53v18h18v-18Z" transform="translate(1530 188)"/><path d="M-1483.6-66.5h-25.7v-78.764a12.912,12.912,0,0,1,3.808-9.193,12.914,12.914,0,0,1,9.192-3.808h3.412a12.911,12.911,0,0,1,9.193,3.808,12.911,12.911,0,0,1,3.808,9.193c.011.2.984,19.706,0,22.113-.8,1.96-2.3,4.766-3.191,6.441l-.005.009c-.209.392-.39.732-.514.97-.629,1.212-.006,48.749,0,49.23h0Z" transform="translate(1509.296 162.269)" opacity="0.5"/></g></svg>