<svg xmlns="http://www.w3.org/2000/svg" xmlns:xlink="http://www.w3.org/1999/xlink" width="100" height="100" viewBox="0 0 100 100"><defs><clipPath id="b"><rect width="100" height="100"/></clipPath></defs><g id="a" clip-path="url(#b)"><path d="M-5219.339-678.412v-47.214a4.368,4.368,0,0,1,6.563-3.776l40.6,23.607a4.368,4.368,0,0,1,0,7.552l-40.6,23.607a4.331,4.331,0,0,1-2.188.6A4.373,4.373,0,0,1-5219.339-678.412Zm-50.661,0v-47.214a4.368,4.368,0,0,1,6.563-3.776l40.6,23.607a4.368,4.368,0,0,1,0,7.552l-40.6,23.607a4.331,4.331,0,0,1-2.188.6A4.373,4.373,0,0,1-5270-678.412Z" transform="translate(5270 752)"/></g></svg>