<svg xmlns="http://www.w3.org/2000/svg" xmlns:xlink="http://www.w3.org/1999/xlink" width="100" height="100" viewBox="0 0 100 100"><defs><clipPath id="b"><rect width="100" height="100"/></clipPath></defs><g id="a" clip-path="url(#b)"><path d="M-5346.562-674.636l-40.6-23.607a4.366,4.366,0,0,1,0-7.551l40.6-23.607a4.367,4.367,0,0,1,6.563,3.775v47.214a4.373,4.373,0,0,1-4.374,4.374A4.332,4.332,0,0,1-5346.562-674.636Zm-50.661,0-40.6-23.607a4.366,4.366,0,0,1,0-7.551l40.6-23.607a4.367,4.367,0,0,1,6.563,3.775v47.214a4.373,4.373,0,0,1-4.374,4.374A4.332,4.332,0,0,1-5397.223-674.636Z" transform="translate(5440 752)"/></g></svg>