<svg xmlns="http://www.w3.org/2000/svg" xmlns:xlink="http://www.w3.org/1999/xlink" width="100" height="100" viewBox="0 0 100 100"><defs><clipPath id="b"><rect width="100" height="100"/></clipPath></defs><g id="a" clip-path="url(#b)"><path d="M-5586.625-262a2,2,0,0,1-2-2v-15.142h-15.1a2,2,0,0,1-2-2v-10.286a2,2,0,0,1,2-2h15.1v-12.324a28.307,28.307,0,0,1-13.026-7.473,28.419,28.419,0,0,1-8.349-20.2,28.418,28.418,0,0,1,8.349-20.2A28.275,28.275,0,0,1-5581.5-362a28.277,28.277,0,0,1,20.151,8.369,28.412,28.412,0,0,1,8.348,20.2,28.418,28.418,0,0,1-8.348,20.2,28.308,28.308,0,0,1-13.029,7.474v12.323h15.1a2,2,0,0,1,2,2v10.286a2,2,0,0,1-2,2h-15.1V-264a2,2,0,0,1-2,2Zm-9.125-71.428a14.285,14.285,0,0,0,14.251,14.286,14.284,14.284,0,0,0,14.248-14.286,14.282,14.282,0,0,0-14.248-14.285A14.284,14.284,0,0,0-5595.75-333.429Z" transform="translate(5631.501 362)"/></g></svg>