<svg xmlns="http://www.w3.org/2000/svg" xmlns:xlink="http://www.w3.org/1999/xlink" width="100" height="100" viewBox="0 0 100 100"><defs><clipPath id="b"><rect width="100" height="100"/></clipPath></defs><g id="a" clip-path="url(#b)"><path d="M-4880-823.7c-9.187,0-16.661-2.244-16.661-5v-29.437l-32.029-24.56a3.253,3.253,0,0,1-1.291-2.981V-902c0-5.513,22.422-10,49.981-10s49.981,4.485,49.981,10v16.355a3.249,3.249,0,0,1-1.291,2.952l-32.029,24.564V-828.7C-4863.337-825.941-4870.812-823.7-4880-823.7Zm0-83.306c-23.886,0-43.317,3.738-43.317,8.332s19.432,8.328,43.317,8.328,43.318-3.736,43.318-8.328S-4856.113-907-4880-907Z" transform="translate(4930 918)"/></g></svg>