<svg xmlns="http://www.w3.org/2000/svg" xmlns:xlink="http://www.w3.org/1999/xlink" width="100" height="100" viewBox="0 0 100 100"><defs><clipPath id="b"><rect width="100" height="100"/></clipPath></defs><g id="a" clip-path="url(#b)"><g transform="translate(-28.44 45.464) rotate(-30)"><path d="M-4490.212-878.389h-18.908c-2.827,0-9.361-3.259-11.715-6.3h-66.014c-1.737,0-3.15-4.711-3.15-10.5s1.414-10.5,3.15-10.5h66.014c2.353-3.042,8.889-6.3,11.715-6.3h18.908c2.317,0,4.2,7.539,4.2,16.807S-4487.9-878.389-4490.212-878.389Zm-1.051-31.51c-1.736,0-3.15,6.6-3.15,14.7s1.414,14.706,3.15,14.706,3.152-6.6,3.152-14.706S-4489.525-909.9-4491.263-909.9Zm-39.915,11.553c-3.475,0-6.3,1.413-6.3,3.151s2.829,3.151,6.3,3.151,6.3-1.414,6.3-3.151S-4527.7-898.346-4531.178-898.346Z" transform="translate(4600.499 942)"/><path d="M3.151,0C4.891,0,6.3,6.584,6.3,14.705S4.891,29.411,3.151,29.411,0,22.827,0,14.705,1.411,0,3.151,0Z" transform="translate(106.085 32.1)" opacity="0.33"/></g></g></svg>