<svg xmlns="http://www.w3.org/2000/svg" xmlns:xlink="http://www.w3.org/1999/xlink" width="100" height="100" viewBox="0 0 100 100"><defs><clipPath id="b"><rect width="100" height="100"/></clipPath></defs><g id="a" clip-path="url(#b)"><path d="M83.507,50.663l-5.895-3.4a26.653,26.653,0,0,0,0-9.714l5.895-3.4a1.672,1.672,0,0,0,.761-1.937A34.463,34.463,0,0,0,76.7,19.114a1.665,1.665,0,0,0-2.048-.318l-5.895,3.4a26.114,26.114,0,0,0-8.413-4.857V10.548a1.658,1.658,0,0,0-1.3-1.619,34.786,34.786,0,0,0-15.11,0,1.658,1.658,0,0,0-1.3,1.619v6.808a26.939,26.939,0,0,0-8.413,4.857l-5.881-3.4a1.644,1.644,0,0,0-2.048.318,34.256,34.256,0,0,0-7.569,13.09,1.655,1.655,0,0,0,.761,1.937l5.895,3.4a26.654,26.654,0,0,0,0,9.714l-5.895,3.4a1.672,1.672,0,0,0-.761,1.937A34.463,34.463,0,0,0,26.29,65.7a1.665,1.665,0,0,0,2.048.318l5.895-3.4a26.115,26.115,0,0,0,8.413,4.857v6.808a1.658,1.658,0,0,0,1.3,1.619,34.786,34.786,0,0,0,15.11,0,1.658,1.658,0,0,0,1.3-1.619V67.475a26.938,26.938,0,0,0,8.413-4.857l5.895,3.4a1.644,1.644,0,0,0,2.048-.318,34.256,34.256,0,0,0,7.569-13.09A1.709,1.709,0,0,0,83.507,50.663ZM51.487,53.472A11.07,11.07,0,1,1,62.557,42.4,11.085,11.085,0,0,1,51.487,53.472Z" transform="translate(-16.644 17.268)"/><path d="M-483.051,57.9a.716.716,0,0,1-.562-.7V54.258a11.28,11.28,0,0,1-3.636-2.1L-489.8,53.63a.718.718,0,0,1-.885-.138,14.886,14.886,0,0,1-3.272-5.657.724.724,0,0,1,.329-.838l2.547-1.471a11.511,11.511,0,0,1,0-4.2l-2.547-1.471a.716.716,0,0,1-.329-.838,14.809,14.809,0,0,1,3.272-5.657.71.71,0,0,1,.885-.137l2.542,1.471a11.655,11.655,0,0,1,3.636-2.1V29.656a.717.717,0,0,1,.563-.7,15.036,15.036,0,0,1,6.53,0,.717.717,0,0,1,.562.7v2.936a11.282,11.282,0,0,1,3.636,2.1l2.548-1.472a.718.718,0,0,1,.885.138,14.9,14.9,0,0,1,3.271,5.657.723.723,0,0,1-.329.837l-2.547,1.471a11.55,11.55,0,0,1,0,4.2l2.547,1.471a.737.737,0,0,1,.335.843,14.8,14.8,0,0,1-3.271,5.657.711.711,0,0,1-.886.138l-2.547-1.471a11.655,11.655,0,0,1-3.636,2.1V57.2a.715.715,0,0,1-.562.7,14.965,14.965,0,0,1-3.265.359A14.987,14.987,0,0,1-483.051,57.9Zm-1.525-14.477a4.79,4.79,0,0,0,4.784,4.784,4.79,4.79,0,0,0,4.784-4.784,4.79,4.79,0,0,0-4.784-4.784A4.79,4.79,0,0,0-484.575,43.422ZM-499.064,29.3a.716.716,0,0,1-.562-.7V25.661a11.279,11.279,0,0,1-3.636-2.1l-2.548,1.472a.72.72,0,0,1-.885-.138,14.908,14.908,0,0,1-3.271-5.657.722.722,0,0,1,.329-.837l2.547-1.471a11.545,11.545,0,0,1,0-4.2l-2.547-1.472a.715.715,0,0,1-.329-.837A14.814,14.814,0,0,1-506.7,4.766a.71.71,0,0,1,.885-.138l2.542,1.471A11.64,11.64,0,0,1-499.633,4V1.058a.715.715,0,0,1,.563-.7,15.022,15.022,0,0,1,6.53,0,.716.716,0,0,1,.562.7V4a11.279,11.279,0,0,1,3.636,2.1l2.548-1.471a.72.72,0,0,1,.885.138,14.9,14.9,0,0,1,3.272,5.657.723.723,0,0,1-.328.837l-2.548,1.472a11.5,11.5,0,0,1,0,4.2l2.548,1.471a.74.74,0,0,1,.335.843A14.814,14.814,0,0,1-484.9,24.9a.71.71,0,0,1-.885.138l-2.548-1.472a11.637,11.637,0,0,1-3.636,2.1V28.6a.716.716,0,0,1-.562.7,15,15,0,0,1-3.266.359A14.969,14.969,0,0,1-499.064,29.3Zm-1.525-14.478a4.791,4.791,0,0,0,4.784,4.784,4.791,4.791,0,0,0,4.784-4.784,4.791,4.791,0,0,0-4.784-4.784A4.791,4.791,0,0,0-500.59,14.825Z" transform="translate(563.475 6)" opacity="0.5"/></g></svg>