<svg xmlns="http://www.w3.org/2000/svg" xmlns:xlink="http://www.w3.org/1999/xlink" width="100" height="100" viewBox="0 0 100 100"><defs><clipPath id="b"><rect width="100" height="100"/></clipPath></defs><g id="a" clip-path="url(#b)"><path d="M50,.563a50,50,0,1,0,50,50A49.991,49.991,0,0,0,50,.563Zm40.323,50a40.146,40.146,0,0,1-2.177,12.984H84.052a3.186,3.186,0,0,1-2.3-.968L75.3,56.006a2.4,2.4,0,0,1,.02-3.367l2.52-2.52V48.365a2.289,2.289,0,0,0-.665-1.613l-1.9-1.9a2.289,2.289,0,0,0-1.613-.665H70.444A2.281,2.281,0,0,1,68.831,40.3l1.9-1.9a2.289,2.289,0,0,1,1.613-.665H78.79a2.289,2.289,0,0,0,2.278-2.278v-1.9a2.289,2.289,0,0,0-2.278-2.278h-7.4a3.235,3.235,0,0,0-3.226,3.226v.907a3.234,3.234,0,0,1-2.2,3.065L59.6,40.6a1.6,1.6,0,0,0-1.109,1.532v.444a1.618,1.618,0,0,1-1.613,1.613H53.649a1.618,1.618,0,0,1-1.613-1.613,1.618,1.618,0,0,0-1.613-1.613H49.8a1.643,1.643,0,0,0-1.452.887l-1.9,3.77A3.211,3.211,0,0,1,43.569,47.4H39.113a3.235,3.235,0,0,1-3.226-3.226v-5.1a3.238,3.238,0,0,1,.948-2.278l4.052-4.052a4.988,4.988,0,0,0,1.452-3.528,1.623,1.623,0,0,1,1.109-1.532L51.512,25a2.346,2.346,0,0,0,.887-.544l5.4-5.4a2.281,2.281,0,0,0-1.613-3.891H52.016L48.79,18.385V20a1.618,1.618,0,0,1-1.613,1.613H43.952A1.618,1.618,0,0,1,42.339,20V15.966a1.623,1.623,0,0,1,.645-1.29L48.81,10.3c.383-.02.766-.06,1.149-.06A40.372,40.372,0,0,1,90.323,50.563ZM26.23,29.01A2.289,2.289,0,0,1,26.9,27.4l5.121-5.121a2.281,2.281,0,0,1,3.891,1.613v3.226a2.289,2.289,0,0,1-.665,1.613l-1.9,1.9a2.289,2.289,0,0,1-1.613.665H28.508A2.289,2.289,0,0,1,26.23,29.01ZM52.036,90.784V89.353a3.235,3.235,0,0,0-3.226-3.226H44.738A13.958,13.958,0,0,1,37.6,83.748l-4.476-3.367a9.157,9.157,0,0,1-3.669-7.339V68.224a9.162,9.162,0,0,1,4.456-7.863l8.649-5.181a9.3,9.3,0,0,1,4.718-1.31h6.29a9.2,9.2,0,0,1,5.968,2.2l8.71,7.48h3.69a6.44,6.44,0,0,1,4.556,1.9l3.488,3.488A3.694,3.694,0,0,0,82.581,70h2.7A40.251,40.251,0,0,1,52.036,90.784Z" transform="translate(0 -0.563)"/></g></svg>