<svg xmlns="http://www.w3.org/2000/svg" xmlns:xlink="http://www.w3.org/1999/xlink" width="100" height="100" viewBox="0 0 100 100"><defs><clipPath id="b"><rect width="100" height="100"/></clipPath></defs><g id="a" clip-path="url(#b)"><path d="M-5603.813-680.515A6.193,6.193,0,0,1-5610-686.7v-21.65c0-2.035,12.248-16.351,12.372-16.495,1.035-1.543,3.974-2.063,5.155-2.063h8.243A85.371,85.371,0,0,1-5560.515-730a85.36,85.36,0,0,1,23.717,3.093h9.272c1.011,0,4.11.489,5.155,2.063.125.142,12.4,14.449,12.371,16.495-.023,1.927,0,2.057,0,2.062V-686.7a6.192,6.192,0,0,1-6.186,6.185Zm25.773-13.4a4.128,4.128,0,0,0,4.123,4.124,4.127,4.127,0,0,0,4.124-4.124,4.128,4.128,0,0,0-4.124-4.124A4.129,4.129,0,0,0-5578.04-693.917Zm-22.681,0a4.128,4.128,0,0,0,4.124,4.124h9.278a4.127,4.127,0,0,0,4.124-4.124,4.128,4.128,0,0,0-4.124-4.124h-9.278A4.129,4.129,0,0,0-5600.721-693.917Zm6.186-22.681c0,4.547,15.261,8.247,34.02,8.247s34.021-3.7,34.021-8.247-15.262-8.247-34.021-8.247S-5594.535-721.145-5594.535-716.6Zm23.711,0c0-1.708,4.616-3.093,10.309-3.093s10.31,1.385,10.31,3.093-4.615,3.093-10.31,3.093S-5570.824-714.889-5570.824-716.6Z" transform="translate(5610 755)"/></g></svg>