<svg xmlns="http://www.w3.org/2000/svg" xmlns:xlink="http://www.w3.org/1999/xlink" width="100" height="100" viewBox="0 0 100 100"><defs><clipPath id="b"><rect width="100" height="100"/></clipPath></defs><g id="a" clip-path="url(#b)"><path d="M-4500-293v-24a40.046,40.046,0,0,0-40-40,40.046,40.046,0,0,0-40,40v24a5,5,0,0,1-5,5,5,5,0,0,1-5-5v-24a49.673,49.673,0,0,1,3.929-19.463,49.816,49.816,0,0,1,10.715-15.892,49.843,49.843,0,0,1,15.894-10.716A49.687,49.687,0,0,1-4540-367a49.691,49.691,0,0,1,19.462,3.928,49.83,49.83,0,0,1,15.893,10.716,49.832,49.832,0,0,1,10.715,15.892A49.691,49.691,0,0,1-4490-317v24a5,5,0,0,1-5,5A5,5,0,0,1-4500-293Z" transform="translate(4590 371.999)"/><path d="M-4535-327a5,5,0,0,1-5-5v-30a5,5,0,0,1,5-5h5a10,10,0,0,1,10,10v20a10,10,0,0,1-10,10Zm-45,0a10,10,0,0,1-10-10v-20a10,10,0,0,1,10-10h5a5,5,0,0,1,5,5v30a5,5,0,0,1-5,5Z" transform="translate(4605 421.999)" opacity="0.5"/></g></svg>