<svg xmlns="http://www.w3.org/2000/svg" xmlns:xlink="http://www.w3.org/1999/xlink" width="100" height="100" viewBox="0 0 100 100"><defs><clipPath id="b"><rect width="100" height="100"/></clipPath></defs><g id="a" clip-path="url(#b)"><path d="M-4710.008-256.193a6.115,6.115,0,0,1-4.423-1.89l-37.793-39.022a27.35,27.35,0,0,1-6.075-9.719,28.153,28.153,0,0,1-1.668-11.038,27.974,27.974,0,0,1,2.684-10.74,27.366,27.366,0,0,1,6.993-9.108,24.841,24.841,0,0,1,7.788-4.512,25.49,25.49,0,0,1,8.591-1.471,27.654,27.654,0,0,1,14.543,4.189l3.714,16.912-22.82,13.216,31.806,27.877-6.874-27.877,14.274-8.034-3.091-20.931a28.32,28.32,0,0,1,7.817-3.991,27.2,27.2,0,0,1,8.463-1.362,25.468,25.468,0,0,1,8.587,1.471,24.84,24.84,0,0,1,7.786,4.512,27.359,27.359,0,0,1,6.994,9.11,27.95,27.95,0,0,1,2.681,10.742,28.123,28.123,0,0,1-1.675,11.036,27.352,27.352,0,0,1-6.086,9.717l-37.792,39.022A6.118,6.118,0,0,1-4710.008-256.193Z" transform="translate(4760 349.568)"/></g></svg>