<svg xmlns="http://www.w3.org/2000/svg" xmlns:xlink="http://www.w3.org/1999/xlink" width="100" height="100" viewBox="0 0 100 100"><defs><clipPath id="b"><rect width="100" height="100"/></clipPath></defs><g id="a" clip-path="url(#b)"><path d="M-5050.008-279.5a6.117,6.117,0,0,1-4.424-1.89l-37.793-39.023a27.35,27.35,0,0,1-6.074-9.718,28.159,28.159,0,0,1-1.668-11.037,27.963,27.963,0,0,1,2.684-10.741,27.361,27.361,0,0,1,6.993-9.109,24.843,24.843,0,0,1,7.789-4.511,25.5,25.5,0,0,1,8.591-1.471,28.133,28.133,0,0,1,20.065,8.639L-5050-354.4l3.847-3.965a28.47,28.47,0,0,1,9.352-6.43A27.274,27.274,0,0,1-5026.08-367a25.478,25.478,0,0,1,8.587,1.471,24.848,24.848,0,0,1,7.786,4.512,27.365,27.365,0,0,1,6.994,9.11,27.949,27.949,0,0,1,2.681,10.742,28.134,28.134,0,0,1-1.675,11.036,27.354,27.354,0,0,1-6.086,9.717l-37.792,39.023A6.117,6.117,0,0,1-5050.008-279.5Zm-23.326-81.527a21.361,21.361,0,0,0-15.2,6.3,21.525,21.525,0,0,0,0,30.406l23.333,23.335,14.5,14.5a.994.994,0,0,0,.708.293.993.993,0,0,0,.707-.293l14.5-14.5,23.333-23.335a21.358,21.358,0,0,0,6.3-15.2,21.358,21.358,0,0,0-6.3-15.2,21.361,21.361,0,0,0-15.2-6.3,21.359,21.359,0,0,0-15.2,6.3L-5050-346.6l-8.132-8.133A21.359,21.359,0,0,0-5073.334-361.027Z" transform="translate(5100.001 373)"/></g></svg>