<svg xmlns="http://www.w3.org/2000/svg" xmlns:xlink="http://www.w3.org/1999/xlink" width="100" height="100" viewBox="0 0 100 100"><defs><clipPath id="b"><rect width="100" height="100"/></clipPath></defs><g id="a" clip-path="url(#b)"><path d="M-4877.008-279.5a6.119,6.119,0,0,1-4.424-1.889L-4915.918-317H-4895a2.984,2.984,0,0,0,2.926-2.336l5.787-15.895,12.227,33.6a3.015,3.015,0,0,0,2.821,1.975,2.98,2.98,0,0,0,1.025-.182,2.973,2.973,0,0,0,1.7-1.578,2.933,2.933,0,0,0,.173-.387l8.25-22.666,1.757,4.828a3,3,0,0,0,2.979,2.638h17.251l-34.486,35.61A6.121,6.121,0,0,1-4877.008-279.5Zm5.779-31.894v0l-12.225-33.593a2.625,2.625,0,0,0-.118-.283.039.039,0,0,0,0-.01l0-.007a.023.023,0,0,1,0-.009,3.006,3.006,0,0,0-.528-.766l-.01-.01-.01-.01a2.971,2.971,0,0,0-.968-.669h-.006l-.02-.009a3,3,0,0,0-.553-.172l-.015,0-.015,0h-.008l-.021,0h-.007l-.025,0-.008,0h-.023l-.026,0-.009,0-.012,0-.01,0h-.015l-.015,0h-.006l-.022,0h-.035l-.016,0h-.009c-.042,0-.078-.008-.113-.009l-.013,0h-.393c-.033,0-.067,0-.1.009h-.066l-.022,0h-.013l-.016,0h-.03l-.008,0-.008,0-.012,0-.032,0h-.006l-.014,0-.012,0h-.006l-.026.005-.018,0-.016,0a3.079,3.079,0,0,0-.524.16l-.029.012-.011,0-.007,0-.006,0a2.99,2.99,0,0,0-.8.51,2.971,2.971,0,0,0-.829,1.219L-4897.124-323h-24.311a27.532,27.532,0,0,1-4.585-9.4,28.29,28.29,0,0,1-.837-10.257,27.642,27.642,0,0,1,9.566-18.356,24.843,24.843,0,0,1,7.788-4.512,25.493,25.493,0,0,1,8.591-1.471,28.131,28.131,0,0,1,20.064,8.64L-4877-354.4l3.848-3.964a28.47,28.47,0,0,1,9.352-6.431A27.265,27.265,0,0,1-4853.08-367a25.474,25.474,0,0,1,8.587,1.471,24.849,24.849,0,0,1,7.786,4.512,27.63,27.63,0,0,1,9.564,18.356,28.278,28.278,0,0,1-.842,10.257,27.513,27.513,0,0,1-4.594,9.4h-20.588l-4.014-11.026A3.01,3.01,0,0,0-4860-336a2.991,2.991,0,0,0-1.025.181,2.926,2.926,0,0,0-.414.187,2.975,2.975,0,0,0-1.589,1.711l-8.2,22.524Z" transform="translate(4927 373)"/></g></svg>