<svg xmlns="http://www.w3.org/2000/svg" xmlns:xlink="http://www.w3.org/1999/xlink" width="100" height="100" viewBox="0 0 100 100"><defs><clipPath id="b"><rect width="100" height="100"/></clipPath></defs><g id="a" clip-path="url(#b)"><path d="M-2683.235-454.411H-2692v-14h2.168l30.369-71.545,12.887,5.47L-2679.55-456.8A3.975,3.975,0,0,1-2683.235-454.411Zm-9.765,0h-3v-14h3v14Zm-4,0h-3v-14h3v14Zm-4,0h-3v-14h3v14Zm-4,0h-3v-14h3v14Zm-4,0h-3v-14h3v14Zm-4,0h-3v-14h3v14Zm-4-.127h0a4,4,0,0,1-3-3.874v-6a4,4,0,0,1,3-3.874v13.746Zm71.206-81.79h0l-12.886-5.47,1.173-2.762,12.886,5.47-1.172,2.761Zm1.954-4.6h0l-12.886-5.469,2.19-5.161a4,4,0,0,1,3.685-2.439,3.978,3.978,0,0,1,1.561.32l5.523,2.344a3.975,3.975,0,0,1,2.146,2.183,3.973,3.973,0,0,1-.027,3.062l-2.19,5.16Z" transform="translate(2720 554.411)"/><path d="M-2645.329-454.411h-3v-14h3v14Zm-4,0h-3v-14h3v14Zm-4,0h-3v-14h3v14Zm-4,0h-3v-14h3v14Zm-4,0h-3v-14h3v14Zm-4,0h-3v-14h3v14Zm-4,0h-8.765a3.974,3.974,0,0,1-3.685-2.39l-7.145-16.833,7.6-17.916,9.822,23.139h2.168v14Zm25-.126h0v-13.747a4,4,0,0,1,3,3.875v6a4,4,0,0,1-3,3.874Zm-56.546-47.25v0l-13.879-32.7,12.887-5.47,8.6,20.254-7.6,17.913Zm-14.661-34.539h0l-1.172-2.763,12.886-5.469,1.173,2.761-12.886,5.471Zm-1.954-4.6v0h0l-2.191-5.158a3.976,3.976,0,0,1-.027-3.063,3.979,3.979,0,0,1,2.146-2.183l5.523-2.344a3.989,3.989,0,0,1,1.561-.32,4,4,0,0,1,3.685,2.439l2.191,5.161Z" transform="translate(2741 554.411)" opacity="0.5"/></g></svg>