<svg xmlns="http://www.w3.org/2000/svg" xmlns:xlink="http://www.w3.org/1999/xlink" width="100" height="100" viewBox="0 0 100 100"><defs><clipPath id="b"><rect width="100" height="100"/></clipPath></defs><g id="a" clip-path="url(#b)"><path d="M-2683.235-454.411H-2692v-14h2.168l30.369-71.545,12.887,5.47L-2679.55-456.8A3.975,3.975,0,0,1-2683.235-454.411Zm-9.765,0h-3v-14h3v14Zm-4,0h-3v-14h3v14Zm-4,0h-3v-14h3v14Zm-4,0h-3v-14h3v14Zm-4,0h-3v-14h3v14Zm-4,0h-3v-14h3v14Zm-4-.127h0a4,4,0,0,1-3-3.874v-6a4,4,0,0,1,3-3.874v13.746Zm71.206-81.79h0l-12.886-5.47,1.173-2.762,12.886,5.47-1.172,2.761Zm1.954-4.6h0l-12.886-5.469,2.19-5.161a4,4,0,0,1,3.685-2.439,3.978,3.978,0,0,1,1.561.32l5.523,2.344a3.975,3.975,0,0,1,2.146,2.183,3.973,3.973,0,0,1-.027,3.062l-2.19,5.16Z" transform="translate(2731 554)"/></g></svg>