<svg xmlns="http://www.w3.org/2000/svg" xmlns:xlink="http://www.w3.org/1999/xlink" width="100" height="100" viewBox="0 0 100 100"><defs><clipPath id="b"><rect width="100" height="100"/></clipPath></defs><g id="a" clip-path="url(#b)"><path d="M137.361,201.541V184.7a2.788,2.788,0,0,0-2.757-2.818h-11.03a2.788,2.788,0,0,0-2.757,2.818v16.86a2.789,2.789,0,0,1-2.744,2.818l-19.315.051A2.788,2.788,0,0,1,96,201.614V172.735l31.777-26.749a2.066,2.066,0,0,1,2.637,0l31.763,26.738v28.889a2.788,2.788,0,0,1-2.757,2.818l-19.3-.055a2.728,2.728,0,0,1-1.956-.832A2.851,2.851,0,0,1,137.361,201.541Z" transform="translate(-79.095 -115.013)" opacity="0.5"/><path d="M99.561,73.634l-4.427,5.461a2.063,2.063,0,0,1-2.934.291L51.362,45.248a2.093,2.093,0,0,0-2.656,0L7.87,79.385a2.063,2.063,0,0,1-2.932-.291L.51,73.634a2.135,2.135,0,0,1,.28-2.975L44.73,33.938a8.24,8.24,0,0,1,10.59,0L70.86,46.9V34.114A2.1,2.1,0,0,1,72.943,32h9.722a2.1,2.1,0,0,1,2.083,2.114v24.4L99.263,70.652a2.135,2.135,0,0,1,.3,2.982Z" transform="translate(-0.034 -21)"/></g></svg>