<svg xmlns="http://www.w3.org/2000/svg" xmlns:xlink="http://www.w3.org/1999/xlink" width="100" height="100" viewBox="0 0 100 100"><defs><clipPath id="b"><rect width="100" height="100"/></clipPath></defs><g id="a" clip-path="url(#b)"><path d="M-309.462,96.071a49.837,49.837,0,0,1-15.893-10.715,49.827,49.827,0,0,1-10.715-15.893A49.682,49.682,0,0,1-340,50a49.687,49.687,0,0,1,3.929-19.462,49.827,49.827,0,0,1,10.715-15.893A49.837,49.837,0,0,1-309.462,3.929,49.687,49.687,0,0,1-290,0a49.687,49.687,0,0,1,19.463,3.929,49.833,49.833,0,0,1,15.892,10.715A49.812,49.812,0,0,1-243.93,30.538,49.687,49.687,0,0,1-240,50a49.682,49.682,0,0,1-3.929,19.462,49.812,49.812,0,0,1-10.715,15.893,49.833,49.833,0,0,1-15.892,10.715A49.687,49.687,0,0,1-290,100,49.687,49.687,0,0,1-309.462,96.071ZM-334,50a44.05,44.05,0,0,0,44,44,44.049,44.049,0,0,0,44-44A44.05,44.05,0,0,0-290,6,44.05,44.05,0,0,0-334,50Zm32,29a2,2,0,0,1-2-2V73a2,2,0,0,1,2-2h6V56h-6a2,2,0,0,1-2-2V48a2,2,0,0,1,2-2h7a2.006,2.006,0,0,1,.5.063A2,2,0,0,1-294,46h8a2,2,0,0,1,2,2V71h6a2,2,0,0,1,2,2v4a2,2,0,0,1-2,2Zm3-48a9,9,0,0,1,9-9,9,9,0,0,1,9,9,9,9,0,0,1-9,9A9,9,0,0,1-299,31Z" transform="translate(340 0)"/><path d="M50,0A50,50,0,1,1,0,50,50,50,0,0,1,50,0Z" opacity="0.33"/></g></svg>