<svg xmlns="http://www.w3.org/2000/svg" xmlns:xlink="http://www.w3.org/1999/xlink" width="100" height="100" viewBox="0 0 100 100"><defs><clipPath id="b"><rect width="100" height="100"/></clipPath></defs><g id="a" clip-path="url(#b)"><path d="M-6286.667-839.335a3.338,3.338,0,0,1-3.333-3.333v-60a3.339,3.339,0,0,1,3.333-3.333h93.334a3.338,3.338,0,0,1,3.333,3.333v60a3.336,3.336,0,0,1-3.333,3.333Zm5-56.665v46.668a1.667,1.667,0,0,0,1.665,1.665h80a1.668,1.668,0,0,0,1.668-1.665V-896a1.668,1.668,0,0,0-1.668-1.665h-80A1.667,1.667,0,0,0-6281.666-896Zm61.667,9.166a5.832,5.832,0,0,1,5.832-5.833,5.833,5.833,0,0,1,5.834,5.833,5.834,5.834,0,0,1-5.834,5.835A5.833,5.833,0,0,1-6220-886.834Z" transform="translate(6290 923)"/><path d="M-6203.335-856.524h-80A1.667,1.667,0,0,1-6285-858.19v-9.8c12.493-8.548,17-24.07,17.188-24.727a70.409,70.409,0,0,0,5.61,9.169c2.894,4.129,7.113,9.413,10.789,11.133a4.768,4.768,0,0,0,2.038.447c3.573,0,7.576-3.712,10.3-6.826a60.35,60.35,0,0,0,5.119-6.826,27.12,27.12,0,0,0,3.713,4.435,48.784,48.784,0,0,0,12.222,8.77,40.377,40.377,0,0,0,16.349,4.783v9.44A1.668,1.668,0,0,1-6203.335-856.524Z" transform="translate(6293.334 931.858)" opacity="0.5"/></g></svg>