<svg xmlns="http://www.w3.org/2000/svg" xmlns:xlink="http://www.w3.org/1999/xlink" width="100" height="100" viewBox="0 0 100 100"><defs><clipPath id="b"><rect width="100" height="100"/></clipPath></defs><g id="a" clip-path="url(#b)"><path d="M-2120-316h-80a10.011,10.011,0,0,1-10-10v-20a10.012,10.012,0,0,1,10-10h80a10.012,10.012,0,0,1,10,10v20A10.011,10.011,0,0,1-2120-316Zm-79-35a6.007,6.007,0,0,0-6,6v18a6.007,6.007,0,0,0,6,6h78a6.007,6.007,0,0,0,6-6v-18a6.007,6.007,0,0,0-6-6Z" transform="translate(2210 386)"/><path d="M11.433,1.128A5.442,5.442,0,0,1,7.408-.564a5.569,5.569,0,0,1-1.666-4.05A5.655,5.655,0,0,1,7.408-8.69a5.4,5.4,0,0,1,4.025-1.718,5.544,5.544,0,0,1,4.1,1.718,5.611,5.611,0,0,1,1.692,4.076,5.526,5.526,0,0,1-1.692,4.05A5.585,5.585,0,0,1,11.433,1.128Zm22.764,0A5.442,5.442,0,0,1,30.172-.564a5.569,5.569,0,0,1-1.666-4.05A5.655,5.655,0,0,1,30.172-8.69,5.4,5.4,0,0,1,34.2-10.408,5.544,5.544,0,0,1,38.3-8.69,5.611,5.611,0,0,1,39.99-4.614,5.526,5.526,0,0,1,38.3-.564,5.585,5.585,0,0,1,34.2,1.128Zm22.764,0A5.442,5.442,0,0,1,52.936-.564a5.569,5.569,0,0,1-1.666-4.05A5.655,5.655,0,0,1,52.936-8.69a5.4,5.4,0,0,1,4.025-1.718,5.544,5.544,0,0,1,4.1,1.718,5.611,5.611,0,0,1,1.692,4.076,5.526,5.526,0,0,1-1.692,4.05A5.585,5.585,0,0,1,56.96,1.128Z" transform="translate(15.258 54.408)" opacity="0.5"/></g></svg>