<svg xmlns="http://www.w3.org/2000/svg" xmlns:xlink="http://www.w3.org/1999/xlink" width="100" height="100" viewBox="0 0 100 100"><defs><clipPath id="b"><rect width="100" height="100"/></clipPath></defs><g id="a" clip-path="url(#b)"><path d="M-4216.33,9.537V.306h-7.693V4.922a4.615,4.615,0,0,1-4.615,4.615,4.615,4.615,0,0,1-4.616-4.615V.306H-4251a23.232,23.232,0,0,0,.826-6.153A23.21,23.21,0,0,0-4251-12h48.515a6.163,6.163,0,0,1,6.157,6.153,6.163,6.163,0,0,1-6.157,6.153h-4.613V9.537a4.615,4.615,0,0,1-4.615,4.615A4.616,4.616,0,0,1-4216.33,9.537Z" transform="translate(4296.328 55.923)"/><path d="M-4227.923,34.153a22.921,22.921,0,0,1-16.317-6.759A22.919,22.919,0,0,1-4251,11.077a22.919,22.919,0,0,1,6.76-16.318A22.921,22.921,0,0,1-4227.923-12a22.925,22.925,0,0,1,16.317,6.759,22.924,22.924,0,0,1,6.759,16.318,22.924,22.924,0,0,1-6.759,16.318A22.925,22.925,0,0,1-4227.923,34.153Zm0-35.385a12.321,12.321,0,0,0-12.308,12.308,12.321,12.321,0,0,0,12.308,12.308,12.322,12.322,0,0,0,12.308-12.308A12.322,12.322,0,0,0-4227.923-1.232Z" transform="translate(4251 39)" opacity="0.5"/></g></svg>