<svg xmlns="http://www.w3.org/2000/svg" xmlns:xlink="http://www.w3.org/1999/xlink" width="100" height="100" viewBox="0 0 100 100"><defs><clipPath id="b"><rect width="100" height="100"/></clipPath></defs><g id="a" clip-path="url(#b)"><path d="M0,0H38.059a8.783,8.783,0,0,1,0,17.566H0Z" transform="translate(70.239 56.627) rotate(45)" opacity="0.5"/><path d="M41.6,83.2A41.613,41.613,0,0,1,25.409,3.269,41.612,41.612,0,0,1,57.8,79.934,41.34,41.34,0,0,1,41.6,83.2Zm0-67.983A26.381,26.381,0,1,0,67.983,41.6,26.411,26.411,0,0,0,41.6,15.22Z" transform="translate(-16.475 41.996) rotate(-45)"/></g></svg>