<svg xmlns="http://www.w3.org/2000/svg" xmlns:xlink="http://www.w3.org/1999/xlink" width="100" height="100" viewBox="0 0 100 100"><defs><clipPath id="b"><rect width="100" height="100"/></clipPath></defs><g id="a" clip-path="url(#b)"><path d="M-5592.351-445.054a25.161,25.161,0,0,1,0-35.541l17.772-17.771a25.16,25.16,0,0,1,35.542,0,24.924,24.924,0,0,1,5.382,8l-.014,0a5.019,5.019,0,0,1-1.089,5.487,5.03,5.03,0,0,1-7.105,0,5.019,5.019,0,0,1-1.2-1.9,14.981,14.981,0,0,0-3.087-4.478,15.094,15.094,0,0,0-21.322,0l-17.772,17.771a15.094,15.094,0,0,0,0,21.322,15.1,15.1,0,0,0,21.324,0l10.275-10.276a31.861,31.861,0,0,0,13.275.942l-16.443,16.441a25.05,25.05,0,0,1-17.768,7.347A25.054,25.054,0,0,1-5592.351-445.054Zm31.987-31.985a24.91,24.91,0,0,1-5.382-8v0l.014-.006a5.015,5.015,0,0,1,1.09-5.484,5.03,5.03,0,0,1,7.105,0,5.046,5.046,0,0,1,1.2,1.9,15.06,15.06,0,0,0,3.087,4.478,15.094,15.094,0,0,0,21.322,0l17.771-17.771a15.094,15.094,0,0,0,0-21.322,15.1,15.1,0,0,0-21.324,0l-10.275,10.274a31.853,31.853,0,0,0-13.272-.943l16.438-16.438a25.159,25.159,0,0,1,35.54,0,25.158,25.158,0,0,1,0,35.541l-17.771,17.771a25.055,25.055,0,0,1-17.77,7.35A25.053,25.053,0,0,1-5560.364-477.039Z" transform="translate(5599.701 537.701)"/></g></svg>