<svg xmlns="http://www.w3.org/2000/svg" xmlns:xlink="http://www.w3.org/1999/xlink" width="100" height="100" viewBox="0 0 100 100"><defs><clipPath id="b"><rect width="100" height="100"/></clipPath></defs><g id="a" clip-path="url(#b)"><path d="M-504.5-491a5.5,5.5,0,0,1-5.5-5.5,5.5,5.5,0,0,1,5.5-5.5h66a5.5,5.5,0,0,1,5.5,5.5,5.5,5.5,0,0,1-5.5,5.5Zm0-25a5.5,5.5,0,0,1-5.5-5.5,5.5,5.5,0,0,1,5.5-5.5h66a5.5,5.5,0,0,1,5.5,5.5,5.5,5.5,0,0,1-5.5,5.5Zm0-25a5.5,5.5,0,0,1-5.5-5.5,5.5,5.5,0,0,1,5.5-5.5h66a5.5,5.5,0,0,1,5.5,5.5,5.5,5.5,0,0,1-5.5,5.5Z" transform="translate(533 572)"/><path d="M-510-494.5a7.5,7.5,0,0,1,7.5-7.5,7.5,7.5,0,0,1,7.5,7.5,7.5,7.5,0,0,1-7.5,7.5A7.5,7.5,0,0,1-510-494.5Zm0-25a7.5,7.5,0,0,1,7.5-7.5,7.5,7.5,0,0,1,7.5,7.5,7.5,7.5,0,0,1-7.5,7.5A7.5,7.5,0,0,1-510-519.5Zm0-25a7.5,7.5,0,0,1,7.5-7.5,7.5,7.5,0,0,1,7.5,7.5,7.5,7.5,0,0,1-7.5,7.5A7.5,7.5,0,0,1-510-544.5Z" transform="translate(510 570)" opacity="0.5"/></g></svg>