<svg xmlns="http://www.w3.org/2000/svg" xmlns:xlink="http://www.w3.org/1999/xlink" width="100" height="100" viewBox="0 0 100 100"><defs><clipPath id="b"><rect width="100" height="100"/></clipPath></defs><g id="a" clip-path="url(#b)"><path d="M-928.252-305.364h-66a5.506,5.506,0,0,1-5.5-5.5,5.506,5.506,0,0,1,5.5-5.5h66a5.506,5.506,0,0,1,5.5,5.5A5.506,5.506,0,0,1-928.252-305.364Zm0-25h-66a5.506,5.506,0,0,1-5.5-5.5,5.506,5.506,0,0,1,5.5-5.5h66a5.506,5.506,0,0,1,5.5,5.5A5.506,5.506,0,0,1-928.252-330.364Zm0-25h-66a5.506,5.506,0,0,1-5.5-5.5,5.506,5.506,0,0,1,5.5-5.5h66a5.506,5.506,0,0,1,5.5,5.5A5.506,5.506,0,0,1-928.252-355.364Z" transform="translate(1021 386)"/><path d="M-1005.23-299.326l-3.951-3.952a2.794,2.794,0,0,1,0-3.952,2.793,2.793,0,0,1,3.951,0l1.975,1.975,5.927-5.927a2.794,2.794,0,0,1,3.952,0,2.794,2.794,0,0,1,0,3.952L-999.3-301.3l-1.976,1.975a2.785,2.785,0,0,1-1.975.819A2.789,2.789,0,0,1-1005.23-299.326Zm0-25-3.951-3.952a2.794,2.794,0,0,1,0-3.952,2.793,2.793,0,0,1,3.951,0l1.975,1.975,5.927-5.927a2.794,2.794,0,0,1,3.952,0,2.794,2.794,0,0,1,0,3.952L-999.3-326.3l-1.976,1.975a2.781,2.781,0,0,1-1.975.819A2.785,2.785,0,0,1-1005.23-324.326Zm0-25-3.951-3.952a2.794,2.794,0,0,1,0-3.952,2.793,2.793,0,0,1,3.951,0l1.975,1.975,5.927-5.927a2.794,2.794,0,0,1,3.952,0,2.794,2.794,0,0,1,0,3.952L-999.3-351.3l-1.976,1.975a2.781,2.781,0,0,1-1.975.819A2.785,2.785,0,0,1-1005.23-349.326Z" transform="translate(1011 380)" opacity="0.5"/></g></svg>