<svg xmlns="http://www.w3.org/2000/svg" xmlns:xlink="http://www.w3.org/1999/xlink" width="100" height="100" viewBox="0 0 100 100"><defs><clipPath id="b"><rect width="100" height="100"/></clipPath></defs><g id="a" clip-path="url(#b)"><path d="M-5207.9-487h-56.6a5.506,5.506,0,0,1-5.5-5.5,5.507,5.507,0,0,1,5.5-5.5h56.5v10a5.039,5.039,0,0,0,.1,1Zm9.8-.015h0a5.1,5.1,0,0,0,.1-.984v-9.978a5.482,5.482,0,0,1,3.552,1.758A5.487,5.487,0,0,1-5193-492.5a5.481,5.481,0,0,1-1.48,3.753,5.478,5.478,0,0,1-3.616,1.731ZM-5233.584-512H-5264.5a5.506,5.506,0,0,1-5.5-5.5,5.507,5.507,0,0,1,5.5-5.5h56.5v4h-21a5.005,5.005,0,0,0-5,5,4.958,4.958,0,0,0,.416,2Zm40.377-7H-5198v-3.979a5.524,5.524,0,0,1,4.793,3.977ZM-5208-537h-56.5a5.506,5.506,0,0,1-5.5-5.5,5.507,5.507,0,0,1,5.5-5.5h66a5.506,5.506,0,0,1,5.5,5.5,5.485,5.485,0,0,1-1.449,3.72,5.484,5.484,0,0,1-3.552,1.757V-540a5.006,5.006,0,0,0-5-5,5.006,5.006,0,0,0-5,5v3Z" transform="translate(5272 566)" opacity="0.5"/><path d="M-3885,44V22h-22a4,4,0,0,1-4-4,4,4,0,0,1,4-4h22V-8a4,4,0,0,1,4-4,4,4,0,0,1,4,4V14h22a4,4,0,0,1,4,4,4,4,0,0,1-4,4h-22V44a4,4,0,0,1-4,4A4,4,0,0,1-3885,44Z" transform="translate(3950 34)"/></g></svg>