<svg xmlns="http://www.w3.org/2000/svg" xmlns:xlink="http://www.w3.org/1999/xlink" width="100" height="100" viewBox="0 0 100 100"><defs><clipPath id="b"><rect width="100" height="100"/></clipPath></defs><g id="a" clip-path="url(#b)"><path d="M-1098.252-304.364h-66a5.507,5.507,0,0,1-5.5-5.5,5.507,5.507,0,0,1,5.5-5.5h66a5.506,5.506,0,0,1,5.5,5.5A5.506,5.506,0,0,1-1098.252-304.364Zm0-25h-66a5.507,5.507,0,0,1-5.5-5.5,5.507,5.507,0,0,1,5.5-5.5h66a5.506,5.506,0,0,1,5.5,5.5A5.506,5.506,0,0,1-1098.252-329.364Zm0-25h-66a5.507,5.507,0,0,1-5.5-5.5,5.507,5.507,0,0,1,5.5-5.5h66a5.506,5.506,0,0,1,5.5,5.5A5.506,5.506,0,0,1-1098.252-354.364Z" transform="translate(1191 385)"/><path d="M-1176.23-299.326l-3.951-3.952a2.793,2.793,0,0,1,0-3.952,2.793,2.793,0,0,1,3.951,0l1.976,1.975,5.926-5.927a2.794,2.794,0,0,1,3.952,0,2.792,2.792,0,0,1,0,3.952l-5.926,5.927-1.976,1.975a2.786,2.786,0,0,1-1.976.819A2.789,2.789,0,0,1-1176.23-299.326Zm0-25-3.951-3.952a2.793,2.793,0,0,1,0-3.952,2.793,2.793,0,0,1,3.951,0l1.976,1.975,5.926-5.927a2.794,2.794,0,0,1,3.952,0,2.792,2.792,0,0,1,0,3.952l-5.926,5.927-1.976,1.975a2.782,2.782,0,0,1-1.976.819A2.785,2.785,0,0,1-1176.23-324.326ZM-1180-354.5a7.5,7.5,0,0,1,7.5-7.5,7.5,7.5,0,0,1,7.5,7.5,7.5,7.5,0,0,1-7.5,7.5A7.5,7.5,0,0,1-1180-354.5Z" transform="translate(1182 380)" opacity="0.5"/></g></svg>