<svg xmlns="http://www.w3.org/2000/svg" xmlns:xlink="http://www.w3.org/1999/xlink" width="100" height="100" viewBox="0 0 100 100"><defs><clipPath id="b"><rect width="100" height="100"/></clipPath></defs><g id="a" clip-path="url(#b)"><g transform="translate(-31.876 -60.001)"><path d="M-4333.5,50.5h-81.251A6.257,6.257,0,0,1-4421,44.251v-50A6.257,6.257,0,0,1-4414.749-12h81.251a6.257,6.257,0,0,1,6.252,6.248v50A6.257,6.257,0,0,1-4333.5,50.5Zm-40.623-43.751a12.516,12.516,0,0,0-12.5,12.5,12.518,12.518,0,0,0,12.5,12.5,12.517,12.517,0,0,0,12.5-12.5A12.515,12.515,0,0,0-4374.121,6.749Z" transform="translate(4456 109.5)"/><path d="M-4409.621,28.627h0l-9.377,0V6.749A18.773,18.773,0,0,1-4400.245-12h25a18.773,18.773,0,0,1,18.755,18.748V28.621l-9.375,0V6.749a9.389,9.389,0,0,0-9.38-9.376h-25a9.386,9.386,0,0,0-9.376,9.376V28.627Z" transform="translate(4469.625 72)" opacity="0.5"/></g></g></svg>