<svg xmlns="http://www.w3.org/2000/svg" xmlns:xlink="http://www.w3.org/1999/xlink" width="100" height="100" viewBox="0 0 100 100"><defs><clipPath id="b"><rect width="100" height="100"/></clipPath></defs><g id="a" clip-path="url(#b)"><path d="M-4333.5,50.5h-81.253A6.257,6.257,0,0,1-4421,44.253v-50A6.257,6.257,0,0,1-4414.748-12h81.253a6.257,6.257,0,0,1,6.252,6.248v50A6.257,6.257,0,0,1-4333.5,50.5Zm-40.624-43.753a12.516,12.516,0,0,0-12.5,12.5,12.518,12.518,0,0,0,12.5,12.5,12.517,12.517,0,0,0,12.5-12.5A12.515,12.515,0,0,0-4374.119,6.749Z" transform="translate(4424 49.498)"/><path d="M-4421,54.626V32.75A18.774,18.774,0,0,1-4402.245,14h25a18.77,18.77,0,0,1,18.756,18.749v4.688a4.686,4.686,0,0,1-4.688,4.688,4.687,4.687,0,0,1-4.687-4.688V32.75a9.387,9.387,0,0,0-9.38-9.376h-25a9.387,9.387,0,0,0-9.376,9.376v21.88Z" transform="translate(4439.623 -14.002)" opacity="0.5"/></g></svg>