<svg xmlns="http://www.w3.org/2000/svg" xmlns:xlink="http://www.w3.org/1999/xlink" width="100" height="100" viewBox="0 0 100 100"><defs><clipPath id="b"><rect width="100" height="100"/></clipPath></defs><g id="a" clip-path="url(#b)"><path d="M85.34,72.452V57.8H100A14.654,14.654,0,0,1,85.346,72.452Zm-70.68,0h-.006A14.654,14.654,0,0,1,0,57.8H85.34V72.452ZM85.34,57.8V2a2,2,0,0,1,2-2H98a2,2,0,0,1,2,2V57.8ZM0,57.8V2A2,2,0,0,1,2,0H12.66a2,2,0,0,1,2,2V57.8Z" transform="translate(72.452 0) rotate(90)" opacity="0.5"/><path d="M53.01-322.135l-1.222-1.222a5,5,0,0,1,0-7.07l7.436-7.437H5a5,5,0,0,1-5-5v-1.729a5,5,0,0,1,5-5H58.725l-6.938-6.937a5,5,0,0,1,0-7.071l1.221-1.221a5,5,0,0,1,7.072,0l16.586,16.586,1.222,1.221a5,5,0,0,1,0,7.072L60.081-322.134a4.985,4.985,0,0,1-3.535,1.464A4.985,4.985,0,0,1,53.01-322.135Z" transform="translate(20 393.287)"/></g></svg>