<svg xmlns="http://www.w3.org/2000/svg" xmlns:xlink="http://www.w3.org/1999/xlink" width="100" height="100" viewBox="0 0 100 100"><defs><clipPath id="b"><rect width="100" height="100"/></clipPath></defs><g id="a" clip-path="url(#b)"><path d="M-6453-1203a7.009,7.009,0,0,1-7-7v-55l26.585,26.587-18.8,18.8a3.971,3.971,0,0,0-1.172,2.827,3.975,3.975,0,0,0,1.172,2.829,3.973,3.973,0,0,0,2.829,1.171,3.973,3.973,0,0,0,2.829-1.171l18.8-18.8,4.911,4.911a17.881,17.881,0,0,0,12.728,5.272,17.882,17.882,0,0,0,12.727-5.272l4.945-4.943,18.833,18.831a3.965,3.965,0,0,0,2.827,1.171,3.971,3.971,0,0,0,2.828-1.171,3.976,3.976,0,0,0,1.172-2.829,3.972,3.972,0,0,0-1.172-2.827l-18.831-18.831,26.79-26.791V-1210a7.008,7.008,0,0,1-7,7Zm35.1-29.9-36.877-36.877A7.028,7.028,0,0,1-6453-1270h86a7.01,7.01,0,0,1,1.585.18l-36.925,36.924a10.965,10.965,0,0,1-7.777,3.223A10.965,10.965,0,0,1-6417.9-1232.9Z" transform="translate(6460 1287)"/></g></svg>