<svg xmlns="http://www.w3.org/2000/svg" xmlns:xlink="http://www.w3.org/1999/xlink" width="100" height="100" viewBox="0 0 100 100"><defs><clipPath id="b"><rect width="100" height="100"/></clipPath></defs><g id="a" clip-path="url(#b)"><path d="M-6537-1196h-86a7.008,7.008,0,0,1-7-7v-55l26.586,26.586-18.8,18.8a3.972,3.972,0,0,0-1.173,2.827,3.974,3.974,0,0,0,1.173,2.829,3.969,3.969,0,0,0,2.829,1.171,3.97,3.97,0,0,0,2.829-1.171l18.8-18.8,4.91,4.91a17.884,17.884,0,0,0,12.729,5.273,17.887,17.887,0,0,0,12.727-5.273l4.945-4.943,18.832,18.83a3.96,3.96,0,0,0,2.827,1.171,3.965,3.965,0,0,0,2.827-1.171,3.977,3.977,0,0,0,1.173-2.829,3.974,3.974,0,0,0-1.173-2.827l-18.831-18.83,12.291-12.292a13.981,13.981,0,0,0,4.5.738,13.9,13.9,0,0,0,10-4.2v44.2A7.008,7.008,0,0,1-6537-1196Zm-43.117-26.672a10.929,10.929,0,0,1-7.779-3.223l-36.877-36.877A7.087,7.087,0,0,1-6623-1263h70.346a13.874,13.874,0,0,0-1.347,6,13.982,13.982,0,0,0,3.5,9.263l-21.842,21.841A10.926,10.926,0,0,1-6580.117-1222.673Z" transform="translate(6630 1280)"/><path d="M10,0A10,10,0,1,1,0,10,10,10,0,0,1,10,0Z" transform="translate(80 13)" opacity="0.5"/></g></svg>