<svg xmlns="http://www.w3.org/2000/svg" xmlns:xlink="http://www.w3.org/1999/xlink" width="100" height="100" viewBox="0 0 100 100"><defs><clipPath id="b"><rect width="100" height="100"/></clipPath></defs><g id="a" clip-path="url(#b)"><path d="M-5407.833-251.711a34.557,34.557,0,0,1-11.016-7.389,34.363,34.363,0,0,1-7.426-10.96A34.111,34.111,0,0,1-5429-283.479a34.113,34.113,0,0,1,2.724-13.421,34.363,34.363,0,0,1,7.426-10.96,34.557,34.557,0,0,1,11.016-7.389,34.6,34.6,0,0,1,13.489-2.71,34.608,34.608,0,0,1,13.489,2.71,34.692,34.692,0,0,1,5.293,2.786l22.927-22.77h-11.044a6.884,6.884,0,0,1-6.885-6.883A6.884,6.884,0,0,1-5363.68-349h27.8a6.884,6.884,0,0,1,6.883,6.885v27.491a6.928,6.928,0,0,1-6.927,6.928,6.928,6.928,0,0,1-6.927-6.928v-10.856l-22.8,22.647a34.282,34.282,0,0,1,3.244,5.935,34.111,34.111,0,0,1,2.722,13.421,34.11,34.11,0,0,1-2.722,13.419,34.342,34.342,0,0,1-7.427,10.96,34.575,34.575,0,0,1-11.015,7.389,34.583,34.583,0,0,1-13.489,2.71A34.573,34.573,0,0,1-5407.833-251.711Zm-7.771-31.768a21.238,21.238,0,0,0,21.259,21.171,21.239,21.239,0,0,0,21.259-21.171,21.241,21.241,0,0,0-21.259-21.173A21.24,21.24,0,0,0-5415.6-283.479Z" transform="translate(5429 349)"/></g></svg>