<svg xmlns="http://www.w3.org/2000/svg" xmlns:xlink="http://www.w3.org/1999/xlink" width="100" height="100" viewBox="0 0 100 100"><defs><clipPath id="b"><rect width="100" height="100"/></clipPath></defs><g id="a" clip-path="url(#b)"><path d="M-6562.835-988h0a1.5,1.5,0,0,1-1.494-1.493v-65.789c1.951-4.919,2.982-9,2.982-11.8a20.132,20.132,0,0,0-2.628-9.947,1.493,1.493,0,0,1,1.14-.528l26.864-10.448a1.5,1.5,0,0,1,1.493,1.494v86.565a1.494,1.494,0,0,1-1.493,1.493L-6562.834-988Zm-65.673,0h0a1.494,1.494,0,0,1-1.492-1.493v-86.567a1.494,1.494,0,0,1,1.493-1.492l26.866-10.448a1.5,1.5,0,0,1,1.494,1.494v11.7a19.987,19.987,0,0,0-1.539,7.728,26.814,26.814,0,0,0,1.539,7.808v59.33a1.5,1.5,0,0,1-1.494,1.493L-6628.507-988Zm59.7,0h0l-26.866-10.448a1.493,1.493,0,0,1-1.491-1.493v-51.7c1.16,2.585,2.523,5.316,3.943,7.9,4.854,8.823,9.666,14.985,11.7,14.985s6.848-6.162,11.7-14.985c.869-1.58,1.71-3.2,2.5-4.825v59.07A1.494,1.494,0,0,1-6568.806-988Zm-28.357-91.792v-6.713a1.494,1.494,0,0,1,1.491-1.494l6.173,2.4a20.347,20.347,0,0,0-7.662,5.8Z" transform="translate(6631.999 1088)"/><path d="M-4912.908-504.433c-1.726,0-5.8-5.221-9.915-12.7-3.469-6.308-7.176-14.817-7.176-19.778A17.11,17.11,0,0,1-4912.908-554a17.111,17.111,0,0,1,17.093,17.091c0,4.962-3.708,13.47-7.177,19.778C-4907.1-509.655-4911.182-504.433-4912.908-504.433Zm0-39.312a6.845,6.845,0,0,0-6.836,6.837,6.845,6.845,0,0,0,6.836,6.837,6.845,6.845,0,0,0,6.837-6.837A6.845,6.845,0,0,0-4912.908-543.746Z" transform="translate(4963.39 559.217)" opacity="0.5"/></g></svg>