<svg xmlns="http://www.w3.org/2000/svg" xmlns:xlink="http://www.w3.org/1999/xlink" width="100" height="100" viewBox="0 0 100 100"><defs><clipPath id="b"><rect width="100" height="100"/></clipPath></defs><g id="a" clip-path="url(#b)"><path d="M-5544.329-989.492v-86.568a1.493,1.493,0,0,1,1.493-1.492l26.865-10.448a1.493,1.493,0,0,1,1.492,1.494v86.566a1.493,1.493,0,0,1-1.492,1.492L-5542.836-988A1.493,1.493,0,0,1-5544.329-989.492Zm-31.344-8.956a1.492,1.492,0,0,1-1.491-1.492v-86.566a1.492,1.492,0,0,1,1.491-1.494l26.866,10.448a1.492,1.492,0,0,1,1.492,1.492v86.568a1.492,1.492,0,0,1-1.492,1.492ZM-5610-989.492v-86.568a1.492,1.492,0,0,1,1.492-1.492l26.866-10.448a1.494,1.494,0,0,1,1.494,1.494v86.566a1.494,1.494,0,0,1-1.494,1.492L-5608.509-988A1.492,1.492,0,0,1-5610-989.492Z" transform="translate(5612 1088)"/></g></svg>