<svg xmlns="http://www.w3.org/2000/svg" xmlns:xlink="http://www.w3.org/1999/xlink" width="100" height="100" viewBox="0 0 100 100"><defs><clipPath id="b"><rect width="100" height="100"/></clipPath></defs><g id="a" clip-path="url(#b)"><path d="M-4572.581-127.928a2.587,2.587,0,0,1-2.582-2.593v-2.593a2.587,2.587,0,0,1,2.582-2.593h10.967v-7.08a31.789,31.789,0,0,1-8.685-2.317,32.141,32.141,0,0,1-10.253-6.948,32.342,32.342,0,0,1-6.915-10.3,32.384,32.384,0,0,1-2.533-12.62v-7.781a3.234,3.234,0,0,1,3.226-3.242,3.236,3.236,0,0,1,3.226,3.242v7.781a25.9,25.9,0,0,0,25.807,25.935,25.9,25.9,0,0,0,25.807-25.935v-7.781a3.236,3.236,0,0,1,3.226-3.242,3.232,3.232,0,0,1,3.224,3.242v7.781a32.341,32.341,0,0,1-2.534,12.62,32.313,32.313,0,0,1-6.914,10.3,32.114,32.114,0,0,1-10.253,6.948,31.8,31.8,0,0,1-8.685,2.318v7.08h10.968a2.587,2.587,0,0,1,2.581,2.593v2.593a2.587,2.587,0,0,1-2.581,2.593Z" transform="translate(4607.74 227.928)"/><path d="M20.587,0A20.668,20.668,0,0,1,41.175,20.748V53.168A20.588,20.588,0,1,1,0,53.168V20.748A20.668,20.668,0,0,1,20.587,0Z" transform="translate(29.411)" opacity="0.5"/></g></svg>