<svg xmlns="http://www.w3.org/2000/svg" xmlns:xlink="http://www.w3.org/1999/xlink" width="100" height="100" viewBox="0 0 100 100"><defs><clipPath id="b"><rect width="100" height="100"/></clipPath></defs><g id="a" clip-path="url(#b)"><path d="M-5561.067-806h-44.707c-1.555,0-4.226-1.261-4.226-2.816v-1.408a7.043,7.043,0,0,1,7.043-7.044h43.979a25.381,25.381,0,0,0,25.033-25.35,25.315,25.315,0,0,0-22.534-25.2v-.014c-.777,0-1.407-1.86-1.407-4.154s.63-4.156,1.407-4.156v-.03a34.9,34.9,0,0,1,9.479,2.516,35.142,35.142,0,0,1,11.193,7.545,35.034,35.034,0,0,1,7.545,11.192,35.013,35.013,0,0,1,2.769,13.706,35,35,0,0,1-2.769,13.706,35.02,35.02,0,0,1-6.624,10.236h2.352a7.042,7.042,0,0,1,7.041,7.044v1.408c0,1.555-2.669,2.816-4.226,2.816h-30.621l-.365,0Zm-23.58-33.8a2.818,2.818,0,0,1-2.817-2.816v-2.818a5.634,5.634,0,0,1-5.634-5.634v-43.661a5.634,5.634,0,0,1,5.634-5.634v-2.818a2.818,2.818,0,0,1,2.817-2.816h12.675a2.817,2.817,0,0,1,2.818,2.816v2.818a5.634,5.634,0,0,1,5.634,5.634v43.661a5.634,5.634,0,0,1-5.634,5.634v2.818a2.817,2.817,0,0,1-2.818,2.816Z" transform="translate(5618 905.999)"/><path d="M1.408,0h33.8A1.408,1.408,0,0,1,36.62,1.408V4.225a1.408,1.408,0,0,1-1.408,1.408H1.408A1.408,1.408,0,0,1,0,4.225V1.408A1.408,1.408,0,0,1,1.408,0Z" transform="translate(22.085 74.647)" opacity="0.33"/></g></svg>