<svg xmlns="http://www.w3.org/2000/svg" xmlns:xlink="http://www.w3.org/1999/xlink" width="100" height="100" viewBox="0 0 100 100"><defs><clipPath id="b"><rect width="100" height="100"/></clipPath></defs><g id="a" clip-path="url(#b)"><path d="M-6102.58-630a2.592,2.592,0,0,1-2.583-2.593v-2.6a2.591,2.591,0,0,1,2.583-2.593h10.965v-7.081a31.868,31.868,0,0,1-8.684-2.316,32.335,32.335,0,0,1-4.351-2.255l4.746-4.746a25.712,25.712,0,0,0,12.163,3.064,25.9,25.9,0,0,0,25.806-25.935v-7.781a3.237,3.237,0,0,1,3.226-3.242,3.237,3.237,0,0,1,3.224,3.242v7.781a32.342,32.342,0,0,1-2.533,12.619,32.314,32.314,0,0,1-6.915,10.3,32.108,32.108,0,0,1-10.254,6.948,31.821,31.821,0,0,1-8.684,2.316v7.081h10.967a2.59,2.59,0,0,1,2.582,2.593v2.6A2.591,2.591,0,0,1-6072.9-630Zm6.4-27.9,29.027-29.026v10.094a20.694,20.694,0,0,1-6.03,14.671,20.371,20.371,0,0,1-14.559,6.078A20.3,20.3,0,0,1-6096.181-657.9Zm-20.827-5.491c-.152-.33-.307-.679-.458-1.038A32.356,32.356,0,0,1-6120-677.049v-7.781a3.237,3.237,0,0,1,3.226-3.242,3.238,3.238,0,0,1,3.227,3.242v7.781a25.956,25.956,0,0,0,1.494,8.7l-4.953,4.953v0Zm9.125-9.125a21.005,21.005,0,0,1-.446-4.316v-32.419a20.691,20.691,0,0,1,6.03-14.671A20.364,20.364,0,0,1-6087.743-730a20.368,20.368,0,0,1,7.2,1.3,20.474,20.474,0,0,1,6.09,3.594,20.816,20.816,0,0,1,6.98,12.18l-40.407,40.405v0Z" transform="translate(6137.74 730)"/><path d="M5,0h99a5,5,0,0,1,0,10H5A5,5,0,0,1,5,0Z" transform="translate(8.427 85.002) rotate(-45)" opacity="0.5"/></g></svg>