<svg xmlns="http://www.w3.org/2000/svg" xmlns:xlink="http://www.w3.org/1999/xlink" width="100" height="100" viewBox="0 0 100 100"><defs><clipPath id="b"><rect width="100" height="100"/></clipPath></defs><g id="a" clip-path="url(#b)"><path d="M2,0H98a2,2,0,0,1,2,2V64a2,2,0,0,1-2,2H2a2,2,0,0,1-2-2V2A2,2,0,0,1,2,0Z" transform="translate(0 17)" opacity="0.33"/><path d="M-2718.5-689a1.5,1.5,0,0,1-1.5-1.5,1.5,1.5,0,0,1,1.5-1.5h50a1.5,1.5,0,0,1,1.5,1.5,1.5,1.5,0,0,1-1.5,1.5Zm37-13a1.5,1.5,0,0,1-1.5-1.5,1.5,1.5,0,0,1,1.5-1.5h43a1.5,1.5,0,0,1,1.5,1.5,1.5,1.5,0,0,1-1.5,1.5Zm-37,0a1.5,1.5,0,0,1-1.5-1.5,1.5,1.5,0,0,1,1.5-1.5h22a1.5,1.5,0,0,1,1.5,1.5,1.5,1.5,0,0,1-1.5,1.5Zm0-13a1.5,1.5,0,0,1-1.5-1.5,1.5,1.5,0,0,1,1.5-1.5h72a1.5,1.5,0,0,1,1.5,1.5,1.5,1.5,0,0,1-1.5,1.5Zm87.551-16.955-1.4-1.4-1.4,1.4a.215.215,0,0,1-.3,0l-.288-.288a.214.214,0,0,1,0-.3l1.4-1.4-1.4-1.4a.214.214,0,0,1,0-.3l.288-.288a.215.215,0,0,1,.3,0l1.4,1.4,1.4-1.4a.214.214,0,0,1,.3,0l.288.288a.214.214,0,0,1,0,.3l-1.4,1.4,1.4,1.4a.214.214,0,0,1,0,.3l-.288.288a.212.212,0,0,1-.152.063A.213.213,0,0,1-2630.948-731.955Z" transform="translate(2729 754)"/></g></svg>