<svg xmlns="http://www.w3.org/2000/svg" xmlns:xlink="http://www.w3.org/1999/xlink" width="100" height="100" viewBox="0 0 100 100"><defs><clipPath id="b"><rect width="100" height="100"/></clipPath></defs><g id="a" clip-path="url(#b)"><path d="M-1508.463-1304h-12.306a9.242,9.242,0,0,1-9.231-9.231v-81.537a9.242,9.242,0,0,1,9.231-9.231h73.845a9.242,9.242,0,0,1,9.231,9.231v81.537a9.242,9.242,0,0,1-9.231,9.231h-12.308v-7.691H-1450a4.621,4.621,0,0,0,4.615-4.616v-75.383a4.62,4.62,0,0,0-4.615-4.615h-67.692a4.62,4.62,0,0,0-4.615,4.615v75.383a4.621,4.621,0,0,0,4.615,4.616h9.231V-1304h0Zm41.9-1.425a3.987,3.987,0,0,1-.7-2.495,3.949,3.949,0,0,1,.706-2.481,2.307,2.307,0,0,1,1.926-.908,2.3,2.3,0,0,1,1.925.907,3.941,3.941,0,0,1,.7,2.479,4.019,4.019,0,0,1-.7,2.5,2.293,2.293,0,0,1-1.927.917A2.3,2.3,0,0,1-1466.564-1305.425Zm1.013-4.19a3.557,3.557,0,0,0-.333,1.695,3.6,3.6,0,0,0,.332,1.708,1.013,1.013,0,0,0,.917.609,1.009,1.009,0,0,0,.915-.606,3.647,3.647,0,0,0,.33-1.711,3.554,3.554,0,0,0-.332-1.7,1.01,1.01,0,0,0-.913-.6A1.018,1.018,0,0,0-1465.551-1309.615Zm-12.521,4.19a4,4,0,0,1-.7-2.495,3.947,3.947,0,0,1,.7-2.481,2.311,2.311,0,0,1,1.927-.908,2.306,2.306,0,0,1,1.925.907,3.95,3.95,0,0,1,.7,2.479,4.01,4.01,0,0,1-.7,2.5,2.288,2.288,0,0,1-1.926.917A2.3,2.3,0,0,1-1478.072-1305.425Zm1.015-4.19a3.536,3.536,0,0,0-.334,1.695,3.621,3.621,0,0,0,.331,1.708,1.015,1.015,0,0,0,.918.609,1.007,1.007,0,0,0,.914-.606,3.632,3.632,0,0,0,.33-1.711,3.57,3.57,0,0,0-.331-1.7,1.011,1.011,0,0,0-.912-.6A1.016,1.016,0,0,0-1477.057-1309.615Zm-27.491,4.17a3.51,3.51,0,0,1-.836-2.484,3.458,3.458,0,0,1,.831-2.452,2.95,2.95,0,0,1,2.269-.892,3.039,3.039,0,0,1,1.925.612,2.391,2.391,0,0,1,.933,1.6h-1.365a1.464,1.464,0,0,0-.543-.8,1.557,1.557,0,0,0-.944-.29,1.513,1.513,0,0,0-1.263.582,2.569,2.569,0,0,0-.456,1.619,2.633,2.633,0,0,0,.476,1.663,1.55,1.55,0,0,0,1.291.608,1.58,1.58,0,0,0,1.09-.374,1.313,1.313,0,0,0,.443-.978l0-.1h-1.415v-.991h2.742v.735a2.805,2.805,0,0,1-.764,2.086,2.886,2.886,0,0,1-2.121.758A2.976,2.976,0,0,1-1504.548-1305.444Zm31.822.788v-.915l2.452-2.361a4.7,4.7,0,0,0,.678-.8,1.213,1.213,0,0,0,.183-.64.791.791,0,0,0-.294-.622,1.089,1.089,0,0,0-.739-.252,1.093,1.093,0,0,0-.784.3.983.983,0,0,0-.312.746v.022h-1.261v-.022a1.921,1.921,0,0,1,.669-1.512,2.526,2.526,0,0,1,1.734-.588,2.54,2.54,0,0,1,1.667.529,1.669,1.669,0,0,1,.645,1.35,1.812,1.812,0,0,1-.088.566,2.019,2.019,0,0,1-.28.546,5.557,5.557,0,0,1-.385.49c-.129.147-.3.323-.505.531l-1.585,1.527v.028H-1468v1.081Zm-11.506,0v-.915l2.451-2.361a4.706,4.706,0,0,0,.678-.8,1.215,1.215,0,0,0,.183-.64.789.789,0,0,0-.292-.622,1.093,1.093,0,0,0-.739-.252,1.1,1.1,0,0,0-.785.3.987.987,0,0,0-.31.746v.022h-1.263v-.022a1.919,1.919,0,0,1,.67-1.512,2.522,2.522,0,0,1,1.732-.588,2.544,2.544,0,0,1,1.668.529,1.672,1.672,0,0,1,.644,1.35,1.855,1.855,0,0,1-.087.566,2.107,2.107,0,0,1-.28.546,5.511,5.511,0,0,1-.385.49c-.13.147-.3.323-.505.531l-1.587,1.527v.028h2.934v1.081Zm-6.234,0-2.186-6.5h1.523l1.487,5.1h.032l1.487-5.1h1.483l-2.186,6.5Zm-8.006,0v-6.5h2.484a3.029,3.029,0,0,1,2.284.843,3.283,3.283,0,0,1,.817,2.384,3.368,3.368,0,0,1-.818,2.411,2.99,2.99,0,0,1-2.283.865Zm1.361-1.127h.961a1.753,1.753,0,0,0,1.394-.547,2.356,2.356,0,0,0,.48-1.6,2.271,2.271,0,0,0-.488-1.565,1.764,1.764,0,0,0-1.387-.545h-.961Zm4.478-15.718a8.568,8.568,0,0,1-2.843-6.7v-16.12h5.219v15.6a5.334,5.334,0,0,0,1.374,3.862,5.113,5.113,0,0,0,3.862,1.425,5.089,5.089,0,0,0,3.844-1.425,5.328,5.328,0,0,0,1.374-3.862v-15.6h5.219v16.12a8.567,8.567,0,0,1-2.843,6.7,10.946,10.946,0,0,1-7.593,2.548A10.977,10.977,0,0,1-1492.633-1321.5Zm36.239,2.116-4.647-9.122h-4.182v9.122h-5.217v-24.931h10.21a9.643,9.643,0,0,1,6.643,2.117,7.4,7.4,0,0,1,2.376,5.831,7.988,7.988,0,0,1-1.2,4.345,6.71,6.71,0,0,1-3.326,2.739l5.252,9.9Zm-8.828-12.906h4.492a4.247,4.247,0,0,0,3.067-1.054,3.857,3.857,0,0,0,1.1-2.92,3.8,3.8,0,0,0-1.141-2.894,4.288,4.288,0,0,0-3.075-1.08h-4.441Zm-50.537,12.906v-24.931h16.517v4.3h-11.3V-1334h10.662v4.007h-10.662v6.29h11.3v4.319Zm51.763-43.076v-4.441h-12.4v-4.44a178.308,178.308,0,0,1,10-16.051h7.36v16.309h3.248v4.181h-3.248v4.441Zm-4.63-14.21q-1.744,2.806-3.2,5.606v.138h7.931V-1383.7h-.1Q-1466.88-1379.48-1468.625-1376.672Zm-24.309,14.21,10.729-20.68v-.1h-12.682v-4.147h17.83v4.2l-10.4,20.733Zm-12.043,0v-20.146h-.1l-6.358,4.389v-4.7l6.444-4.475h5.183v24.931Z" transform="translate(1534 1404)"/></g></svg>