<svg xmlns="http://www.w3.org/2000/svg" xmlns:xlink="http://www.w3.org/1999/xlink" width="100" height="100" viewBox="0 0 100 100"><defs><clipPath id="b"><rect width="100" height="100"/></clipPath></defs><g id="a" clip-path="url(#b)"><path d="M-6035-279a1,1,0,0,1-1-1v-15h-68v15a1,1,0,0,1-1,1h-9a6.008,6.008,0,0,1-6-6v-88a6.007,6.007,0,0,1,6-6h9a1,1,0,0,1,1,1v15h68v-15a1,1,0,0,1,1-1h9a6.007,6.007,0,0,1,6,6v88a6.008,6.008,0,0,1-6,6Zm4-13v4a1,1,0,0,0,1,1h4a1,1,0,0,0,1-1v-4a1,1,0,0,0-1-1h-4A1,1,0,0,0-6031-292Zm-84,0v4a1,1,0,0,0,1,1h4a1,1,0,0,0,1-1v-4a1,1,0,0,0-1-1h-4A1,1,0,0,0-6115-292Zm84-13v4a1,1,0,0,0,1,1h4a1,1,0,0,0,1-1v-4a1,1,0,0,0-1-1h-4A1,1,0,0,0-6031-305Zm-84,0v4a1,1,0,0,0,1,1h4a1,1,0,0,0,1-1v-4a1,1,0,0,0-1-1h-4A1,1,0,0,0-6115-305Zm79-6v-36h-68v36Zm5-7v4a1,1,0,0,0,1,1h4a1,1,0,0,0,1-1v-4a1,1,0,0,0-1-1h-4A1,1,0,0,0-6031-318Zm-84,0v4a1,1,0,0,0,1,1h4a1,1,0,0,0,1-1v-4a1,1,0,0,0-1-1h-4A1,1,0,0,0-6115-318Zm84-13v4a1,1,0,0,0,1,1h4a1,1,0,0,0,1-1v-4a1,1,0,0,0-1-1h-4A1,1,0,0,0-6031-331Zm-84,0v4a1,1,0,0,0,1,1h4a1,1,0,0,0,1-1v-4a1,1,0,0,0-1-1h-4A1,1,0,0,0-6115-331Zm84-13v4a1,1,0,0,0,1,1h4a1,1,0,0,0,1-1v-4a1,1,0,0,0-1-1h-4A1,1,0,0,0-6031-344Zm-84,0v4a1,1,0,0,0,1,1h4a1,1,0,0,0,1-1v-4a1,1,0,0,0-1-1h-4A1,1,0,0,0-6115-344Zm84-13v4a1,1,0,0,0,1,1h4a1,1,0,0,0,1-1v-4a1,1,0,0,0-1-1h-4A1,1,0,0,0-6031-357Zm-84,0v4a1,1,0,0,0,1,1h4a1,1,0,0,0,1-1v-4a1,1,0,0,0-1-1h-4A1,1,0,0,0-6115-357Zm84-13v4a1,1,0,0,0,1,1h4a1,1,0,0,0,1-1v-4a1,1,0,0,0-1-1h-4A1,1,0,0,0-6031-370Zm-84,0v4a1,1,0,0,0,1,1h4a1,1,0,0,0,1-1v-4a1,1,0,0,0-1-1h-4A1,1,0,0,0-6115-370Z" transform="translate(6120 379)"/></g></svg>