<svg xmlns="http://www.w3.org/2000/svg" xmlns:xlink="http://www.w3.org/1999/xlink" width="100" height="100" viewBox="0 0 100 100"><defs><clipPath id="b"><rect width="100" height="100"/></clipPath></defs><g id="a" clip-path="url(#b)"><path d="M-6460-818.728c0-7.027,7.325-12.725,16.363-12.725a20.943,20.943,0,0,1,3.638.316v-51.227a3.634,3.634,0,0,1,3.634-3.635l58.185-20a3.635,3.635,0,0,1,3.637,3.635v70.911c0,7.027-7.325,12.725-16.363,12.725s-16.365-5.7-16.365-12.725,7.328-12.728,16.365-12.728a20.913,20.913,0,0,1,3.635.315v-39.008l-40,13.747v50.4c0,7.03-7.328,12.729-16.366,12.729S-6460-811.7-6460-818.728Z" transform="translate(6467 905.999)"/></g></svg>