<svg xmlns="http://www.w3.org/2000/svg" xmlns:xlink="http://www.w3.org/1999/xlink" width="100" height="100" viewBox="0 0 100 100"><defs><clipPath id="b"><rect width="100" height="100"/></clipPath></defs><g id="a" clip-path="url(#b)"><path d="M-5707.418-649.354h-66.129a6.459,6.459,0,0,1-6.452-6.453v-67.741a6.459,6.459,0,0,1,6.452-6.453h67.741a6.459,6.459,0,0,1,6.452,6.453v11.289h12.9a6.459,6.459,0,0,1,6.451,6.453v50a6.459,6.459,0,0,1-6.451,6.453Zm8.064-13.711a5.651,5.651,0,0,0,5.646,5.646,5.652,5.652,0,0,0,5.646-5.646v-39.92a2.827,2.827,0,0,0-2.824-2.822h-8.468Zm-72.581-55.645v58.064a3.231,3.231,0,0,0,3.227,3.226h61.29v-61.29a3.231,3.231,0,0,0-3.227-3.226h-58.063A3.231,3.231,0,0,0-5771.935-718.709Zm12.1,45.16a4.03,4.03,0,0,1-4.031-4.031,4.032,4.032,0,0,1,4.031-4.034h12.9a4.034,4.034,0,0,1,4.034,4.034,4.032,4.032,0,0,1-4.034,4.031Zm0-16.127a4.032,4.032,0,0,1-4.031-4.034,4.03,4.03,0,0,1,4.031-4.031h35.485a4.031,4.031,0,0,1,4.032,4.031,4.033,4.033,0,0,1-4.032,4.034Zm0-16.13a4.032,4.032,0,0,1-4.031-4.034,4.031,4.031,0,0,1,4.031-4.031h27.421a4.032,4.032,0,0,1,4.032,4.031,4.033,4.033,0,0,1-4.032,4.034Z" transform="translate(5779.999 740)"/><path d="M0,0H8.468A2.823,2.823,0,0,1,11.29,2.823v39.92a5.645,5.645,0,1,1-11.29,0Z" transform="translate(80.646 34.194)" opacity="0.33"/></g></svg>