<svg xmlns="http://www.w3.org/2000/svg" xmlns:xlink="http://www.w3.org/1999/xlink" width="100" height="100" viewBox="0 0 100 100"><defs><clipPath id="b"><rect width="100" height="100"/></clipPath></defs><g id="a" clip-path="url(#b)"><path d="M-6212.778-1169.325h-52.907a17.657,17.657,0,0,1-17.639-17.635v-52.911a17.579,17.579,0,0,1,2.5-9.034l7.3,7.3a11.645,11.645,0,0,0-.972,4.678v47.029a11.772,11.772,0,0,0,11.758,11.76h47.03a11.644,11.644,0,0,0,4.678-.972l7.3,7.3A17.59,17.59,0,0,1-6212.778-1169.325Zm17.639-18.738v0l-8.821-8.821V-1234.5a19.185,19.185,0,0,0,4.411.513,19.15,19.15,0,0,0,4.412-.513v46.438Zm-4.412-51.805a13.138,13.138,0,0,1-9.353-3.874,13.14,13.14,0,0,1-3.875-9.353,13.14,13.14,0,0,1,3.875-9.353,13.138,13.138,0,0,1,9.353-3.874,13.139,13.139,0,0,1,9.353,3.874,13.14,13.14,0,0,1,3.875,9.353,13.14,13.14,0,0,1-3.875,9.353A13.139,13.139,0,0,1-6199.551-1239.868Zm-18.594-8.82h-37.619l-8.816-8.817h46.436a19.263,19.263,0,0,0-.513,4.411,19.257,19.257,0,0,0,.513,4.4Z" transform="translate(6286.105 1266.605)"/><path d="M6.195,0H128.851c3.421,0,6.195,2.239,6.195,5s-2.773,5-6.195,5H6.195C2.773,10,0,7.761,0,5S2.773,0,6.195,0Z" transform="translate(6.071 -1) rotate(45)" opacity="0.5"/></g></svg>