<svg xmlns="http://www.w3.org/2000/svg" xmlns:xlink="http://www.w3.org/1999/xlink" width="100" height="100" viewBox="0 0 100 100"><defs><clipPath id="b"><rect width="100" height="100"/></clipPath></defs><g id="a" clip-path="url(#b)"><path d="M-6049.455-1176.821h-52.907A17.656,17.656,0,0,1-6120-1194.455v-52.911A17.656,17.656,0,0,1-6102.362-1265h47.541a19.21,19.21,0,0,0-.513,4.411,19.262,19.262,0,0,0,.512,4.406h-44.6a11.771,11.771,0,0,0-11.76,11.756v47.029a11.774,11.774,0,0,0,11.76,11.76h47.029a11.771,11.771,0,0,0,11.755-11.76V-1242a19.175,19.175,0,0,0,4.411.513,19.2,19.2,0,0,0,4.412-.513v47.541A17.657,17.657,0,0,1-6049.455-1176.821Z" transform="translate(6122.781 1274.1)"/><path d="M13.227,0A13.227,13.227,0,1,1,0,13.227,13.227,13.227,0,0,1,13.227,0Z" transform="translate(73.327 0.282)" opacity="0.5"/></g></svg>