<svg xmlns="http://www.w3.org/2000/svg" xmlns:xlink="http://www.w3.org/1999/xlink" width="100" height="100" viewBox="0 0 100 100"><defs><clipPath id="b"><rect width="100" height="100"/></clipPath></defs><g id="a" clip-path="url(#b)"><path d="M-5411.428-448a2.04,2.04,0,0,1-2.041-2.04v-16.327a2.041,2.041,0,0,1,2.041-2.041h16.326a2.041,2.041,0,0,1,2.041,2.041v16.327A2.04,2.04,0,0,1-5395.1-448Zm26.531-26.531a2.04,2.04,0,0,1-2.041-2.04V-492.9a2.041,2.041,0,0,1,2.041-2.041h16.326a2.041,2.041,0,0,1,2.041,2.041v16.328a2.04,2.04,0,0,1-2.041,2.04Zm-26.531,0a2.04,2.04,0,0,1-2.041-2.04V-492.9a2.041,2.041,0,0,1,2.041-2.041h16.326a2.041,2.041,0,0,1,2.041,2.041v16.328a2.04,2.04,0,0,1-2.041,2.04Zm-26.531,0a2.04,2.04,0,0,1-2.041-2.04V-492.9a2.041,2.041,0,0,1,2.041-2.041h16.326a2.041,2.041,0,0,1,2.041,2.041v16.328a2.04,2.04,0,0,1-2.041,2.04Zm53.062-26.531a2.04,2.04,0,0,1-2.041-2.04v-16.327a2.041,2.041,0,0,1,2.041-2.041h16.326a2.041,2.041,0,0,1,2.041,2.041V-503.1a2.04,2.04,0,0,1-2.041,2.04Zm-26.531,0a2.04,2.04,0,0,1-2.041-2.04v-16.327a2.041,2.041,0,0,1,2.041-2.041h16.326a2.041,2.041,0,0,1,2.041,2.041V-503.1a2.04,2.04,0,0,1-2.041,2.04Zm-26.531,0A2.04,2.04,0,0,1-5440-503.1v-16.327a2.041,2.041,0,0,1,2.041-2.041h16.326a2.041,2.041,0,0,1,2.041,2.041V-503.1a2.04,2.04,0,0,1-2.041,2.04Zm53.062-26.531a2.04,2.04,0,0,1-2.041-2.039v-16.328A2.041,2.041,0,0,1-5384.9-548h16.326a2.041,2.041,0,0,1,2.041,2.041v16.328a2.04,2.04,0,0,1-2.041,2.039Zm-26.531,0a2.04,2.04,0,0,1-2.041-2.039v-16.328a2.041,2.041,0,0,1,2.041-2.041h16.326a2.041,2.041,0,0,1,2.041,2.041v16.328a2.04,2.04,0,0,1-2.041,2.039Zm-26.531,0a2.04,2.04,0,0,1-2.041-2.039v-16.328a2.041,2.041,0,0,1,2.041-2.041h16.326a2.041,2.041,0,0,1,2.041,2.041v16.328a2.04,2.04,0,0,1-2.041,2.039Z" transform="translate(5453 548)"/></g></svg>