<svg xmlns="http://www.w3.org/2000/svg" xmlns:xlink="http://www.w3.org/1999/xlink" width="100" height="100" viewBox="0 0 100 100"><defs><clipPath id="b"><rect width="100" height="100"/></clipPath></defs><g id="a" clip-path="url(#b)"><path d="M55-1644a9.9,9.9,0,0,1-7.05-2.9l-45-45A9.977,9.977,0,0,1,0-1699v-35a9.928,9.928,0,0,1,2.937-7.062A9.928,9.928,0,0,1,10-1744H45a9.892,9.892,0,0,1,7.05,2.9l45,45A10.111,10.111,0,0,1,100-1689a9.746,9.746,0,0,1-2.95,7.051l-35,35A9.747,9.747,0,0,1,55-1644Zm-3.92-38.547h0l-5.476,5.477a10.019,10.019,0,0,0,7.214,3.113c.343,0,.692-.017,1.039-.049,3.126-.292,6.322-1.87,9.5-4.691l2.451,2.451,2.7-2.7-2.471-2.47c2.745-3.252,4.22-6.46,4.385-9.535a10.582,10.582,0,0,0-3.389-8.272,9.914,9.914,0,0,0-7.133-3.193,15.136,15.136,0,0,0-7.993,2.771L49.452-1698l-7.142-7.142a6.021,6.021,0,0,1,3.692-1.3h.06a4.87,4.87,0,0,1,3.409,1.34l5.323-5.323a10.289,10.289,0,0,0-7.348-3.04c-.2,0-.4.005-.6.015a15.23,15.23,0,0,0-8.961,3.887l-2.642-2.642-2.7,2.7,2.624,2.623c-2.63,3.087-4.047,6.186-4.213,9.211a10.309,10.309,0,0,0,3.275,8.08,9.965,9.965,0,0,0,6.759,3.14c.136.006.276.008.414.008a14.6,14.6,0,0,0,7.628-2.517l2.509-1.551,7.467,7.467a7.346,7.346,0,0,1-4.174,1.762c-.125.008-.251.012-.373.012a4.978,4.978,0,0,1-3.38-1.276ZM17.5-1734a7.509,7.509,0,0,0-7.5,7.5,7.508,7.508,0,0,0,7.5,7.5,7.509,7.509,0,0,0,7.5-7.5A7.509,7.509,0,0,0,17.5-1734Zm44.226,48.275h0l-7.008-7.008a9.1,9.1,0,0,1,4.271-1.742c.1-.006.195-.009.276-.009a4.089,4.089,0,0,1,2.959,1.292,4.388,4.388,0,0,1,1.4,3.5,6.778,6.778,0,0,1-1.895,3.963Zm-19.589-8.657h0a3.928,3.928,0,0,1-2.852-1.223,4.17,4.17,0,0,1-1.264-3.275,5.793,5.793,0,0,1,1.57-3.58l6.606,6.606A7.754,7.754,0,0,1,42.137-1694.382Z" transform="translate(0 1744)"/></g></svg>