<svg xmlns="http://www.w3.org/2000/svg" xmlns:xlink="http://www.w3.org/1999/xlink" width="100" height="100" viewBox="0 0 100 100"><defs><clipPath id="b"><rect width="100" height="100"/></clipPath></defs><g id="a" clip-path="url(#b)"><path d="M-2207-108.891a3,3,0,0,1-3-3v-54a3,3,0,0,1,3-3h94a3,3,0,0,1,3,3v54a3,3,0,0,1-3,3Zm2-54v48a1,1,0,0,0,1,1h88a1,1,0,0,0,1-1v-48a1,1,0,0,0-1-1h-88A1,1,0,0,0-2205-162.891Zm40.891-19A4.108,4.108,0,0,1-2160-186a4.108,4.108,0,0,1,4.108,4.109,4.107,4.107,0,0,1-4.108,4.108A4.108,4.108,0,0,1-2164.109-181.892Z" transform="translate(2210 197)"/><path d="M-2209-118.587a1,1,0,0,1-1-1v-48a1,1,0,0,1,1-1h88a1,1,0,0,1,1,1v48a1,1,0,0,1-1,1Zm77.455-51.452-28.1-13.1a1.5,1.5,0,0,1-.726-1.993,1.5,1.5,0,0,1,1.994-.725l28.1,13.1a1.5,1.5,0,0,1,.724,1.993,1.5,1.5,0,0,1-1.36.867A1.5,1.5,0,0,1-2131.545-170.039Zm-68.821-.726a1.5,1.5,0,0,1,.725-1.993l28.1-13.1a1.5,1.5,0,0,1,1.993.725,1.5,1.5,0,0,1-.725,1.993l-28.1,13.1a1.5,1.5,0,0,1-.634.14A1.5,1.5,0,0,1-2200.366-170.765Z" transform="translate(2214.999 201.696)" opacity="0.33"/></g></svg>