<svg xmlns="http://www.w3.org/2000/svg" xmlns:xlink="http://www.w3.org/1999/xlink" width="100" height="100" viewBox="0 0 100 100"><defs><clipPath id="b"><rect width="100" height="100"/></clipPath></defs><g id="a" clip-path="url(#b)"><path d="M-2840.143-272.858A19.871,19.871,0,0,1-2846-287a19.867,19.867,0,0,1,5.857-14.142A19.87,19.87,0,0,1-2826-307a19.87,19.87,0,0,1,14.142,5.858A19.868,19.868,0,0,1-2806-287a19.872,19.872,0,0,1-5.858,14.143A19.866,19.866,0,0,1-2826-267,19.866,19.866,0,0,1-2840.143-272.858ZM-2836-287a10.012,10.012,0,0,0,10,10,10.012,10.012,0,0,0,10-10,10.012,10.012,0,0,0-10-10A10.011,10.011,0,0,0-2836-287Zm-48.143-45.858A19.869,19.869,0,0,1-2890-347a19.869,19.869,0,0,1,5.857-14.142A19.872,19.872,0,0,1-2870-367a19.869,19.869,0,0,1,14.142,5.858A19.87,19.87,0,0,1-2850-347a19.87,19.87,0,0,1-5.858,14.143A19.865,19.865,0,0,1-2870-327,19.869,19.869,0,0,1-2884.143-332.858ZM-2880-347a10.012,10.012,0,0,0,10,10,10.012,10.012,0,0,0,10-10,10.012,10.012,0,0,0-10-10A10.011,10.011,0,0,0-2880-347Z" transform="translate(2898 367)" opacity="0.5"/><path d="M7,0h99a7,7,0,0,1,0,14H7A7,7,0,0,1,7,0Z" transform="translate(15.66 95.43) rotate(-60)"/></g></svg>