<svg xmlns="http://www.w3.org/2000/svg" xmlns:xlink="http://www.w3.org/1999/xlink" width="100" height="100" viewBox="0 0 100 100"><defs><clipPath id="b"><rect width="100" height="100"/></clipPath></defs><g id="a" clip-path="url(#b)"><path d="M-2884-636a6.007,6.007,0,0,1-6-6v-88a6.007,6.007,0,0,1,6-6h38a6.007,6.007,0,0,1,6,6v88a6.007,6.007,0,0,1-6,6Zm-4-94v88a4,4,0,0,0,4,4h38a4,4,0,0,0,4-4v-88a4,4,0,0,0-4-4h-6v1a2,2,0,0,1-2,2h-22a2,2,0,0,1-2-2v-1h-6A4.005,4.005,0,0,0-2888-730Z" transform="translate(2915 736)"/><path d="M-2890-713v-6a.5.5,0,0,1,.5-.5.5.5,0,0,1,.5.5v6a.5.5,0,0,1-.5.5A.5.5,0,0,1-2890-713Zm50.5-1.5v-11a.5.5,0,0,1,.5-.5.5.5,0,0,1,.5.5v11a.5.5,0,0,1-.5.5A.5.5,0,0,1-2839.5-714.5Zm-50.5-8v-6a.5.5,0,0,1,.5-.5.5.5,0,0,1,.5.5v6a.5.5,0,0,1-.5.5A.5.5,0,0,1-2890-722.5Zm0-11v-2a.5.5,0,0,1,.5-.5.5.5,0,0,1,.5.5v2a.5.5,0,0,1-.5.5A.5.5,0,0,1-2890-733.5Z" transform="translate(2914.25 751)" opacity="0.33"/></g></svg>