<svg xmlns="http://www.w3.org/2000/svg" xmlns:xlink="http://www.w3.org/1999/xlink" width="100" height="100" viewBox="0 0 100 100"><defs><clipPath id="b"><rect width="100" height="100"/></clipPath></defs><g id="a" clip-path="url(#b)"><path d="M-6118.551-806a1.451,1.451,0,0,1-1.45-1.449v-78.263a1.451,1.451,0,0,1,1.45-1.449h66.67a1.45,1.45,0,0,1,1.448,1.449v78.263a1.45,1.45,0,0,1-1.448,1.449Zm4.35-73.915v55.074a1.45,1.45,0,0,0,1.448,1.449h55.075a1.45,1.45,0,0,0,1.448-1.449v-55.074a1.45,1.45,0,0,0-1.448-1.449h-55.075A1.45,1.45,0,0,0-6114.2-879.915Zm68.116,55.076V-842.23h7.248a1.453,1.453,0,0,0,1.451-1.449v-55.074a1.453,1.453,0,0,0-1.451-1.449h-55.072a1.453,1.453,0,0,0-1.451,1.449v7.246h-5.8V-904.55A1.449,1.449,0,0,1-6099.71-906h66.67a1.453,1.453,0,0,1,1.451,1.449v78.263a1.453,1.453,0,0,1-1.451,1.449Z" transform="translate(6126.001 905.999)"/><path d="M1.449,0H56.523a1.449,1.449,0,0,1,1.449,1.449V56.523a1.449,1.449,0,0,1-1.449,1.449H1.449A1.449,1.449,0,0,1,0,56.523V1.449A1.449,1.449,0,0,1,1.449,0Z" transform="translate(11.798 24.636)" opacity="0.33"/></g></svg>