<svg xmlns="http://www.w3.org/2000/svg" xmlns:xlink="http://www.w3.org/1999/xlink" width="100" height="100" viewBox="0 0 100 100"><defs><clipPath id="b"><rect width="100" height="100"/></clipPath></defs><g id="a" clip-path="url(#b)"><path d="M-4895.519-454c-3.482,0-11.707-10.534-20-25.617-7-12.727-14.477-29.893-14.477-39.9A34.519,34.519,0,0,1-4895.519-554a34.522,34.522,0,0,1,34.484,34.481c0,10.011-7.48,27.176-14.479,39.9C-4883.81-464.534-4892.036-454-4895.519-454Zm0-79.312a13.808,13.808,0,0,0-13.791,13.793,13.808,13.808,0,0,0,13.791,13.793,13.809,13.809,0,0,0,13.793-13.793A13.809,13.809,0,0,0-4895.519-533.312Z" transform="translate(4945.999 554)"/></g></svg>