<svg xmlns="http://www.w3.org/2000/svg" xmlns:xlink="http://www.w3.org/1999/xlink" width="100" height="100" viewBox="0 0 100 100"><defs><clipPath id="b"><rect width="100" height="100"/></clipPath></defs><g id="a" clip-path="url(#b)"><path d="M-5753.739-451.38a42.854,42.854,0,0,1-13.667-9.217,42.867,42.867,0,0,1-9.215-13.672A42.764,42.764,0,0,1-5780-491.011a42.763,42.763,0,0,1,3.378-16.741,42.867,42.867,0,0,1,9.215-13.672,42.85,42.85,0,0,1,13.667-9.218,42.94,42.94,0,0,1,6.062-2.045v13.525a30.3,30.3,0,0,0-19.425,28.152A30.138,30.138,0,0,0-5737-460.9a30.138,30.138,0,0,0,30.1-30.107,30.3,30.3,0,0,0-19.425-28.152v-13.525a42.914,42.914,0,0,1,6.063,2.045,42.926,42.926,0,0,1,13.667,9.218,42.908,42.908,0,0,1,9.216,13.672,42.759,42.759,0,0,1,3.38,16.741,42.761,42.761,0,0,1-3.38,16.743,42.908,42.908,0,0,1-9.216,13.672,42.9,42.9,0,0,1-13.667,9.217A42.739,42.739,0,0,1-5737-448,42.737,42.737,0,0,1-5753.739-451.38Zm10.727-46.62v-44a6,6,0,0,1,6-6,6,6,0,0,1,6,6v44a6,6,0,0,1-6,6A6,6,0,0,1-5743.012-498Z" transform="translate(5786.999 548)"/></g></svg>