<svg xmlns="http://www.w3.org/2000/svg" xmlns:xlink="http://www.w3.org/1999/xlink" width="100" height="100" viewBox="0 0 100 100"><defs><clipPath id="b"><rect width="100" height="100"/></clipPath></defs><g id="a" clip-path="url(#b)"><path d="M-6026.667-1006.033h-39.168v-30H-6020v23.333A6.673,6.673,0,0,1-6026.667-1006.033Zm-45.834,0h-40.831A6.675,6.675,0,0,1-6120-1012.7v-23.333h47.5v30Zm52.5-36.664h-45.834v-26.256a10.509,10.509,0,0,0,1.852.155c3.445,0,7.985-1.458,12.146-3.9h25.17a6.675,6.675,0,0,1,6.666,6.668v23.331Zm-52.5,0H-6120v-23.333a6.676,6.676,0,0,1,6.669-6.668h27.129c4.161,2.443,8.7,3.9,12.144,3.9a10.844,10.844,0,0,0,1.559-.107v26.206Z" transform="translate(6120.001 1102.201)"/><path d="M-6110.452-1061.955a16.512,16.512,0,0,1-4.877-9.708,10.572,10.572,0,0,1,2.813-8.854c4.55-4.548,12.876-3.623,18.562,2.064a30.346,30.346,0,0,1,6.063,9.4,30.346,30.346,0,0,1,6.063-9.4c5.685-5.687,14.013-6.612,18.561-2.064a10.564,10.564,0,0,1,2.811,8.854,16.486,16.486,0,0,1-4.875,9.708c-5.649,5.649-17.906,10.648-22.56,6.308a7.2,7.2,0,0,1-5.039,1.645C-6098.579-1054-6106.3-1057.8-6110.452-1061.955Zm1.6-14.9c-3.008,3.008-1.352,9.159,2.139,12.648a23.44,23.44,0,0,0,7.91,4.833c2,.732,5.6,1.7,7.366-.066s.8-5.37.066-7.365a23.5,23.5,0,0,0-4.832-7.912,13,13,0,0,0-6.6-3.516,9.792,9.792,0,0,0-1.823-.179A5.819,5.819,0,0,0-6108.85-1076.851Zm35.863-1.378a12.981,12.981,0,0,0-6.6,3.518,23.476,23.476,0,0,0-4.833,7.91c-.731,1.995-1.7,5.6.065,7.365s5.371.8,7.367.066a23.464,23.464,0,0,0,7.911-4.833c3.489-3.49,5.145-9.64,2.137-12.648a5.815,5.815,0,0,0-4.229-1.558A9.782,9.782,0,0,0-6072.986-1078.229Z" transform="translate(6138.873 1087.405)" opacity="0.55"/></g></svg>