<svg xmlns="http://www.w3.org/2000/svg" xmlns:xlink="http://www.w3.org/1999/xlink" width="100" height="100" viewBox="0 0 100 100"><defs><clipPath id="b"><rect width="100" height="100"/></clipPath></defs><g id="a" clip-path="url(#b)"><path d="M-5926.19-452.765a9.533,9.533,0,0,1-9.524-9.521v-11.906h-4.761a9.525,9.525,0,0,1-9.525-9.525V-524.19a9.525,9.525,0,0,1,9.525-9.525h4.761v-4.76A9.536,9.536,0,0,1-5926.19-548h52.38a9.536,9.536,0,0,1,9.524,9.525v4.76h4.761A9.525,9.525,0,0,1-5850-524.19v40.473a9.525,9.525,0,0,1-9.524,9.525h-4.761v11.906a9.533,9.533,0,0,1-9.524,9.521Zm-2.382-11.11a4.768,4.768,0,0,0,4.764,4.76h47.615a4.768,4.768,0,0,0,4.765-4.76V-498a2.383,2.383,0,0,0-2.382-2.382h-52.38a2.384,2.384,0,0,0-2.382,2.382v34.124Zm0-62.694v2.378a2.386,2.386,0,0,0,2.382,2.382h52.38a2.385,2.385,0,0,0,2.382-2.382v-12.7a4.768,4.768,0,0,0-4.765-4.76h-47.615a4.768,4.768,0,0,0-4.764,4.76Z" transform="translate(5950.001 550)"/></g></svg>