<svg xmlns="http://www.w3.org/2000/svg" xmlns:xlink="http://www.w3.org/1999/xlink" width="100" height="100" viewBox="0 0 100 100"><defs><clipPath id="b"><rect width="100" height="100"/></clipPath></defs><g id="a" clip-path="url(#b)"><path d="M-5239.462-89.93a49.843,49.843,0,0,1-15.893-10.714,49.84,49.84,0,0,1-10.716-15.894A49.673,49.673,0,0,1-5270-136a49.673,49.673,0,0,1,3.929-19.462,49.84,49.84,0,0,1,10.716-15.894,49.809,49.809,0,0,1,15.893-10.716A49.7,49.7,0,0,1-5220-186a49.7,49.7,0,0,1,19.462,3.929,49.823,49.823,0,0,1,15.892,10.716,49.832,49.832,0,0,1,10.716,15.894A49.691,49.691,0,0,1-5170-136a49.691,49.691,0,0,1-3.929,19.462,49.832,49.832,0,0,1-10.716,15.894,49.841,49.841,0,0,1-15.892,10.714A49.676,49.676,0,0,1-5220-86,49.673,49.673,0,0,1-5239.462-89.93ZM-5264-136a44.05,44.05,0,0,0,44,44,44.05,44.05,0,0,0,44-44,44.051,44.051,0,0,0-44-44A44.051,44.051,0,0,0-5264-136Zm36.411,18.675a6.936,6.936,0,0,1,6.926-6.929,6.937,6.937,0,0,1,6.929,6.928,6.937,6.937,0,0,1-6.929,6.929A6.935,6.935,0,0,1-5227.588-117.325Zm3.3-9.874a2.4,2.4,0,0,1-2.4-2.4v-.979c0-6.183,4.688-8.655,8.23-10.642,3.038-1.7,4.9-2.861,4.9-5.116,0-2.984-3.805-4.964-6.881-4.964-3.914,0-5.772,1.807-8.277,4.945a2.4,2.4,0,0,1-3.325.415l-4.314-3.272a2.4,2.4,0,0,1-.519-3.288c4.059-5.833,9.23-9.1,17.212-9.1,8.488,0,17.549,6.626,17.549,15.362,0,11.6-12.528,11.778-12.528,16.064v.577a2.4,2.4,0,0,1-2.4,2.4Z" transform="translate(5270 186)"/></g></svg>