<svg xmlns="http://www.w3.org/2000/svg" xmlns:xlink="http://www.w3.org/1999/xlink" width="100" height="100" viewBox="0 0 100 100"><defs><clipPath id="b"><rect width="100" height="100"/></clipPath></defs><g id="a" clip-path="url(#b)"><path d="M60.055,0C44.465,0,34.368,6.387,26.44,17.779A4.692,4.692,0,0,0,27.452,24.2l8.425,6.388a4.687,4.687,0,0,0,6.495-.81c4.892-6.129,8.521-9.658,16.163-9.658,6.009,0,13.441,3.867,13.441,9.694,0,4.4-3.636,6.667-9.569,9.993-6.919,3.879-16.074,8.706-16.074,20.782V62.5a4.687,4.687,0,0,0,4.688,4.687H65.175A4.687,4.687,0,0,0,69.862,62.5V61.372C69.862,53,94.329,52.653,94.329,30,94.329,12.941,76.633,0,60.055,0Z" transform="translate(-9.669)"/><path d="M-321.029-281.529a13.545,13.545,0,0,1,13.53-13.53,13.545,13.545,0,0,1,13.53,13.529A13.545,13.545,0,0,1-307.5-268,13.545,13.545,0,0,1-321.029-281.529Z" transform="translate(355.928 368)" opacity="0.5"/></g></svg>