<svg xmlns="http://www.w3.org/2000/svg" xmlns:xlink="http://www.w3.org/1999/xlink" width="100" height="100" viewBox="0 0 100 100"><defs><clipPath id="b"><rect width="100" height="100"/></clipPath></defs><g id="a" clip-path="url(#b)"><path d="M-2879.132-107.739a4.353,4.353,0,0,1-4.347-4.347v-4.347a4.353,4.353,0,0,1,4.347-4.349h5.436a11.969,11.969,0,0,0,11.956-11.956v-7.474a4.488,4.488,0,0,0-4.352-4.482h-17.387a6.52,6.52,0,0,1-6.521-6.521v-28.26a6.522,6.522,0,0,1,6.521-6.523h28.262a6.522,6.522,0,0,1,6.521,6.523v28.26a6.542,6.542,0,0,1-.042.743q.042.711.042,1.429v17.391a23.746,23.746,0,0,1-7,16.91,23.753,23.753,0,0,1-16.908,7h-2.045c-.043,0-.086,0-.129,0Z" transform="translate(2948.695 197)" opacity="0.5"/><path d="M-2879.132-107.739a4.353,4.353,0,0,1-4.347-4.347v-4.347a4.353,4.353,0,0,1,4.347-4.349h5.436a11.969,11.969,0,0,0,11.956-11.956v-7.474a4.488,4.488,0,0,0-4.352-4.482h-17.387a6.52,6.52,0,0,1-6.521-6.521v-28.26a6.522,6.522,0,0,1,6.521-6.523h28.262a6.522,6.522,0,0,1,6.521,6.523v28.26a6.542,6.542,0,0,1-.042.743q.042.711.042,1.429v17.391a23.746,23.746,0,0,1-7,16.91,23.753,23.753,0,0,1-16.908,7h-2.045c-.043,0-.086,0-.129,0Z" transform="translate(2890 197)"/></g></svg>