<svg xmlns="http://www.w3.org/2000/svg" xmlns:xlink="http://www.w3.org/1999/xlink" width="100" height="100" viewBox="0 0 100 100"><defs><clipPath id="b"><rect width="100" height="100"/></clipPath></defs><g id="a" clip-path="url(#b)"><path d="M-3193.171-93.992a47.651,47.651,0,0,1-13.257-8.4l.03-.029a5.975,5.975,0,0,1-1.647-4.126,5.988,5.988,0,0,1,5.989-5.988,5.972,5.972,0,0,1,4.308,1.828,35.892,35.892,0,0,0,23.241,8.55,35.973,35.973,0,0,0,35.932-35.932,35.973,35.973,0,0,0-35.932-35.932,36.041,36.041,0,0,0-33.225,22.247l3.5,1.07a3.2,3.2,0,0,1,1.215,5.417l-13.851,12.6a3.193,3.193,0,0,1-5.251-1.607l-4.436-18.193a3.194,3.194,0,0,1,4.038-3.81l3.273,1q.282-.732.589-1.458a47.718,47.718,0,0,1,10.262-15.221,47.765,47.765,0,0,1,15.223-10.262,47.59,47.59,0,0,1,18.64-3.764,47.589,47.589,0,0,1,18.638,3.764,47.751,47.751,0,0,1,15.221,10.262,47.718,47.718,0,0,1,10.262,15.221,47.57,47.57,0,0,1,3.763,18.639,47.577,47.577,0,0,1-3.763,18.64,47.75,47.75,0,0,1-10.262,15.221,47.722,47.722,0,0,1-15.221,10.262,47.572,47.572,0,0,1-18.638,3.763A47.573,47.573,0,0,1-3193.171-93.992Z" transform="translate(3226.649 188)"/></g></svg>