<svg xmlns="http://www.w3.org/2000/svg" xmlns:xlink="http://www.w3.org/1999/xlink" width="100" height="100" viewBox="0 0 100 100"><defs><clipPath id="b"><rect width="100" height="100"/></clipPath></defs><g id="a" clip-path="url(#b)"><path d="M53.277,85.917H39.808V21.523a6.007,6.007,0,0,0-6-6H0V10A10.011,10.011,0,0,1,10,0H47.278a10.011,10.011,0,0,1,10,10V81.917A4,4,0,0,1,53.277,85.917Z" transform="translate(32.902)" opacity="0.5"/><path d="M-276.817-104.035a4,4,0,0,1-2-.537L-303.37-118.75l-24.557,14.178a4,4,0,0,1-2,.536,4,4,0,0,1-2.2-.66,4,4,0,0,1-1.745-3.3v-74a4.005,4.005,0,0,1,4-4h53a4,4,0,0,1,4,4v74a4,4,0,0,1-1.742,3.3A4,4,0,0,1-276.817-104.035Z" transform="translate(342.87 204)"/></g></svg>