<svg xmlns="http://www.w3.org/2000/svg" xmlns:xlink="http://www.w3.org/1999/xlink" width="100" height="100" viewBox="0 0 100 100"><defs><clipPath id="b"><rect width="100" height="100"/></clipPath></defs><g id="a" clip-path="url(#b)"><path d="M-1301.6,58.631l-26.912-26.912,12.42-12.421,26.913,26.912a8.785,8.785,0,0,1,0,12.421,8.757,8.757,0,0,1-6.211,2.572A8.755,8.755,0,0,1-1301.6,58.631Zm-39.767-52h-15.792a1.2,1.2,0,0,1-1.2-1.2V3.147a1.2,1.2,0,0,1,1.2-1.2h26.9a1.2,1.2,0,0,1,1.2,1.2V5.432a1.2,1.2,0,0,1-1.2,1.2Z" transform="translate(1386.329 37.329)" opacity="0.5"/><path d="M41.6,83.2A41.613,41.613,0,0,1,25.409,3.269,41.612,41.612,0,0,1,57.8,79.934,41.34,41.34,0,0,1,41.6,83.2Zm0-67.983A26.381,26.381,0,1,0,67.983,41.6,26.411,26.411,0,0,0,41.6,15.22Z" transform="translate(-16.475 41.996) rotate(-45)"/></g></svg>