<svg xmlns="http://www.w3.org/2000/svg" xmlns:xlink="http://www.w3.org/1999/xlink" width="100" height="100" viewBox="0 0 100 100"><defs><clipPath id="b"><rect width="100" height="100"/></clipPath></defs><g id="a" clip-path="url(#b)"><path d="M-3396,12a5.006,5.006,0,0,1-5-5V-7a5.006,5.006,0,0,1,5-5h90a5.005,5.005,0,0,1,5,5V7a5.005,5.005,0,0,1-5,5Zm-4-19V7a4,4,0,0,0,4,4h90a4,4,0,0,0,4-4V-7a4,4,0,0,0-4-4h-90A4,4,0,0,0-3400-7Zm26.292,12v-8.54h-.044l-2.7,1.86V-3.672l2.732-1.9h2.2V5Z" transform="translate(3401 50)"/><path d="M-3399,4a2,2,0,0,1-2-2V-10a2,2,0,0,1,2-2h42a2,2,0,0,1,2,2V2a2,2,0,0,1-2,2Zm63.225-3V-.487l3.984-3.838c1.069-1.069,1.4-1.6,1.4-2.336a1.527,1.527,0,0,0-1.677-1.421,1.687,1.687,0,0,0-1.78,1.692v.037h-2.051V-6.39c0-2,1.6-3.413,3.9-3.413,2.227,0,3.758,1.289,3.758,3.054,0,1.319-.879,2.308-2.044,3.464L-3332.86-.8v.044h4.768V1Z" transform="translate(3405 54)" opacity="0.33"/></g></svg>