<svg xmlns="http://www.w3.org/2000/svg" xmlns:xlink="http://www.w3.org/1999/xlink" width="100" height="100" viewBox="0 0 100 100"><defs><clipPath id="b"><rect width="100" height="100"/></clipPath></defs><g id="a" clip-path="url(#b)"><path d="M-1298-1304a2,2,0,0,1-2-2v-96a2,2,0,0,1,2-2h15a4,4,0,0,1,4,4v92a4,4,0,0,1-4,4Zm5-10a3,3,0,0,0,3,3,3,3,0,0,0,3-3,3,3,0,0,0-3-3A3,3,0,0,0-1293-1314Zm0-11a3,3,0,0,0,3,3,3,3,0,0,0,3-3,3,3,0,0,0-3-3A3,3,0,0,0-1293-1325Zm-35,21a2,2,0,0,1-2-2v-96a2,2,0,0,1,2-2h17a2,2,0,0,1,2,2v96a2,2,0,0,1-2,2Zm5-10a3,3,0,0,0,3,3,3,3,0,0,0,3-3,3,3,0,0,0-3-3A3,3,0,0,0-1323-1314Zm0-11a3,3,0,0,0,3,3,3,3,0,0,0,3-3,3,3,0,0,0-3-3A3,3,0,0,0-1323-1325Zm-33,21a4,4,0,0,1-4-4v-92a4,4,0,0,1,4-4h15a2,2,0,0,1,2,2v96a2,2,0,0,1-2,2Zm3-10a3,3,0,0,0,3,3,3,3,0,0,0,3-3,3,3,0,0,0-3-3A3,3,0,0,0-1353-1314Zm0-11a3,3,0,0,0,3,3,3,3,0,0,0,3-3,3,3,0,0,0-3-3A3,3,0,0,0-1353-1325Z" transform="translate(1370 1404)"/></g></svg>