<svg xmlns="http://www.w3.org/2000/svg" xmlns:xlink="http://www.w3.org/1999/xlink" width="100" height="100" viewBox="0 0 100 100"><defs><clipPath id="b"><rect width="100" height="100"/></clipPath></defs><g id="a" clip-path="url(#b)"><path d="M-5893-1170h-2a3,3,0,0,1-3-3v-17h8v17A3,3,0,0,1-5893-1170Zm-24,0h-2a3,3,0,0,1-3-3v-67h8v67A3,3,0,0,1-5917-1170Zm-24,0h-2a3,3,0,0,1-3-3v-37h8v37A3,3,0,0,1-5941-1170Zm43-34v-63a3,3,0,0,1,3-3h2a3,3,0,0,1,3,3v63h-8Zm-48-20v-43a3,3,0,0,1,3-3h2a3,3,0,0,1,3,3v43h-8Zm32-30h-8v-13a3,3,0,0,1,3-3h2a3,3,0,0,1,3,3v13Z" transform="translate(5967.999 1270)" opacity="0.5"/><path d="M-5917-1206a3,3,0,0,1-3-3v-10a3,3,0,0,1,3-3h4a3,3,0,0,1,3,3v10a3,3,0,0,1-3,3Zm-30-24a3,3,0,0,1-3-3v-10a3,3,0,0,1,3-3h4a3,3,0,0,1,3,3v10a3,3,0,0,1-3,3Zm50-24a3,3,0,0,1-3-3v-10a3,3,0,0,1,3-3h4a3,3,0,0,1,3,3v10a3,3,0,0,1-3,3Z" transform="translate(-1188.001 5968) rotate(90)"/></g></svg>