<svg xmlns="http://www.w3.org/2000/svg" xmlns:xlink="http://www.w3.org/1999/xlink" width="100" height="100" viewBox="0 0 100 100"><defs><clipPath id="b"><rect width="100" height="100"/></clipPath></defs><g id="a" clip-path="url(#b)"><path d="M52.933-510.98H64.087a11.155,11.155,0,0,1-11.155,11.155ZM-.845-499.826A11.155,11.155,0,0,1-12-510.98H52.933v11.155ZM52.933-510.98v-53.778H38.2a2,2,0,0,1-2-2v-7.154a2,2,0,0,1,2-2H52.933v0a11.155,11.155,0,0,1,11.155,11.155v53.778Zm-64.932,0v-53.778A11.155,11.155,0,0,1-.845-575.913H13.886a2,2,0,0,1,2,2v7.154a2,2,0,0,1-2,2H-.845v53.778Z" transform="translate(24 599.826)" opacity="0.5"/><path d="M32.11-339.588a3.594,3.594,0,0,1,0-5.082l4.183-4.182H3.594A3.594,3.594,0,0,1,0-352.446a3.593,3.593,0,0,1,3.594-3.594H35.987l-3.877-3.877a3.594,3.594,0,0,1,0-5.082,3.594,3.594,0,0,1,5.082,0l10.165,10.165a3.594,3.594,0,0,1,0,5.082L37.193-339.588a3.582,3.582,0,0,1-2.541,1.052A3.584,3.584,0,0,1,32.11-339.588Z" transform="translate(402.052 48.409) rotate(-90)"/></g></svg>