<svg xmlns="http://www.w3.org/2000/svg" xmlns:xlink="http://www.w3.org/1999/xlink" width="100" height="100" viewBox="0 0 100 100"><defs><clipPath id="b"><rect width="100" height="100"/></clipPath></defs><g id="a" clip-path="url(#b)"><path d="M0,0H25A10,10,0,0,1,35,10V90a10,10,0,0,1-10,10H0Z" transform="translate(23)"/><path d="M-2039.457-287.1a1.855,1.855,0,0,1,0-2.623l6.557-6.557-6.557-6.557a1.854,1.854,0,0,1,0-2.623,1.854,1.854,0,0,1,2.623,0l7.87,7.869a1.854,1.854,0,0,1,0,2.623l-7.87,7.87a1.848,1.848,0,0,1-1.311.543A1.849,1.849,0,0,1-2039.457-287.1Zm0-50a1.854,1.854,0,0,1,0-2.623l6.557-6.558-6.557-6.557a1.854,1.854,0,0,1,0-2.623,1.854,1.854,0,0,1,2.623,0l7.87,7.869a1.855,1.855,0,0,1,0,2.624l-7.87,7.869a1.845,1.845,0,0,1-1.311.544A1.847,1.847,0,0,1-2039.457-337.1Z" transform="translate(2106 371)" opacity="0.5"/></g></svg>