<svg xmlns="http://www.w3.org/2000/svg" xmlns:xlink="http://www.w3.org/1999/xlink" width="100" height="100" viewBox="0 0 100 100"><defs><clipPath id="b"><rect width="100" height="100"/></clipPath></defs><g id="a" clip-path="url(#b)"><path d="M-6413-451v-9.757l-6.9,6.9a3,3,0,0,1-4.243,0,3,3,0,0,1,0-4.243L-6413-469.242v-21.516l-15.214,15.214v15.759a3,3,0,0,1-3,3,3,3,0,0,1-3-3v-9.758l-6.9,6.9a3,3,0,0,1-4.243,0,3,3,0,0,1,0-4.243l6.9-6.9h-9.757a3,3,0,0,1-3-3,3,3,0,0,1,3-3l15.757,0L-6417.243-495h-21.514l-11.143,11.143a3,3,0,0,1-4.243,0,3,3,0,0,1,0-4.243l6.9-6.9H-6457a3,3,0,0,1-3-3,3,3,0,0,1,3-3h9.757l-6.9-6.9a3,3,0,0,1,0-4.241,3,3,0,0,1,4.243,0L-6438.757-501h21.516l-15.214-15.214h-15.758a3,3,0,0,1-3-3,3,3,0,0,1,3-3h9.758l-6.9-6.9a3,3,0,0,1,0-4.244,3,3,0,0,1,4.243,0v0l6.9,6.9v-9.758a3,3,0,0,1,3-3,3,3,0,0,1,3,3v15.758L-6413-505.241v-21.516l-11.143-11.143a3,3,0,0,1,0-4.243,3,3,0,0,1,4.241,0l6.9,6.9V-545a3,3,0,0,1,3-3h0a2.989,2.989,0,0,1,2.114.872l.006.006.006.006A2.989,2.989,0,0,1-6407-545v9.758l6.9-6.9a3,3,0,0,1,4.243,0,3,3,0,0,1,0,4.243L-6407-526.758v21.516l15.216-15.215v-15.755a3,3,0,0,1,3-3,3,3,0,0,1,3,3v9.757l6.9-6.9a3,3,0,0,1,.573-.449,3,3,0,0,1,3.671.447,3,3,0,0,1,0,4.243l-6.9,6.9,9.757,0a3,3,0,0,1,3,3,3,3,0,0,1-3,3l-15.757,0L-6402.757-501h21.517l11.141-11.143a3,3,0,0,1,4.245,0,3,3,0,0,1,0,4.243l-6.9,6.9H-6363a3,3,0,0,1,3,3,3,3,0,0,1-3,3h-9.753l6.9,6.9a3,3,0,0,1,0,4.241,3,3,0,0,1-4.245,0L-6381.24-495h-21.516l15.214,15.214h15.757a3,3,0,0,1,3,3,3,3,0,0,1-3,3h-9.758l6.9,6.9.016.016.01.01.021.023,0,.005.025.026v0a3,3,0,0,1-.079,4.159,3,3,0,0,1-3.549.517,3,3,0,0,1-.695-.519l-6.9-6.9v9.757a3,3,0,0,1-3,3,3,3,0,0,1-3-3v-15.755L-6407-490.758v21.516l11.143,11.143a3,3,0,0,1,0,4.243,3,3,0,0,1-4.243,0l-6.9-6.9V-451a3,3,0,0,1-3,3A3,3,0,0,1-6413-451Z" transform="translate(6459.999 548)"/></g></svg>