<svg xmlns="http://www.w3.org/2000/svg" xmlns:xlink="http://www.w3.org/1999/xlink" width="100" height="100" viewBox="0 0 100 100"><defs><clipPath id="b"><rect width="100" height="100"/></clipPath></defs><g id="a" clip-path="url(#b)"><path d="M-2679-95a9,9,0,0,1,9-9,9,9,0,0,1,9,9,9,9,0,0,1-9,9A9,9,0,0,1-2679-95Zm31.628-5.644a9,9,0,0,1,0-12.729,9,9,0,0,1,12.728,0,9,9,0,0,1,0,12.729,8.972,8.972,0,0,1-6.364,2.636A8.972,8.972,0,0,1-2647.373-100.644Zm-57.982,0a9,9,0,0,1,0-12.729,9,9,0,0,1,12.728,0,9,9,0,0,1,0,12.729,8.974,8.974,0,0,1-6.364,2.636A8.971,8.971,0,0,1-2705.355-100.644ZM-2638-136a9,9,0,0,1,9-9,9,9,0,0,1,9,9,9,9,0,0,1-9,9A9,9,0,0,1-2638-136Zm-82,0a9,9,0,0,1,9-9,9,9,0,0,1,9,9,9,9,0,0,1-9,9A9,9,0,0,1-2720-136Zm72.627-22.628a9,9,0,0,1,0-12.728,9,9,0,0,1,12.728,0,9,9,0,0,1,0,12.728,8.971,8.971,0,0,1-6.364,2.637A8.971,8.971,0,0,1-2647.373-158.628Zm-57.982,0a9,9,0,0,1,0-12.728,9,9,0,0,1,12.728,0,9,9,0,0,1,0,12.728,8.971,8.971,0,0,1-6.364,2.637A8.97,8.97,0,0,1-2705.355-158.628ZM-2679-177a9,9,0,0,1,9-9,9,9,0,0,1,9,9,9,9,0,0,1-9,9A9,9,0,0,1-2679-177Z" transform="translate(2720 186)"/></g></svg>