<svg xmlns="http://www.w3.org/2000/svg" xmlns:xlink="http://www.w3.org/1999/xlink" width="100" height="100" viewBox="0 0 100 100"><defs><clipPath id="b"><rect width="100" height="100"/></clipPath></defs><g id="a" clip-path="url(#b)"><path d="M-5752.483-1054.671l-9.486-6.912a.769.769,0,0,0-.9,0l-9.486,6.912a.768.768,0,0,1-1.182-.859l3.65-11.146a.77.77,0,0,0-.28-.86l-9.509-6.873a.767.767,0,0,1,.451-1.39l11.739.022a.767.767,0,0,0,.732-.531l3.606-11.161a.768.768,0,0,1,1.461,0l3.606,11.161a.767.767,0,0,0,.733.531l11.739-.022a.767.767,0,0,1,.451,1.39l-9.509,6.873a.769.769,0,0,0-.28.86l3.65,11.146a.771.771,0,0,1-.733,1.01A.756.756,0,0,1-5752.483-1054.671Zm28.337-4.8v-10.03h-10.031a1.823,1.823,0,0,1-1.822-1.825,1.823,1.823,0,0,1,1.822-1.823h10.031v-10.03a1.824,1.824,0,0,1,1.823-1.823,1.824,1.824,0,0,1,1.824,1.823v10.03h10.03a1.824,1.824,0,0,1,1.825,1.823,1.824,1.824,0,0,1-1.825,1.825h-10.03v10.03a1.824,1.824,0,0,1-1.824,1.823A1.824,1.824,0,0,1-5724.146-1059.468Z" transform="translate(5792 1121)" opacity="0.5"/><path d="M-3310-267h-80a10.011,10.011,0,0,1-10-10v-48a10.011,10.011,0,0,1,10-10h80a10.011,10.011,0,0,1,10,10v48A10.011,10.011,0,0,1-3310-267Zm-77-60a5.006,5.006,0,0,0-5,5v42a5.006,5.006,0,0,0,5,5h74a5.005,5.005,0,0,0,5-5v-42a5.006,5.006,0,0,0-5-5Z" transform="translate(3400 351)"/></g></svg>