<svg xmlns="http://www.w3.org/2000/svg" xmlns:xlink="http://www.w3.org/1999/xlink" width="100" height="100" viewBox="0 0 100 100"><defs><clipPath id="b"><rect width="100" height="100"/></clipPath></defs><g id="a" clip-path="url(#b)"><path d="M50.984,3.07a1.152,1.152,0,0,1,2.193,0L64.137,37.2a1.152,1.152,0,0,0,1.1.8l35.689-.069a1.152,1.152,0,0,1,.68,2.083L72.68,61.053a1.152,1.152,0,0,0-.418,1.288l11.1,34.1a1.152,1.152,0,0,1-1.776,1.285L52.762,76.595a1.152,1.152,0,0,0-1.362,0L22.58,97.729A1.152,1.152,0,0,1,20.8,96.444l11.1-34.1a1.152,1.152,0,0,0-.418-1.288L2.557,40.013a1.152,1.152,0,0,1,.68-2.083L38.926,38a1.152,1.152,0,0,0,1.1-.8Z" transform="translate(-2.081 -0.271)"/><path d="M-754.638-110.494l-6.494-4.761a.261.261,0,0,0-.307,0l-6.493,4.761a.259.259,0,0,1-.4-.289l2.5-7.683a.26.26,0,0,0-.094-.291l-6.517-4.74a.259.259,0,0,1,.153-.469l8.042.015a.259.259,0,0,0,.247-.18l2.469-7.69a.26.26,0,0,1,.494,0l2.469,7.69a.259.259,0,0,0,.248.18l8.041-.015a.259.259,0,0,1,.153.469l-6.517,4.74a.26.26,0,0,0-.094.291l2.5,7.683a.26.26,0,0,1-.247.341A.254.254,0,0,1-754.638-110.494Zm-77.45,0-6.493-4.761a.261.261,0,0,0-.307,0l-6.493,4.761a.259.259,0,0,1-.4-.289l2.5-7.683a.26.26,0,0,0-.094-.291l-6.516-4.74a.259.259,0,0,1,.153-.469l8.041.015a.257.257,0,0,0,.247-.18l2.47-7.69a.26.26,0,0,1,.494,0l2.469,7.69a.258.258,0,0,0,.247.18l8.041-.015a.259.259,0,0,1,.153.469l-6.516,4.74a.262.262,0,0,0-.094.291l2.5,7.683a.26.26,0,0,1-.248.341A.256.256,0,0,1-832.089-110.494Zm67-52-6.494-4.762a.261.261,0,0,0-.307,0l-6.494,4.762a.259.259,0,0,1-.4-.29l2.5-7.683a.26.26,0,0,0-.094-.291l-6.517-4.739a.26.26,0,0,1,.153-.47l8.042.016a.261.261,0,0,0,.247-.181l2.469-7.689a.259.259,0,0,1,.494,0l2.469,7.689a.261.261,0,0,0,.247.181l8.042-.016a.26.26,0,0,1,.153.47l-6.517,4.739a.26.26,0,0,0-.094.291l2.5,7.683a.26.26,0,0,1-.248.341A.254.254,0,0,1-765.088-162.493Zm-56,0-6.493-4.762a.261.261,0,0,0-.307,0l-6.493,4.762a.259.259,0,0,1-.4-.29l2.5-7.683a.26.26,0,0,0-.094-.291l-6.517-4.739a.26.26,0,0,1,.153-.47l8.041.016a.259.259,0,0,0,.247-.181l2.47-7.689a.259.259,0,0,1,.494,0l2.469,7.689a.261.261,0,0,0,.247.181l8.041-.016a.26.26,0,0,1,.154.47l-6.517,4.739a.261.261,0,0,0-.094.291l2.5,7.683a.26.26,0,0,1-.248.341A.256.256,0,0,1-821.089-162.493Z" transform="translate(850 190.064)" opacity="0.5"/></g></svg>