<svg xmlns="http://www.w3.org/2000/svg" xmlns:xlink="http://www.w3.org/1999/xlink" width="100" height="100" viewBox="0 0 100 100"><defs><clipPath id="b"><rect width="100" height="100"/></clipPath></defs><g id="a" clip-path="url(#b)"><path d="M-4930-678.412v-47.214a4.367,4.367,0,0,1,6.563-3.775l40.6,23.606a4.368,4.368,0,0,1,0,7.552l-40.6,23.607a4.334,4.334,0,0,1-2.188.6A4.373,4.373,0,0,1-4930-678.412Zm54,3.412a3,3,0,0,1-3-3v-49a3,3,0,0,1,3-3h9a3,3,0,0,1,3,3v49a3,3,0,0,1-3,3Z" transform="translate(4947 752)"/></g></svg>