<svg xmlns="http://www.w3.org/2000/svg" xmlns:xlink="http://www.w3.org/1999/xlink" width="100" height="100" viewBox="0 0 100 100"><defs><clipPath id="b"><rect width="100" height="100"/></clipPath></defs><g id="a" clip-path="url(#b)"><path d="M-5040.562-674.636l-40.6-23.606a4.369,4.369,0,0,1,0-7.553l40.6-23.607a4.369,4.369,0,0,1,6.563,3.777v47.213a4.373,4.373,0,0,1-4.375,4.374A4.33,4.33,0,0,1-5040.562-674.636ZM-5097-675a3,3,0,0,1-3-3v-49a3,3,0,0,1,3-3h9a3,3,0,0,1,3,3v49a3,3,0,0,1-3,3Z" transform="translate(5117 752)"/></g></svg>