<svg xmlns="http://www.w3.org/2000/svg" xmlns:xlink="http://www.w3.org/1999/xlink" width="100" height="100" viewBox="0 0 100 100"><defs><clipPath id="b"><rect width="100" height="100"/></clipPath></defs><g id="a" clip-path="url(#b)"><path d="M25,0A25,25,0,1,1,0,25,25,25,0,0,1,25,0Z" transform="translate(25 25)"/><path d="M-3350-636a3.5,3.5,0,0,1-3.5-3.5v-14.639c.987.092,2,.139,3,.139a32.449,32.449,0,0,0,4-.248V-639.5A3.5,3.5,0,0,1-3350-636Zm32.881-13.62a3.477,3.477,0,0,1-2.475-1.025l-10.612-10.612a32.252,32.252,0,0,0,4.9-5l10.667,10.667a3.476,3.476,0,0,1,1.025,2.475,3.476,3.476,0,0,1-1.025,2.475A3.477,3.477,0,0,1-3317.119-649.62Zm-65.761,0a3.477,3.477,0,0,1-2.475-1.025,3.476,3.476,0,0,1-1.025-2.475,3.476,3.476,0,0,1,1.025-2.475l10.112-10.112a32.236,32.236,0,0,0,5,4.9l-10.167,10.166A3.477,3.477,0,0,1-3382.88-649.62Zm79.381-32.88h-15.19a32.459,32.459,0,0,0,.189-3.5,32.484,32.484,0,0,0-.189-3.5h15.19a3.5,3.5,0,0,1,3.5,3.5A3.5,3.5,0,0,1-3303.5-682.5Zm-78.811,0h-14.19a3.5,3.5,0,0,1-3.5-3.5,3.5,3.5,0,0,1,3.5-3.5h14.19a32.464,32.464,0,0,0-.189,3.5,32.491,32.491,0,0,0,.189,3.5Zm57-23.239h0a32.257,32.257,0,0,0-4.894-5l10.612-10.612a3.477,3.477,0,0,1,2.475-1.025,3.478,3.478,0,0,1,2.475,1.025,3.477,3.477,0,0,1,1.025,2.475,3.478,3.478,0,0,1-1.025,2.475l-10.666,10.666Zm-49.932-.555h0l-10.111-10.111a3.505,3.505,0,0,1,0-4.95,3.478,3.478,0,0,1,2.475-1.025,3.477,3.477,0,0,1,2.475,1.025l10.167,10.167a32.253,32.253,0,0,0-5,4.895Zm28.744-11.459h0a32.433,32.433,0,0,0-4-.248c-1,0-2.009.047-3,.139V-732.5a3.5,3.5,0,0,1,3.5-3.5,3.5,3.5,0,0,1,3.5,3.5v14.746Z" transform="translate(3400.5 736)" opacity="0.5"/></g></svg>