<svg xmlns="http://www.w3.org/2000/svg" xmlns:xlink="http://www.w3.org/1999/xlink" width="100" height="100" viewBox="0 0 100 100"><defs><clipPath id="b"><rect width="100" height="100"/></clipPath></defs><g id="a" clip-path="url(#b)"><g transform="translate(-15.51 -13.999)"><path d="M-3355.485-105.709a43.547,43.547,0,0,1-17.054-3.442,43.655,43.655,0,0,1-13.925-9.389c-.292-.293-.569-.577-.822-.844l10.511-5.127a32.85,32.85,0,0,0,21.29,7.849,32.893,32.893,0,0,0,32.856-32.855h-3.634a2.888,2.888,0,0,1-2.538-1.476,2.889,2.889,0,0,1,.028-2.936l8.742-14.723a2.9,2.9,0,0,1,2.511-1.429,2.894,2.894,0,0,1,2.511,1.429l8.744,14.723a2.892,2.892,0,0,1,.025,2.938,2.89,2.89,0,0,1-2.539,1.474h-2.9a43.548,43.548,0,0,1-3.441,17.052,43.678,43.678,0,0,1-9.388,13.924,43.645,43.645,0,0,1-13.926,9.389A43.543,43.543,0,0,1-3355.485-105.709Z" transform="translate(3421.362 213.326)" opacity="0.5"/><path d="M-3388.333-121.626a2.9,2.9,0,0,1-2.512-1.43l-8.742-14.723a2.891,2.891,0,0,1-.026-2.937,2.89,2.89,0,0,1,2.538-1.475h3.632A43.566,43.566,0,0,1-3390-159.244a43.687,43.687,0,0,1,9.389-13.924,43.68,43.68,0,0,1,13.924-9.389A43.57,43.57,0,0,1-3349.634-186a43.556,43.556,0,0,1,17.052,3.443,43.683,43.683,0,0,1,13.925,9.389c.311.312.58.589.822.845l-10.509,5.126a32.839,32.839,0,0,0-21.29-7.851,32.893,32.893,0,0,0-32.856,32.856h2.9a2.889,2.889,0,0,1,2.538,1.475,2.89,2.89,0,0,1-.027,2.936l-8.742,14.723A2.9,2.9,0,0,1-3388.333-121.626Z" transform="translate(3415.51 205.999)"/></g></g></svg>