<svg xmlns="http://www.w3.org/2000/svg" xmlns:xlink="http://www.w3.org/1999/xlink" width="100" height="100" viewBox="0 0 100 100"><defs><clipPath id="b"><rect width="100" height="100"/></clipPath></defs><g id="a" clip-path="url(#b)"><path d="M-2541.249-651a7.009,7.009,0,0,1-7-7v-6h48v6a7.009,7.009,0,0,1-7,7Zm34.761-6.486,1.139,1.138a.516.516,0,0,0,.367.151.509.509,0,0,0,.365-.151.519.519,0,0,0,0-.733l-1.15-1.149a2.476,2.476,0,0,0,.194-.377,2.471,2.471,0,0,0,.178-.923,2.478,2.478,0,0,0-.178-.923,2.45,2.45,0,0,0-.539-.811,2.436,2.436,0,0,0-.813-.539,2.443,2.443,0,0,0-.923-.18,2.437,2.437,0,0,0-.922.18,2.436,2.436,0,0,0-.813.539,2.453,2.453,0,0,0-.539.811,2.471,2.471,0,0,0-.18.923,2.468,2.468,0,0,0,.18.923,2.437,2.437,0,0,0,.539.812,2.443,2.443,0,0,0,.813.539,2.44,2.44,0,0,0,.922.179,2.445,2.445,0,0,0,.923-.179,2.364,2.364,0,0,0,.437-.23h0Zm-23.717.248h1.352v1.015h1.354c0-.011.049-1.868,0-2.368a2.4,2.4,0,0,0-.338-1.012,3.093,3.093,0,0,0-.678-.68,2.916,2.916,0,0,0-.462-.21,1.841,1.841,0,0,0-.552-.129,2.8,2.8,0,0,0-1.015.338,4.366,4.366,0,0,0-.677.676,2.691,2.691,0,0,0-.338.677v2.706h1.354v-1.014h0Zm-2.827-4.043a.746.746,0,0,0-.219.528v4.53h1.478s0-.038,0-.1c-.02-1.746-.019-2.691,0-2.732l.009-.016,0,0,.018-.035.014-.026,0,0c.051-.1.126-.239.167-.34a8.166,8.166,0,0,0,0-1.247v-.025a.746.746,0,0,0-.219-.528.744.744,0,0,0-.528-.22h-.2A.746.746,0,0,0-2533.031-661.28Zm-10.633.141a1.664,1.664,0,0,0-.583,1.2,1.687,1.687,0,0,0,.466,1.25l2.279,2.353a.373.373,0,0,0,.266.113.37.37,0,0,0,.267-.113l2.278-2.353a1.687,1.687,0,0,0,.469-1.25,1.663,1.663,0,0,0-.584-1.2,1.5,1.5,0,0,0-.987-.361,1.7,1.7,0,0,0-1.21.521l-.231.239-.232-.239a1.7,1.7,0,0,0-1.21-.521A1.507,1.507,0,0,0-2543.665-661.139Zm26.779,4.9h.174v-.811h-.174Zm-.23,0h.172v-.811h-.172Zm-.232,0h.173v-.811h-.173Zm-.232,0h.175v-.811h-.175Zm-.23,0h.173v-.811h-.173Zm-.232,0h.173v-.811h-.173Zm-1.193-1.113.415.975a.227.227,0,0,0,.212.139h.508v-.811h-.125l-.57-1.339Zm-1.4,1.113h.508a.227.227,0,0,0,.212-.139l1.911-4.5-.746-.317-1.759,4.142h-.126Zm-.23,0h.173v-.811h-.173Zm-.232,0h.175v-.811h-.175Zm-.23,0h.173v-.811h-.173Zm-.232,0h.173v-.811h-.173Zm-.231,0h.174v-.811h-.174Zm-.231,0h.173v-.811h-.173Zm5.364-.007a.231.231,0,0,0,.174-.224v-.347a.233.233,0,0,0-.174-.225Zm-5.6-.571v.346a.233.233,0,0,0,.174.225v-.8A.234.234,0,0,0-2522.25-656.813Zm1.521-4.057.8,1.893.439-1.037-.5-1.173h0Zm2.028-.423.745.317.068-.16-.746-.317Zm-2.141.157.068.16.746-.317-.068-.16Zm2.381-.722-.126.3.746.317.126-.3a.229.229,0,0,0,0-.177.232.232,0,0,0-.124-.127l-.319-.135a.228.228,0,0,0-.091-.019A.235.235,0,0,0-2518.462-661.858Zm-2.111-.122-.319.135a.232.232,0,0,0-.124.127.233.233,0,0,0,0,.177l.127.3.746-.317-.127-.3a.23.23,0,0,0-.213-.141A.224.224,0,0,0-2520.573-661.981Zm11.625,3.551a1.56,1.56,0,0,1,0-2.2,1.549,1.549,0,0,1,1.1-.455,1.55,1.55,0,0,1,1.1.455,1.56,1.56,0,0,1,0,2.2,1.55,1.55,0,0,1-1.1.455A1.549,1.549,0,0,1-2508.948-658.429Zm-20.048.194h-1.034v-1.036h1.036v1.035h0ZM-2550-713v-6a.5.5,0,0,1,.5-.5.5.5,0,0,1,.5.5v6a.5.5,0,0,1-.5.5A.5.5,0,0,1-2550-713Zm50.5-1.5v-11a.5.5,0,0,1,.5-.5.5.5,0,0,1,.5.5v11a.5.5,0,0,1-.5.5A.5.5,0,0,1-2499.5-714.5Zm-50.5-8v-6a.5.5,0,0,1,.5-.5.5.5,0,0,1,.5.5v6a.5.5,0,0,1-.5.5A.5.5,0,0,1-2550-722.5Zm0-11v-2a.5.5,0,0,1,.5-.5.5.5,0,0,1,.5.5v2a.5.5,0,0,1-.5.5A.5.5,0,0,1-2550-733.5Z" transform="translate(2574.25 751)" opacity="0.33"/><path d="M-2884-636a6.007,6.007,0,0,1-6-6v-88a6.007,6.007,0,0,1,6-6h38a6.007,6.007,0,0,1,6,6v88a6.007,6.007,0,0,1-6,6Zm-4-94v88a4,4,0,0,0,4,4h38a4,4,0,0,0,4-4v-88a4,4,0,0,0-4-4h-6v1a2,2,0,0,1-2,2h-22a2,2,0,0,1-2-2v-1h-6A4.005,4.005,0,0,0-2888-730Z" transform="translate(2915 736)"/></g></svg>