<svg xmlns="http://www.w3.org/2000/svg" xmlns:xlink="http://www.w3.org/1999/xlink" width="100" height="100" viewBox="0 0 100 100"><defs><clipPath id="b"><rect width="100" height="100"/></clipPath></defs><g id="a" clip-path="url(#b)"><path d="M-2273-670h-100v-10h100v10Zm0-20h-100v-10h100v10Zm0-20h-100v-17a3,3,0,0,1,3-3h94a3,3,0,0,1,3,3v17Z" transform="translate(2373 747)" opacity="0.1"/><path d="M-2279-664h-88a6.007,6.007,0,0,1-6-6h24v-10h-24v-10h24v-10h-24v-10h24v-10h-24v-7a3,3,0,0,1,3-3h94a3,3,0,0,1,3,3v7h-23v10h23v10h-23v10h23v10h-23v10h23A6.007,6.007,0,0,1-2279-664Zm-43-16v10h25v-10Zm-26,0v10h25v-10Zm26-20v10h25v-10Zm-26,0v10h25v-10Zm26-20v10h25v-10Zm-26,0v10h25v-10Z" transform="translate(2373 747)" opacity="0.5"/></g></svg>