<svg xmlns="http://www.w3.org/2000/svg" xmlns:xlink="http://www.w3.org/1999/xlink" width="100" height="100" viewBox="0 0 100 100"><defs><clipPath id="b"><rect width="100" height="100"/></clipPath></defs><g id="a" clip-path="url(#b)"><path d="M50,22.342,60.312,9.733a98.7,98.7,0,0,1,35.3,8.558C91.1,25.108,82.146,28.45,82.146,28.45c-.608-6-4.808-7.458-18.142-7.458L50,100,35.912,20.975c-13.25,0-17.45,1.475-18.062,7.467,0,0-8.942-3.312-13.454-10.125A98.68,98.68,0,0,1,39.688,9.75L50,22.342l-.017.008H50ZM50,6.1a114.563,114.563,0,0,1,47.2,9.5A38.5,38.5,0,0,0,100,9.783,136.564,136.564,0,0,0,50,0,136.317,136.317,0,0,0,0,9.787,49.393,49.393,0,0,0,2.8,15.6,114.677,114.677,0,0,1,50,6.083V6.1Z"/></g></svg>