<svg xmlns="http://www.w3.org/2000/svg" xmlns:xlink="http://www.w3.org/1999/xlink" width="100" height="100" viewBox="0 0 100 100"><defs><clipPath id="b"><rect width="100" height="100"/></clipPath></defs><g id="a" clip-path="url(#b)"><path d="M21.5,100A21.509,21.509,0,0,1,0,78.481a21.494,21.494,0,0,1,8.852-17.4V12.648a12.647,12.647,0,1,1,25.294,0v48.43A21.5,21.5,0,0,1,43,78.481,21.509,21.509,0,0,1,21.5,100ZM21.178,6.33a6.007,6.007,0,0,0-6,6V64.669a15.177,15.177,0,1,0,12.647,0V12.33a6.007,6.007,0,0,0-6-6Z" transform="translate(28.998)"/><path d="M0,53.308A12.677,12.677,0,0,1,8.785,41.185a3.782,3.782,0,0,1-.035-.511V12.75a3.75,3.75,0,1,1,7.5,0V40.674a3.784,3.784,0,0,1-.035.512A12.72,12.72,0,0,1,12.5,66,12.6,12.6,0,0,1,0,53.308Z" transform="translate(37.998 25)" opacity="0.5"/></g></svg>