<svg xmlns="http://www.w3.org/2000/svg" xmlns:xlink="http://www.w3.org/1999/xlink" width="100" height="100" viewBox="0 0 100 100"><defs><clipPath id="b"><rect width="100" height="100"/></clipPath></defs><g id="a" clip-path="url(#b)"><path d="M-5684-1224h-92a4,4,0,0,1-4-4v-10a9.011,9.011,0,0,0,9-9,9.011,9.011,0,0,0-9-9v-10a4,4,0,0,1,4-4h92a4,4,0,0,1,4,4v10a9.012,9.012,0,0,0-9,9,9.01,9.01,0,0,0,9,9v10A4,4,0,0,1-5684-1224Zm-76-38a2,2,0,0,0-2,2v26a2,2,0,0,0,2,2h60a2,2,0,0,0,2-2v-26a2,2,0,0,0-2-2Z" transform="translate(5780 1296.999)"/><path d="M1,0H55a1,1,0,0,1,1,1V21a1,1,0,0,1-1,1H1a1,1,0,0,1-1-1V1A1,1,0,0,1,1,0Z" transform="translate(22 39)" opacity="0.5"/></g></svg>