<svg xmlns="http://www.w3.org/2000/svg" xmlns:xlink="http://www.w3.org/1999/xlink" width="100" height="100" viewBox="0 0 100 100"><defs><clipPath id="b"><rect width="100" height="100"/></clipPath></defs><g id="a" clip-path="url(#b)"><path d="M-116-1644h-48a6.007,6.007,0,0,1-6-6v-76a6.007,6.007,0,0,1,6-6h11.142a13.992,13.992,0,0,1,4.648-8.544A13.985,13.985,0,0,1-139-1744a13.984,13.984,0,0,1,9.21,3.457,13.988,13.988,0,0,1,4.648,8.544H-116a6.007,6.007,0,0,1,6,6v76A6.007,6.007,0,0,1-116-1644Zm-23.191-29.645a11.768,11.768,0,0,0-4.607.93,11.8,11.8,0,0,0-3.763,2.537,11.792,11.792,0,0,0-2.537,3.763,11.766,11.766,0,0,0-.931,4.608,11.766,11.766,0,0,0,.931,4.608,11.777,11.777,0,0,0,2.537,3.762,11.772,11.772,0,0,0,3.763,2.537,11.757,11.757,0,0,0,4.607.931,11.759,11.759,0,0,0,4.608-.931,11.78,11.78,0,0,0,3.763-2.537,11.8,11.8,0,0,0,2.537-3.762,11.765,11.765,0,0,0,.93-4.608,11.765,11.765,0,0,0-.93-4.608,11.809,11.809,0,0,0-2.537-3.763,11.808,11.808,0,0,0-3.763-2.537A11.77,11.77,0,0,0-139.191-1673.645Zm-20.564-10.337a1.237,1.237,0,0,0-.88.365,1.236,1.236,0,0,0-.364.88,1.231,1.231,0,0,0,.364.878l1.76,1.76a1.232,1.232,0,0,0,.879.365,1.232,1.232,0,0,0,.879-.365l.879-.879,2.639-2.639a1.233,1.233,0,0,0,.364-.879,1.236,1.236,0,0,0-.364-.88,1.236,1.236,0,0,0-.879-.365,1.237,1.237,0,0,0-.88.365l-2.638,2.638-.879-.879A1.235,1.235,0,0,0-159.755-1683.983Zm10.218-1.031a2.451,2.451,0,0,0-2.448,2.448,2.451,2.451,0,0,0,2.448,2.448h29.38a2.451,2.451,0,0,0,2.448-2.448,2.451,2.451,0,0,0-2.448-2.448Zm-10.219-10.1a1.238,1.238,0,0,0-.879.364,1.236,1.236,0,0,0-.364.88,1.232,1.232,0,0,0,.364.879l1.76,1.76a1.236,1.236,0,0,0,.879.365,1.236,1.236,0,0,0,.879-.365l.879-.879,2.639-2.639a1.235,1.235,0,0,0,.365-.879,1.236,1.236,0,0,0-.365-.88,1.235,1.235,0,0,0-.879-.365,1.236,1.236,0,0,0-.88.365l-2.638,2.639-.879-.879A1.237,1.237,0,0,0-159.756-1695.111Zm10.219-1.031a2.451,2.451,0,0,0-2.448,2.449,2.451,2.451,0,0,0,2.448,2.448h29.38a2.451,2.451,0,0,0,2.448-2.448,2.451,2.451,0,0,0-2.448-2.449ZM-157.216-1708a3.342,3.342,0,0,0-3.339,3.338,3.343,3.343,0,0,0,3.339,3.339,3.342,3.342,0,0,0,3.338-3.339A3.342,3.342,0,0,0-157.216-1708Zm7.678.728a2.451,2.451,0,0,0-2.448,2.448,2.451,2.451,0,0,0,2.448,2.449h29.38a2.451,2.451,0,0,0,2.448-2.449,2.451,2.451,0,0,0-2.448-2.448ZM-139-1738a8.009,8.009,0,0,0-8,8,8.009,8.009,0,0,0,8,8,8.009,8.009,0,0,0,8-8A8.009,8.009,0,0,0-139-1738Zm-.192,86.61a10.429,10.429,0,0,1-10.417-10.417,10.429,10.429,0,0,1,10.417-10.417,10.429,10.429,0,0,1,10.417,10.417A10.429,10.429,0,0,1-139.191-1651.39Zm-5.008-13a1.175,1.175,0,0,0-.837.346l-.5.5a1.177,1.177,0,0,0-.347.838,1.176,1.176,0,0,0,.347.837l3.838,3.838a1.236,1.236,0,0,0,.123.145l.5.5a1.179,1.179,0,0,0,.837.346,1.179,1.179,0,0,0,.837-.346l6.7-6.7a1.187,1.187,0,0,0,0-1.674l-.5-.5a1.176,1.176,0,0,0-.837-.347,1.174,1.174,0,0,0-.837.347l-5.347,5.346-3.135-3.135A1.178,1.178,0,0,0-144.2-1664.389Z" transform="translate(189 1743.999)"/></g></svg>