<svg xmlns="http://www.w3.org/2000/svg" xmlns:xlink="http://www.w3.org/1999/xlink" width="100" height="100" viewBox="0 0 100 100"><defs><clipPath id="b"><rect width="100" height="100"/></clipPath></defs><g id="a" clip-path="url(#b)"><path d="M-2476.786-302.428h-46.429a26.609,26.609,0,0,1-18.939-7.845A26.612,26.612,0,0,1-2550-329.214a26.612,26.612,0,0,1,7.845-18.941A26.609,26.609,0,0,1-2523.215-356h46.429a26.609,26.609,0,0,1,18.94,7.846A26.61,26.61,0,0,1-2450-329.214a26.61,26.61,0,0,1-7.846,18.941A26.609,26.609,0,0,1-2476.786-302.428Zm-46.429-48.214a21.452,21.452,0,0,0-21.428,21.428,21.453,21.453,0,0,0,21.428,21.428h46.429a21.453,21.453,0,0,0,21.43-21.428,21.453,21.453,0,0,0-21.43-21.428Z" transform="translate(2550 379)"/><path d="M19.643,0A19.643,19.643,0,1,1,0,19.643,19.643,19.643,0,0,1,19.643,0Z" transform="translate(53.571 30.144)" opacity="0.5"/></g></svg>