<svg xmlns="http://www.w3.org/2000/svg" xmlns:xlink="http://www.w3.org/1999/xlink" width="100" height="100" viewBox="0 0 100 100"><defs><clipPath id="b"><rect width="100" height="100"/></clipPath></defs><g id="a" clip-path="url(#b)"><path d="M-3690.858,33.071a4.97,4.97,0,0,1-3.536-1.464L-3704,22h-32a5.006,5.006,0,0,1-5-5V-7a5.006,5.006,0,0,1,5-5h90a5.006,5.006,0,0,1,5,5V17a5.006,5.006,0,0,1-5,5h-31.715l-9.607,9.607A4.97,4.97,0,0,1-3690.858,33.071Zm4.33-31.091c-2.3,0-3.786,1.621-3.786,4.13,0,2.541,1.446,4.058,3.867,4.058,1.938,0,3.343-1.009,3.581-2.571h-1.962a1.562,1.562,0,0,1-1.582.989,1.749,1.749,0,0,1-1.8-1.89V6.565h5.413V5.913A3.593,3.593,0,0,0-3686.528,1.98Zm-13.69,0c-2.4,0-3.889,1.566-3.889,4.087s1.49,4.1,3.889,4.1,3.89-1.571,3.89-4.1S-3697.818,1.98-3700.218,1.98Zm26.69,1.787c.826,0,1.281.5,1.281,1.406V10h2.139V4.638A2.465,2.465,0,0,0-3672.678,2a2.481,2.481,0,0,0-2.439,1.611h-.044A2.092,2.092,0,0,0-3677.351,2a2.306,2.306,0,0,0-2.242,1.567h-.043V2.148h-2.066V10h2.139V5.26a1.37,1.37,0,0,1,1.362-1.494,1.2,1.2,0,0,1,1.266,1.341V10h2.058V5.231A1.335,1.335,0,0,1-3673.528,3.767Zm-21.7-1.619V10h2.139V5.613a1.558,1.558,0,0,1,1.67-1.751,2.2,2.2,0,0,1,.775.125V2.1a2.129,2.129,0,0,0-.607-.081,1.874,1.874,0,0,0-1.867,1.539h-.044V2.148Zm-16.443-2.717V10h6.834V8.168h-4.622V-.569Zm11.455,9.1c-1.078,0-1.721-.92-1.721-2.462,0-1.518.659-2.461,1.721-2.461s1.714.943,1.714,2.461C-3698.5,7.615-3699.144,8.535-3700.218,8.535Zm15.359-3.281h-3.332a1.7,1.7,0,0,1,1.684-1.692,1.629,1.629,0,0,1,1.648,1.691Z" transform="translate(3741 39)"/></g></svg>