<svg xmlns="http://www.w3.org/2000/svg" xmlns:xlink="http://www.w3.org/1999/xlink" width="100" height="100" viewBox="0 0 100 100"><defs><clipPath id="b"><rect width="100" height="100"/></clipPath></defs><g id="a" clip-path="url(#b)"><path d="M-1011.612-450.5l0,0-.021-.01-.014-.007-.01-.005a.127.127,0,0,1-.022-.012l0,0a1.27,1.27,0,0,1-.255-.188l-.008-.008a.1.1,0,0,1-.014-.013l-.014-.015-.006-.006a1.244,1.244,0,0,1-.205-.284h0c0-.008-.008-.017-.013-.024a.064.064,0,0,1,0-.008l-.009-.018-.008-.017a.092.092,0,0,1,0-.009c0-.01-.008-.018-.012-.028a1.318,1.318,0,0,1-.1-.583,0,0,0,0,0,0,0c0-.005,0-.011,0-.017a.2.2,0,0,1,0-.023v0a1.391,1.391,0,0,1,.061-.3l5.9-20.063a1.475,1.475,0,0,1,.431-.681c.017-.019.035-.039.055-.058l2.837-2.838,59.152-59.151a1.565,1.565,0,0,1,2.209-.066l13.931,13.93a1.566,1.566,0,0,1-.067,2.209L-980.945-465.7l-.041.043-8.734,8.735c-.037.036-.072.068-.106.1s-.063.072-.1.106a1.476,1.476,0,0,1-.627.373l-20.093,5.909a1.39,1.39,0,0,1-.4.058A1.327,1.327,0,0,1-1011.612-450.5Zm4.837-10.679,5.243,5.244,10.314-3.034-1.469-5.14-5.21-.706-.706-5.21-5.14-1.469Zm62.473-66.235-41.035,41.035a2.29,2.29,0,0,0-.1,3.231,2.29,2.29,0,0,0,3.232-.1l41.035-41.035a2.292,2.292,0,0,0,.1-3.232,2.141,2.141,0,0,0-1.526-.62A2.418,2.418,0,0,0-944.3-527.419Zm12.62,76L-960.2-479.934l8.947-8.946.935.936a.993.993,0,0,0,.707.292,1,1,0,0,0,.707-.292l6.611-6.611,7.778,7.778-6.61,6.611a1,1,0,0,0,0,1.414L-939-476.63a.993.993,0,0,0,.707.292,1,1,0,0,0,.707-.292l6.611-6.611,7.778,7.778-6.61,6.61a.992.992,0,0,0-.293.707.994.994,0,0,0,.293.707l2.121,2.121a.992.992,0,0,0,.707.292,1,1,0,0,0,.707-.292l6.611-6.61,4.244,4.244a2.98,2.98,0,0,1,.878,2.121,2.983,2.983,0,0,1-.878,2.121l-12.02,12.02a2.982,2.982,0,0,1-2.123.878A2.979,2.979,0,0,1-931.683-451.418Zm-49.8-49.805-29.392-29.391a2.975,2.975,0,0,1-.877-2.121,2.976,2.976,0,0,1,.878-2.121l12.021-12.021a2.976,2.976,0,0,1,2.12-.878,2.976,2.976,0,0,1,2.121.878l3.534,3.534-6.611,6.611a1,1,0,0,0,0,1.414l2.121,2.121a.992.992,0,0,0,.707.292,1,1,0,0,0,.707-.292l6.611-6.61,7.778,7.778-6.61,6.611a.994.994,0,0,0-.293.708.993.993,0,0,0,.293.706l2.121,2.121a.992.992,0,0,0,.707.292,1,1,0,0,0,.707-.292l6.611-6.61,7.778,7.778-6.61,6.611a1,1,0,0,0,0,1.415l2.121,2.121a1,1,0,0,0,.528.276l-9.071,9.071h0Zm57.187-23.261-13.931-13.93a1.564,1.564,0,0,1,.066-2.21l5.687-5.687a7.823,7.823,0,0,1,11.047-.33l5.358,5.359a7.821,7.821,0,0,1-.329,11.046l-5.687,5.688a1.652,1.652,0,0,1-1.165.491A1.466,1.466,0,0,1-924.3-524.485Z" transform="translate(1013 549)"/></g></svg>