<svg xmlns="http://www.w3.org/2000/svg" xmlns:xlink="http://www.w3.org/1999/xlink" width="100" height="100" viewBox="0 0 100 100"><defs><clipPath id="b"><rect width="100" height="100"/></clipPath></defs><g id="a" clip-path="url(#b)"><path d="M-6278.938-283.565a4.113,4.113,0,0,1-1.4-3.042l-5.042-66.094a3.914,3.914,0,0,1,.218-1.282c1.808,3.871,14.725,6.791,30.05,6.791s28.233-2.917,30.047-6.786a3.907,3.907,0,0,1,.215,1.277l-5.043,66.094a4.189,4.189,0,0,1-1.6,3.223,3.59,3.59,0,0,1-.559.393,5.62,5.62,0,0,1-.706.361c-3.648,1.621-12.213,2.63-22.351,2.63C-6267.414-280-6277.211-281.466-6278.938-283.565ZM-6290-362.558c0-4.259,6.971-8.172,18.185-10.215a12.44,12.44,0,0,1,6.209-5.186A26.3,26.3,0,0,1-6255.117-380c7.754,0,14.468,2.9,16.7,7.227,11.214,2.043,18.181,5.956,18.181,10.215,0,6.406-15.648,11.623-34.885,11.623S-6290-356.152-6290-362.558Zm23.257-2.912c2.65-1.765,6.873-2.906,11.626-2.906s8.978,1.14,11.628,2.9c0-4.81-5.215-8.717-11.628-8.717S-6266.742-370.282-6266.743-365.47Z" transform="translate(6305 380)"/></g></svg>