<svg xmlns="http://www.w3.org/2000/svg" xmlns:xlink="http://www.w3.org/1999/xlink" width="100" height="100" viewBox="0 0 100 100"><defs><clipPath id="b"><rect width="100" height="100"/></clipPath></defs><g id="a" clip-path="url(#b)"><path d="M0,0H59.676V84.514a5,5,0,0,1-5,5H5a5,5,0,0,1-5-5Z" transform="translate(20.177 10.486)" opacity="0.33"/><path d="M-123-463.5v-67a1.5,1.5,0,0,1,1.5-1.5,1.5,1.5,0,0,1,1.5,1.5v67a1.5,1.5,0,0,1-1.5,1.5A1.5,1.5,0,0,1-123-463.5Zm-14.5,0v-67A1.5,1.5,0,0,1-136-532a1.5,1.5,0,0,1,1.5,1.5v67A1.5,1.5,0,0,1-136-462,1.5,1.5,0,0,1-137.5-463.5Zm-14.5,0v-67a1.5,1.5,0,0,1,1.5-1.5,1.5,1.5,0,0,1,1.5,1.5v67a1.5,1.5,0,0,1-1.5,1.5A1.5,1.5,0,0,1-152-463.5Zm-16-78.014a2,2,0,0,1-2-2v-4.354a2,2,0,0,1,2-2h20.517A34.743,34.743,0,0,1-141.952-552h11.936a34.743,34.743,0,0,1,5.531,2.131h20.517a2,2,0,0,1,2,2v4.354a2,2,0,0,1-2,2Z" transform="translate(186 552)"/></g></svg>