<svg xmlns="http://www.w3.org/2000/svg" xmlns:xlink="http://www.w3.org/1999/xlink" width="100" height="100" viewBox="0 0 100 100"><defs><clipPath id="b"><rect width="100" height="100"/></clipPath></defs><g id="a" clip-path="url(#b)"><path d="M-5920-1000.334a3.337,3.337,0,0,1,3.335-3.335,3.336,3.336,0,0,1,3.332,3.335,4.98,4.98,0,0,0,1.468,3.536,4.966,4.966,0,0,0,3.532,1.466,5.006,5.006,0,0,0,5-5V-1043a3.335,3.335,0,0,1,3.333-3.335,3.334,3.334,0,0,1,3.334,3.335v42.666a11.678,11.678,0,0,1-11.667,11.667A11.68,11.68,0,0,1-5920-1000.334Zm3.332-32.664a16.545,16.545,0,0,0-4.885-11.782,16.553,16.553,0,0,0-11.779-4.885,16.691,16.691,0,0,0-16.667,16.64,49.722,49.722,0,0,1,3.93-19.437,49.852,49.852,0,0,1,10.717-15.893,49.85,49.85,0,0,1,15.893-10.716,49.586,49.586,0,0,1,16.127-3.819v-1.774A3.337,3.337,0,0,1-5900-1088a3.336,3.336,0,0,1,3.334,3.337v1.774a49.531,49.531,0,0,1,16.106,3.809,49.872,49.872,0,0,1,15.88,10.692,49.777,49.777,0,0,1,10.72,15.858,49.671,49.671,0,0,1,3.961,19.424,16.706,16.706,0,0,0-16.668-16.557,16.73,16.73,0,0,0-16.664,16.428A16.737,16.737,0,0,0-5900-1049.665,16.684,16.684,0,0,0-5916.667-1033Z" transform="translate(5950.001 1088.001)"/></g></svg>