<svg xmlns="http://www.w3.org/2000/svg" xmlns:xlink="http://www.w3.org/1999/xlink" width="100" height="100" viewBox="0 0 100 100"><defs><clipPath id="b"><rect width="100" height="100"/></clipPath></defs><g id="a" clip-path="url(#b)"><path d="M53.01-322.135l-1.222-1.222a5,5,0,0,1,0-7.07l7.436-7.437H30a5,5,0,0,1-5-5v-1.729a5,5,0,0,1,5-5H58.725l-6.938-6.937a5,5,0,0,1,0-7.071l1.221-1.221a5,5,0,0,1,7.072,0l16.586,16.586,1.222,1.221a5,5,0,0,1,0,7.072L60.081-322.134a4.985,4.985,0,0,1-3.535,1.464A4.985,4.985,0,0,1,53.01-322.135Z" transform="translate(393.287 89.354) rotate(-90)"/><path d="M85.34,0V14.655H100A14.654,14.654,0,0,0,85.346,0ZM14.66,0h-.006A14.654,14.654,0,0,0,0,14.655H85.34V0ZM85.34,14.655v27.8a2,2,0,0,0,2,2H98a2,2,0,0,0,2-2v-27.8ZM0,14.655v27.8a2,2,0,0,0,2,2H12.66a2,2,0,0,0,2-2v-27.8Z" transform="translate(100 89.354) rotate(180)" opacity="0.5"/></g></svg>