<svg xmlns="http://www.w3.org/2000/svg" xmlns:xlink="http://www.w3.org/1999/xlink" width="100" height="100" viewBox="0 0 100 100"><defs><clipPath id="b"><rect width="100" height="100"/></clipPath></defs><g id="a" clip-path="url(#b)"><path d="M-75-869h-90a5.006,5.006,0,0,1-5-5v-53a5.006,5.006,0,0,1,5-5h90a5.006,5.006,0,0,1,5,5v53A5.005,5.005,0,0,1-75-869Zm-77.4-20.472c-2.033,0-4.751.23-6.16,1.323-1.47,1.14-2.411,4.184-2.42,4.215a.83.83,0,0,0,.115.622c.214.367.787.87,2.3,1.184A78.411,78.411,0,0,0-144.015-881a78.391,78.391,0,0,0,14.545-1.13,3.369,3.369,0,0,0,2.306-1.177.884.884,0,0,0,.154-.629c-.01-.03-.977-3.063-2.461-4.215-1.408-1.094-4.127-1.323-6.16-1.323-1.455,0-2.557.118-2.567.119a22.189,22.189,0,0,1-5.818,1.2,22.137,22.137,0,0,1-5.818-1.2C-149.844-889.355-150.964-889.473-152.4-889.473ZM-109-892a1,1,0,0,0-1,1v2a1,1,0,0,0,1,1h30a1,1,0,0,0,1-1v-2a1,1,0,0,0-1-1Zm-35.023-23a10.873,10.873,0,0,0-10.86,10.86,10.873,10.873,0,0,0,10.86,10.861,10.874,10.874,0,0,0,10.861-10.861A10.873,10.873,0,0,0-144.023-915ZM-109-901a1,1,0,0,0-1,1v2a1,1,0,0,0,1,1h30a1,1,0,0,0,1-1v-2a1,1,0,0,0-1-1Zm0-9a1,1,0,0,0-1,1v2a1,1,0,0,0,1,1h30a1,1,0,0,0,1-1v-2a1,1,0,0,0-1-1Z" transform="translate(170 951)" opacity="0.5"/><path d="M5,0H95a5,5,0,0,1,5,5v5H0V5A5,5,0,0,1,5,0Z" transform="translate(0 19)"/></g></svg>