<svg xmlns="http://www.w3.org/2000/svg" xmlns:xlink="http://www.w3.org/1999/xlink" width="100" height="100" viewBox="0 0 100 100"><defs><clipPath id="b"><rect width="100" height="100"/></clipPath></defs><g id="a" clip-path="url(#b)"><path d="M-162.828-653.585c-8.278-2.759-7.115-8.555-7.115-8.555s2.745-14.5,7.115-19.965c7.131-8.912,25.669-5.7,25.669-5.7s9.983,5.7,17.113,5.7,17.112-5.7,17.112-5.7,18.538-3.209,25.669,5.7c4.42,5.527,7.236,19.965,7.236,19.965s.892,5.846-7.236,8.555c-10.7,3.565-26.739,5.348-42.782,5.348S-152.133-650.02-162.828-653.585Zm19.965-65.6A22.816,22.816,0,0,1-120.046-742,22.816,22.816,0,0,1-97.23-719.184a22.816,22.816,0,0,1-22.816,22.817A22.816,22.816,0,0,1-142.863-719.184Z" transform="translate(170 745)"/></g></svg>