<svg xmlns="http://www.w3.org/2000/svg" xmlns:xlink="http://www.w3.org/1999/xlink" width="100" height="100" viewBox="0 0 100 100"><defs><clipPath id="b"><rect width="100" height="100"/></clipPath></defs><g id="a" clip-path="url(#b)"><path d="M5.5,67.815C-.848,65.7.043,61.253.043,61.253S2.148,50.13,5.5,45.939C10.97,39.1,25.19,41.565,25.19,41.565s7.656,4.375,13.125,4.375,13.125-4.375,13.125-4.375,14.22-2.461,19.689,4.375c3.391,4.239,5.55,15.314,5.55,15.314s.685,4.484-5.55,6.562c-8.2,2.735-20.509,4.1-32.814,4.1S13.7,70.55,5.5,67.815ZM20.814,17.5A17.5,17.5,0,1,1,38.315,35,17.5,17.5,0,0,1,20.814,17.5Z" transform="translate(0 13.827)"/><path d="M17.5,35H3.282a3.281,3.281,0,1,1,0-6.562H14.22V3.281a3.281,3.281,0,1,1,6.562,0V31.72A3.281,3.281,0,0,1,17.5,35Z" transform="translate(86.583 6) rotate(45)" opacity="0.5"/></g></svg>