<svg xmlns="http://www.w3.org/2000/svg" xmlns:xlink="http://www.w3.org/1999/xlink" width="100" height="100" viewBox="0 0 100 100"><defs><clipPath id="b"><rect width="100" height="100"/></clipPath></defs><g id="a" clip-path="url(#b)"><path d="M6.1,75.248C-.942,72.9.048,67.967.048,67.967S2.384,55.625,6.1,50.975C12.172,43.39,27.95,46.12,27.95,46.12s8.5,4.854,14.565,4.854S57.079,46.12,57.079,46.12s15.779-2.731,21.847,4.854c3.763,4.7,6.159,16.992,6.159,16.992s.759,4.976-6.159,7.281c-9.1,3.034-22.757,4.552-36.411,4.552S15.206,78.283,6.1,75.248ZM23.1,19.418A19.419,19.419,0,1,1,42.515,38.838,19.418,19.418,0,0,1,23.1,19.418Z" transform="translate(0 10.768)"/><path d="M15.779,35.2V23.06H3.642a3.641,3.641,0,1,1,0-7.283H15.779V3.641a3.641,3.641,0,0,1,7.281,0V15.778H35.2a3.641,3.641,0,1,1,0,7.283H23.06V35.2a3.641,3.641,0,1,1-7.281,0Z" transform="translate(85.033 5) rotate(45)" opacity="0.5"/></g></svg>