<svg xmlns="http://www.w3.org/2000/svg" xmlns:xlink="http://www.w3.org/1999/xlink" width="100" height="100" viewBox="0 0 100 100"><defs><clipPath id="b"><rect width="100" height="100"/></clipPath></defs><g id="a" clip-path="url(#b)"><g transform="translate(-2.076 -2)"><path d="M5.489,63.566C-.846,61.454.043,57.018.043,57.018s2.1-11.1,5.446-15.278c5.456-6.82,19.643-4.365,19.643-4.365s7.639,4.365,13.095,4.365,13.1-4.365,13.1-4.365S65.509,34.92,70.965,41.74C74.348,45.97,76.5,57.018,76.5,57.018s.682,4.475-5.538,6.548c-8.184,2.728-20.461,4.093-32.738,4.093S13.673,66.295,5.489,63.566Zm17.5-48.288A15.278,15.278,0,1,1,38.262,30.556,15.278,15.278,0,0,1,22.984,15.278Z" transform="translate(13.929 18)"/><path d="M-594.576-705.471c-4-5-10.791-6.054-15.778-6.054a31.9,31.9,0,0,0-8.576,1.107c-.52.157-1,.318-1.461.492a8.718,8.718,0,0,1,1.33-4.655c1.817-2.272,5.324-2.748,7.946-2.748a21.779,21.779,0,0,1,3.31.247c.043.024,4.414,2.5,7.5,2.5s7.46-2.476,7.5-2.5a21.657,21.657,0,0,1,3.31-.247c2.622,0,6.129.477,7.946,2.748,1.891,2.364,1.515,8.609,1.5,8.874a.1.1,0,0,1,.006.089c-.049.17-.456.664-3.179,1.571a58.5,58.5,0,0,1-9.635,1.384A15.206,15.206,0,0,0-594.576-705.471Zm-82.209,1.424c-2.723-.907-3.13-1.4-3.179-1.571a.1.1,0,0,1,.006-.089c-.017-.264-.393-6.509,1.5-8.874,1.817-2.271,5.324-2.748,7.946-2.748a21.656,21.656,0,0,1,3.31.247c.044.025,4.4,2.5,7.5,2.5s7.461-2.477,7.5-2.5a21.777,21.777,0,0,1,3.31-.247c2.622,0,6.129.476,7.946,2.748a8.718,8.718,0,0,1,1.33,4.655c-.463-.174-.94-.335-1.461-.492a31.9,31.9,0,0,0-8.576-1.107c-4.987,0-11.774,1.05-15.778,6.054a15.2,15.2,0,0,0-1.726,2.808A58.5,58.5,0,0,1-676.785-704.047Zm68.41-23.544a8.409,8.409,0,0,1,8.41-8.41,8.409,8.409,0,0,1,8.409,8.41,8.409,8.409,0,0,1-8.409,8.41A8.41,8.41,0,0,1-608.375-727.591Zm-60.069,0a8.409,8.409,0,0,1,8.409-8.41,8.409,8.409,0,0,1,8.41,8.41,8.41,8.41,0,0,1-8.41,8.41A8.41,8.41,0,0,1-668.444-727.591Z" transform="translate(682.076 762.73)" opacity="0.5"/></g></g></svg>