<svg xmlns="http://www.w3.org/2000/svg" xmlns:xlink="http://www.w3.org/1999/xlink" width="100" height="100" viewBox="0 0 100 100"><defs><clipPath id="b"><rect width="100" height="100"/></clipPath></defs><g id="a" clip-path="url(#b)"><path d="M-3052.676-675.416c6.951-6.9,22.39-4.231,22.39-4.231s9.032,5.161,15.484,5.161,15.483-5.161,15.483-5.161,15.048-2.605,22.121,3.973A42,42,0,0,1-3015-652,42,42,0,0,1-3052.676-675.416Zm17.229-32.618a20.644,20.644,0,0,1,20.645-20.644,20.644,20.644,0,0,1,20.643,20.644,20.644,20.644,0,0,1-20.643,20.645A20.644,20.644,0,0,1-3035.446-708.035Z" transform="translate(3065 744)" opacity="0.5"/><path d="M-3010-636a49.687,49.687,0,0,1-19.462-3.929,49.833,49.833,0,0,1-15.893-10.715,49.833,49.833,0,0,1-10.716-15.893A49.688,49.688,0,0,1-3060-686a49.69,49.69,0,0,1,3.929-19.462,49.833,49.833,0,0,1,10.716-15.893,49.832,49.832,0,0,1,15.893-10.715A49.687,49.687,0,0,1-3010-736a49.686,49.686,0,0,1,19.462,3.929,49.834,49.834,0,0,1,15.893,10.715,49.834,49.834,0,0,1,10.715,15.893A49.69,49.69,0,0,1-2960-686a49.688,49.688,0,0,1-3.929,19.462,49.836,49.836,0,0,1-10.715,15.893,49.838,49.838,0,0,1-15.893,10.715A49.686,49.686,0,0,1-3010-636Zm0-92a42.048,42.048,0,0,0-42,42,42.047,42.047,0,0,0,42,42,42.047,42.047,0,0,0,42-42A42.047,42.047,0,0,0-3010-728Z" transform="translate(3060 736)"/></g></svg>