<svg xmlns="http://www.w3.org/2000/svg" xmlns:xlink="http://www.w3.org/1999/xlink" width="100" height="100" viewBox="0 0 100 100"><defs><clipPath id="b"><rect width="100" height="100"/></clipPath></defs><g id="a" clip-path="url(#b)"><path d="M-3020.722-493.214a13.843,13.843,0,0,1,10.92-5.318,13.839,13.839,0,0,1,10.558,4.877l-10.96,10.96Zm-19.659-19.658q.568-.614,1.165-1.21a41.318,41.318,0,0,1,29.415-12.186,41.322,41.322,0,0,1,29.414,12.186q.394.393.775.795l-9.821,9.82A27.658,27.658,0,0,0-3009.8-512.4a27.679,27.679,0,0,0-20.753,9.355ZM-3060-532.492q.578-.606,1.172-1.2a69.123,69.123,0,0,1,22.038-14.858A68.881,68.881,0,0,1-3009.8-554a68.867,68.867,0,0,1,26.986,5.45,69.049,69.049,0,0,1,22.037,14.858q.393.393.779.792l-9.824,9.824a55.314,55.314,0,0,0-39.977-17.056,55.317,55.317,0,0,0-40.371,17.468Z" transform="translate(3060 568)"/></g></svg>