<svg xmlns="http://www.w3.org/2000/svg" xmlns:xlink="http://www.w3.org/1999/xlink" width="100" height="100" viewBox="0 0 100 100"><defs><clipPath id="b"><rect width="100" height="100"/></clipPath></defs><g id="a" clip-path="url(#b)"><path d="M-3380.38-512.872q.568-.614,1.164-1.21a41.318,41.318,0,0,1,29.415-12.186,41.326,41.326,0,0,1,29.415,12.186q.394.393.774.795l-9.82,9.82A27.662,27.662,0,0,0-3349.8-512.4a27.678,27.678,0,0,0-20.752,9.355Zm-19.62-19.62q.578-.606,1.172-1.2a69.119,69.119,0,0,1,22.037-14.858A68.881,68.881,0,0,1-3349.8-554a68.869,68.869,0,0,1,26.986,5.45,69.062,69.062,0,0,1,22.037,14.858q.391.393.778.792l-9.823,9.824a55.317,55.317,0,0,0-39.978-17.056,55.317,55.317,0,0,0-40.371,17.468Z" transform="translate(3400 568)" opacity="0.5"/><path d="M0,5.318a13.869,13.869,0,0,1,21.479-.441l-10.96,10.96Z" transform="translate(39.278 69.468)"/></g></svg>