<svg xmlns="http://www.w3.org/2000/svg" xmlns:xlink="http://www.w3.org/1999/xlink" width="100" height="100" viewBox="0 0 100 100"><defs><clipPath id="b"><rect width="100" height="100"/></clipPath></defs><g id="a" clip-path="url(#b)"><path d="M-4351.052-443.045h0l-10.519-10.519a13.813,13.813,0,0,1,10.635-5.315c.1,0,.192,0,.288,0A13.848,13.848,0,0,1-4340.093-454l-10.959,10.959Zm20.771-20.773h0a27.491,27.491,0,0,0-14.9-8.388l11.024-11.025a41.138,41.138,0,0,1,12.919,8.8c.259.258.52.526.773.795l-9.818,9.818ZM-4374.01-466h0l-7.219-7.218c.385-.417.777-.823,1.164-1.21a41.293,41.293,0,0,1,26.581-12.1L-4374.01-466Zm-17.01-17.011h0l-9.829-9.827c.381-.4.765-.791,1.173-1.2a68.77,68.77,0,0,1,22.037-14.859,69.028,69.028,0,0,1,13.155-4.074,69.054,69.054,0,0,1,13.7-1.376h.264a68.762,68.762,0,0,1,21.435,3.42l-11.388,11.388a55.438,55.438,0,0,0-10.15-.939h-.057A55.518,55.518,0,0,0-4391.021-483.014Zm80.349-.412h0a55.26,55.26,0,0,0-13.155-10.132l10.135-10.135a69.162,69.162,0,0,1,12.065,9.653c.271.272.533.539.777.792l-9.822,9.823Z" transform="translate(4400.85 528.35)"/><path d="M5,0h99a5,5,0,0,1,0,10H5A5,5,0,0,1,5,0Z" transform="translate(8.427 85.002) rotate(-45)" opacity="0.5"/></g></svg>