<svg xmlns="http://www.w3.org/2000/svg" xmlns:xlink="http://www.w3.org/1999/xlink" width="100" height="100" viewBox="0 0 100 100"><defs><clipPath id="b"><rect width="100" height="100"/></clipPath></defs><g id="a" clip-path="url(#b)"><path d="M0,21.508q.577-.606,1.172-1.2a69.27,69.27,0,0,1,98.049,0q.393.393.779.792l-9.824,9.825a55.382,55.382,0,0,0-80.349.412Z" transform="translate(0 14)" opacity="0.5"/><path d="M-3210.342-520.947a13.844,13.844,0,0,1,10.921-5.318,13.838,13.838,0,0,1,10.558,4.877l-10.96,10.96ZM-3230-540.6q.568-.614,1.165-1.21A41.319,41.319,0,0,1-3199.421-554a41.322,41.322,0,0,1,29.414,12.186q.394.393.775.795l-9.821,9.82a27.659,27.659,0,0,0-20.368-8.932,27.679,27.679,0,0,0-20.753,9.355Z" transform="translate(3249.619 595.733)"/></g></svg>