<svg xmlns="http://www.w3.org/2000/svg" xmlns:xlink="http://www.w3.org/1999/xlink" width="100" height="100" viewBox="0 0 100 100"><defs><clipPath id="b"><rect width="100" height="100"/></clipPath></defs><g id="a" clip-path="url(#b)"><path d="M-2642.95-315.016h-72.132a4.923,4.923,0,0,1-4.917-4.918v-31.148a4.924,4.924,0,0,1,4.917-4.919h72.132a4.924,4.924,0,0,1,4.918,4.919v31.148A4.924,4.924,0,0,1-2642.95-315.016Zm-72.132-37.7a1.641,1.641,0,0,0-1.639,1.639v31.148a1.641,1.641,0,0,0,1.639,1.639h72.132a1.641,1.641,0,0,0,1.639-1.639v-31.148a1.641,1.641,0,0,0-1.639-1.639Z" transform="translate(2738.033 394.034)"/><path d="M-2701.967-315.016h-13.115a4.923,4.923,0,0,1-4.917-4.918v-31.148a4.924,4.924,0,0,1,4.917-4.919h72.132a4.924,4.924,0,0,1,4.918,4.919v13.115h-3.279v-13.115a1.641,1.641,0,0,0-1.639-1.639h-72.132a1.641,1.641,0,0,0-1.639,1.639v31.148a1.641,1.641,0,0,0,1.639,1.639h13.115v3.278Z" transform="translate(2720 376)" opacity="0.5"/></g></svg>