<svg xmlns="http://www.w3.org/2000/svg" xmlns:xlink="http://www.w3.org/1999/xlink" width="100" height="100" viewBox="0 0 100 100"><defs><clipPath id="b"><rect width="100" height="100"/></clipPath></defs><g id="a" clip-path="url(#b)"><path d="M-6264.906-962.952a11.3,11.3,0,0,1-11.292-11.292v-66.669a25.176,25.176,0,0,1-9.972-9.084,25.024,25.024,0,0,1-3.831-13.334,25.1,25.1,0,0,1,15.057-23.005v23.005l10.038,5.019,10.039-5.019v-23.005a25.1,25.1,0,0,1,15.057,23.005,25.029,25.029,0,0,1-3.831,13.334,25.175,25.175,0,0,1-9.973,9.084v66.669A11.3,11.3,0,0,1-6264.906-962.952Z" transform="translate(5207.4 -3652.515) rotate(-45)"/></g></svg>