<svg xmlns="http://www.w3.org/2000/svg" xmlns:xlink="http://www.w3.org/1999/xlink" width="1792.36" height="549.5" viewBox="0 0 1792.36 549.5"><defs><clipPath id="b"><rect width="1792.36" height="549.5"/></clipPath></defs><g id="a" clip-path="url(#b)"><path d="M5.881,329.185A5.885,5.885,0,0,1,0,323.307V5.877A5.885,5.885,0,0,1,5.881,0H276.29a5.882,5.882,0,0,1,5.875,5.877V323.307a5.882,5.882,0,0,1-5.875,5.878Zm17.643-299.8V252.766a5.881,5.881,0,0,0,5.873,5.878H252.78a5.881,5.881,0,0,0,5.873-5.878V29.388a5.881,5.881,0,0,0-5.873-5.878H29.4A5.881,5.881,0,0,0,23.524,29.388Z" transform="translate(62.812 64.462) rotate(11)" fill="#bdbfc1"/><path d="M5.878,0H229.255a5.878,5.878,0,0,1,5.878,5.878V229.255a5.878,5.878,0,0,1-5.878,5.878H5.878A5.878,5.878,0,0,1,0,229.255V5.878A5.878,5.878,0,0,1,5.878,0Z" transform="translate(81.408 92.029) rotate(11)" fill="#999"/><path d="M5.881,329.185A5.885,5.885,0,0,1,0,323.307V5.877A5.885,5.885,0,0,1,5.881,0H276.29a5.882,5.882,0,0,1,5.875,5.877V323.307a5.882,5.882,0,0,1-5.875,5.878Zm17.643-299.8V252.766a5.881,5.881,0,0,0,5.873,5.878H252.78a5.881,5.881,0,0,0,5.873-5.878V29.388a5.881,5.881,0,0,0-5.873-5.878H29.4A5.881,5.881,0,0,0,23.524,29.388Z" transform="matrix(0.978, -0.208, 0.208, 0.978, 212.641, 202.406)" fill="#bdbfc1"/><path d="M5.878,0H229.255a5.878,5.878,0,0,1,5.878,5.878V229.255a5.878,5.878,0,0,1-5.878,5.878H5.878A5.878,5.878,0,0,1,0,229.255V5.878A5.878,5.878,0,0,1,5.878,0Z" transform="matrix(0.978, -0.208, 0.208, 0.978, 240.531, 220.515)" fill="#999"/><path d="M5.881,329.185A5.885,5.885,0,0,1,0,323.307V5.877A5.885,5.885,0,0,1,5.881,0H276.29a5.882,5.882,0,0,1,5.875,5.877V323.307a5.882,5.882,0,0,1-5.875,5.878Zm17.643-299.8V252.766a5.881,5.881,0,0,0,5.873,5.878H252.78a5.881,5.881,0,0,0,5.873-5.878V29.388a5.881,5.881,0,0,0-5.873-5.878H29.4A5.881,5.881,0,0,0,23.524,29.388Z" transform="translate(423.512 45.939) rotate(-7)" fill="#bdbfc1"/><path d="M5.878,0H229.255a5.878,5.878,0,0,1,5.878,5.878V229.255a5.878,5.878,0,0,1-5.878,5.878H5.878A5.878,5.878,0,0,1,0,229.255V5.878A5.878,5.878,0,0,1,5.878,0Z" transform="translate(449.717 66.41) rotate(-7)" fill="#999"/><path d="M5.881,329.185A5.885,5.885,0,0,1,0,323.307V5.877A5.885,5.885,0,0,1,5.881,0H276.29a5.882,5.882,0,0,1,5.875,5.877V323.307a5.882,5.882,0,0,1-5.875,5.878Zm17.643-299.8V252.766a5.881,5.881,0,0,0,5.873,5.878H252.78a5.881,5.881,0,0,0,5.873-5.878V29.388a5.881,5.881,0,0,0-5.873-5.878H29.4A5.881,5.881,0,0,0,23.524,29.388Z" transform="matrix(0.999, 0.035, -0.035, 0.999, 659.256, 144.373)" fill="#bdbfc1"/><path d="M5.878,0H229.255a5.878,5.878,0,0,1,5.878,5.878V229.255a5.878,5.878,0,0,1-5.878,5.878H5.878A5.878,5.878,0,0,1,0,229.255V5.878A5.878,5.878,0,0,1,5.878,0Z" transform="matrix(0.999, 0.035, -0.035, 0.999, 681.939, 168.691)" fill="#999"/><path d="M5.881,329.185A5.885,5.885,0,0,1,0,323.307V5.877A5.885,5.885,0,0,1,5.881,0H276.29a5.882,5.882,0,0,1,5.875,5.877V323.307a5.882,5.882,0,0,1-5.875,5.878Zm17.643-299.8V252.766a5.881,5.881,0,0,0,5.873,5.878H252.78a5.881,5.881,0,0,0,5.873-5.878V29.388a5.881,5.881,0,0,0-5.873-5.878H29.4A5.881,5.881,0,0,0,23.524,29.388Z" transform="translate(837.498 324.999) rotate(-47)" fill="#bdbfc1"/><path d="M5.878,0H229.255a5.878,5.878,0,0,1,5.878,5.878V229.255a5.878,5.878,0,0,1-5.878,5.878H5.878A5.878,5.878,0,0,1,0,229.255V5.878A5.878,5.878,0,0,1,5.878,0Z" transform="translate(870.73 323.835) rotate(-47)" fill="#999"/><path d="M5.881,329.185A5.885,5.885,0,0,1,0,323.307V5.877A5.885,5.885,0,0,1,5.881,0H276.29a5.882,5.882,0,0,1,5.875,5.877V323.307a5.882,5.882,0,0,1-5.875,5.878Zm17.643-299.8V252.766a5.881,5.881,0,0,0,5.873,5.878H252.78a5.881,5.881,0,0,0,5.873-5.878V29.388a5.881,5.881,0,0,0-5.873-5.878H29.4A5.881,5.881,0,0,0,23.524,29.388Z" transform="matrix(1, -0.017, 0.017, 1, 1072.395, 30.006)" fill="#bdbfc1"/><path d="M5.878,0H229.255a5.878,5.878,0,0,1,5.878,5.878V229.255a5.878,5.878,0,0,1-5.878,5.878H5.878A5.878,5.878,0,0,1,0,229.255V5.878A5.878,5.878,0,0,1,5.878,0Z" transform="matrix(1, -0.017, 0.017, 1, 1096.318, 53.104)" fill="#999"/><path d="M5.881,329.185A5.885,5.885,0,0,1,0,323.307V5.877A5.885,5.885,0,0,1,5.881,0H276.29a5.882,5.882,0,0,1,5.875,5.877V323.307a5.882,5.882,0,0,1-5.875,5.878Zm17.643-299.8V252.766a5.881,5.881,0,0,0,5.873,5.878H252.78a5.881,5.881,0,0,0,5.873-5.878V29.388a5.881,5.881,0,0,0-5.873-5.878H29.4A5.881,5.881,0,0,0,23.524,29.388Z" transform="matrix(0.995, -0.105, 0.105, 0.995, 1285.949, 156.733)" fill="#bdbfc1"/><path d="M5.878,0H229.255a5.878,5.878,0,0,1,5.878,5.878V229.255a5.878,5.878,0,0,1-5.878,5.878H5.878A5.878,5.878,0,0,1,0,229.255V5.878A5.878,5.878,0,0,1,5.878,0Z" transform="matrix(0.995, -0.105, 0.105, 0.995, 1311.792, 177.659)" fill="#999"/><path d="M5.881,329.185A5.885,5.885,0,0,1,0,323.307V5.877A5.885,5.885,0,0,1,5.881,0H276.29a5.882,5.882,0,0,1,5.875,5.877V323.307a5.882,5.882,0,0,1-5.875,5.878Zm17.643-299.8V252.766a5.881,5.881,0,0,0,5.873,5.878H252.78a5.881,5.881,0,0,0,5.873-5.878V29.388a5.881,5.881,0,0,0-5.873-5.878H29.4A5.881,5.881,0,0,0,23.524,29.388Z" transform="translate(1517.425 0) rotate(13)"/><path d="M5.881,329.185A5.885,5.885,0,0,1,0,323.307V5.877A5.885,5.885,0,0,1,5.881,0H276.29a5.882,5.882,0,0,1,5.875,5.877V323.307a5.882,5.882,0,0,1-5.875,5.878Zm17.643-299.8V252.766a5.881,5.881,0,0,0,5.873,5.878H252.78a5.881,5.881,0,0,0,5.873-5.878V29.388a5.881,5.881,0,0,0-5.873-5.878H29.4A5.881,5.881,0,0,0,23.524,29.388Z" transform="translate(1517.425 0) rotate(13)" fill="#bdbfc1"/><path d="M5.878,0H229.255a5.878,5.878,0,0,1,5.878,5.878V229.255a5.878,5.878,0,0,1-5.878,5.878H5.878A5.878,5.878,0,0,1,0,229.255V5.878A5.878,5.878,0,0,1,5.878,0Z" transform="translate(1535.049 28.199) rotate(13)" fill="#999"/></g></svg>