<svg xmlns="http://www.w3.org/2000/svg" xmlns:xlink="http://www.w3.org/1999/xlink" width="1000" height="1000" viewBox="0 0 1000 1000">
  <defs>
    <linearGradient id="linear-gradient" x2="1.02" y2="1" gradientUnits="objectBoundingBox">
      <stop offset="0" stop-color="#fff"/>
      <stop offset="1" stop-color="#f0f0f0"/>
    </linearGradient>
    <filter id="_1" x="399" y="28" width="210" height="210" filterUnits="userSpaceOnUse">
      <feOffset dx="4" dy="8" input="SourceAlpha"/>
      <feGaussianBlur stdDeviation="10" result="blur"/>
      <feFlood flood-opacity="0.161"/>
      <feComposite operator="in" in2="blur"/>
      <feComposite in="SourceGraphic"/>
    </filter>
    <filter id="_2" x="633.099" y="106.769" width="272.132" height="272.132" filterUnits="userSpaceOnUse">
      <feOffset dx="4" dy="8" input="SourceAlpha"/>
      <feGaussianBlur stdDeviation="10" result="blur-2"/>
      <feFlood flood-opacity="0.161"/>
      <feComposite operator="in" in2="blur-2"/>
      <feComposite in="SourceGraphic"/>
    </filter>
    <linearGradient id="linear-gradient-3" x1="0.5" x2="0.5" y2="1" gradientUnits="objectBoundingBox">
      <stop offset="0"/>
      <stop offset="0.474"/>
      <stop offset="0.937" stop-opacity="0"/>
      <stop offset="1" stop-opacity="0"/>
    </linearGradient>
    <linearGradient id="linear-gradient-4" x1="0.5" x2="0.478" y2="1.016" gradientUnits="objectBoundingBox">
      <stop offset="0" stop-color="#08f"/>
      <stop offset="0.69" stop-color="#08f"/>
      <stop offset="0.711" stop-color="#08f" stop-opacity="0.329"/>
      <stop offset="1" stop-color="#08f" stop-opacity="0.329"/>
    </linearGradient>
    <filter id="_3" x="774" y="404" width="210" height="210" filterUnits="userSpaceOnUse">
      <feOffset dx="4" dy="8" input="SourceAlpha"/>
      <feGaussianBlur stdDeviation="10" result="blur-3"/>
      <feFlood flood-opacity="0.161"/>
      <feComposite operator="in" in2="blur-3"/>
      <feComposite in="SourceGraphic"/>
    </filter>
    <filter id="_4" x="633.099" y="637.099" width="272.132" height="272.132" filterUnits="userSpaceOnUse">
      <feOffset dx="4" dy="8" input="SourceAlpha"/>
      <feGaussianBlur stdDeviation="10" result="blur-4"/>
      <feFlood flood-opacity="0.161"/>
      <feComposite operator="in" in2="blur-4"/>
      <feComposite in="SourceGraphic"/>
    </filter>
    <filter id="_5" x="399" y="778" width="210" height="210" filterUnits="userSpaceOnUse">
      <feOffset dx="4" dy="8" input="SourceAlpha"/>
      <feGaussianBlur stdDeviation="10" result="blur-5"/>
      <feFlood flood-opacity="0.161"/>
      <feComposite operator="in" in2="blur-5"/>
      <feComposite in="SourceGraphic"/>
    </filter>
    <filter id="_6" x="102.769" y="637.099" width="272.132" height="272.132" filterUnits="userSpaceOnUse">
      <feOffset dx="4" dy="8" input="SourceAlpha"/>
      <feGaussianBlur stdDeviation="10" result="blur-6"/>
      <feFlood flood-opacity="0.161"/>
      <feComposite operator="in" in2="blur-6"/>
      <feComposite in="SourceGraphic"/>
    </filter>
    <filter id="_7" x="24" y="403" width="210" height="210" filterUnits="userSpaceOnUse">
      <feOffset dx="4" dy="8" input="SourceAlpha"/>
      <feGaussianBlur stdDeviation="10" result="blur-7"/>
      <feFlood flood-opacity="0.161"/>
      <feComposite operator="in" in2="blur-7"/>
      <feComposite in="SourceGraphic"/>
    </filter>
    <filter id="_8" x="102.769" y="106.769" width="272.132" height="272.132" filterUnits="userSpaceOnUse">
      <feOffset dx="4" dy="8" input="SourceAlpha"/>
      <feGaussianBlur stdDeviation="10" result="blur-8"/>
      <feFlood flood-opacity="0.161"/>
      <feComposite operator="in" in2="blur-8"/>
      <feComposite in="SourceGraphic"/>
    </filter>
    <linearGradient id="linear-gradient-11" x1="0.5" x2="0.5" y2="1" gradientUnits="objectBoundingBox">
      <stop offset="0" stop-color="#ec3939"/>
      <stop offset="1" stop-color="#ed2b2b" stop-opacity="0.8"/>
    </linearGradient>
    <clipPath id="clip-timosicons">
      <rect width="1000" height="1000"/>
    </clipPath>
  </defs>
  <g id="timosicons" clip-path="url(#clip-timosicons)">
    <g id="circle">
      <g id="Gruppe_27" data-name="Gruppe 27">
        <g transform="matrix(1, 0, 0, 1, 0, 0)" filter="url(#_1)">
          <path id="_1-2" data-name="1" d="M20,0H130a20,20,0,0,1,20,20V130a20,20,0,0,1-20,20H20A20,20,0,0,1,0,130V20A20,20,0,0,1,20,0Z" transform="translate(425 50)" fill="url(#linear-gradient)"/>
        </g>
        <g id="Gruppe_19" data-name="Gruppe 19" transform="translate(438.311 58.311)">
          <g id="Gruppe_1" data-name="Gruppe 1" transform="translate(75.04 -6.5) rotate(45)">
            <path id="Vereinigungsmenge_10" data-name="Vereinigungsmenge 10" d="M51.269,106.812H5a5,5,0,0,1-5-5v-7.09a5,5,0,0,1,5-5H51.269V5a5,5,0,0,1,5-5h7.09a5,5,0,0,1,5,5v96.812a5,5,0,0,1-5,5Z" transform="translate(0 0)" fill="#2ace44"/>
          </g>
          <g id="Gruppe_2" data-name="Gruppe 2" transform="translate(66.951 -5.254) rotate(45)">
            <path id="Pfad_63" data-name="Pfad 63" d="M36.017,75.035H6A6,6,0,1,1,6,63.029H36.017V6A6,6,0,0,1,48.023,6V69.032a6,6,0,0,1-6,6Z" transform="translate(0)" fill="rgba(42,206,68,0.5)"/>
          </g>
        </g>
      </g>
      <g id="Gruppe_32" data-name="Gruppe 32">
        <g transform="matrix(1, 0, 0, 1, 0, 0)" filter="url(#_2)">
          <rect id="_2-2" data-name="2" width="150" height="150" rx="20" transform="translate(765.17 128.77) rotate(45)" fill="url(#linear-gradient)"/>
        </g>
        <g id="Gruppe_22" data-name="Gruppe 22" transform="translate(765 164.289) rotate(45)">
          <path id="Differenzmenge_10" data-name="Differenzmenge 10" d="M-290-268a49.689,49.689,0,0,1-19.463-3.929,49.834,49.834,0,0,1-15.893-10.715,49.833,49.833,0,0,1-10.715-15.893A49.686,49.686,0,0,1-340-318a49.688,49.688,0,0,1,3.929-19.463,49.833,49.833,0,0,1,10.715-15.893,49.832,49.832,0,0,1,15.893-10.715A49.688,49.688,0,0,1-290-368a49.686,49.686,0,0,1,19.462,3.929,49.832,49.832,0,0,1,15.893,10.715,49.834,49.834,0,0,1,10.715,15.893A49.688,49.688,0,0,1-240-318a49.686,49.686,0,0,1-3.929,19.462,49.834,49.834,0,0,1-10.715,15.893,49.834,49.834,0,0,1-15.893,10.715A49.686,49.686,0,0,1-290-268Zm0-94a44.05,44.05,0,0,0-44,44,44.05,44.05,0,0,0,44,44,44.05,44.05,0,0,0,44-44A44.05,44.05,0,0,0-290-362Z" transform="translate(340 368)" opacity="0" fill="url(#linear-gradient-3)"/>
          <path id="Pfad" d="M60.055,0C44.465,0,34.368,6.387,26.44,17.779A4.692,4.692,0,0,0,27.452,24.2l8.425,6.388a4.687,4.687,0,0,0,6.495-.81c4.892-6.129,8.521-9.658,16.163-9.658,6.009,0,13.441,3.867,13.441,9.694,0,4.4-3.636,6.667-9.569,9.993-6.919,3.879-16.074,8.706-16.074,20.782V62.5a4.687,4.687,0,0,0,4.688,4.687H65.175A4.687,4.687,0,0,0,69.862,62.5V61.372C69.862,53,94.329,52.653,94.329,30,94.329,12.941,76.633,0,60.055,0ZM58.1,72.941a13.529,13.529,0,1,0,13.53,13.529A13.545,13.545,0,0,0,58.1,72.941Z" transform="translate(-9.669)" fill="url(#linear-gradient-4)"/>
        </g>
      </g>
      <g id="Gruppe_29" data-name="Gruppe 29" transform="translate(0 1)">
        <g transform="matrix(1, 0, 0, 1, 0, -1)" filter="url(#_3)">
          <rect id="_3-2" data-name="3" width="150" height="150" rx="20" transform="translate(950 426) rotate(90)" fill="url(#linear-gradient)"/>
        </g>
        <g id="Gruppe_13" data-name="Gruppe 13" transform="translate(878.592 418.271) rotate(45)">
          <path id="Rechteck_6" data-name="Rechteck 6" d="M0,0H38.059a8.783,8.783,0,0,1,8.783,8.783v0a8.783,8.783,0,0,1-8.783,8.783H0a0,0,0,0,1,0,0V0A0,0,0,0,1,0,0Z" transform="translate(64.842 73.19) rotate(90)" fill="rgba(0,0,0,0.5)"/>
          <path id="Differenzmenge_14" data-name="Differenzmenge 14" d="M41.6,83.2A41.613,41.613,0,0,1,25.409,3.269,41.612,41.612,0,0,1,57.8,79.934,41.34,41.34,0,0,1,41.6,83.2Zm0-67.983A26.381,26.381,0,1,0,67.983,41.6,26.411,26.411,0,0,0,41.6,15.22Z" transform="translate(13.872 1.529)"/>
        </g>
      </g>
      <g id="Gruppe_30" data-name="Gruppe 30">
        <g transform="matrix(1, 0, 0, 1, 0, 0)" filter="url(#_4)">
          <rect id="_4-2" data-name="4" width="150" height="150" rx="20" transform="translate(871.23 765.17) rotate(135)" fill="url(#linear-gradient)"/>
        </g>
        <path id="Vereinigungsmenge_33" data-name="Vereinigungsmenge 33" d="M-242.228-532.795a1.322,1.322,0,0,1-1.359-1.281v-16.644A1.322,1.322,0,0,1-242.228-552h6.795a6.608,6.608,0,0,1,6.8,6.4v6.4a6.608,6.608,0,0,1-6.8,6.4Zm-80.8,0a1.177,1.177,0,0,1-.121-.006c-.04,0-.081.006-.121.006a1.25,1.25,0,0,1-.6-.152l-15.533-8.473a1.138,1.138,0,0,1-.535-.62s0,0,0,0a.142.142,0,0,0-.006-.018s0-.008,0-.013l0-.009c0-.007,0-.013-.006-.02s0,0,0,0a1.07,1.07,0,0,1-.04-.265v-.009a.1.1,0,0,1,0-.017.108.108,0,0,1,0-.017v-.008a1.057,1.057,0,0,1,.048-.293h0a.206.206,0,0,0,.007-.022l0-.007.005-.016.005-.014,0-.008.01-.023a1.111,1.111,0,0,1,.289-.408l0,0,.011-.01.015-.013,0,0a1.168,1.168,0,0,1,.219-.145l15.51-8.461A1.249,1.249,0,0,1-323.2-552l.067,0h74.061a1.323,1.323,0,0,1,1.359,1.281v16.644a1.322,1.322,0,0,1-1.359,1.28H-323.03Zm.333-2.121,2.193-3.948-2.691-3.534,2.691-3.534-2.193-3.947-7.974,4.349v6.265Zm17.9-10.99a1.936,1.936,0,0,0,1.989,1.873h49.027a1.936,1.936,0,0,0,1.989-1.873,1.936,1.936,0,0,0-1.989-1.872H-302.81A1.935,1.935,0,0,0-304.8-545.9Z" transform="matrix(-0.259, 0.966, -0.966, -0.259, 167.474, 899.405)" fill="#8b4108"/>
      </g>
      <g id="Gruppe_28" data-name="Gruppe 28">
        <g transform="matrix(1, 0, 0, 1, 0, 0)" filter="url(#_5)">
          <rect id="_5-2" data-name="5" width="150" height="150" rx="20" transform="translate(425 800)" fill="url(#linear-gradient)"/>
        </g>
        <g id="Gruppe_17" data-name="Gruppe 17" transform="translate(560.72 934.944) rotate(180)">
          <path id="Pfad-2" data-name="Pfad" d="M98.166,60.282l-7.227-4.173a32.677,32.677,0,0,0,0-11.909l7.227-4.173a2.05,2.05,0,0,0,.933-2.375A42.252,42.252,0,0,0,89.82,21.6a2.041,2.041,0,0,0-2.511-.39l-7.227,4.173a32.016,32.016,0,0,0-10.314-5.955V11.1a2.032,2.032,0,0,0-1.595-1.985,42.648,42.648,0,0,0-18.525,0A2.032,2.032,0,0,0,48.053,11.1v8.347A33.027,33.027,0,0,0,37.738,25.4l-7.21-4.173a2.016,2.016,0,0,0-2.511.39,42,42,0,0,0-9.28,16.048,2.029,2.029,0,0,0,.933,2.375L26.9,44.217a32.677,32.677,0,0,0,0,11.909L19.671,60.3a2.05,2.05,0,0,0-.933,2.375,42.252,42.252,0,0,0,9.28,16.048,2.041,2.041,0,0,0,2.511.39l7.227-4.173A32.016,32.016,0,0,0,48.07,80.894v8.347a2.032,2.032,0,0,0,1.595,1.985,42.648,42.648,0,0,0,18.525,0,2.032,2.032,0,0,0,1.595-1.985V80.894A33.026,33.026,0,0,0,80.1,74.939l7.227,4.173a2.016,2.016,0,0,0,2.511-.39,42,42,0,0,0,9.28-16.048A2.1,2.1,0,0,0,98.166,60.282ZM58.91,63.726A13.572,13.572,0,1,1,72.482,50.154,13.59,13.59,0,0,1,58.91,63.726Z" transform="translate(-16.644 21.645)"/>
          <path id="Pfad-3" data-name="Pfad" d="M53.012,30.652l-3.123-1.8a14.122,14.122,0,0,0,0-5.147l3.123-1.8a.886.886,0,0,0,.4-1.026,18.26,18.26,0,0,0-4.01-6.936.882.882,0,0,0-1.085-.169L45.2,15.57A13.837,13.837,0,0,0,40.738,13V9.4a.878.878,0,0,0-.689-.858,18.431,18.431,0,0,0-8.006,0,.878.878,0,0,0-.689.858V13A14.273,14.273,0,0,0,26.9,15.577l-3.116-1.8a.871.871,0,0,0-1.085.169,18.15,18.15,0,0,0-4.01,6.936.877.877,0,0,0,.4,1.026l3.123,1.8a14.122,14.122,0,0,0,0,5.147l-3.123,1.8a.886.886,0,0,0-.4,1.026,18.26,18.26,0,0,0,4.01,6.936.882.882,0,0,0,1.085.169l3.123-1.8a13.837,13.837,0,0,0,4.458,2.573v3.607a.878.878,0,0,0,.689.858,18.431,18.431,0,0,0,8.006,0,.878.878,0,0,0,.689-.858V39.56A14.273,14.273,0,0,0,45.2,36.986l3.123,1.8a.871.871,0,0,0,1.085-.169,18.151,18.151,0,0,0,4.01-6.936A.905.905,0,0,0,53.012,30.652ZM36.046,32.14a5.865,5.865,0,1,1,5.865-5.865A5.873,5.873,0,0,1,36.046,32.14Z" transform="translate(46.464 -2.099)" fill="rgba(0,0,0,0.66)"/>
          <path id="Pfad-4" data-name="Pfad" d="M53.012,30.652l-3.123-1.8a14.122,14.122,0,0,0,0-5.147l3.123-1.8a.886.886,0,0,0,.4-1.026,18.26,18.26,0,0,0-4.01-6.936.882.882,0,0,0-1.085-.169L45.2,15.57A13.837,13.837,0,0,0,40.738,13V9.4a.878.878,0,0,0-.689-.858,18.431,18.431,0,0,0-8.006,0,.878.878,0,0,0-.689.858V13A14.273,14.273,0,0,0,26.9,15.577l-3.116-1.8a.871.871,0,0,0-1.085.169,18.15,18.15,0,0,0-4.01,6.936.877.877,0,0,0,.4,1.026l3.123,1.8a14.122,14.122,0,0,0,0,5.147l-3.123,1.8a.886.886,0,0,0-.4,1.026,18.26,18.26,0,0,0,4.01,6.936.882.882,0,0,0,1.085.169l3.123-1.8a13.837,13.837,0,0,0,4.458,2.573v3.607a.878.878,0,0,0,.689.858,18.431,18.431,0,0,0,8.006,0,.878.878,0,0,0,.689-.858V39.56A14.273,14.273,0,0,0,45.2,36.986l3.123,1.8a.871.871,0,0,0,1.085-.169,18.151,18.151,0,0,0,4.01-6.936A.905.905,0,0,0,53.012,30.652ZM36.046,32.14a5.865,5.865,0,1,1,5.865-5.865A5.873,5.873,0,0,1,36.046,32.14Z" transform="translate(66.098 32.961)" fill="rgba(0,0,0,0.33)"/>
        </g>
      </g>
      <g id="Gruppe_33" data-name="Gruppe 33">
        <g transform="matrix(1, 0, 0, 1, 0, 0)" filter="url(#_6)">
          <rect id="_6-2" data-name="6" width="150" height="150" rx="20" transform="translate(234.83 659.1) rotate(45)" fill="url(#linear-gradient)"/>
        </g>
        <g id="Gruppe_11" data-name="Gruppe 11" transform="translate(242.215 848.426) rotate(-135)">
          <path id="Vereinigungsmenge_21" data-name="Vereinigungsmenge 21" d="M6.274,77.335C-.967,74.921.049,69.852.049,69.852s2.4-12.685,6.225-17.464c6.236-7.8,22.452-4.989,22.452-4.989s8.731,4.989,14.968,4.989S58.662,47.4,58.662,47.4s16.216-2.807,22.452,4.989c3.867,4.834,6.329,17.464,6.329,17.464s.781,5.113-6.329,7.483c-9.355,3.119-23.388,4.678-37.42,4.678S15.628,80.454,6.274,77.335ZM23.736,19.957A19.958,19.958,0,1,1,43.694,39.915,19.958,19.958,0,0,1,23.736,19.957Z" transform="translate(5.938 16.895)" fill="#2ace44" stroke="#2ace44" stroke-linecap="round" stroke-linejoin="round" stroke-width="3"/>
          <path id="Vereinigungsmenge_4" data-name="Vereinigungsmenge 4" d="M19.958,39.915H3.742a3.742,3.742,0,0,1,0-7.484H16.216V3.741a3.742,3.742,0,1,1,7.484,0V36.173a3.742,3.742,0,0,1-3.741,3.742Z" transform="translate(104.676 7.969) rotate(45)" fill="rgba(42,206,68,0.66)"/>
        </g>
      </g>
      <g transform="matrix(1, 0, 0, 1, 0, 0)" filter="url(#_7)">
        <rect id="_7-2" data-name="7" width="150" height="150" rx="20" transform="translate(200 425) rotate(90)" fill="url(#linear-gradient)"/>
      </g>
      <g id="Gruppe_31" data-name="Gruppe 31">
        <g transform="matrix(1, 0, 0, 1, 0, 0)" filter="url(#_8)">
          <rect id="_8-2" data-name="8" width="150" height="150" rx="20" transform="translate(340.9 234.83) rotate(135)" fill="url(#linear-gradient)"/>
        </g>
        <g id="Gruppe_9" data-name="Gruppe 9" transform="translate(169.952 233.48) rotate(-45)">
          <g id="Pfad_12" data-name="Pfad 12" transform="translate(-348.25 -177.516)" fill="#f61d33" stroke-linecap="round" stroke-linejoin="round">
            <path d="M 407.9043273925781 275.258544921875 L 404.4758605957031 273.8871765136719 L 380.2022094726562 264.1777038574219 L 355.9285278320312 273.8871765136719 L 352.5000610351562 275.258544921875 L 352.5000610351562 271.5659790039062 L 352.5000610351562 201.0000152587891 L 352.5000610351562 198.5000152587891 L 355.0000610351562 198.5000152587891 L 405.4043273925781 198.5000152587891 L 407.9043273925781 198.5000152587891 L 407.9043273925781 201.0000152587891 L 407.9043273925781 271.5659790039062 L 407.9043273925781 275.258544921875 Z" stroke="none"/>
            <path d="M 355.0000610351562 201 L 355.0000610351562 271.5659790039062 L 380.2022094726562 261.4851379394531 L 405.4043273925781 271.5659790039062 L 405.4043273925781 201 L 355.0000610351562 201 M 355.0000610351562 196 L 405.4043273925781 196 C 408.1657409667969 196 410.4043273925781 198.2385864257812 410.4043273925781 201 L 410.4043273925781 271.5659790039062 C 410.4043273925781 273.22509765625 409.5813293457031 274.7761840820312 408.2074890136719 275.706298828125 C 407.3680114746094 276.274658203125 406.389404296875 276.5659790039062 405.4039306640625 276.5659790039062 C 404.7765808105469 276.5659790039062 404.1465759277344 276.4480590820312 403.5473937988281 276.2083740234375 L 380.2022094726562 266.8703002929688 L 356.8569946289062 276.2083740234375 C 356.2579040527344 276.447998046875 355.6277160644531 276.5659790039062 355.0004577636719 276.5659790039062 C 354.0148620605469 276.5659790039062 353.0364685058594 276.2747192382812 352.1969299316406 275.706298828125 C 350.8230590820312 274.7761840820312 350.0000610351562 273.22509765625 350.0000610351562 271.5659790039062 L 350.0000610351562 201 C 350.0000610351562 198.2385864257812 352.2386474609375 196 355.0000610351562 196 Z" stroke="none" fill="#f61d33"/>
          </g>
          <path id="Differenzmenge_7" data-name="Differenzmenge 7" d="M53.277,85.917H39.808V21.523a6.007,6.007,0,0,0-6-6H0V10A10.011,10.011,0,0,1,10,0H47.278a10.011,10.011,0,0,1,10,10V81.917A4,4,0,0,1,53.277,85.917Z" transform="translate(25.652)" fill="rgba(246,29,51,0.33)"/>
        </g>
      </g>
      <g id="Gruppe_5" data-name="Gruppe 5" transform="translate(62.317 540.315) rotate(-90)">
        <path id="Pfad_27" data-name="Pfad 27" d="M0,0H58.055A23.4,23.4,0,0,0,56.64,6.961,14.36,14.36,0,0,0,58.055,12.9H0Z" transform="translate(16.126 87.194)" fill="rgba(50,88,60,0.33)"/>
        <path id="Differenzmenge_9" data-name="Differenzmenge 9" d="M77.633,100H10A10.011,10.011,0,0,1,0,90V16.129A16.128,16.128,0,0,1,16.127,0H75.8a4.844,4.844,0,0,1,4.838,4.839V69.355A4.843,4.843,0,0,1,75.8,74.193H20a4.034,4.034,0,0,0-3.871,4v4.9a4,4,0,0,0,4,4H80.633V97A3,3,0,0,1,77.633,100ZM39.1,52.983a13.271,13.271,0,0,1,3.974.594,18.827,18.827,0,0,1,2.341.925c.824.385,2.049,1.069,3.642,2.032a28.521,28.521,0,0,0,4.339,2.2,7.905,7.905,0,0,0,2.9.48A4.952,4.952,0,0,0,59.465,58.1a4.415,4.415,0,0,0,1.028-1.279,2.881,2.881,0,0,0,.388-1.314,2.2,2.2,0,0,0-.137-.879A1.4,1.4,0,0,0,59.465,53.6a3.256,3.256,0,0,1-1.188,1.485,5.651,5.651,0,0,0,.092-1.188,2.2,2.2,0,0,0-.731-1.393,2.135,2.135,0,0,0-1.119-.571,2.606,2.606,0,0,1-.7,1.233,2.555,2.555,0,0,1-1.382.708,2.771,2.771,0,0,0,.068-.662,1.1,1.1,0,0,0-.411-.777,2.36,2.36,0,0,0-.936-.548,3.2,3.2,0,0,1-2.831,1.3c-.611-.194-1.287-.432-2.01-.708l-1.462-.526c-.489-.168-.958-.314-1.393-.434a12.277,12.277,0,0,0,6.509-5.116,17.172,17.172,0,0,0,1.918-4.1,26.53,26.53,0,0,0,1.05-5.093,4.452,4.452,0,0,1,2.307-3.8,4.2,4.2,0,0,1-2.329-3.677c-.47-4.365-2.068-7.807-4.75-10.232a14.1,14.1,0,0,0-9.8-3.517,14.016,14.016,0,0,0-9.841,3.792,14.934,14.934,0,0,0-3.2,4.339,16.8,16.8,0,0,0-1.609,5.447c-.235,1.933-1.022,3.228-2.341,3.848a3.687,3.687,0,0,1,1.587,1.451,7.863,7.863,0,0,1,.788,2.981,20.367,20.367,0,0,0,.958,4.2c1.455,4.425,4.09,7.491,7.833,9.113-2.212.682-3.334,2.033-3.334,4.019a2.74,2.74,0,0,0,.89,2.011,3.172,3.172,0,0,0,2.238.936,6.884,6.884,0,0,1,1.518-3.854A4.2,4.2,0,0,1,39.1,52.983Zm1.256-3.746a6,6,0,0,1-1.987-.319c-2.045-.7-3.083-2.3-3.083-4.774V37.362a4.111,4.111,0,0,1,2.512-3.952,3.782,3.782,0,0,1-2.512-3.677V24.275a6.371,6.371,0,0,1,.388-2.33,4.549,4.549,0,0,1,4.658-2.923,4.878,4.878,0,0,1,3.449,1.3,5.225,5.225,0,0,1,1.484,3.951v5.458A3.834,3.834,0,0,1,42.8,33.41a4.117,4.117,0,0,1,2.466,3.952v6.782a5.083,5.083,0,0,1-1.37,3.814,4.3,4.3,0,0,1-1.564.959A5.906,5.906,0,0,1,40.352,49.237ZM30.9,45.561h0a9.114,9.114,0,0,1-.981-1.529c-.849-1.576-1.556-4.757-2.1-9.455-.045-.394-.5-.787-1.347-1.165.849-.348,1.3-.724,1.347-1.119a32.654,32.654,0,0,1,1.347-6.555,9.149,9.149,0,0,1,1.53-2.672.376.376,0,0,1,.3.388,3.526,3.526,0,0,1-.16.868,28.451,28.451,0,0,0-1.278,9.089c0,4.865.407,8.262,1.21,10.1a4.481,4.481,0,0,1,.48,1.576.488.488,0,0,1-.341.479Zm16.556,0v0a13.425,13.425,0,0,0,.456-2.625c.061-.564.107-1.183.137-1.838s.046-1.543.046-2.627-.077-2.391-.229-3.871c-.045-.379-.529-.778-1.438-1.188a3.732,3.732,0,0,0,.891-.434,2.742,2.742,0,0,0,.456-.411,8.6,8.6,0,0,0,.229-2.9,23.575,23.575,0,0,0-.64-6.6,1.441,1.441,0,0,1,.777.388A6.035,6.035,0,0,1,49.28,26.81c.09.7.16,1.6.205,2.683s.068,2.721.068,4.888-.038,4.153-.114,5.9c-.136,3.135-.8,4.91-1.984,5.275Z" transform="translate(-0.001 13)" fill="#70466f"/>
      </g>
    </g>
    <animateTransform xlink:href="#circle"
      attributeName="transform"
      type="rotate"
      from="0 500 500" 
      to="360 500 500"
      dur="30s"
      repeatCount="indefinite"
	  />
    <path id="herz" d="M287.3,51c-34.056-29.023-84.706-23.8-115.966,8.452L159.091,72.072,146.848,59.456C115.651,27.2,64.939,21.982,30.882,51-8.146,84.315-10.2,144.1,24.73,180.208L144.984,304.377a19.483,19.483,0,0,0,28.153,0L293.391,180.208C328.38,144.1,326.329,84.315,287.3,51Z" transform="translate(340.913 328.572)" fill="url(#linear-gradient-11)"/>
  </g>
</svg>
