<svg xmlns="http://www.w3.org/2000/svg" xmlns:xlink="http://www.w3.org/1999/xlink" width="1074" height="299" viewBox="0 0 1074 299">
  <defs>
    <clipPath id="clip-logo">
      <rect width="1074" height="299"/>
    </clipPath>
  </defs>
  <g id="logo" clip-path="url(#clip-logo)">
    <path id="Pfad_2" data-name="Pfad 2" d="M5.479-34.116c.747,22.5,19.092,36.191,47.9,36.191,29.717,0,48.56-14.692,48.56-37.935,0-18.262-10.459-28.555-34.448-33.7L52.959-72.632c-13.779-3.154-19.59-7.3-19.59-14.692,0-8.882,8.3-14.775,20.669-14.775,12.534,0,21.416,6.143,22.246,16.27H99.775c-.415-21.665-17.93-36.025-45.82-36.025-26.729,0-45.82,14.609-45.82,36.689,0,17.515,10.874,28.721,32.954,33.452l15.605,3.4c14.443,3.237,20.171,7.554,20.171,15.356,0,8.8-9.131,15.19-22.5,15.19-13.281,0-23.574-6.475-24.736-16.353ZM196.064-55.864c-1.079-20.171-16.353-35.029-40.425-35.029-26.646,0-43.662,17.764-43.662,46.318,0,29.053,17.017,46.484,43.828,46.484,23.408,0,39.1-13.53,40.342-34.531H173.569c-1.494,9.712-7.8,15.522-17.515,15.522-12.036,0-19.507-9.961-19.507-27.476,0-17.183,7.471-27.31,19.424-27.31,9.961,0,16.187,6.641,17.6,16.021ZM208.433,0h24.238V-50.8c0-11.7,6.724-19.756,18.179-19.756,11.04,0,16.685,6.973,16.685,18.428V0h24.238V-57.275c0-20.586-11.289-33.369-31.045-33.369-13.53,0-23.242,6.309-27.974,17.515h-.5v-46.65H208.433ZM347.139-72.964c10.791,0,18.179,7.8,18.677,19.175H328.047C328.877-64.912,336.514-72.964,347.139-72.964Zm19.009,45.737c-2.241,6.807-9.048,11.206-17.93,11.206-12.368,0-20.42-8.716-20.42-21.416v-1.494h61.343v-7.388c0-27.061-16.353-44.575-42.251-44.575-26.313,0-42.915,18.428-42.915,46.816,0,28.472,16.436,45.986,43.828,45.986,22,0,37.935-11.7,40.591-29.136ZM483.77-88.984H459.531v50.967c0,11.787-6.724,19.507-17.515,19.507-10.708,0-16.6-6.309-16.6-18.179V-88.984H401.177v57.358c0,20.752,12.783,33.286,32.041,33.286,13.447,0,22.246-6.475,26.646-17.681h.5V0H483.77Zm55.7,16.021c10.791,0,18.179,7.8,18.677,19.175H520.376C521.206-64.912,528.843-72.964,539.468-72.964Zm19.009,45.737c-2.241,6.807-9.048,11.206-17.93,11.206-12.368,0-20.42-8.716-20.42-21.416v-1.494H581.47v-7.388c0-27.061-16.353-44.575-42.251-44.575-26.313,0-42.915,18.428-42.915,46.816,0,28.472,16.436,45.986,43.828,45.986,22,0,37.935-11.7,40.591-29.136ZM593.921,0h24.238V-49.722c0-12.534,6.973-19.839,18.926-19.839a24.944,24.944,0,0,1,8.8,1.411V-89.482a24.689,24.689,0,0,0-6.89-.913c-10.459,0-18.013,6.143-21.167,17.432h-.5V-88.984H593.921Zm61.841,0H680V-53.706c0-9.961,6.226-16.934,15.439-16.934,8.965,0,14.36,5.645,14.36,15.19V0h23.325V-54.038c0-9.878,6.06-16.6,15.273-16.6,9.38,0,14.526,5.645,14.526,15.938V0h24.238V-60.762c0-17.93-11.7-29.883-29.136-29.883-13.032,0-23.657,7.056-27.642,18.262h-.5C726.9-84,717.935-90.645,705.068-90.645c-12.119,0-21.665,7.056-25.4,17.764h-.5v-16.1H655.762ZM836.885-16.1c-8.218,0-13.7-4.15-13.7-10.791,0-6.309,5.146-10.376,14.194-11.04l18.76-1.162v6.475C856.143-22.993,847.427-16.1,836.885-16.1ZM828.916,1.411c11.123,0,22.163-5.562,27.144-15.024h.5V0h23.408V-61.177c0-17.93-14.858-29.717-37.686-29.717-23.574,0-38.267,11.87-39.18,29.136h22.163c1.162-6.558,6.89-11.04,15.938-11.04,9.131,0,14.941,4.814,14.941,13.115v5.894L833.73-52.461c-22.163,1.328-34.614,10.708-34.614,26.895C799.116-9.546,811.982,1.411,828.916,1.411ZM895.571,0H919.81V-51.05c0-11.538,6.89-19.507,17.764-19.507s16.353,6.641,16.353,18.262V0h24.238V-57.358c0-20.835-11.123-33.286-30.879-33.286-13.7,0-23.076,6.475-27.808,17.515h-.5V-88.984H895.571Zm97.949,0h24.238V-51.05c0-11.538,6.89-19.507,17.764-19.507s16.353,6.641,16.353,18.262V0h24.238V-57.358c0-20.835-11.123-33.286-30.879-33.286-13.7,0-23.076,6.475-27.808,17.515h-.5V-88.984H993.521Z" transform="translate(-5 297.355)" stroke="#000" stroke-width="1"/>
    <path id="Pfad_1" data-name="Pfad 1" d="M63.667,0V-99.111h34.7V-119.78H3.984v20.669H38.6V0Zm43.164,0h24.238V-88.984H106.831ZM118.95-98.779A12.619,12.619,0,0,0,131.9-111.313c0-7.056-5.645-12.534-12.949-12.534S106-118.369,106-111.313A12.619,12.619,0,0,0,118.95-98.779ZM147.173,0h24.238V-53.706c0-9.961,6.226-16.934,15.439-16.934,8.965,0,14.36,5.645,14.36,15.19V0h23.325V-54.038c0-9.878,6.06-16.6,15.273-16.6,9.38,0,14.526,5.645,14.526,15.938V0h24.238V-60.762c0-17.93-11.7-29.883-29.136-29.883-13.032,0-23.657,7.056-27.642,18.262h-.5C218.311-84,209.346-90.645,196.479-90.645c-12.119,0-21.665,7.056-25.4,17.764h-.5v-16.1H147.173Zm187.6,1.909c26.895,0,44.077-17.183,44.077-46.484,0-28.887-17.432-46.318-44.077-46.318s-44.077,17.515-44.077,46.318C290.693-15.356,307.876,1.909,334.771,1.909Zm0-18.511c-11.953,0-19.507-10.044-19.507-27.891,0-17.681,7.72-27.891,19.507-27.891s19.424,10.21,19.424,27.891C354.194-26.646,346.641-16.6,334.771-16.6Z" transform="translate(-4 124)" stroke="#000" stroke-width="1" opacity="0.5"/>
  </g>
</svg>
