<svg xmlns="http://www.w3.org/2000/svg" xmlns:xlink="http://www.w3.org/1999/xlink" width="100" height="100" viewBox="0 0 100 100">
  <defs>
    <clipPath id="clip-code">
      <rect width="100" height="100"/>
    </clipPath>
  </defs>
  <g id="code" clip-path="url(#clip-code)">
    <path id="Vereinigungsmenge_35" data-name="Vereinigungsmenge 35" d="M-224.269-529.267a1.564,1.564,0,0,1-1.609-1.516v-19.7A1.564,1.564,0,0,1-224.269-552h8.043a7.822,7.822,0,0,1,8.044,7.578v7.578a7.822,7.822,0,0,1-8.044,7.578Zm-95.644,0a1.385,1.385,0,0,1-.143-.007q-.071.007-.143.007a1.479,1.479,0,0,1-.707-.18l-18.386-10.029a1.348,1.348,0,0,1-.634-.734s0,0,0-.005a.17.17,0,0,0-.007-.021c0-.005,0-.01,0-.015l0-.011c0-.009-.005-.016-.007-.023s0,0,0,0A1.268,1.268,0,0,1-340-540.6v-.011a.122.122,0,0,1,0-.02.13.13,0,0,1,0-.02v-.01a1.25,1.25,0,0,1,.056-.346h0a.246.246,0,0,0,.009-.026l0-.009.006-.019.006-.017,0-.01.012-.028a1.315,1.315,0,0,1,.342-.483l0,0,.013-.012a.211.211,0,0,1,.018-.015l0,0a1.387,1.387,0,0,1,.259-.172l18.359-10.015a1.479,1.479,0,0,1,.787-.177l.08,0h87.665a1.566,1.566,0,0,1,1.609,1.516v19.7a1.565,1.565,0,0,1-1.609,1.515h-87.537Zm.395-2.51,2.6-4.673-3.185-4.183,3.185-4.183-2.6-4.672-9.439,5.148v7.416Zm21.185-13.008a2.291,2.291,0,0,0,2.354,2.217h58.032a2.292,2.292,0,0,0,2.354-2.217A2.291,2.291,0,0,0-237.946-547h-58.032A2.291,2.291,0,0,0-298.333-544.785Z" transform="translate(623.739 240.116) rotate(-45)"/>
    <path id="Differenzmenge_20" data-name="Differenzmenge 20" d="M-936.562-833.542a2.979,2.979,0,0,1-2.121-.877L-967.2-862.934l8.946-8.946.935.935a.993.993,0,0,0,.707.292.993.993,0,0,0,.707-.292l6.611-6.611,7.778,7.778-6.61,6.611a1,1,0,0,0,0,1.414L-946-859.63a.993.993,0,0,0,.707.292.993.993,0,0,0,.707-.292l6.611-6.611,7.778,7.778-6.61,6.61a.994.994,0,0,0-.293.707.994.994,0,0,0,.293.707l2.121,2.121a.993.993,0,0,0,.707.292.993.993,0,0,0,.707-.292l6.611-6.61,4.244,4.244a2.98,2.98,0,0,1,.877,2.121,2.98,2.98,0,0,1-.877,2.121l-12.02,12.02A2.982,2.982,0,0,1-936.562-833.542Zm-51.925-50.681h0l-29.392-29.392a2.978,2.978,0,0,1-.877-2.121,2.981,2.981,0,0,1,.878-2.122l12.021-12.021a2.979,2.979,0,0,1,2.121-.877,2.979,2.979,0,0,1,2.121.877l3.534,3.534-6.611,6.611a1,1,0,0,0,0,1.414l2.121,2.121a.993.993,0,0,0,.707.292.993.993,0,0,0,.707-.292l6.611-6.611,7.778,7.778-6.61,6.61a.994.994,0,0,0-.293.708.992.992,0,0,0,.293.706l2.121,2.121a.993.993,0,0,0,.707.292.993.993,0,0,0,.707-.292l6.611-6.611,7.778,7.778-6.61,6.61a1,1,0,0,0,0,1.415l2.121,2.121a.993.993,0,0,0,.528.276l-9.071,9.071Z" transform="translate(1020 932)"/>
  </g>
</svg>
