<svg xmlns="http://www.w3.org/2000/svg" xmlns:xlink="http://www.w3.org/1999/xlink" width="100" height="100" viewBox="0 0 100 100">
  <defs>
    <clipPath id="clip-contact">
      <rect width="100" height="100"/>
    </clipPath>
  </defs>
  <g id="contact" clip-path="url(#clip-contact)">
    <path id="Differenzmenge_18" data-name="Differenzmenge 18" d="M-800-832a49.771,49.771,0,0,1-18.3-3.454,49.8,49.8,0,0,1-15.263-9.485,49.85,49.85,0,0,1-16.148-31.8A47.775,47.775,0,0,1-850-882a47.774,47.774,0,0,1,.288-5.264,49.85,49.85,0,0,1,16.148-31.8,49.8,49.8,0,0,1,15.263-9.485A49.771,49.771,0,0,1-800-932a49.7,49.7,0,0,1,19.465,3.929,49.822,49.822,0,0,1,15.893,10.714,49.822,49.822,0,0,1,10.714,15.893A49.7,49.7,0,0,1-750-882a49.7,49.7,0,0,1-3.929,19.465,49.822,49.822,0,0,1-10.714,15.893,49.822,49.822,0,0,1-15.893,10.714A49.7,49.7,0,0,1-800-832Zm-32.588-21.567h0A43.259,43.259,0,0,0-800-838.75a43.261,43.261,0,0,0,32.633-14.865l.006,0,0,0A43.093,43.093,0,0,0-756.731-882,42.99,42.99,0,0,0-769.4-912.6,42.99,42.99,0,0,0-800-925.269,42.99,42.99,0,0,0-830.6-912.6,42.99,42.99,0,0,0-843.269-882,43.153,43.153,0,0,0-832.6-853.563l.007,0Z" transform="translate(850 932)"/>
    <path id="Schnittmenge_4" data-name="Schnittmenge 4" d="M-832.589-853.565c5.073-2.019,13.53-5,19.224-6.68.528-.168.625-.193.625-2.572a13.42,13.42,0,0,0-.913-5.673,29.107,29.107,0,0,1-2.211-7.6c-1.01-1.178-2.38-3.486-3.27-7.909-.793-3.894-.409-5.313.1-6.635.049-.144.1-.264.145-.432a43.331,43.331,0,0,0-.745-9.328,17.1,17.1,0,0,1,3.605-12.332c2.211-2.812,6.395-6.25,13.942-6.73h4.208c7.668.481,11.875,3.918,14.063,6.73a17.174,17.174,0,0,1,3.581,12.332,43.269,43.269,0,0,0-.745,9.328c.024.12.1.264.144.409.5,1.322.866,2.74.1,6.634-.865,4.423-2.259,6.731-3.269,7.909a27.961,27.961,0,0,1-2.211,7.6,13.674,13.674,0,0,0-1.587,5.6c0,2.356.072,2.4.649,2.572,5.5,1.633,14.338,4.66,19.8,6.727A43.153,43.153,0,0,1-800-838.75,43.15,43.15,0,0,1-832.589-853.565Z" transform="translate(850 932)"/>
  </g>
</svg>
