<svg xmlns="http://www.w3.org/2000/svg" xmlns:xlink="http://www.w3.org/1999/xlink" width="100" height="100" viewBox="0 0 100 100">
  <defs>
    <clipPath id="clip-devices">
      <rect width="100" height="100"/>
    </clipPath>
  </defs>
  <g id="devices" clip-path="url(#clip-devices)">
    <g id="Gruppe_15" data-name="Gruppe 15" transform="translate(10 -12.999)">
      <path id="Pfad_27" data-name="Pfad 27" d="M0,0H58.055A23.4,23.4,0,0,0,56.64,6.961,14.36,14.36,0,0,0,58.055,12.9H0Z" transform="translate(16.126 87.194)" fill="rgba(0,0,0,0.33)"/>
      <path id="Differenzmenge_21" data-name="Differenzmenge 21" d="M-1292.368-819H-1360a10.011,10.011,0,0,1-10-10v-73.87a16.026,16.026,0,0,1,4.723-11.405,16.019,16.019,0,0,1,11.4-4.724h59.668a4.844,4.844,0,0,1,4.838,4.839v64.516a4.843,4.843,0,0,1-4.838,4.838H-1350a4.034,4.034,0,0,0-3.87,4v4.9a4,4,0,0,0,4,4h60.506v9.9A3,3,0,0,1-1292.368-819Zm-41.176-76.409a1.426,1.426,0,0,1,1.022.412,1.278,1.278,0,0,1,.428.94,10,10,0,0,1-.329,1.948l-4.977,19.768c-.744,2.979-1.721,4.988-2.9,5.973a10.233,10.233,0,0,1-4.684,1.617l-.4,1.75a29.909,29.909,0,0,1,6.561-.76,36.324,36.324,0,0,1,4.286.33,49.882,49.882,0,0,0,5.011.363,17.289,17.289,0,0,0,4.352-.693l.4-1.848a16.478,16.478,0,0,1-5.172.924,19.408,19.408,0,0,1-4.48-.625c.545-1.68,1.044-3.41,1.482-5.143l2.654-10.271c1.129.066,1.936.1,2.466.1a22.287,22.287,0,0,0,9.323-1.914,15.151,15.151,0,0,0,6.348-5.033,11.125,11.125,0,0,0,2.154-6.353,8.068,8.068,0,0,0-1.534-4.72,10.156,10.156,0,0,0-4.621-3.433,21.312,21.312,0,0,0-7.9-1.254c-8.409,0-15.2,2.732-20.2,8.119A19.707,19.707,0,0,0-1350-881.549a11.8,11.8,0,0,0,1.824,6.765c1.209,1.774,2.481,2.674,3.779,2.674a1.794,1.794,0,0,0,1.259-.495,1.612,1.612,0,0,0,.531-1.221c0-.745-.544-1.522-1.617-2.31a9.031,9.031,0,0,1-2.706-3.019,8.1,8.1,0,0,1-.76-3.614,15.387,15.387,0,0,1,2.918-8.564,21.947,21.947,0,0,1,8.292-7.128,23.69,23.69,0,0,1,10.979-2.789c3.26,0,5.717.655,7.3,1.947a6.479,6.479,0,0,1,2.39,5.281,11.025,11.025,0,0,1-1.964,6.27,11.225,11.225,0,0,1-4.457,4.059,10.264,10.264,0,0,1-4.27,1.064c-.111,0-.224,0-.335-.008l-3.037-.165,2.495-9.294c.629-2.484,1.221-4.522,1.761-6.056a56.048,56.048,0,0,1-8.192,1.324l-.4,1.485A4.687,4.687,0,0,1-1333.544-895.41Z" transform="translate(1370 932)"/>
    </g>
  </g>
</svg>
